G04 EAGLE Gerber RS-274X export*
G75*
%MOMM*%
%FSLAX34Y34*%
%LPD*%
%INBoard Outline*%
%IPPOS*%
%AMOC8*
5,1,8,0,0,1.08239X$1,22.5*%
G01*
%ADD10C,0.000000*%
%ADD11C,0.254000*%


D10*
X0Y0D02*
X1088900Y0D01*
X1088900Y457100D01*
X0Y457100D01*
X0Y0D01*
X451100Y437400D02*
X451103Y437658D01*
X451113Y437915D01*
X451128Y438172D01*
X451151Y438429D01*
X451179Y438685D01*
X451214Y438941D01*
X451255Y439195D01*
X451302Y439448D01*
X451355Y439701D01*
X451415Y439951D01*
X451480Y440200D01*
X451552Y440448D01*
X451630Y440694D01*
X451714Y440937D01*
X451804Y441179D01*
X451899Y441418D01*
X452001Y441655D01*
X452108Y441889D01*
X452221Y442121D01*
X452340Y442350D01*
X452464Y442575D01*
X452594Y442798D01*
X452729Y443017D01*
X452870Y443233D01*
X453015Y443446D01*
X453166Y443655D01*
X453322Y443860D01*
X453483Y444061D01*
X453649Y444258D01*
X453820Y444451D01*
X453995Y444640D01*
X454175Y444825D01*
X454360Y445005D01*
X454549Y445180D01*
X454742Y445351D01*
X454939Y445517D01*
X455140Y445678D01*
X455345Y445834D01*
X455554Y445985D01*
X455767Y446130D01*
X455983Y446271D01*
X456202Y446406D01*
X456425Y446536D01*
X456650Y446660D01*
X456879Y446779D01*
X457111Y446892D01*
X457345Y446999D01*
X457582Y447101D01*
X457821Y447196D01*
X458063Y447286D01*
X458306Y447370D01*
X458552Y447448D01*
X458800Y447520D01*
X459049Y447585D01*
X459299Y447645D01*
X459552Y447698D01*
X459805Y447745D01*
X460059Y447786D01*
X460315Y447821D01*
X460571Y447849D01*
X460828Y447872D01*
X461085Y447887D01*
X461342Y447897D01*
X461600Y447900D01*
X461858Y447897D01*
X462115Y447887D01*
X462372Y447872D01*
X462629Y447849D01*
X462885Y447821D01*
X463141Y447786D01*
X463395Y447745D01*
X463648Y447698D01*
X463901Y447645D01*
X464151Y447585D01*
X464400Y447520D01*
X464648Y447448D01*
X464894Y447370D01*
X465137Y447286D01*
X465379Y447196D01*
X465618Y447101D01*
X465855Y446999D01*
X466089Y446892D01*
X466321Y446779D01*
X466550Y446660D01*
X466775Y446536D01*
X466998Y446406D01*
X467217Y446271D01*
X467433Y446130D01*
X467646Y445985D01*
X467855Y445834D01*
X468060Y445678D01*
X468261Y445517D01*
X468458Y445351D01*
X468651Y445180D01*
X468840Y445005D01*
X469025Y444825D01*
X469205Y444640D01*
X469380Y444451D01*
X469551Y444258D01*
X469717Y444061D01*
X469878Y443860D01*
X470034Y443655D01*
X470185Y443446D01*
X470330Y443233D01*
X470471Y443017D01*
X470606Y442798D01*
X470736Y442575D01*
X470860Y442350D01*
X470979Y442121D01*
X471092Y441889D01*
X471199Y441655D01*
X471301Y441418D01*
X471396Y441179D01*
X471486Y440937D01*
X471570Y440694D01*
X471648Y440448D01*
X471720Y440200D01*
X471785Y439951D01*
X471845Y439701D01*
X471898Y439448D01*
X471945Y439195D01*
X471986Y438941D01*
X472021Y438685D01*
X472049Y438429D01*
X472072Y438172D01*
X472087Y437915D01*
X472097Y437658D01*
X472100Y437400D01*
X472097Y437142D01*
X472087Y436885D01*
X472072Y436628D01*
X472049Y436371D01*
X472021Y436115D01*
X471986Y435859D01*
X471945Y435605D01*
X471898Y435352D01*
X471845Y435099D01*
X471785Y434849D01*
X471720Y434600D01*
X471648Y434352D01*
X471570Y434106D01*
X471486Y433863D01*
X471396Y433621D01*
X471301Y433382D01*
X471199Y433145D01*
X471092Y432911D01*
X470979Y432679D01*
X470860Y432450D01*
X470736Y432225D01*
X470606Y432002D01*
X470471Y431783D01*
X470330Y431567D01*
X470185Y431354D01*
X470034Y431145D01*
X469878Y430940D01*
X469717Y430739D01*
X469551Y430542D01*
X469380Y430349D01*
X469205Y430160D01*
X469025Y429975D01*
X468840Y429795D01*
X468651Y429620D01*
X468458Y429449D01*
X468261Y429283D01*
X468060Y429122D01*
X467855Y428966D01*
X467646Y428815D01*
X467433Y428670D01*
X467217Y428529D01*
X466998Y428394D01*
X466775Y428264D01*
X466550Y428140D01*
X466321Y428021D01*
X466089Y427908D01*
X465855Y427801D01*
X465618Y427699D01*
X465379Y427604D01*
X465137Y427514D01*
X464894Y427430D01*
X464648Y427352D01*
X464400Y427280D01*
X464151Y427215D01*
X463901Y427155D01*
X463648Y427102D01*
X463395Y427055D01*
X463141Y427014D01*
X462885Y426979D01*
X462629Y426951D01*
X462372Y426928D01*
X462115Y426913D01*
X461858Y426903D01*
X461600Y426900D01*
X461342Y426903D01*
X461085Y426913D01*
X460828Y426928D01*
X460571Y426951D01*
X460315Y426979D01*
X460059Y427014D01*
X459805Y427055D01*
X459552Y427102D01*
X459299Y427155D01*
X459049Y427215D01*
X458800Y427280D01*
X458552Y427352D01*
X458306Y427430D01*
X458063Y427514D01*
X457821Y427604D01*
X457582Y427699D01*
X457345Y427801D01*
X457111Y427908D01*
X456879Y428021D01*
X456650Y428140D01*
X456425Y428264D01*
X456202Y428394D01*
X455983Y428529D01*
X455767Y428670D01*
X455554Y428815D01*
X455345Y428966D01*
X455140Y429122D01*
X454939Y429283D01*
X454742Y429449D01*
X454549Y429620D01*
X454360Y429795D01*
X454175Y429975D01*
X453995Y430160D01*
X453820Y430349D01*
X453649Y430542D01*
X453483Y430739D01*
X453322Y430940D01*
X453166Y431145D01*
X453015Y431354D01*
X452870Y431567D01*
X452729Y431783D01*
X452594Y432002D01*
X452464Y432225D01*
X452340Y432450D01*
X452221Y432679D01*
X452108Y432911D01*
X452001Y433145D01*
X451899Y433382D01*
X451804Y433621D01*
X451714Y433863D01*
X451630Y434106D01*
X451552Y434352D01*
X451480Y434600D01*
X451415Y434849D01*
X451355Y435099D01*
X451302Y435352D01*
X451255Y435605D01*
X451214Y435859D01*
X451179Y436115D01*
X451151Y436371D01*
X451128Y436628D01*
X451113Y436885D01*
X451103Y437142D01*
X451100Y437400D01*
X366100Y437400D02*
X366103Y437658D01*
X366113Y437915D01*
X366128Y438172D01*
X366151Y438429D01*
X366179Y438685D01*
X366214Y438941D01*
X366255Y439195D01*
X366302Y439448D01*
X366355Y439701D01*
X366415Y439951D01*
X366480Y440200D01*
X366552Y440448D01*
X366630Y440694D01*
X366714Y440937D01*
X366804Y441179D01*
X366899Y441418D01*
X367001Y441655D01*
X367108Y441889D01*
X367221Y442121D01*
X367340Y442350D01*
X367464Y442575D01*
X367594Y442798D01*
X367729Y443017D01*
X367870Y443233D01*
X368015Y443446D01*
X368166Y443655D01*
X368322Y443860D01*
X368483Y444061D01*
X368649Y444258D01*
X368820Y444451D01*
X368995Y444640D01*
X369175Y444825D01*
X369360Y445005D01*
X369549Y445180D01*
X369742Y445351D01*
X369939Y445517D01*
X370140Y445678D01*
X370345Y445834D01*
X370554Y445985D01*
X370767Y446130D01*
X370983Y446271D01*
X371202Y446406D01*
X371425Y446536D01*
X371650Y446660D01*
X371879Y446779D01*
X372111Y446892D01*
X372345Y446999D01*
X372582Y447101D01*
X372821Y447196D01*
X373063Y447286D01*
X373306Y447370D01*
X373552Y447448D01*
X373800Y447520D01*
X374049Y447585D01*
X374299Y447645D01*
X374552Y447698D01*
X374805Y447745D01*
X375059Y447786D01*
X375315Y447821D01*
X375571Y447849D01*
X375828Y447872D01*
X376085Y447887D01*
X376342Y447897D01*
X376600Y447900D01*
X376858Y447897D01*
X377115Y447887D01*
X377372Y447872D01*
X377629Y447849D01*
X377885Y447821D01*
X378141Y447786D01*
X378395Y447745D01*
X378648Y447698D01*
X378901Y447645D01*
X379151Y447585D01*
X379400Y447520D01*
X379648Y447448D01*
X379894Y447370D01*
X380137Y447286D01*
X380379Y447196D01*
X380618Y447101D01*
X380855Y446999D01*
X381089Y446892D01*
X381321Y446779D01*
X381550Y446660D01*
X381775Y446536D01*
X381998Y446406D01*
X382217Y446271D01*
X382433Y446130D01*
X382646Y445985D01*
X382855Y445834D01*
X383060Y445678D01*
X383261Y445517D01*
X383458Y445351D01*
X383651Y445180D01*
X383840Y445005D01*
X384025Y444825D01*
X384205Y444640D01*
X384380Y444451D01*
X384551Y444258D01*
X384717Y444061D01*
X384878Y443860D01*
X385034Y443655D01*
X385185Y443446D01*
X385330Y443233D01*
X385471Y443017D01*
X385606Y442798D01*
X385736Y442575D01*
X385860Y442350D01*
X385979Y442121D01*
X386092Y441889D01*
X386199Y441655D01*
X386301Y441418D01*
X386396Y441179D01*
X386486Y440937D01*
X386570Y440694D01*
X386648Y440448D01*
X386720Y440200D01*
X386785Y439951D01*
X386845Y439701D01*
X386898Y439448D01*
X386945Y439195D01*
X386986Y438941D01*
X387021Y438685D01*
X387049Y438429D01*
X387072Y438172D01*
X387087Y437915D01*
X387097Y437658D01*
X387100Y437400D01*
X387097Y437142D01*
X387087Y436885D01*
X387072Y436628D01*
X387049Y436371D01*
X387021Y436115D01*
X386986Y435859D01*
X386945Y435605D01*
X386898Y435352D01*
X386845Y435099D01*
X386785Y434849D01*
X386720Y434600D01*
X386648Y434352D01*
X386570Y434106D01*
X386486Y433863D01*
X386396Y433621D01*
X386301Y433382D01*
X386199Y433145D01*
X386092Y432911D01*
X385979Y432679D01*
X385860Y432450D01*
X385736Y432225D01*
X385606Y432002D01*
X385471Y431783D01*
X385330Y431567D01*
X385185Y431354D01*
X385034Y431145D01*
X384878Y430940D01*
X384717Y430739D01*
X384551Y430542D01*
X384380Y430349D01*
X384205Y430160D01*
X384025Y429975D01*
X383840Y429795D01*
X383651Y429620D01*
X383458Y429449D01*
X383261Y429283D01*
X383060Y429122D01*
X382855Y428966D01*
X382646Y428815D01*
X382433Y428670D01*
X382217Y428529D01*
X381998Y428394D01*
X381775Y428264D01*
X381550Y428140D01*
X381321Y428021D01*
X381089Y427908D01*
X380855Y427801D01*
X380618Y427699D01*
X380379Y427604D01*
X380137Y427514D01*
X379894Y427430D01*
X379648Y427352D01*
X379400Y427280D01*
X379151Y427215D01*
X378901Y427155D01*
X378648Y427102D01*
X378395Y427055D01*
X378141Y427014D01*
X377885Y426979D01*
X377629Y426951D01*
X377372Y426928D01*
X377115Y426913D01*
X376858Y426903D01*
X376600Y426900D01*
X376342Y426903D01*
X376085Y426913D01*
X375828Y426928D01*
X375571Y426951D01*
X375315Y426979D01*
X375059Y427014D01*
X374805Y427055D01*
X374552Y427102D01*
X374299Y427155D01*
X374049Y427215D01*
X373800Y427280D01*
X373552Y427352D01*
X373306Y427430D01*
X373063Y427514D01*
X372821Y427604D01*
X372582Y427699D01*
X372345Y427801D01*
X372111Y427908D01*
X371879Y428021D01*
X371650Y428140D01*
X371425Y428264D01*
X371202Y428394D01*
X370983Y428529D01*
X370767Y428670D01*
X370554Y428815D01*
X370345Y428966D01*
X370140Y429122D01*
X369939Y429283D01*
X369742Y429449D01*
X369549Y429620D01*
X369360Y429795D01*
X369175Y429975D01*
X368995Y430160D01*
X368820Y430349D01*
X368649Y430542D01*
X368483Y430739D01*
X368322Y430940D01*
X368166Y431145D01*
X368015Y431354D01*
X367870Y431567D01*
X367729Y431783D01*
X367594Y432002D01*
X367464Y432225D01*
X367340Y432450D01*
X367221Y432679D01*
X367108Y432911D01*
X367001Y433145D01*
X366899Y433382D01*
X366804Y433621D01*
X366714Y433863D01*
X366630Y434106D01*
X366552Y434352D01*
X366480Y434600D01*
X366415Y434849D01*
X366355Y435099D01*
X366302Y435352D01*
X366255Y435605D01*
X366214Y435859D01*
X366179Y436115D01*
X366151Y436371D01*
X366128Y436628D01*
X366113Y436885D01*
X366103Y437142D01*
X366100Y437400D01*
X298700Y437400D02*
X298703Y437658D01*
X298713Y437915D01*
X298728Y438172D01*
X298751Y438429D01*
X298779Y438685D01*
X298814Y438941D01*
X298855Y439195D01*
X298902Y439448D01*
X298955Y439701D01*
X299015Y439951D01*
X299080Y440200D01*
X299152Y440448D01*
X299230Y440694D01*
X299314Y440937D01*
X299404Y441179D01*
X299499Y441418D01*
X299601Y441655D01*
X299708Y441889D01*
X299821Y442121D01*
X299940Y442350D01*
X300064Y442575D01*
X300194Y442798D01*
X300329Y443017D01*
X300470Y443233D01*
X300615Y443446D01*
X300766Y443655D01*
X300922Y443860D01*
X301083Y444061D01*
X301249Y444258D01*
X301420Y444451D01*
X301595Y444640D01*
X301775Y444825D01*
X301960Y445005D01*
X302149Y445180D01*
X302342Y445351D01*
X302539Y445517D01*
X302740Y445678D01*
X302945Y445834D01*
X303154Y445985D01*
X303367Y446130D01*
X303583Y446271D01*
X303802Y446406D01*
X304025Y446536D01*
X304250Y446660D01*
X304479Y446779D01*
X304711Y446892D01*
X304945Y446999D01*
X305182Y447101D01*
X305421Y447196D01*
X305663Y447286D01*
X305906Y447370D01*
X306152Y447448D01*
X306400Y447520D01*
X306649Y447585D01*
X306899Y447645D01*
X307152Y447698D01*
X307405Y447745D01*
X307659Y447786D01*
X307915Y447821D01*
X308171Y447849D01*
X308428Y447872D01*
X308685Y447887D01*
X308942Y447897D01*
X309200Y447900D01*
X309458Y447897D01*
X309715Y447887D01*
X309972Y447872D01*
X310229Y447849D01*
X310485Y447821D01*
X310741Y447786D01*
X310995Y447745D01*
X311248Y447698D01*
X311501Y447645D01*
X311751Y447585D01*
X312000Y447520D01*
X312248Y447448D01*
X312494Y447370D01*
X312737Y447286D01*
X312979Y447196D01*
X313218Y447101D01*
X313455Y446999D01*
X313689Y446892D01*
X313921Y446779D01*
X314150Y446660D01*
X314375Y446536D01*
X314598Y446406D01*
X314817Y446271D01*
X315033Y446130D01*
X315246Y445985D01*
X315455Y445834D01*
X315660Y445678D01*
X315861Y445517D01*
X316058Y445351D01*
X316251Y445180D01*
X316440Y445005D01*
X316625Y444825D01*
X316805Y444640D01*
X316980Y444451D01*
X317151Y444258D01*
X317317Y444061D01*
X317478Y443860D01*
X317634Y443655D01*
X317785Y443446D01*
X317930Y443233D01*
X318071Y443017D01*
X318206Y442798D01*
X318336Y442575D01*
X318460Y442350D01*
X318579Y442121D01*
X318692Y441889D01*
X318799Y441655D01*
X318901Y441418D01*
X318996Y441179D01*
X319086Y440937D01*
X319170Y440694D01*
X319248Y440448D01*
X319320Y440200D01*
X319385Y439951D01*
X319445Y439701D01*
X319498Y439448D01*
X319545Y439195D01*
X319586Y438941D01*
X319621Y438685D01*
X319649Y438429D01*
X319672Y438172D01*
X319687Y437915D01*
X319697Y437658D01*
X319700Y437400D01*
X319697Y437142D01*
X319687Y436885D01*
X319672Y436628D01*
X319649Y436371D01*
X319621Y436115D01*
X319586Y435859D01*
X319545Y435605D01*
X319498Y435352D01*
X319445Y435099D01*
X319385Y434849D01*
X319320Y434600D01*
X319248Y434352D01*
X319170Y434106D01*
X319086Y433863D01*
X318996Y433621D01*
X318901Y433382D01*
X318799Y433145D01*
X318692Y432911D01*
X318579Y432679D01*
X318460Y432450D01*
X318336Y432225D01*
X318206Y432002D01*
X318071Y431783D01*
X317930Y431567D01*
X317785Y431354D01*
X317634Y431145D01*
X317478Y430940D01*
X317317Y430739D01*
X317151Y430542D01*
X316980Y430349D01*
X316805Y430160D01*
X316625Y429975D01*
X316440Y429795D01*
X316251Y429620D01*
X316058Y429449D01*
X315861Y429283D01*
X315660Y429122D01*
X315455Y428966D01*
X315246Y428815D01*
X315033Y428670D01*
X314817Y428529D01*
X314598Y428394D01*
X314375Y428264D01*
X314150Y428140D01*
X313921Y428021D01*
X313689Y427908D01*
X313455Y427801D01*
X313218Y427699D01*
X312979Y427604D01*
X312737Y427514D01*
X312494Y427430D01*
X312248Y427352D01*
X312000Y427280D01*
X311751Y427215D01*
X311501Y427155D01*
X311248Y427102D01*
X310995Y427055D01*
X310741Y427014D01*
X310485Y426979D01*
X310229Y426951D01*
X309972Y426928D01*
X309715Y426913D01*
X309458Y426903D01*
X309200Y426900D01*
X308942Y426903D01*
X308685Y426913D01*
X308428Y426928D01*
X308171Y426951D01*
X307915Y426979D01*
X307659Y427014D01*
X307405Y427055D01*
X307152Y427102D01*
X306899Y427155D01*
X306649Y427215D01*
X306400Y427280D01*
X306152Y427352D01*
X305906Y427430D01*
X305663Y427514D01*
X305421Y427604D01*
X305182Y427699D01*
X304945Y427801D01*
X304711Y427908D01*
X304479Y428021D01*
X304250Y428140D01*
X304025Y428264D01*
X303802Y428394D01*
X303583Y428529D01*
X303367Y428670D01*
X303154Y428815D01*
X302945Y428966D01*
X302740Y429122D01*
X302539Y429283D01*
X302342Y429449D01*
X302149Y429620D01*
X301960Y429795D01*
X301775Y429975D01*
X301595Y430160D01*
X301420Y430349D01*
X301249Y430542D01*
X301083Y430739D01*
X300922Y430940D01*
X300766Y431145D01*
X300615Y431354D01*
X300470Y431567D01*
X300329Y431783D01*
X300194Y432002D01*
X300064Y432225D01*
X299940Y432450D01*
X299821Y432679D01*
X299708Y432911D01*
X299601Y433145D01*
X299499Y433382D01*
X299404Y433621D01*
X299314Y433863D01*
X299230Y434106D01*
X299152Y434352D01*
X299080Y434600D01*
X299015Y434849D01*
X298955Y435099D01*
X298902Y435352D01*
X298855Y435605D01*
X298814Y435859D01*
X298779Y436115D01*
X298751Y436371D01*
X298728Y436628D01*
X298713Y436885D01*
X298703Y437142D01*
X298700Y437400D01*
X213700Y437400D02*
X213703Y437658D01*
X213713Y437915D01*
X213728Y438172D01*
X213751Y438429D01*
X213779Y438685D01*
X213814Y438941D01*
X213855Y439195D01*
X213902Y439448D01*
X213955Y439701D01*
X214015Y439951D01*
X214080Y440200D01*
X214152Y440448D01*
X214230Y440694D01*
X214314Y440937D01*
X214404Y441179D01*
X214499Y441418D01*
X214601Y441655D01*
X214708Y441889D01*
X214821Y442121D01*
X214940Y442350D01*
X215064Y442575D01*
X215194Y442798D01*
X215329Y443017D01*
X215470Y443233D01*
X215615Y443446D01*
X215766Y443655D01*
X215922Y443860D01*
X216083Y444061D01*
X216249Y444258D01*
X216420Y444451D01*
X216595Y444640D01*
X216775Y444825D01*
X216960Y445005D01*
X217149Y445180D01*
X217342Y445351D01*
X217539Y445517D01*
X217740Y445678D01*
X217945Y445834D01*
X218154Y445985D01*
X218367Y446130D01*
X218583Y446271D01*
X218802Y446406D01*
X219025Y446536D01*
X219250Y446660D01*
X219479Y446779D01*
X219711Y446892D01*
X219945Y446999D01*
X220182Y447101D01*
X220421Y447196D01*
X220663Y447286D01*
X220906Y447370D01*
X221152Y447448D01*
X221400Y447520D01*
X221649Y447585D01*
X221899Y447645D01*
X222152Y447698D01*
X222405Y447745D01*
X222659Y447786D01*
X222915Y447821D01*
X223171Y447849D01*
X223428Y447872D01*
X223685Y447887D01*
X223942Y447897D01*
X224200Y447900D01*
X224458Y447897D01*
X224715Y447887D01*
X224972Y447872D01*
X225229Y447849D01*
X225485Y447821D01*
X225741Y447786D01*
X225995Y447745D01*
X226248Y447698D01*
X226501Y447645D01*
X226751Y447585D01*
X227000Y447520D01*
X227248Y447448D01*
X227494Y447370D01*
X227737Y447286D01*
X227979Y447196D01*
X228218Y447101D01*
X228455Y446999D01*
X228689Y446892D01*
X228921Y446779D01*
X229150Y446660D01*
X229375Y446536D01*
X229598Y446406D01*
X229817Y446271D01*
X230033Y446130D01*
X230246Y445985D01*
X230455Y445834D01*
X230660Y445678D01*
X230861Y445517D01*
X231058Y445351D01*
X231251Y445180D01*
X231440Y445005D01*
X231625Y444825D01*
X231805Y444640D01*
X231980Y444451D01*
X232151Y444258D01*
X232317Y444061D01*
X232478Y443860D01*
X232634Y443655D01*
X232785Y443446D01*
X232930Y443233D01*
X233071Y443017D01*
X233206Y442798D01*
X233336Y442575D01*
X233460Y442350D01*
X233579Y442121D01*
X233692Y441889D01*
X233799Y441655D01*
X233901Y441418D01*
X233996Y441179D01*
X234086Y440937D01*
X234170Y440694D01*
X234248Y440448D01*
X234320Y440200D01*
X234385Y439951D01*
X234445Y439701D01*
X234498Y439448D01*
X234545Y439195D01*
X234586Y438941D01*
X234621Y438685D01*
X234649Y438429D01*
X234672Y438172D01*
X234687Y437915D01*
X234697Y437658D01*
X234700Y437400D01*
X234697Y437142D01*
X234687Y436885D01*
X234672Y436628D01*
X234649Y436371D01*
X234621Y436115D01*
X234586Y435859D01*
X234545Y435605D01*
X234498Y435352D01*
X234445Y435099D01*
X234385Y434849D01*
X234320Y434600D01*
X234248Y434352D01*
X234170Y434106D01*
X234086Y433863D01*
X233996Y433621D01*
X233901Y433382D01*
X233799Y433145D01*
X233692Y432911D01*
X233579Y432679D01*
X233460Y432450D01*
X233336Y432225D01*
X233206Y432002D01*
X233071Y431783D01*
X232930Y431567D01*
X232785Y431354D01*
X232634Y431145D01*
X232478Y430940D01*
X232317Y430739D01*
X232151Y430542D01*
X231980Y430349D01*
X231805Y430160D01*
X231625Y429975D01*
X231440Y429795D01*
X231251Y429620D01*
X231058Y429449D01*
X230861Y429283D01*
X230660Y429122D01*
X230455Y428966D01*
X230246Y428815D01*
X230033Y428670D01*
X229817Y428529D01*
X229598Y428394D01*
X229375Y428264D01*
X229150Y428140D01*
X228921Y428021D01*
X228689Y427908D01*
X228455Y427801D01*
X228218Y427699D01*
X227979Y427604D01*
X227737Y427514D01*
X227494Y427430D01*
X227248Y427352D01*
X227000Y427280D01*
X226751Y427215D01*
X226501Y427155D01*
X226248Y427102D01*
X225995Y427055D01*
X225741Y427014D01*
X225485Y426979D01*
X225229Y426951D01*
X224972Y426928D01*
X224715Y426913D01*
X224458Y426903D01*
X224200Y426900D01*
X223942Y426903D01*
X223685Y426913D01*
X223428Y426928D01*
X223171Y426951D01*
X222915Y426979D01*
X222659Y427014D01*
X222405Y427055D01*
X222152Y427102D01*
X221899Y427155D01*
X221649Y427215D01*
X221400Y427280D01*
X221152Y427352D01*
X220906Y427430D01*
X220663Y427514D01*
X220421Y427604D01*
X220182Y427699D01*
X219945Y427801D01*
X219711Y427908D01*
X219479Y428021D01*
X219250Y428140D01*
X219025Y428264D01*
X218802Y428394D01*
X218583Y428529D01*
X218367Y428670D01*
X218154Y428815D01*
X217945Y428966D01*
X217740Y429122D01*
X217539Y429283D01*
X217342Y429449D01*
X217149Y429620D01*
X216960Y429795D01*
X216775Y429975D01*
X216595Y430160D01*
X216420Y430349D01*
X216249Y430542D01*
X216083Y430739D01*
X215922Y430940D01*
X215766Y431145D01*
X215615Y431354D01*
X215470Y431567D01*
X215329Y431783D01*
X215194Y432002D01*
X215064Y432225D01*
X214940Y432450D01*
X214821Y432679D01*
X214708Y432911D01*
X214601Y433145D01*
X214499Y433382D01*
X214404Y433621D01*
X214314Y433863D01*
X214230Y434106D01*
X214152Y434352D01*
X214080Y434600D01*
X214015Y434849D01*
X213955Y435099D01*
X213902Y435352D01*
X213855Y435605D01*
X213814Y435859D01*
X213779Y436115D01*
X213751Y436371D01*
X213728Y436628D01*
X213713Y436885D01*
X213703Y437142D01*
X213700Y437400D01*
X146300Y437400D02*
X146303Y437658D01*
X146313Y437915D01*
X146328Y438172D01*
X146351Y438429D01*
X146379Y438685D01*
X146414Y438941D01*
X146455Y439195D01*
X146502Y439448D01*
X146555Y439701D01*
X146615Y439951D01*
X146680Y440200D01*
X146752Y440448D01*
X146830Y440694D01*
X146914Y440937D01*
X147004Y441179D01*
X147099Y441418D01*
X147201Y441655D01*
X147308Y441889D01*
X147421Y442121D01*
X147540Y442350D01*
X147664Y442575D01*
X147794Y442798D01*
X147929Y443017D01*
X148070Y443233D01*
X148215Y443446D01*
X148366Y443655D01*
X148522Y443860D01*
X148683Y444061D01*
X148849Y444258D01*
X149020Y444451D01*
X149195Y444640D01*
X149375Y444825D01*
X149560Y445005D01*
X149749Y445180D01*
X149942Y445351D01*
X150139Y445517D01*
X150340Y445678D01*
X150545Y445834D01*
X150754Y445985D01*
X150967Y446130D01*
X151183Y446271D01*
X151402Y446406D01*
X151625Y446536D01*
X151850Y446660D01*
X152079Y446779D01*
X152311Y446892D01*
X152545Y446999D01*
X152782Y447101D01*
X153021Y447196D01*
X153263Y447286D01*
X153506Y447370D01*
X153752Y447448D01*
X154000Y447520D01*
X154249Y447585D01*
X154499Y447645D01*
X154752Y447698D01*
X155005Y447745D01*
X155259Y447786D01*
X155515Y447821D01*
X155771Y447849D01*
X156028Y447872D01*
X156285Y447887D01*
X156542Y447897D01*
X156800Y447900D01*
X157058Y447897D01*
X157315Y447887D01*
X157572Y447872D01*
X157829Y447849D01*
X158085Y447821D01*
X158341Y447786D01*
X158595Y447745D01*
X158848Y447698D01*
X159101Y447645D01*
X159351Y447585D01*
X159600Y447520D01*
X159848Y447448D01*
X160094Y447370D01*
X160337Y447286D01*
X160579Y447196D01*
X160818Y447101D01*
X161055Y446999D01*
X161289Y446892D01*
X161521Y446779D01*
X161750Y446660D01*
X161975Y446536D01*
X162198Y446406D01*
X162417Y446271D01*
X162633Y446130D01*
X162846Y445985D01*
X163055Y445834D01*
X163260Y445678D01*
X163461Y445517D01*
X163658Y445351D01*
X163851Y445180D01*
X164040Y445005D01*
X164225Y444825D01*
X164405Y444640D01*
X164580Y444451D01*
X164751Y444258D01*
X164917Y444061D01*
X165078Y443860D01*
X165234Y443655D01*
X165385Y443446D01*
X165530Y443233D01*
X165671Y443017D01*
X165806Y442798D01*
X165936Y442575D01*
X166060Y442350D01*
X166179Y442121D01*
X166292Y441889D01*
X166399Y441655D01*
X166501Y441418D01*
X166596Y441179D01*
X166686Y440937D01*
X166770Y440694D01*
X166848Y440448D01*
X166920Y440200D01*
X166985Y439951D01*
X167045Y439701D01*
X167098Y439448D01*
X167145Y439195D01*
X167186Y438941D01*
X167221Y438685D01*
X167249Y438429D01*
X167272Y438172D01*
X167287Y437915D01*
X167297Y437658D01*
X167300Y437400D01*
X167297Y437142D01*
X167287Y436885D01*
X167272Y436628D01*
X167249Y436371D01*
X167221Y436115D01*
X167186Y435859D01*
X167145Y435605D01*
X167098Y435352D01*
X167045Y435099D01*
X166985Y434849D01*
X166920Y434600D01*
X166848Y434352D01*
X166770Y434106D01*
X166686Y433863D01*
X166596Y433621D01*
X166501Y433382D01*
X166399Y433145D01*
X166292Y432911D01*
X166179Y432679D01*
X166060Y432450D01*
X165936Y432225D01*
X165806Y432002D01*
X165671Y431783D01*
X165530Y431567D01*
X165385Y431354D01*
X165234Y431145D01*
X165078Y430940D01*
X164917Y430739D01*
X164751Y430542D01*
X164580Y430349D01*
X164405Y430160D01*
X164225Y429975D01*
X164040Y429795D01*
X163851Y429620D01*
X163658Y429449D01*
X163461Y429283D01*
X163260Y429122D01*
X163055Y428966D01*
X162846Y428815D01*
X162633Y428670D01*
X162417Y428529D01*
X162198Y428394D01*
X161975Y428264D01*
X161750Y428140D01*
X161521Y428021D01*
X161289Y427908D01*
X161055Y427801D01*
X160818Y427699D01*
X160579Y427604D01*
X160337Y427514D01*
X160094Y427430D01*
X159848Y427352D01*
X159600Y427280D01*
X159351Y427215D01*
X159101Y427155D01*
X158848Y427102D01*
X158595Y427055D01*
X158341Y427014D01*
X158085Y426979D01*
X157829Y426951D01*
X157572Y426928D01*
X157315Y426913D01*
X157058Y426903D01*
X156800Y426900D01*
X156542Y426903D01*
X156285Y426913D01*
X156028Y426928D01*
X155771Y426951D01*
X155515Y426979D01*
X155259Y427014D01*
X155005Y427055D01*
X154752Y427102D01*
X154499Y427155D01*
X154249Y427215D01*
X154000Y427280D01*
X153752Y427352D01*
X153506Y427430D01*
X153263Y427514D01*
X153021Y427604D01*
X152782Y427699D01*
X152545Y427801D01*
X152311Y427908D01*
X152079Y428021D01*
X151850Y428140D01*
X151625Y428264D01*
X151402Y428394D01*
X151183Y428529D01*
X150967Y428670D01*
X150754Y428815D01*
X150545Y428966D01*
X150340Y429122D01*
X150139Y429283D01*
X149942Y429449D01*
X149749Y429620D01*
X149560Y429795D01*
X149375Y429975D01*
X149195Y430160D01*
X149020Y430349D01*
X148849Y430542D01*
X148683Y430739D01*
X148522Y430940D01*
X148366Y431145D01*
X148215Y431354D01*
X148070Y431567D01*
X147929Y431783D01*
X147794Y432002D01*
X147664Y432225D01*
X147540Y432450D01*
X147421Y432679D01*
X147308Y432911D01*
X147201Y433145D01*
X147099Y433382D01*
X147004Y433621D01*
X146914Y433863D01*
X146830Y434106D01*
X146752Y434352D01*
X146680Y434600D01*
X146615Y434849D01*
X146555Y435099D01*
X146502Y435352D01*
X146455Y435605D01*
X146414Y435859D01*
X146379Y436115D01*
X146351Y436371D01*
X146328Y436628D01*
X146313Y436885D01*
X146303Y437142D01*
X146300Y437400D01*
X61300Y437400D02*
X61303Y437658D01*
X61313Y437915D01*
X61328Y438172D01*
X61351Y438429D01*
X61379Y438685D01*
X61414Y438941D01*
X61455Y439195D01*
X61502Y439448D01*
X61555Y439701D01*
X61615Y439951D01*
X61680Y440200D01*
X61752Y440448D01*
X61830Y440694D01*
X61914Y440937D01*
X62004Y441179D01*
X62099Y441418D01*
X62201Y441655D01*
X62308Y441889D01*
X62421Y442121D01*
X62540Y442350D01*
X62664Y442575D01*
X62794Y442798D01*
X62929Y443017D01*
X63070Y443233D01*
X63215Y443446D01*
X63366Y443655D01*
X63522Y443860D01*
X63683Y444061D01*
X63849Y444258D01*
X64020Y444451D01*
X64195Y444640D01*
X64375Y444825D01*
X64560Y445005D01*
X64749Y445180D01*
X64942Y445351D01*
X65139Y445517D01*
X65340Y445678D01*
X65545Y445834D01*
X65754Y445985D01*
X65967Y446130D01*
X66183Y446271D01*
X66402Y446406D01*
X66625Y446536D01*
X66850Y446660D01*
X67079Y446779D01*
X67311Y446892D01*
X67545Y446999D01*
X67782Y447101D01*
X68021Y447196D01*
X68263Y447286D01*
X68506Y447370D01*
X68752Y447448D01*
X69000Y447520D01*
X69249Y447585D01*
X69499Y447645D01*
X69752Y447698D01*
X70005Y447745D01*
X70259Y447786D01*
X70515Y447821D01*
X70771Y447849D01*
X71028Y447872D01*
X71285Y447887D01*
X71542Y447897D01*
X71800Y447900D01*
X72058Y447897D01*
X72315Y447887D01*
X72572Y447872D01*
X72829Y447849D01*
X73085Y447821D01*
X73341Y447786D01*
X73595Y447745D01*
X73848Y447698D01*
X74101Y447645D01*
X74351Y447585D01*
X74600Y447520D01*
X74848Y447448D01*
X75094Y447370D01*
X75337Y447286D01*
X75579Y447196D01*
X75818Y447101D01*
X76055Y446999D01*
X76289Y446892D01*
X76521Y446779D01*
X76750Y446660D01*
X76975Y446536D01*
X77198Y446406D01*
X77417Y446271D01*
X77633Y446130D01*
X77846Y445985D01*
X78055Y445834D01*
X78260Y445678D01*
X78461Y445517D01*
X78658Y445351D01*
X78851Y445180D01*
X79040Y445005D01*
X79225Y444825D01*
X79405Y444640D01*
X79580Y444451D01*
X79751Y444258D01*
X79917Y444061D01*
X80078Y443860D01*
X80234Y443655D01*
X80385Y443446D01*
X80530Y443233D01*
X80671Y443017D01*
X80806Y442798D01*
X80936Y442575D01*
X81060Y442350D01*
X81179Y442121D01*
X81292Y441889D01*
X81399Y441655D01*
X81501Y441418D01*
X81596Y441179D01*
X81686Y440937D01*
X81770Y440694D01*
X81848Y440448D01*
X81920Y440200D01*
X81985Y439951D01*
X82045Y439701D01*
X82098Y439448D01*
X82145Y439195D01*
X82186Y438941D01*
X82221Y438685D01*
X82249Y438429D01*
X82272Y438172D01*
X82287Y437915D01*
X82297Y437658D01*
X82300Y437400D01*
X82297Y437142D01*
X82287Y436885D01*
X82272Y436628D01*
X82249Y436371D01*
X82221Y436115D01*
X82186Y435859D01*
X82145Y435605D01*
X82098Y435352D01*
X82045Y435099D01*
X81985Y434849D01*
X81920Y434600D01*
X81848Y434352D01*
X81770Y434106D01*
X81686Y433863D01*
X81596Y433621D01*
X81501Y433382D01*
X81399Y433145D01*
X81292Y432911D01*
X81179Y432679D01*
X81060Y432450D01*
X80936Y432225D01*
X80806Y432002D01*
X80671Y431783D01*
X80530Y431567D01*
X80385Y431354D01*
X80234Y431145D01*
X80078Y430940D01*
X79917Y430739D01*
X79751Y430542D01*
X79580Y430349D01*
X79405Y430160D01*
X79225Y429975D01*
X79040Y429795D01*
X78851Y429620D01*
X78658Y429449D01*
X78461Y429283D01*
X78260Y429122D01*
X78055Y428966D01*
X77846Y428815D01*
X77633Y428670D01*
X77417Y428529D01*
X77198Y428394D01*
X76975Y428264D01*
X76750Y428140D01*
X76521Y428021D01*
X76289Y427908D01*
X76055Y427801D01*
X75818Y427699D01*
X75579Y427604D01*
X75337Y427514D01*
X75094Y427430D01*
X74848Y427352D01*
X74600Y427280D01*
X74351Y427215D01*
X74101Y427155D01*
X73848Y427102D01*
X73595Y427055D01*
X73341Y427014D01*
X73085Y426979D01*
X72829Y426951D01*
X72572Y426928D01*
X72315Y426913D01*
X72058Y426903D01*
X71800Y426900D01*
X71542Y426903D01*
X71285Y426913D01*
X71028Y426928D01*
X70771Y426951D01*
X70515Y426979D01*
X70259Y427014D01*
X70005Y427055D01*
X69752Y427102D01*
X69499Y427155D01*
X69249Y427215D01*
X69000Y427280D01*
X68752Y427352D01*
X68506Y427430D01*
X68263Y427514D01*
X68021Y427604D01*
X67782Y427699D01*
X67545Y427801D01*
X67311Y427908D01*
X67079Y428021D01*
X66850Y428140D01*
X66625Y428264D01*
X66402Y428394D01*
X66183Y428529D01*
X65967Y428670D01*
X65754Y428815D01*
X65545Y428966D01*
X65340Y429122D01*
X65139Y429283D01*
X64942Y429449D01*
X64749Y429620D01*
X64560Y429795D01*
X64375Y429975D01*
X64195Y430160D01*
X64020Y430349D01*
X63849Y430542D01*
X63683Y430739D01*
X63522Y430940D01*
X63366Y431145D01*
X63215Y431354D01*
X63070Y431567D01*
X62929Y431783D01*
X62794Y432002D01*
X62664Y432225D01*
X62540Y432450D01*
X62421Y432679D01*
X62308Y432911D01*
X62201Y433145D01*
X62099Y433382D01*
X62004Y433621D01*
X61914Y433863D01*
X61830Y434106D01*
X61752Y434352D01*
X61680Y434600D01*
X61615Y434849D01*
X61555Y435099D01*
X61502Y435352D01*
X61455Y435605D01*
X61414Y435859D01*
X61379Y436115D01*
X61351Y436371D01*
X61328Y436628D01*
X61313Y436885D01*
X61303Y437142D01*
X61300Y437400D01*
X16764Y50800D02*
X16769Y51236D01*
X16785Y51672D01*
X16812Y52108D01*
X16850Y52543D01*
X16898Y52976D01*
X16956Y53409D01*
X17026Y53840D01*
X17106Y54269D01*
X17196Y54696D01*
X17297Y55120D01*
X17408Y55542D01*
X17530Y55961D01*
X17661Y56377D01*
X17803Y56790D01*
X17955Y57199D01*
X18117Y57604D01*
X18289Y58005D01*
X18471Y58402D01*
X18662Y58794D01*
X18863Y59181D01*
X19074Y59564D01*
X19294Y59941D01*
X19523Y60312D01*
X19760Y60678D01*
X20007Y61038D01*
X20263Y61392D01*
X20527Y61739D01*
X20800Y62080D01*
X21081Y62413D01*
X21370Y62740D01*
X21667Y63060D01*
X21972Y63372D01*
X22284Y63677D01*
X22604Y63974D01*
X22931Y64263D01*
X23264Y64544D01*
X23605Y64817D01*
X23952Y65081D01*
X24306Y65337D01*
X24666Y65584D01*
X25032Y65821D01*
X25403Y66050D01*
X25780Y66270D01*
X26163Y66481D01*
X26550Y66682D01*
X26942Y66873D01*
X27339Y67055D01*
X27740Y67227D01*
X28145Y67389D01*
X28554Y67541D01*
X28967Y67683D01*
X29383Y67814D01*
X29802Y67936D01*
X30224Y68047D01*
X30648Y68148D01*
X31075Y68238D01*
X31504Y68318D01*
X31935Y68388D01*
X32368Y68446D01*
X32801Y68494D01*
X33236Y68532D01*
X33672Y68559D01*
X34108Y68575D01*
X34544Y68580D01*
X34980Y68575D01*
X35416Y68559D01*
X35852Y68532D01*
X36287Y68494D01*
X36720Y68446D01*
X37153Y68388D01*
X37584Y68318D01*
X38013Y68238D01*
X38440Y68148D01*
X38864Y68047D01*
X39286Y67936D01*
X39705Y67814D01*
X40121Y67683D01*
X40534Y67541D01*
X40943Y67389D01*
X41348Y67227D01*
X41749Y67055D01*
X42146Y66873D01*
X42538Y66682D01*
X42925Y66481D01*
X43308Y66270D01*
X43685Y66050D01*
X44056Y65821D01*
X44422Y65584D01*
X44782Y65337D01*
X45136Y65081D01*
X45483Y64817D01*
X45824Y64544D01*
X46157Y64263D01*
X46484Y63974D01*
X46804Y63677D01*
X47116Y63372D01*
X47421Y63060D01*
X47718Y62740D01*
X48007Y62413D01*
X48288Y62080D01*
X48561Y61739D01*
X48825Y61392D01*
X49081Y61038D01*
X49328Y60678D01*
X49565Y60312D01*
X49794Y59941D01*
X50014Y59564D01*
X50225Y59181D01*
X50426Y58794D01*
X50617Y58402D01*
X50799Y58005D01*
X50971Y57604D01*
X51133Y57199D01*
X51285Y56790D01*
X51427Y56377D01*
X51558Y55961D01*
X51680Y55542D01*
X51791Y55120D01*
X51892Y54696D01*
X51982Y54269D01*
X52062Y53840D01*
X52132Y53409D01*
X52190Y52976D01*
X52238Y52543D01*
X52276Y52108D01*
X52303Y51672D01*
X52319Y51236D01*
X52324Y50800D01*
X52319Y50364D01*
X52303Y49928D01*
X52276Y49492D01*
X52238Y49057D01*
X52190Y48624D01*
X52132Y48191D01*
X52062Y47760D01*
X51982Y47331D01*
X51892Y46904D01*
X51791Y46480D01*
X51680Y46058D01*
X51558Y45639D01*
X51427Y45223D01*
X51285Y44810D01*
X51133Y44401D01*
X50971Y43996D01*
X50799Y43595D01*
X50617Y43198D01*
X50426Y42806D01*
X50225Y42419D01*
X50014Y42036D01*
X49794Y41659D01*
X49565Y41288D01*
X49328Y40922D01*
X49081Y40562D01*
X48825Y40208D01*
X48561Y39861D01*
X48288Y39520D01*
X48007Y39187D01*
X47718Y38860D01*
X47421Y38540D01*
X47116Y38228D01*
X46804Y37923D01*
X46484Y37626D01*
X46157Y37337D01*
X45824Y37056D01*
X45483Y36783D01*
X45136Y36519D01*
X44782Y36263D01*
X44422Y36016D01*
X44056Y35779D01*
X43685Y35550D01*
X43308Y35330D01*
X42925Y35119D01*
X42538Y34918D01*
X42146Y34727D01*
X41749Y34545D01*
X41348Y34373D01*
X40943Y34211D01*
X40534Y34059D01*
X40121Y33917D01*
X39705Y33786D01*
X39286Y33664D01*
X38864Y33553D01*
X38440Y33452D01*
X38013Y33362D01*
X37584Y33282D01*
X37153Y33212D01*
X36720Y33154D01*
X36287Y33106D01*
X35852Y33068D01*
X35416Y33041D01*
X34980Y33025D01*
X34544Y33020D01*
X34108Y33025D01*
X33672Y33041D01*
X33236Y33068D01*
X32801Y33106D01*
X32368Y33154D01*
X31935Y33212D01*
X31504Y33282D01*
X31075Y33362D01*
X30648Y33452D01*
X30224Y33553D01*
X29802Y33664D01*
X29383Y33786D01*
X28967Y33917D01*
X28554Y34059D01*
X28145Y34211D01*
X27740Y34373D01*
X27339Y34545D01*
X26942Y34727D01*
X26550Y34918D01*
X26163Y35119D01*
X25780Y35330D01*
X25403Y35550D01*
X25032Y35779D01*
X24666Y36016D01*
X24306Y36263D01*
X23952Y36519D01*
X23605Y36783D01*
X23264Y37056D01*
X22931Y37337D01*
X22604Y37626D01*
X22284Y37923D01*
X21972Y38228D01*
X21667Y38540D01*
X21370Y38860D01*
X21081Y39187D01*
X20800Y39520D01*
X20527Y39861D01*
X20263Y40208D01*
X20007Y40562D01*
X19760Y40922D01*
X19523Y41288D01*
X19294Y41659D01*
X19074Y42036D01*
X18863Y42419D01*
X18662Y42806D01*
X18471Y43198D01*
X18289Y43595D01*
X18117Y43996D01*
X17955Y44401D01*
X17803Y44810D01*
X17661Y45223D01*
X17530Y45639D01*
X17408Y46058D01*
X17297Y46480D01*
X17196Y46904D01*
X17106Y47331D01*
X17026Y47760D01*
X16956Y48191D01*
X16898Y48624D01*
X16850Y49057D01*
X16812Y49492D01*
X16785Y49928D01*
X16769Y50364D01*
X16764Y50800D01*
X1039876Y50800D02*
X1039881Y51236D01*
X1039897Y51672D01*
X1039924Y52108D01*
X1039962Y52543D01*
X1040010Y52976D01*
X1040068Y53409D01*
X1040138Y53840D01*
X1040218Y54269D01*
X1040308Y54696D01*
X1040409Y55120D01*
X1040520Y55542D01*
X1040642Y55961D01*
X1040773Y56377D01*
X1040915Y56790D01*
X1041067Y57199D01*
X1041229Y57604D01*
X1041401Y58005D01*
X1041583Y58402D01*
X1041774Y58794D01*
X1041975Y59181D01*
X1042186Y59564D01*
X1042406Y59941D01*
X1042635Y60312D01*
X1042872Y60678D01*
X1043119Y61038D01*
X1043375Y61392D01*
X1043639Y61739D01*
X1043912Y62080D01*
X1044193Y62413D01*
X1044482Y62740D01*
X1044779Y63060D01*
X1045084Y63372D01*
X1045396Y63677D01*
X1045716Y63974D01*
X1046043Y64263D01*
X1046376Y64544D01*
X1046717Y64817D01*
X1047064Y65081D01*
X1047418Y65337D01*
X1047778Y65584D01*
X1048144Y65821D01*
X1048515Y66050D01*
X1048892Y66270D01*
X1049275Y66481D01*
X1049662Y66682D01*
X1050054Y66873D01*
X1050451Y67055D01*
X1050852Y67227D01*
X1051257Y67389D01*
X1051666Y67541D01*
X1052079Y67683D01*
X1052495Y67814D01*
X1052914Y67936D01*
X1053336Y68047D01*
X1053760Y68148D01*
X1054187Y68238D01*
X1054616Y68318D01*
X1055047Y68388D01*
X1055480Y68446D01*
X1055913Y68494D01*
X1056348Y68532D01*
X1056784Y68559D01*
X1057220Y68575D01*
X1057656Y68580D01*
X1058092Y68575D01*
X1058528Y68559D01*
X1058964Y68532D01*
X1059399Y68494D01*
X1059832Y68446D01*
X1060265Y68388D01*
X1060696Y68318D01*
X1061125Y68238D01*
X1061552Y68148D01*
X1061976Y68047D01*
X1062398Y67936D01*
X1062817Y67814D01*
X1063233Y67683D01*
X1063646Y67541D01*
X1064055Y67389D01*
X1064460Y67227D01*
X1064861Y67055D01*
X1065258Y66873D01*
X1065650Y66682D01*
X1066037Y66481D01*
X1066420Y66270D01*
X1066797Y66050D01*
X1067168Y65821D01*
X1067534Y65584D01*
X1067894Y65337D01*
X1068248Y65081D01*
X1068595Y64817D01*
X1068936Y64544D01*
X1069269Y64263D01*
X1069596Y63974D01*
X1069916Y63677D01*
X1070228Y63372D01*
X1070533Y63060D01*
X1070830Y62740D01*
X1071119Y62413D01*
X1071400Y62080D01*
X1071673Y61739D01*
X1071937Y61392D01*
X1072193Y61038D01*
X1072440Y60678D01*
X1072677Y60312D01*
X1072906Y59941D01*
X1073126Y59564D01*
X1073337Y59181D01*
X1073538Y58794D01*
X1073729Y58402D01*
X1073911Y58005D01*
X1074083Y57604D01*
X1074245Y57199D01*
X1074397Y56790D01*
X1074539Y56377D01*
X1074670Y55961D01*
X1074792Y55542D01*
X1074903Y55120D01*
X1075004Y54696D01*
X1075094Y54269D01*
X1075174Y53840D01*
X1075244Y53409D01*
X1075302Y52976D01*
X1075350Y52543D01*
X1075388Y52108D01*
X1075415Y51672D01*
X1075431Y51236D01*
X1075436Y50800D01*
X1075431Y50364D01*
X1075415Y49928D01*
X1075388Y49492D01*
X1075350Y49057D01*
X1075302Y48624D01*
X1075244Y48191D01*
X1075174Y47760D01*
X1075094Y47331D01*
X1075004Y46904D01*
X1074903Y46480D01*
X1074792Y46058D01*
X1074670Y45639D01*
X1074539Y45223D01*
X1074397Y44810D01*
X1074245Y44401D01*
X1074083Y43996D01*
X1073911Y43595D01*
X1073729Y43198D01*
X1073538Y42806D01*
X1073337Y42419D01*
X1073126Y42036D01*
X1072906Y41659D01*
X1072677Y41288D01*
X1072440Y40922D01*
X1072193Y40562D01*
X1071937Y40208D01*
X1071673Y39861D01*
X1071400Y39520D01*
X1071119Y39187D01*
X1070830Y38860D01*
X1070533Y38540D01*
X1070228Y38228D01*
X1069916Y37923D01*
X1069596Y37626D01*
X1069269Y37337D01*
X1068936Y37056D01*
X1068595Y36783D01*
X1068248Y36519D01*
X1067894Y36263D01*
X1067534Y36016D01*
X1067168Y35779D01*
X1066797Y35550D01*
X1066420Y35330D01*
X1066037Y35119D01*
X1065650Y34918D01*
X1065258Y34727D01*
X1064861Y34545D01*
X1064460Y34373D01*
X1064055Y34211D01*
X1063646Y34059D01*
X1063233Y33917D01*
X1062817Y33786D01*
X1062398Y33664D01*
X1061976Y33553D01*
X1061552Y33452D01*
X1061125Y33362D01*
X1060696Y33282D01*
X1060265Y33212D01*
X1059832Y33154D01*
X1059399Y33106D01*
X1058964Y33068D01*
X1058528Y33041D01*
X1058092Y33025D01*
X1057656Y33020D01*
X1057220Y33025D01*
X1056784Y33041D01*
X1056348Y33068D01*
X1055913Y33106D01*
X1055480Y33154D01*
X1055047Y33212D01*
X1054616Y33282D01*
X1054187Y33362D01*
X1053760Y33452D01*
X1053336Y33553D01*
X1052914Y33664D01*
X1052495Y33786D01*
X1052079Y33917D01*
X1051666Y34059D01*
X1051257Y34211D01*
X1050852Y34373D01*
X1050451Y34545D01*
X1050054Y34727D01*
X1049662Y34918D01*
X1049275Y35119D01*
X1048892Y35330D01*
X1048515Y35550D01*
X1048144Y35779D01*
X1047778Y36016D01*
X1047418Y36263D01*
X1047064Y36519D01*
X1046717Y36783D01*
X1046376Y37056D01*
X1046043Y37337D01*
X1045716Y37626D01*
X1045396Y37923D01*
X1045084Y38228D01*
X1044779Y38540D01*
X1044482Y38860D01*
X1044193Y39187D01*
X1043912Y39520D01*
X1043639Y39861D01*
X1043375Y40208D01*
X1043119Y40562D01*
X1042872Y40922D01*
X1042635Y41288D01*
X1042406Y41659D01*
X1042186Y42036D01*
X1041975Y42419D01*
X1041774Y42806D01*
X1041583Y43198D01*
X1041401Y43595D01*
X1041229Y43996D01*
X1041067Y44401D01*
X1040915Y44810D01*
X1040773Y45223D01*
X1040642Y45639D01*
X1040520Y46058D01*
X1040409Y46480D01*
X1040308Y46904D01*
X1040218Y47331D01*
X1040138Y47760D01*
X1040068Y48191D01*
X1040010Y48624D01*
X1039962Y49057D01*
X1039924Y49492D01*
X1039897Y49928D01*
X1039881Y50364D01*
X1039876Y50800D01*
D11*
X0Y0D02*
X1088900Y0D01*
X1088900Y457100D01*
X0Y457100D01*
X0Y0D01*
X461187Y426900D02*
X460365Y426965D01*
X459550Y427094D01*
X458748Y427286D01*
X457963Y427541D01*
X457201Y427857D01*
X456466Y428232D01*
X455762Y428663D01*
X455095Y429148D01*
X454467Y429684D01*
X453884Y430267D01*
X453348Y430895D01*
X452863Y431562D01*
X452432Y432266D01*
X452057Y433001D01*
X451741Y433763D01*
X451486Y434548D01*
X451294Y435350D01*
X451165Y436165D01*
X451100Y436987D01*
X451100Y437813D01*
X451165Y438635D01*
X451294Y439450D01*
X451486Y440252D01*
X451741Y441037D01*
X452057Y441799D01*
X452432Y442534D01*
X452863Y443238D01*
X453348Y443906D01*
X453884Y444533D01*
X454467Y445116D01*
X455095Y445652D01*
X455762Y446137D01*
X456466Y446568D01*
X457201Y446943D01*
X457963Y447259D01*
X458748Y447514D01*
X459550Y447706D01*
X460365Y447835D01*
X461187Y447900D01*
X462013Y447900D01*
X462835Y447835D01*
X463650Y447706D01*
X464452Y447514D01*
X465237Y447259D01*
X465999Y446943D01*
X466734Y446568D01*
X467438Y446137D01*
X468106Y445652D01*
X468733Y445116D01*
X469316Y444533D01*
X469852Y443906D01*
X470337Y443238D01*
X470768Y442534D01*
X471143Y441799D01*
X471459Y441037D01*
X471714Y440252D01*
X471906Y439450D01*
X472035Y438635D01*
X472100Y437813D01*
X472100Y436987D01*
X472035Y436165D01*
X471906Y435350D01*
X471714Y434548D01*
X471459Y433763D01*
X471143Y433001D01*
X470768Y432266D01*
X470337Y431562D01*
X469852Y430895D01*
X469316Y430267D01*
X468733Y429684D01*
X468106Y429148D01*
X467438Y428663D01*
X466734Y428232D01*
X465999Y427857D01*
X465237Y427541D01*
X464452Y427286D01*
X463650Y427094D01*
X462835Y426965D01*
X462013Y426900D01*
X461187Y426900D01*
X376187Y426900D02*
X375365Y426965D01*
X374550Y427094D01*
X373748Y427286D01*
X372963Y427541D01*
X372201Y427857D01*
X371466Y428232D01*
X370762Y428663D01*
X370095Y429148D01*
X369467Y429684D01*
X368884Y430267D01*
X368348Y430895D01*
X367863Y431562D01*
X367432Y432266D01*
X367057Y433001D01*
X366741Y433763D01*
X366486Y434548D01*
X366294Y435350D01*
X366165Y436165D01*
X366100Y436987D01*
X366100Y437813D01*
X366165Y438635D01*
X366294Y439450D01*
X366486Y440252D01*
X366741Y441037D01*
X367057Y441799D01*
X367432Y442534D01*
X367863Y443238D01*
X368348Y443906D01*
X368884Y444533D01*
X369467Y445116D01*
X370095Y445652D01*
X370762Y446137D01*
X371466Y446568D01*
X372201Y446943D01*
X372963Y447259D01*
X373748Y447514D01*
X374550Y447706D01*
X375365Y447835D01*
X376187Y447900D01*
X377013Y447900D01*
X377835Y447835D01*
X378650Y447706D01*
X379452Y447514D01*
X380237Y447259D01*
X380999Y446943D01*
X381734Y446568D01*
X382438Y446137D01*
X383106Y445652D01*
X383733Y445116D01*
X384316Y444533D01*
X384852Y443906D01*
X385337Y443238D01*
X385768Y442534D01*
X386143Y441799D01*
X386459Y441037D01*
X386714Y440252D01*
X386906Y439450D01*
X387035Y438635D01*
X387100Y437813D01*
X387100Y436987D01*
X387035Y436165D01*
X386906Y435350D01*
X386714Y434548D01*
X386459Y433763D01*
X386143Y433001D01*
X385768Y432266D01*
X385337Y431562D01*
X384852Y430895D01*
X384316Y430267D01*
X383733Y429684D01*
X383106Y429148D01*
X382438Y428663D01*
X381734Y428232D01*
X380999Y427857D01*
X380237Y427541D01*
X379452Y427286D01*
X378650Y427094D01*
X377835Y426965D01*
X377013Y426900D01*
X376187Y426900D01*
X308787Y426900D02*
X307965Y426965D01*
X307150Y427094D01*
X306348Y427286D01*
X305563Y427541D01*
X304801Y427857D01*
X304066Y428232D01*
X303362Y428663D01*
X302695Y429148D01*
X302067Y429684D01*
X301484Y430267D01*
X300948Y430895D01*
X300463Y431562D01*
X300032Y432266D01*
X299657Y433001D01*
X299341Y433763D01*
X299086Y434548D01*
X298894Y435350D01*
X298765Y436165D01*
X298700Y436987D01*
X298700Y437813D01*
X298765Y438635D01*
X298894Y439450D01*
X299086Y440252D01*
X299341Y441037D01*
X299657Y441799D01*
X300032Y442534D01*
X300463Y443238D01*
X300948Y443906D01*
X301484Y444533D01*
X302067Y445116D01*
X302695Y445652D01*
X303362Y446137D01*
X304066Y446568D01*
X304801Y446943D01*
X305563Y447259D01*
X306348Y447514D01*
X307150Y447706D01*
X307965Y447835D01*
X308787Y447900D01*
X309613Y447900D01*
X310435Y447835D01*
X311250Y447706D01*
X312052Y447514D01*
X312837Y447259D01*
X313599Y446943D01*
X314334Y446568D01*
X315038Y446137D01*
X315706Y445652D01*
X316333Y445116D01*
X316916Y444533D01*
X317452Y443906D01*
X317937Y443238D01*
X318368Y442534D01*
X318743Y441799D01*
X319059Y441037D01*
X319314Y440252D01*
X319506Y439450D01*
X319635Y438635D01*
X319700Y437813D01*
X319700Y436987D01*
X319635Y436165D01*
X319506Y435350D01*
X319314Y434548D01*
X319059Y433763D01*
X318743Y433001D01*
X318368Y432266D01*
X317937Y431562D01*
X317452Y430895D01*
X316916Y430267D01*
X316333Y429684D01*
X315706Y429148D01*
X315038Y428663D01*
X314334Y428232D01*
X313599Y427857D01*
X312837Y427541D01*
X312052Y427286D01*
X311250Y427094D01*
X310435Y426965D01*
X309613Y426900D01*
X308787Y426900D01*
X223787Y426900D02*
X222965Y426965D01*
X222150Y427094D01*
X221348Y427286D01*
X220563Y427541D01*
X219801Y427857D01*
X219066Y428232D01*
X218362Y428663D01*
X217695Y429148D01*
X217067Y429684D01*
X216484Y430267D01*
X215948Y430895D01*
X215463Y431562D01*
X215032Y432266D01*
X214657Y433001D01*
X214341Y433763D01*
X214086Y434548D01*
X213894Y435350D01*
X213765Y436165D01*
X213700Y436987D01*
X213700Y437813D01*
X213765Y438635D01*
X213894Y439450D01*
X214086Y440252D01*
X214341Y441037D01*
X214657Y441799D01*
X215032Y442534D01*
X215463Y443238D01*
X215948Y443906D01*
X216484Y444533D01*
X217067Y445116D01*
X217695Y445652D01*
X218362Y446137D01*
X219066Y446568D01*
X219801Y446943D01*
X220563Y447259D01*
X221348Y447514D01*
X222150Y447706D01*
X222965Y447835D01*
X223787Y447900D01*
X224613Y447900D01*
X225435Y447835D01*
X226250Y447706D01*
X227052Y447514D01*
X227837Y447259D01*
X228599Y446943D01*
X229334Y446568D01*
X230038Y446137D01*
X230706Y445652D01*
X231333Y445116D01*
X231916Y444533D01*
X232452Y443906D01*
X232937Y443238D01*
X233368Y442534D01*
X233743Y441799D01*
X234059Y441037D01*
X234314Y440252D01*
X234506Y439450D01*
X234635Y438635D01*
X234700Y437813D01*
X234700Y436987D01*
X234635Y436165D01*
X234506Y435350D01*
X234314Y434548D01*
X234059Y433763D01*
X233743Y433001D01*
X233368Y432266D01*
X232937Y431562D01*
X232452Y430895D01*
X231916Y430267D01*
X231333Y429684D01*
X230706Y429148D01*
X230038Y428663D01*
X229334Y428232D01*
X228599Y427857D01*
X227837Y427541D01*
X227052Y427286D01*
X226250Y427094D01*
X225435Y426965D01*
X224613Y426900D01*
X223787Y426900D01*
X156387Y426900D02*
X155565Y426965D01*
X154750Y427094D01*
X153948Y427286D01*
X153163Y427541D01*
X152401Y427857D01*
X151666Y428232D01*
X150962Y428663D01*
X150295Y429148D01*
X149667Y429684D01*
X149084Y430267D01*
X148548Y430895D01*
X148063Y431562D01*
X147632Y432266D01*
X147257Y433001D01*
X146941Y433763D01*
X146686Y434548D01*
X146494Y435350D01*
X146365Y436165D01*
X146300Y436987D01*
X146300Y437813D01*
X146365Y438635D01*
X146494Y439450D01*
X146686Y440252D01*
X146941Y441037D01*
X147257Y441799D01*
X147632Y442534D01*
X148063Y443238D01*
X148548Y443906D01*
X149084Y444533D01*
X149667Y445116D01*
X150295Y445652D01*
X150962Y446137D01*
X151666Y446568D01*
X152401Y446943D01*
X153163Y447259D01*
X153948Y447514D01*
X154750Y447706D01*
X155565Y447835D01*
X156387Y447900D01*
X157213Y447900D01*
X158035Y447835D01*
X158850Y447706D01*
X159652Y447514D01*
X160437Y447259D01*
X161199Y446943D01*
X161934Y446568D01*
X162638Y446137D01*
X163306Y445652D01*
X163933Y445116D01*
X164516Y444533D01*
X165052Y443906D01*
X165537Y443238D01*
X165968Y442534D01*
X166343Y441799D01*
X166659Y441037D01*
X166914Y440252D01*
X167106Y439450D01*
X167235Y438635D01*
X167300Y437813D01*
X167300Y436987D01*
X167235Y436165D01*
X167106Y435350D01*
X166914Y434548D01*
X166659Y433763D01*
X166343Y433001D01*
X165968Y432266D01*
X165537Y431562D01*
X165052Y430895D01*
X164516Y430267D01*
X163933Y429684D01*
X163306Y429148D01*
X162638Y428663D01*
X161934Y428232D01*
X161199Y427857D01*
X160437Y427541D01*
X159652Y427286D01*
X158850Y427094D01*
X158035Y426965D01*
X157213Y426900D01*
X156387Y426900D01*
X71387Y426900D02*
X70565Y426965D01*
X69750Y427094D01*
X68948Y427286D01*
X68163Y427541D01*
X67401Y427857D01*
X66666Y428232D01*
X65962Y428663D01*
X65295Y429148D01*
X64667Y429684D01*
X64084Y430267D01*
X63548Y430895D01*
X63063Y431562D01*
X62632Y432266D01*
X62257Y433001D01*
X61941Y433763D01*
X61686Y434548D01*
X61494Y435350D01*
X61365Y436165D01*
X61300Y436987D01*
X61300Y437813D01*
X61365Y438635D01*
X61494Y439450D01*
X61686Y440252D01*
X61941Y441037D01*
X62257Y441799D01*
X62632Y442534D01*
X63063Y443238D01*
X63548Y443906D01*
X64084Y444533D01*
X64667Y445116D01*
X65295Y445652D01*
X65962Y446137D01*
X66666Y446568D01*
X67401Y446943D01*
X68163Y447259D01*
X68948Y447514D01*
X69750Y447706D01*
X70565Y447835D01*
X71387Y447900D01*
X72213Y447900D01*
X73035Y447835D01*
X73850Y447706D01*
X74652Y447514D01*
X75437Y447259D01*
X76199Y446943D01*
X76934Y446568D01*
X77638Y446137D01*
X78306Y445652D01*
X78933Y445116D01*
X79516Y444533D01*
X80052Y443906D01*
X80537Y443238D01*
X80968Y442534D01*
X81343Y441799D01*
X81659Y441037D01*
X81914Y440252D01*
X82106Y439450D01*
X82235Y438635D01*
X82300Y437813D01*
X82300Y436987D01*
X82235Y436165D01*
X82106Y435350D01*
X81914Y434548D01*
X81659Y433763D01*
X81343Y433001D01*
X80968Y432266D01*
X80537Y431562D01*
X80052Y430895D01*
X79516Y430267D01*
X78933Y429684D01*
X78306Y429148D01*
X77638Y428663D01*
X76934Y428232D01*
X76199Y427857D01*
X75437Y427541D01*
X74652Y427286D01*
X73850Y427094D01*
X73035Y426965D01*
X72213Y426900D01*
X71387Y426900D01*
X52324Y50218D02*
X52248Y49056D01*
X52096Y47902D01*
X51869Y46760D01*
X51568Y45636D01*
X51193Y44534D01*
X50748Y43458D01*
X50233Y42414D01*
X49651Y41406D01*
X49004Y40438D01*
X48296Y39514D01*
X47528Y38639D01*
X46705Y37816D01*
X45830Y37049D01*
X44906Y36340D01*
X43938Y35693D01*
X42930Y35111D01*
X41886Y34596D01*
X40810Y34151D01*
X39708Y33777D01*
X38584Y33475D01*
X37442Y33248D01*
X36288Y33096D01*
X35126Y33020D01*
X33962Y33020D01*
X32800Y33096D01*
X31646Y33248D01*
X30504Y33475D01*
X29380Y33777D01*
X28278Y34151D01*
X27202Y34596D01*
X26158Y35111D01*
X25150Y35693D01*
X24182Y36340D01*
X23258Y37049D01*
X22383Y37816D01*
X21560Y38639D01*
X20793Y39514D01*
X20084Y40438D01*
X19437Y41406D01*
X18855Y42414D01*
X18340Y43458D01*
X17895Y44534D01*
X17521Y45636D01*
X17219Y46760D01*
X16992Y47902D01*
X16840Y49056D01*
X16764Y50218D01*
X16764Y51382D01*
X16840Y52544D01*
X16992Y53698D01*
X17219Y54840D01*
X17521Y55964D01*
X17895Y57066D01*
X18340Y58142D01*
X18855Y59186D01*
X19437Y60194D01*
X20084Y61162D01*
X20793Y62086D01*
X21560Y62961D01*
X22383Y63784D01*
X23258Y64552D01*
X24182Y65260D01*
X25150Y65907D01*
X26158Y66489D01*
X27202Y67004D01*
X28278Y67449D01*
X29380Y67824D01*
X30504Y68125D01*
X31646Y68352D01*
X32800Y68504D01*
X33962Y68580D01*
X35126Y68580D01*
X36288Y68504D01*
X37442Y68352D01*
X38584Y68125D01*
X39708Y67824D01*
X40810Y67449D01*
X41886Y67004D01*
X42930Y66489D01*
X43938Y65907D01*
X44906Y65260D01*
X45830Y64552D01*
X46705Y63784D01*
X47528Y62961D01*
X48296Y62086D01*
X49004Y61162D01*
X49651Y60194D01*
X50233Y59186D01*
X50748Y58142D01*
X51193Y57066D01*
X51568Y55964D01*
X51869Y54840D01*
X52096Y53698D01*
X52248Y52544D01*
X52324Y51382D01*
X52324Y50218D01*
X1075436Y50218D02*
X1075360Y49056D01*
X1075208Y47902D01*
X1074981Y46760D01*
X1074680Y45636D01*
X1074305Y44534D01*
X1073860Y43458D01*
X1073345Y42414D01*
X1072763Y41406D01*
X1072116Y40438D01*
X1071408Y39514D01*
X1070640Y38639D01*
X1069817Y37816D01*
X1068942Y37049D01*
X1068018Y36340D01*
X1067050Y35693D01*
X1066042Y35111D01*
X1064998Y34596D01*
X1063922Y34151D01*
X1062820Y33777D01*
X1061696Y33475D01*
X1060554Y33248D01*
X1059400Y33096D01*
X1058238Y33020D01*
X1057074Y33020D01*
X1055912Y33096D01*
X1054758Y33248D01*
X1053616Y33475D01*
X1052492Y33777D01*
X1051390Y34151D01*
X1050314Y34596D01*
X1049270Y35111D01*
X1048262Y35693D01*
X1047294Y36340D01*
X1046370Y37049D01*
X1045495Y37816D01*
X1044672Y38639D01*
X1043905Y39514D01*
X1043196Y40438D01*
X1042549Y41406D01*
X1041967Y42414D01*
X1041452Y43458D01*
X1041007Y44534D01*
X1040633Y45636D01*
X1040331Y46760D01*
X1040104Y47902D01*
X1039952Y49056D01*
X1039876Y50218D01*
X1039876Y51382D01*
X1039952Y52544D01*
X1040104Y53698D01*
X1040331Y54840D01*
X1040633Y55964D01*
X1041007Y57066D01*
X1041452Y58142D01*
X1041967Y59186D01*
X1042549Y60194D01*
X1043196Y61162D01*
X1043905Y62086D01*
X1044672Y62961D01*
X1045495Y63784D01*
X1046370Y64552D01*
X1047294Y65260D01*
X1048262Y65907D01*
X1049270Y66489D01*
X1050314Y67004D01*
X1051390Y67449D01*
X1052492Y67824D01*
X1053616Y68125D01*
X1054758Y68352D01*
X1055912Y68504D01*
X1057074Y68580D01*
X1058238Y68580D01*
X1059400Y68504D01*
X1060554Y68352D01*
X1061696Y68125D01*
X1062820Y67824D01*
X1063922Y67449D01*
X1064998Y67004D01*
X1066042Y66489D01*
X1067050Y65907D01*
X1068018Y65260D01*
X1068942Y64552D01*
X1069817Y63784D01*
X1070640Y62961D01*
X1071408Y62086D01*
X1072116Y61162D01*
X1072763Y60194D01*
X1073345Y59186D01*
X1073860Y58142D01*
X1074305Y57066D01*
X1074680Y55964D01*
X1074981Y54840D01*
X1075208Y53698D01*
X1075360Y52544D01*
X1075436Y51382D01*
X1075436Y50218D01*
M02*
