G04 EAGLE Gerber RS-274X export*
G75*
%MOMM*%
%FSLAX34Y34*%
%LPD*%
%INSilkscreen Bottom*%
%IPPOS*%
%AMOC8*
5,1,8,0,0,1.08239X$1,22.5*%
G01*
%ADD10C,0.152400*%
%ADD11C,0.127000*%


D10*
X102870Y226060D02*
X74930Y226060D01*
X102870Y205740D02*
X102970Y205742D01*
X103069Y205748D01*
X103169Y205758D01*
X103267Y205771D01*
X103366Y205789D01*
X103463Y205810D01*
X103559Y205835D01*
X103655Y205864D01*
X103749Y205897D01*
X103842Y205933D01*
X103933Y205973D01*
X104023Y206017D01*
X104111Y206064D01*
X104197Y206114D01*
X104281Y206168D01*
X104363Y206225D01*
X104442Y206285D01*
X104520Y206349D01*
X104594Y206415D01*
X104666Y206484D01*
X104735Y206556D01*
X104801Y206630D01*
X104865Y206708D01*
X104925Y206787D01*
X104982Y206869D01*
X105036Y206953D01*
X105086Y207039D01*
X105133Y207127D01*
X105177Y207217D01*
X105217Y207308D01*
X105253Y207401D01*
X105286Y207495D01*
X105315Y207591D01*
X105340Y207687D01*
X105361Y207784D01*
X105379Y207883D01*
X105392Y207981D01*
X105402Y208081D01*
X105408Y208180D01*
X105410Y208280D01*
X74930Y205740D02*
X74830Y205742D01*
X74731Y205748D01*
X74631Y205758D01*
X74533Y205771D01*
X74434Y205789D01*
X74337Y205810D01*
X74241Y205835D01*
X74145Y205864D01*
X74051Y205897D01*
X73958Y205933D01*
X73867Y205973D01*
X73777Y206017D01*
X73689Y206064D01*
X73603Y206114D01*
X73519Y206168D01*
X73437Y206225D01*
X73358Y206285D01*
X73280Y206349D01*
X73206Y206415D01*
X73134Y206484D01*
X73065Y206556D01*
X72999Y206630D01*
X72935Y206708D01*
X72875Y206787D01*
X72818Y206869D01*
X72764Y206953D01*
X72714Y207039D01*
X72667Y207127D01*
X72623Y207217D01*
X72583Y207308D01*
X72547Y207401D01*
X72514Y207495D01*
X72485Y207591D01*
X72460Y207687D01*
X72439Y207784D01*
X72421Y207883D01*
X72408Y207981D01*
X72398Y208081D01*
X72392Y208180D01*
X72390Y208280D01*
X72390Y223520D02*
X72392Y223620D01*
X72398Y223719D01*
X72408Y223819D01*
X72421Y223917D01*
X72439Y224016D01*
X72460Y224113D01*
X72485Y224209D01*
X72514Y224305D01*
X72547Y224399D01*
X72583Y224492D01*
X72623Y224583D01*
X72667Y224673D01*
X72714Y224761D01*
X72764Y224847D01*
X72818Y224931D01*
X72875Y225013D01*
X72935Y225092D01*
X72999Y225170D01*
X73065Y225244D01*
X73134Y225316D01*
X73206Y225385D01*
X73280Y225451D01*
X73358Y225515D01*
X73437Y225575D01*
X73519Y225632D01*
X73603Y225686D01*
X73689Y225736D01*
X73777Y225783D01*
X73867Y225827D01*
X73958Y225867D01*
X74051Y225903D01*
X74145Y225936D01*
X74241Y225965D01*
X74337Y225990D01*
X74434Y226011D01*
X74533Y226029D01*
X74631Y226042D01*
X74731Y226052D01*
X74830Y226058D01*
X74930Y226060D01*
X102870Y226060D02*
X102970Y226058D01*
X103069Y226052D01*
X103169Y226042D01*
X103267Y226029D01*
X103366Y226011D01*
X103463Y225990D01*
X103559Y225965D01*
X103655Y225936D01*
X103749Y225903D01*
X103842Y225867D01*
X103933Y225827D01*
X104023Y225783D01*
X104111Y225736D01*
X104197Y225686D01*
X104281Y225632D01*
X104363Y225575D01*
X104442Y225515D01*
X104520Y225451D01*
X104594Y225385D01*
X104666Y225316D01*
X104735Y225244D01*
X104801Y225170D01*
X104865Y225092D01*
X104925Y225013D01*
X104982Y224931D01*
X105036Y224847D01*
X105086Y224761D01*
X105133Y224673D01*
X105177Y224583D01*
X105217Y224492D01*
X105253Y224399D01*
X105286Y224305D01*
X105315Y224209D01*
X105340Y224113D01*
X105361Y224016D01*
X105379Y223917D01*
X105392Y223819D01*
X105402Y223719D01*
X105408Y223620D01*
X105410Y223520D01*
X105410Y208280D01*
X72390Y208280D02*
X72390Y223520D01*
X74930Y205740D02*
X102870Y205740D01*
D11*
X92075Y194945D02*
X92077Y194845D01*
X92083Y194746D01*
X92093Y194646D01*
X92106Y194548D01*
X92124Y194449D01*
X92145Y194352D01*
X92170Y194256D01*
X92199Y194160D01*
X92232Y194066D01*
X92268Y193973D01*
X92308Y193882D01*
X92352Y193792D01*
X92399Y193704D01*
X92449Y193618D01*
X92503Y193534D01*
X92560Y193452D01*
X92620Y193373D01*
X92684Y193295D01*
X92750Y193221D01*
X92819Y193149D01*
X92891Y193080D01*
X92965Y193014D01*
X93043Y192950D01*
X93122Y192890D01*
X93204Y192833D01*
X93288Y192779D01*
X93374Y192729D01*
X93462Y192682D01*
X93552Y192638D01*
X93643Y192598D01*
X93736Y192562D01*
X93830Y192529D01*
X93926Y192500D01*
X94022Y192475D01*
X94119Y192454D01*
X94218Y192436D01*
X94316Y192423D01*
X94416Y192413D01*
X94515Y192407D01*
X94615Y192405D01*
X94756Y192407D01*
X94897Y192412D01*
X95038Y192422D01*
X95179Y192435D01*
X95319Y192451D01*
X95459Y192472D01*
X95598Y192496D01*
X95737Y192524D01*
X95874Y192555D01*
X96011Y192590D01*
X96147Y192628D01*
X96282Y192670D01*
X96415Y192716D01*
X96548Y192765D01*
X96679Y192818D01*
X96808Y192874D01*
X96937Y192933D01*
X97063Y192996D01*
X97188Y193062D01*
X97311Y193131D01*
X97432Y193204D01*
X97551Y193280D01*
X97669Y193359D01*
X97784Y193440D01*
X97896Y193525D01*
X98007Y193613D01*
X98115Y193704D01*
X98221Y193797D01*
X98324Y193894D01*
X98425Y193993D01*
X98107Y201295D02*
X98105Y201395D01*
X98099Y201494D01*
X98089Y201594D01*
X98076Y201692D01*
X98058Y201791D01*
X98037Y201888D01*
X98012Y201984D01*
X97983Y202080D01*
X97950Y202174D01*
X97914Y202267D01*
X97874Y202358D01*
X97830Y202448D01*
X97783Y202536D01*
X97733Y202622D01*
X97679Y202706D01*
X97622Y202788D01*
X97562Y202867D01*
X97498Y202945D01*
X97432Y203019D01*
X97363Y203091D01*
X97291Y203160D01*
X97217Y203226D01*
X97139Y203290D01*
X97060Y203350D01*
X96978Y203407D01*
X96894Y203461D01*
X96808Y203511D01*
X96720Y203558D01*
X96630Y203602D01*
X96539Y203642D01*
X96446Y203678D01*
X96352Y203711D01*
X96256Y203740D01*
X96160Y203765D01*
X96063Y203786D01*
X95964Y203804D01*
X95866Y203817D01*
X95766Y203827D01*
X95667Y203833D01*
X95567Y203835D01*
X95567Y203836D02*
X95434Y203834D01*
X95301Y203829D01*
X95168Y203819D01*
X95035Y203806D01*
X94903Y203789D01*
X94771Y203769D01*
X94640Y203745D01*
X94510Y203717D01*
X94380Y203686D01*
X94252Y203651D01*
X94124Y203612D01*
X93998Y203570D01*
X93873Y203524D01*
X93749Y203475D01*
X93626Y203423D01*
X93505Y203367D01*
X93386Y203307D01*
X93268Y203245D01*
X93153Y203179D01*
X93039Y203110D01*
X92927Y203037D01*
X92817Y202962D01*
X92709Y202883D01*
X96838Y199072D02*
X96922Y199124D01*
X97005Y199179D01*
X97085Y199238D01*
X97163Y199299D01*
X97238Y199363D01*
X97311Y199431D01*
X97382Y199501D01*
X97449Y199573D01*
X97514Y199648D01*
X97576Y199726D01*
X97635Y199806D01*
X97691Y199888D01*
X97743Y199972D01*
X97792Y200058D01*
X97838Y200146D01*
X97881Y200236D01*
X97920Y200327D01*
X97955Y200420D01*
X97987Y200514D01*
X98015Y200609D01*
X98040Y200705D01*
X98060Y200802D01*
X98078Y200900D01*
X98091Y200998D01*
X98100Y201097D01*
X98106Y201196D01*
X98108Y201295D01*
X93345Y197168D02*
X93261Y197116D01*
X93178Y197061D01*
X93098Y197002D01*
X93020Y196941D01*
X92945Y196877D01*
X92872Y196809D01*
X92801Y196739D01*
X92734Y196667D01*
X92669Y196592D01*
X92607Y196514D01*
X92548Y196434D01*
X92492Y196352D01*
X92440Y196268D01*
X92391Y196182D01*
X92345Y196094D01*
X92302Y196004D01*
X92263Y195913D01*
X92228Y195820D01*
X92196Y195726D01*
X92168Y195631D01*
X92143Y195535D01*
X92123Y195438D01*
X92105Y195340D01*
X92092Y195242D01*
X92083Y195143D01*
X92077Y195044D01*
X92075Y194945D01*
X93345Y197168D02*
X96837Y199073D01*
X84784Y194945D02*
X84784Y203835D01*
X84784Y194945D02*
X84786Y194845D01*
X84792Y194746D01*
X84802Y194646D01*
X84815Y194548D01*
X84833Y194449D01*
X84854Y194352D01*
X84879Y194256D01*
X84908Y194160D01*
X84941Y194066D01*
X84977Y193973D01*
X85017Y193882D01*
X85061Y193792D01*
X85108Y193704D01*
X85158Y193618D01*
X85212Y193534D01*
X85269Y193452D01*
X85329Y193373D01*
X85393Y193295D01*
X85459Y193221D01*
X85528Y193149D01*
X85600Y193080D01*
X85674Y193014D01*
X85752Y192950D01*
X85831Y192890D01*
X85913Y192833D01*
X85997Y192779D01*
X86083Y192729D01*
X86171Y192682D01*
X86261Y192638D01*
X86352Y192598D01*
X86445Y192562D01*
X86539Y192529D01*
X86635Y192500D01*
X86731Y192475D01*
X86828Y192454D01*
X86927Y192436D01*
X87025Y192423D01*
X87125Y192413D01*
X87224Y192407D01*
X87324Y192405D01*
X88594Y192405D01*
X79375Y201295D02*
X76200Y203835D01*
X76200Y192405D01*
X79375Y192405D02*
X73025Y192405D01*
M02*
