M48
;GenerationSoftware,Autodesk,EAGLE,9.6.1*%
;CreationDate,2024-04-08T03:06:57Z*%
FMAT,2
ICI,OFF
METRIC,TZ,000.000
T8C0.610
T7C0.813
T6C0.914
T5C1.016
T4C1.524
T3C2.100
T2C2.300
T1C3.556
%
G90
M71
T1
X3454Y5080
X105766Y5080
T2
X41910Y40640
X7730Y36940
X45610Y36940
X38210Y36940
X26670Y40640
X30370Y36940
X22970Y36940
X11430Y40640
X15130Y36940
T3
X15680Y43740
X7180Y43740
X37660Y43740
X46160Y43740
X30920Y43740
X22420Y43740
T4
X52629Y7112
X48666Y3048
X44704Y3048
X40742Y3048
X36779Y3048
X32817Y3048
X24892Y3048
X20930Y3048
X16967Y3048
X13005Y3048
X48666Y7112
X28854Y3048
X68478Y7112
X44704Y7112
X40742Y7112
X36779Y7112
X32817Y7112
X28854Y7112
X24892Y7112
X20930Y7112
X16967Y7112
X56591Y7112
X56591Y3048
X60554Y7112
X64516Y7112
X13005Y7112
X72441Y7112
X76403Y7112
X80366Y7112
X84328Y7112
X88290Y7112
X92253Y7112
X96215Y7112
X60554Y3048
X64516Y3048
X68478Y3048
X72441Y3048
X76403Y3048
X80366Y3048
X84328Y3048
X88290Y3048
X92253Y3048
X96215Y3048
X52629Y3048
T5
X88900Y39370
X91440Y39370
X93980Y39370
X83820Y41910
X86360Y41910
X88900Y41910
X91440Y41910
X93980Y41910
X13970Y29210
X13970Y26670
X13970Y24130
X13970Y21590
X52070Y41910
X54610Y41910
X57150Y41910
X59690Y41910
X62230Y41910
X64770Y41910
X67310Y41910
X69850Y41910
X13970Y19050
X83820Y39370
X86360Y39370
T6
X82550Y33020
X68580Y29210
X86360Y30480
X88900Y30480
X86360Y33020
X88900Y33020
X67310Y19050
X64770Y19050
X67310Y21590
X64770Y21590
X67310Y24130
X66040Y29210
X64770Y24130
X92710Y30480
X95250Y30480
X92710Y33020
X95250Y33020
X63500Y29210
X80010Y30480
X82550Y30480
X80010Y33020
T7
X80010Y25400
X29210Y17780
X25400Y25400
X25400Y17780
X40640Y24130
X40640Y21590
X85090Y17780
X90170Y17780
X87630Y17780
X95250Y25400
X92710Y25400
X90170Y25400
X87630Y25400
X85090Y25400
X82550Y25400
X77470Y25400
X78740Y15240
X81280Y15240
X85090Y15240
X87630Y15240
X74930Y20320
X74930Y22860
X93980Y15240
X91440Y15240
X80010Y17780
X100330Y17780
X100330Y25400
X36830Y17780
X36830Y25400
X43180Y16510
X45720Y16510
X58420Y16510
X58420Y24130
X48260Y16510
X50800Y16510
X55880Y16510
X53340Y16510
X55880Y24130
X53340Y24130
X50800Y24130
X48260Y24130
X45720Y24130
X43180Y24130
X20320Y16510
X20320Y19050
X20320Y21590
X20320Y24130
X20320Y26670
X20320Y29210
X77470Y17780
X92710Y17780
X95250Y17780
X82550Y17780
X33020Y25400
X33020Y17780
X29210Y25400
T8
X86157Y36068
X84023Y28956
X49276Y21539
X47549Y28854
X49886Y25806
X42469Y8534
X73762Y24181
X28854Y22454
X17780Y15646
X73457Y13513
X62789Y19710
X39218Y20117
X55778Y27432
M30