G04 EAGLE Gerber RS-274X export*
G75*
%MOMM*%
%FSLAX34Y34*%
%LPD*%
%INTop Copper*%
%IPPOS*%
%AMOC8*
5,1,8,0,0,1.08239X$1,22.5*%
G01*
%ADD10C,3.316000*%
%ADD11C,1.524000*%
%ADD12P,2.474344X8X202.500000*%
%ADD13P,2.474344X8X22.500000*%
%ADD14P,1.649562X8X22.500000*%
%ADD15C,1.320800*%
%ADD16P,1.429621X8X22.500000*%
%ADD17P,1.429621X8X112.500000*%
%ADD18P,1.429621X8X202.500000*%
%ADD19P,1.539592X8X22.500000*%
%ADD20C,1.422400*%
%ADD21P,1.539592X8X292.500000*%
%ADD22P,1.429621X8X292.500000*%
%ADD23C,0.508000*%
%ADD24C,1.016000*%
%ADD25C,0.254000*%


D10*
X419100Y406400D03*
X456100Y369400D03*
X382100Y369400D03*
X266700Y406400D03*
X303700Y369400D03*
X229700Y369400D03*
X114300Y406400D03*
X151300Y369400D03*
X77300Y369400D03*
D11*
X520700Y411480D02*
X520700Y426720D01*
X546100Y426720D02*
X546100Y411480D01*
X571500Y411480D02*
X571500Y426720D01*
X596900Y426720D02*
X596900Y411480D01*
X622300Y411480D02*
X622300Y426720D01*
X647700Y426720D02*
X647700Y411480D01*
X673100Y411480D02*
X673100Y426720D01*
X698500Y426720D02*
X698500Y411480D01*
D12*
X565912Y71120D03*
X565912Y30480D03*
X605536Y71120D03*
X645160Y71120D03*
X684784Y71120D03*
X724408Y71120D03*
X764032Y71120D03*
X803656Y71120D03*
X843280Y71120D03*
X882904Y71120D03*
X922528Y71120D03*
X962152Y71120D03*
X605536Y30480D03*
X645160Y30480D03*
X684784Y30480D03*
X724408Y30480D03*
X764032Y30480D03*
X803656Y30480D03*
X843280Y30480D03*
X882904Y30480D03*
X922528Y30480D03*
X962152Y30480D03*
D13*
X526288Y30480D03*
X526288Y71120D03*
X486664Y30480D03*
X447040Y30480D03*
X407416Y30480D03*
X367792Y30480D03*
X328168Y30480D03*
X288544Y30480D03*
X248920Y30480D03*
X209296Y30480D03*
X169672Y30480D03*
X130048Y30480D03*
X486664Y71120D03*
X447040Y71120D03*
X407416Y71120D03*
X367792Y71120D03*
X328168Y71120D03*
X288544Y71120D03*
X248920Y71120D03*
X209296Y71120D03*
X169672Y71120D03*
X130048Y71120D03*
D14*
X838200Y393700D03*
X863600Y393700D03*
X889000Y393700D03*
X914400Y393700D03*
X939800Y393700D03*
X838200Y419100D03*
X863600Y419100D03*
X889000Y419100D03*
X914400Y419100D03*
X939800Y419100D03*
D15*
X774700Y184404D02*
X774700Y171196D01*
X800100Y171196D02*
X800100Y184404D01*
X927100Y184404D02*
X927100Y171196D01*
X952500Y171196D02*
X952500Y184404D01*
X825500Y184404D02*
X825500Y171196D01*
X850900Y171196D02*
X850900Y184404D01*
X901700Y184404D02*
X901700Y171196D01*
X876300Y171196D02*
X876300Y184404D01*
X952500Y247396D02*
X952500Y260604D01*
X927100Y260604D02*
X927100Y247396D01*
X901700Y247396D02*
X901700Y260604D01*
X876300Y260604D02*
X876300Y247396D01*
X850900Y247396D02*
X850900Y260604D01*
X825500Y260604D02*
X825500Y247396D01*
X800100Y247396D02*
X800100Y260604D01*
X774700Y260604D02*
X774700Y247396D01*
D16*
X787400Y152400D03*
X812800Y152400D03*
X850900Y152400D03*
X876300Y152400D03*
D17*
X749300Y203200D03*
X749300Y228600D03*
D18*
X939800Y152400D03*
X914400Y152400D03*
D19*
X800100Y304800D03*
X825500Y304800D03*
X800100Y330200D03*
X825500Y330200D03*
X863600Y304800D03*
X889000Y304800D03*
X863600Y330200D03*
X889000Y330200D03*
X927100Y304800D03*
X952500Y304800D03*
X927100Y330200D03*
X952500Y330200D03*
D20*
X635000Y299212D02*
X635000Y284988D01*
X660400Y284988D02*
X660400Y299212D01*
X685800Y299212D02*
X685800Y284988D01*
D21*
X647700Y241300D03*
X673100Y241300D03*
X647700Y215900D03*
X673100Y215900D03*
X647700Y190500D03*
X673100Y190500D03*
D17*
X1003300Y177800D03*
X1003300Y254000D03*
X368300Y177800D03*
X368300Y254000D03*
D15*
X431800Y171704D02*
X431800Y158496D01*
X457200Y158496D02*
X457200Y171704D01*
X584200Y171704D02*
X584200Y158496D01*
X584200Y234696D02*
X584200Y247904D01*
X482600Y171704D02*
X482600Y158496D01*
X508000Y158496D02*
X508000Y171704D01*
X558800Y171704D02*
X558800Y158496D01*
X533400Y158496D02*
X533400Y171704D01*
X558800Y234696D02*
X558800Y247904D01*
X533400Y247904D02*
X533400Y234696D01*
X508000Y234696D02*
X508000Y247904D01*
X482600Y247904D02*
X482600Y234696D01*
X457200Y234696D02*
X457200Y247904D01*
X431800Y247904D02*
X431800Y234696D01*
X209804Y165100D02*
X196596Y165100D01*
X196596Y190500D02*
X209804Y190500D01*
X209804Y215900D02*
X196596Y215900D01*
X196596Y241300D02*
X209804Y241300D01*
X209804Y266700D02*
X196596Y266700D01*
X196596Y292100D02*
X209804Y292100D01*
D11*
X147320Y292100D02*
X132080Y292100D01*
X132080Y266700D02*
X147320Y266700D01*
X147320Y241300D02*
X132080Y241300D01*
X132080Y215900D02*
X147320Y215900D01*
X147320Y190500D02*
X132080Y190500D01*
D22*
X330200Y254000D03*
X330200Y177800D03*
X292100Y254000D03*
X292100Y177800D03*
X254000Y254000D03*
X254000Y177800D03*
X406400Y241300D03*
X406400Y215900D03*
D23*
X406400Y241808D02*
X431800Y241808D01*
X406400Y241808D02*
X406400Y241300D01*
X431800Y241300D02*
X431800Y241808D01*
X393192Y254000D02*
X368300Y254000D01*
X393192Y254000D02*
X404368Y242824D01*
X406400Y241300D01*
X241808Y165608D02*
X203200Y165608D01*
X241808Y165608D02*
X254000Y177800D01*
X203200Y165608D02*
X203200Y165100D01*
X254000Y177800D02*
X292100Y177800D01*
X299720Y177800D01*
X330200Y177800D01*
X345440Y256032D02*
X366776Y256032D01*
X345440Y256032D02*
X335280Y266192D01*
X286512Y266192D01*
X279400Y259080D01*
X279400Y248920D01*
X299720Y228600D01*
X299720Y177800D01*
X368300Y254000D02*
X366776Y256032D01*
X749808Y254000D02*
X774700Y254000D01*
X749808Y254000D02*
X737616Y241808D01*
X351536Y178816D02*
X332232Y178816D01*
X351536Y178816D02*
X362712Y189992D01*
X481584Y189992D01*
X495808Y175768D01*
X495808Y153416D01*
X514096Y135128D01*
X734568Y135128D01*
X332232Y178816D02*
X330200Y177800D01*
D24*
X737616Y241808D03*
X734568Y135128D03*
D23*
X962152Y152400D02*
X977392Y152400D01*
X962152Y152400D02*
X939800Y152400D01*
X977392Y152400D02*
X1002792Y177800D01*
X1003300Y177800D01*
X962152Y152400D02*
X962152Y71120D01*
X774192Y228600D02*
X749300Y228600D01*
X774192Y228600D02*
X799592Y254000D01*
X800100Y254000D01*
X889000Y388112D02*
X889000Y393700D01*
X889000Y388112D02*
X861568Y360680D01*
X939800Y217424D02*
X939800Y152400D01*
X939800Y217424D02*
X914400Y242824D01*
X914400Y265176D01*
X896112Y283464D01*
X846328Y283464D01*
X840232Y289560D01*
X139700Y266700D02*
X128016Y278384D01*
X127000Y278384D01*
X114808Y290576D01*
X114808Y406400D01*
X114300Y406400D01*
X266700Y406400D01*
X584200Y192024D02*
X584200Y165100D01*
X584200Y192024D02*
X546608Y229616D01*
X546608Y398272D02*
X546608Y418592D01*
X546608Y398272D02*
X546608Y260096D01*
X546608Y229616D01*
X546608Y418592D02*
X546100Y419100D01*
X492760Y215392D02*
X406400Y215392D01*
X406400Y215900D01*
X636016Y407416D02*
X647700Y419100D01*
X636016Y407416D02*
X636016Y406400D01*
X627888Y398272D01*
X546608Y398272D01*
X506984Y406400D02*
X419100Y406400D01*
X506984Y406400D02*
X515112Y398272D01*
X546608Y398272D01*
X419100Y406400D02*
X266700Y406400D01*
X731520Y230632D02*
X747776Y230632D01*
X731520Y230632D02*
X702056Y260096D01*
X546608Y260096D01*
X747776Y230632D02*
X749300Y228600D01*
D24*
X861568Y360680D03*
X840232Y289560D03*
X492760Y215392D03*
D25*
X475488Y288544D02*
X384048Y288544D01*
X303784Y368808D01*
X303700Y369400D01*
D24*
X475488Y288544D03*
D25*
X586232Y30480D02*
X605536Y30480D01*
X586232Y30480D02*
X572008Y44704D01*
X401320Y44704D01*
X382016Y25400D01*
X382016Y24384D01*
X369824Y12192D01*
X207264Y12192D01*
X183896Y35560D01*
X183896Y36576D01*
X144272Y76200D01*
X144272Y163576D01*
X120904Y186944D01*
X120904Y244856D01*
X130048Y254000D01*
X152400Y254000D01*
X159512Y261112D01*
X159512Y360680D01*
X151384Y368808D01*
X151300Y369400D01*
X597408Y419608D02*
X600456Y419608D01*
X619760Y438912D01*
X675640Y438912D01*
X687832Y426720D01*
X687832Y407416D01*
X780288Y314960D01*
X804672Y314960D01*
X814832Y304800D01*
X814832Y300736D01*
X845312Y270256D01*
X880872Y270256D01*
X892048Y259080D01*
X892048Y121920D01*
X936752Y77216D01*
X936752Y65024D01*
X916432Y44704D01*
X817880Y44704D01*
X803656Y30480D01*
X596900Y419100D02*
X597408Y419608D01*
X800608Y381000D02*
X800608Y330200D01*
X800608Y381000D02*
X838200Y418592D01*
X800608Y330200D02*
X800100Y330200D01*
X838200Y418592D02*
X838200Y419100D01*
X826008Y315976D02*
X826008Y304800D01*
X826008Y315976D02*
X851408Y341376D01*
X851408Y381000D01*
X863600Y393192D01*
X826008Y304800D02*
X825500Y304800D01*
X863600Y393192D02*
X863600Y393700D01*
X889000Y312928D02*
X889000Y304800D01*
X889000Y312928D02*
X914400Y338328D01*
X914400Y393700D01*
X863600Y348488D02*
X863600Y330200D01*
X863600Y348488D02*
X903224Y388112D01*
X903224Y407416D01*
X914400Y418592D01*
X914400Y419100D01*
X775208Y177800D02*
X775208Y164592D01*
X787400Y152400D01*
X775208Y177800D02*
X774700Y177800D01*
X851408Y177800D02*
X851408Y152400D01*
X850900Y152400D01*
X850900Y177800D02*
X851408Y177800D01*
X812800Y165608D02*
X812800Y152400D01*
X812800Y165608D02*
X824992Y177800D01*
X825500Y177800D01*
X876808Y177800D02*
X876808Y152400D01*
X876300Y152400D01*
X876300Y177800D02*
X876808Y177800D01*
X902208Y177800D02*
X902208Y164592D01*
X914400Y152400D01*
X902208Y177800D02*
X901700Y177800D01*
X824992Y254000D02*
X824992Y280416D01*
X800608Y304800D01*
X824992Y254000D02*
X825500Y254000D01*
X800608Y304800D02*
X800100Y304800D01*
X711200Y240792D02*
X673608Y240792D01*
X711200Y240792D02*
X734568Y217424D01*
X813816Y217424D01*
X850392Y254000D01*
X673608Y240792D02*
X673100Y241300D01*
X850392Y254000D02*
X850900Y254000D01*
X863600Y304800D02*
X868680Y304800D01*
X882904Y290576D01*
X912368Y290576D01*
X926592Y304800D01*
X927100Y304800D01*
X889000Y319024D02*
X889000Y330200D01*
X889000Y319024D02*
X878840Y308864D01*
X878840Y300736D01*
X884936Y294640D01*
X902208Y294640D01*
X927608Y320040D01*
X941832Y320040D01*
X951992Y330200D01*
X952500Y330200D01*
X462280Y241808D02*
X457200Y241808D01*
X462280Y241808D02*
X478536Y258064D01*
X498856Y258064D01*
X457200Y241808D02*
X457200Y241300D01*
D24*
X498856Y258064D03*
D25*
X482600Y240792D02*
X477520Y240792D01*
X460248Y223520D01*
X414528Y223520D01*
X408432Y229616D01*
X316992Y229616D01*
X292608Y254000D01*
X482600Y241300D02*
X482600Y240792D01*
X292608Y254000D02*
X292100Y254000D01*
X681736Y291592D02*
X685800Y291592D01*
X681736Y291592D02*
X664464Y274320D01*
X557784Y274320D01*
X685800Y291592D02*
X685800Y292100D01*
D24*
X557784Y274320D03*
D25*
X367792Y177800D02*
X367792Y91440D01*
X342392Y66040D01*
X342392Y44704D01*
X328168Y30480D01*
X367792Y177800D02*
X368300Y177800D01*
X508000Y216408D02*
X508000Y241300D01*
X508000Y216408D02*
X492760Y201168D01*
X392176Y201168D01*
D24*
X392176Y201168D03*
D25*
X558800Y240792D02*
X563880Y240792D01*
X599440Y205232D01*
X662432Y205232D01*
X673100Y215900D01*
X558800Y240792D02*
X558800Y241300D01*
X871728Y254000D02*
X876300Y254000D01*
X871728Y254000D02*
X811784Y194056D01*
X753872Y194056D01*
X752856Y193040D01*
X695960Y193040D01*
X673100Y215900D01*
X648208Y216408D02*
X648208Y240792D01*
X647700Y241300D01*
X648208Y216408D02*
X647700Y215900D01*
X640080Y197104D02*
X627888Y197104D01*
X640080Y197104D02*
X644144Y201168D01*
X662432Y201168D01*
X673100Y190500D01*
D24*
X627888Y197104D03*
D25*
X927100Y254000D02*
X931672Y254000D01*
X947928Y270256D01*
X986536Y270256D01*
X1002792Y254000D01*
X1003300Y254000D01*
X436880Y164592D02*
X431800Y164592D01*
X436880Y164592D02*
X512064Y89408D01*
X745744Y89408D01*
X764032Y71120D01*
X431800Y164592D02*
X431800Y165100D01*
X482600Y165100D02*
X482600Y156464D01*
X545592Y93472D01*
X781304Y93472D01*
X803656Y71120D01*
X538480Y164592D02*
X533400Y164592D01*
X538480Y164592D02*
X557784Y145288D01*
X780288Y145288D01*
X840232Y85344D01*
X908304Y85344D01*
X922528Y71120D01*
X533400Y164592D02*
X533400Y165100D01*
X203200Y187960D02*
X203200Y190500D01*
X203200Y187960D02*
X177800Y162560D01*
X177800Y156464D01*
X452120Y165608D02*
X457200Y165608D01*
X452120Y165608D02*
X435864Y181864D01*
X427736Y181864D01*
X416560Y170688D01*
X416560Y82296D01*
X432816Y66040D01*
X432816Y65024D01*
X440944Y56896D01*
X670560Y56896D01*
X684784Y71120D01*
X457200Y165100D02*
X457200Y165608D01*
X255016Y191008D02*
X204216Y191008D01*
X255016Y191008D02*
X288544Y224536D01*
X204216Y191008D02*
X203200Y190500D01*
D24*
X177800Y156464D03*
X288544Y224536D03*
D25*
X424688Y85344D02*
X710184Y85344D01*
X724408Y71120D01*
D24*
X424688Y85344D03*
D25*
X558800Y165100D02*
X558800Y195072D01*
X522224Y231648D01*
X522224Y254000D01*
X495808Y280416D01*
X184912Y280416D01*
X146304Y241808D01*
X140208Y241808D01*
X139700Y241300D01*
X203200Y262128D02*
X203200Y266700D01*
X203200Y262128D02*
X169672Y228600D01*
X169672Y71120D01*
X203200Y215900D02*
X203200Y220472D01*
X219456Y236728D01*
X219456Y271272D01*
X214376Y276352D01*
X192024Y276352D01*
X175768Y260096D01*
X175768Y251968D01*
X139700Y215900D01*
X508000Y210312D02*
X508000Y165100D01*
X508000Y210312D02*
X518160Y220472D01*
X518160Y251968D01*
X499872Y270256D01*
X341376Y270256D01*
X338328Y273304D01*
X222504Y273304D01*
X220472Y271272D01*
X219456Y271272D01*
M02*
