G04 EAGLE Gerber RS-274X export*
G75*
%MOMM*%
%FSLAX34Y34*%
%LPD*%
%INSilkscreen Top*%
%IPPOS*%
%AMOC8*
5,1,8,0,0,1.08239X$1,22.5*%
G01*
%ADD10C,0.152400*%

G36*
X981013Y240677D02*
X981013Y240677D01*
X981079Y240679D01*
X981122Y240697D01*
X981169Y240705D01*
X981226Y240739D01*
X981286Y240764D01*
X981321Y240795D01*
X981362Y240820D01*
X981404Y240871D01*
X981452Y240915D01*
X981474Y240957D01*
X981503Y240994D01*
X981524Y241056D01*
X981555Y241115D01*
X981563Y241169D01*
X981575Y241206D01*
X981574Y241246D01*
X981582Y241300D01*
X981582Y279400D01*
X981571Y279465D01*
X981569Y279531D01*
X981551Y279574D01*
X981543Y279621D01*
X981509Y279678D01*
X981484Y279738D01*
X981453Y279773D01*
X981428Y279814D01*
X981377Y279856D01*
X981333Y279904D01*
X981291Y279926D01*
X981254Y279955D01*
X981192Y279976D01*
X981133Y280007D01*
X981079Y280015D01*
X981042Y280027D01*
X981002Y280026D01*
X980948Y280034D01*
X949198Y280034D01*
X949133Y280023D01*
X949067Y280021D01*
X949024Y280003D01*
X948977Y279995D01*
X948920Y279961D01*
X948860Y279936D01*
X948825Y279905D01*
X948784Y279880D01*
X948743Y279829D01*
X948694Y279785D01*
X948672Y279743D01*
X948643Y279706D01*
X948622Y279644D01*
X948591Y279585D01*
X948583Y279531D01*
X948571Y279494D01*
X948572Y279454D01*
X948571Y279450D01*
X948571Y279449D01*
X948571Y279447D01*
X948564Y279400D01*
X948564Y241300D01*
X948575Y241235D01*
X948577Y241169D01*
X948595Y241126D01*
X948603Y241079D01*
X948637Y241022D01*
X948662Y240962D01*
X948693Y240927D01*
X948718Y240886D01*
X948769Y240845D01*
X948813Y240796D01*
X948855Y240774D01*
X948892Y240745D01*
X948954Y240724D01*
X949013Y240693D01*
X949067Y240685D01*
X949104Y240673D01*
X949144Y240674D01*
X949198Y240666D01*
X980948Y240666D01*
X981013Y240677D01*
G37*
G36*
X981013Y50177D02*
X981013Y50177D01*
X981079Y50179D01*
X981122Y50197D01*
X981169Y50205D01*
X981226Y50239D01*
X981286Y50264D01*
X981321Y50295D01*
X981362Y50320D01*
X981404Y50371D01*
X981452Y50415D01*
X981474Y50457D01*
X981503Y50494D01*
X981524Y50556D01*
X981555Y50615D01*
X981563Y50669D01*
X981575Y50706D01*
X981574Y50746D01*
X981582Y50800D01*
X981582Y88900D01*
X981571Y88965D01*
X981569Y89031D01*
X981551Y89074D01*
X981543Y89121D01*
X981509Y89178D01*
X981484Y89238D01*
X981453Y89273D01*
X981428Y89314D01*
X981377Y89356D01*
X981333Y89404D01*
X981291Y89426D01*
X981254Y89455D01*
X981192Y89476D01*
X981133Y89507D01*
X981079Y89515D01*
X981042Y89527D01*
X981002Y89526D01*
X980948Y89534D01*
X949198Y89534D01*
X949133Y89523D01*
X949067Y89521D01*
X949024Y89503D01*
X948977Y89495D01*
X948920Y89461D01*
X948860Y89436D01*
X948825Y89405D01*
X948784Y89380D01*
X948743Y89329D01*
X948694Y89285D01*
X948672Y89243D01*
X948643Y89206D01*
X948622Y89144D01*
X948591Y89085D01*
X948583Y89031D01*
X948571Y88994D01*
X948572Y88954D01*
X948571Y88950D01*
X948571Y88949D01*
X948571Y88947D01*
X948564Y88900D01*
X948564Y50800D01*
X948575Y50735D01*
X948577Y50669D01*
X948595Y50626D01*
X948603Y50579D01*
X948637Y50522D01*
X948662Y50462D01*
X948693Y50427D01*
X948718Y50386D01*
X948769Y50345D01*
X948813Y50296D01*
X948855Y50274D01*
X948892Y50245D01*
X948954Y50224D01*
X949013Y50193D01*
X949067Y50185D01*
X949104Y50173D01*
X949144Y50174D01*
X949198Y50166D01*
X980948Y50166D01*
X981013Y50177D01*
G37*
D10*
X432562Y115062D02*
X437981Y131318D01*
X443399Y115062D01*
X442045Y119126D02*
X433917Y119126D01*
X450486Y115062D02*
X450486Y131318D01*
X448679Y115062D02*
X452292Y115062D01*
X452292Y131318D02*
X448679Y131318D01*
X459135Y131318D02*
X459135Y115062D01*
X464554Y122287D02*
X459135Y131318D01*
X464554Y122287D02*
X469972Y131318D01*
X469972Y115062D01*
X477233Y124093D02*
X482651Y124093D01*
X482769Y124091D01*
X482887Y124085D01*
X483005Y124076D01*
X483122Y124062D01*
X483239Y124045D01*
X483356Y124024D01*
X483471Y123999D01*
X483586Y123970D01*
X483700Y123937D01*
X483812Y123901D01*
X483923Y123861D01*
X484033Y123818D01*
X484142Y123771D01*
X484249Y123721D01*
X484354Y123666D01*
X484457Y123609D01*
X484558Y123548D01*
X484658Y123484D01*
X484755Y123417D01*
X484850Y123347D01*
X484942Y123273D01*
X485033Y123197D01*
X485120Y123117D01*
X485205Y123035D01*
X485287Y122950D01*
X485367Y122863D01*
X485443Y122772D01*
X485517Y122680D01*
X485587Y122585D01*
X485654Y122488D01*
X485718Y122388D01*
X485779Y122287D01*
X485836Y122184D01*
X485891Y122079D01*
X485941Y121972D01*
X485988Y121863D01*
X486031Y121753D01*
X486071Y121642D01*
X486107Y121530D01*
X486140Y121416D01*
X486169Y121301D01*
X486194Y121186D01*
X486215Y121069D01*
X486232Y120952D01*
X486246Y120835D01*
X486255Y120717D01*
X486261Y120599D01*
X486263Y120481D01*
X486264Y120481D02*
X486264Y119578D01*
X486262Y119445D01*
X486256Y119313D01*
X486246Y119181D01*
X486233Y119049D01*
X486215Y118917D01*
X486194Y118787D01*
X486169Y118656D01*
X486140Y118527D01*
X486107Y118399D01*
X486071Y118271D01*
X486031Y118145D01*
X485987Y118020D01*
X485939Y117896D01*
X485888Y117774D01*
X485833Y117653D01*
X485775Y117534D01*
X485713Y117416D01*
X485648Y117301D01*
X485579Y117187D01*
X485508Y117076D01*
X485432Y116967D01*
X485354Y116860D01*
X485273Y116755D01*
X485188Y116653D01*
X485101Y116553D01*
X485011Y116456D01*
X484918Y116361D01*
X484822Y116270D01*
X484724Y116181D01*
X484623Y116095D01*
X484519Y116012D01*
X484413Y115932D01*
X484305Y115856D01*
X484195Y115782D01*
X484082Y115712D01*
X483968Y115645D01*
X483851Y115582D01*
X483733Y115522D01*
X483613Y115465D01*
X483491Y115412D01*
X483368Y115363D01*
X483244Y115317D01*
X483118Y115275D01*
X482991Y115237D01*
X482863Y115202D01*
X482734Y115171D01*
X482605Y115144D01*
X482474Y115121D01*
X482343Y115101D01*
X482211Y115086D01*
X482079Y115074D01*
X481947Y115066D01*
X481814Y115062D01*
X481682Y115062D01*
X481549Y115066D01*
X481417Y115074D01*
X481285Y115086D01*
X481153Y115101D01*
X481022Y115121D01*
X480891Y115144D01*
X480762Y115171D01*
X480633Y115202D01*
X480505Y115237D01*
X480378Y115275D01*
X480252Y115317D01*
X480128Y115363D01*
X480005Y115412D01*
X479883Y115465D01*
X479763Y115522D01*
X479645Y115582D01*
X479528Y115645D01*
X479414Y115712D01*
X479301Y115782D01*
X479191Y115856D01*
X479083Y115932D01*
X478977Y116012D01*
X478873Y116095D01*
X478772Y116181D01*
X478674Y116270D01*
X478578Y116361D01*
X478485Y116456D01*
X478395Y116553D01*
X478308Y116653D01*
X478223Y116755D01*
X478142Y116860D01*
X478064Y116967D01*
X477988Y117076D01*
X477917Y117187D01*
X477848Y117301D01*
X477783Y117416D01*
X477721Y117534D01*
X477663Y117653D01*
X477608Y117774D01*
X477557Y117896D01*
X477509Y118020D01*
X477465Y118145D01*
X477425Y118271D01*
X477389Y118399D01*
X477356Y118527D01*
X477327Y118656D01*
X477302Y118787D01*
X477281Y118917D01*
X477263Y119049D01*
X477250Y119181D01*
X477240Y119313D01*
X477234Y119445D01*
X477232Y119578D01*
X477233Y119578D02*
X477233Y124093D01*
X477232Y124093D02*
X477234Y124270D01*
X477241Y124448D01*
X477252Y124625D01*
X477267Y124801D01*
X477286Y124977D01*
X477310Y125153D01*
X477338Y125328D01*
X477371Y125503D01*
X477408Y125676D01*
X477449Y125849D01*
X477494Y126020D01*
X477543Y126190D01*
X477597Y126359D01*
X477654Y126527D01*
X477716Y126693D01*
X477782Y126858D01*
X477852Y127021D01*
X477926Y127182D01*
X478003Y127341D01*
X478085Y127499D01*
X478171Y127654D01*
X478260Y127807D01*
X478353Y127958D01*
X478450Y128107D01*
X478550Y128253D01*
X478654Y128397D01*
X478761Y128538D01*
X478872Y128676D01*
X478986Y128812D01*
X479104Y128945D01*
X479224Y129075D01*
X479348Y129202D01*
X479475Y129326D01*
X479605Y129446D01*
X479738Y129564D01*
X479873Y129678D01*
X480012Y129789D01*
X480153Y129896D01*
X480297Y130000D01*
X480443Y130100D01*
X480592Y130197D01*
X480743Y130290D01*
X480896Y130379D01*
X481051Y130465D01*
X481209Y130547D01*
X481368Y130624D01*
X481529Y130698D01*
X481692Y130768D01*
X481857Y130834D01*
X482023Y130896D01*
X482191Y130953D01*
X482360Y131007D01*
X482530Y131056D01*
X482701Y131101D01*
X482874Y131142D01*
X483047Y131179D01*
X483222Y131212D01*
X483397Y131240D01*
X483573Y131264D01*
X483749Y131283D01*
X483925Y131298D01*
X484102Y131309D01*
X484280Y131316D01*
X484457Y131318D01*
X492864Y115062D02*
X498282Y115062D01*
X498400Y115064D01*
X498518Y115070D01*
X498636Y115079D01*
X498753Y115093D01*
X498870Y115110D01*
X498987Y115131D01*
X499102Y115156D01*
X499217Y115185D01*
X499331Y115218D01*
X499443Y115254D01*
X499554Y115294D01*
X499664Y115337D01*
X499773Y115384D01*
X499880Y115434D01*
X499985Y115489D01*
X500088Y115546D01*
X500189Y115607D01*
X500289Y115671D01*
X500386Y115738D01*
X500481Y115808D01*
X500573Y115882D01*
X500664Y115958D01*
X500751Y116038D01*
X500836Y116120D01*
X500918Y116205D01*
X500998Y116292D01*
X501074Y116383D01*
X501148Y116475D01*
X501218Y116570D01*
X501285Y116667D01*
X501349Y116767D01*
X501410Y116868D01*
X501467Y116971D01*
X501522Y117076D01*
X501572Y117183D01*
X501619Y117292D01*
X501662Y117402D01*
X501702Y117513D01*
X501738Y117625D01*
X501771Y117739D01*
X501800Y117854D01*
X501825Y117969D01*
X501846Y118086D01*
X501863Y118203D01*
X501877Y118320D01*
X501886Y118438D01*
X501892Y118556D01*
X501894Y118674D01*
X501895Y118674D02*
X501895Y120481D01*
X501894Y120481D02*
X501892Y120599D01*
X501886Y120717D01*
X501877Y120835D01*
X501863Y120952D01*
X501846Y121069D01*
X501825Y121186D01*
X501800Y121301D01*
X501771Y121416D01*
X501738Y121530D01*
X501702Y121642D01*
X501662Y121753D01*
X501619Y121863D01*
X501572Y121972D01*
X501522Y122079D01*
X501467Y122184D01*
X501410Y122287D01*
X501349Y122388D01*
X501285Y122488D01*
X501218Y122585D01*
X501148Y122680D01*
X501074Y122772D01*
X500998Y122863D01*
X500918Y122950D01*
X500836Y123035D01*
X500751Y123117D01*
X500664Y123197D01*
X500573Y123273D01*
X500481Y123347D01*
X500386Y123417D01*
X500289Y123484D01*
X500189Y123548D01*
X500088Y123609D01*
X499985Y123666D01*
X499880Y123721D01*
X499773Y123771D01*
X499664Y123818D01*
X499554Y123861D01*
X499443Y123901D01*
X499331Y123937D01*
X499217Y123970D01*
X499102Y123999D01*
X498987Y124024D01*
X498870Y124045D01*
X498753Y124062D01*
X498636Y124076D01*
X498518Y124085D01*
X498400Y124091D01*
X498282Y124093D01*
X492864Y124093D01*
X492864Y131318D01*
X501895Y131318D01*
X508634Y121384D02*
X519471Y121384D01*
X526666Y115062D02*
X526666Y131318D01*
X526666Y115062D02*
X531181Y115062D01*
X531285Y115064D01*
X531388Y115070D01*
X531492Y115080D01*
X531595Y115094D01*
X531697Y115112D01*
X531798Y115133D01*
X531899Y115159D01*
X531998Y115188D01*
X532097Y115221D01*
X532194Y115258D01*
X532289Y115299D01*
X532383Y115343D01*
X532475Y115391D01*
X532565Y115442D01*
X532654Y115497D01*
X532740Y115555D01*
X532823Y115617D01*
X532905Y115681D01*
X532983Y115749D01*
X533059Y115819D01*
X533133Y115892D01*
X533203Y115969D01*
X533271Y116047D01*
X533335Y116129D01*
X533397Y116212D01*
X533455Y116298D01*
X533510Y116387D01*
X533561Y116477D01*
X533609Y116569D01*
X533653Y116663D01*
X533694Y116758D01*
X533731Y116855D01*
X533764Y116954D01*
X533793Y117053D01*
X533819Y117154D01*
X533840Y117255D01*
X533858Y117357D01*
X533872Y117460D01*
X533882Y117564D01*
X533888Y117667D01*
X533890Y117771D01*
X533891Y117771D02*
X533891Y123190D01*
X533890Y123190D02*
X533888Y123291D01*
X533882Y123392D01*
X533873Y123493D01*
X533860Y123594D01*
X533843Y123694D01*
X533822Y123793D01*
X533798Y123891D01*
X533770Y123988D01*
X533738Y124085D01*
X533703Y124180D01*
X533664Y124273D01*
X533622Y124365D01*
X533576Y124456D01*
X533527Y124545D01*
X533475Y124631D01*
X533419Y124716D01*
X533361Y124799D01*
X533299Y124879D01*
X533234Y124957D01*
X533167Y125033D01*
X533097Y125106D01*
X533024Y125176D01*
X532948Y125243D01*
X532870Y125308D01*
X532790Y125370D01*
X532707Y125428D01*
X532622Y125484D01*
X532536Y125536D01*
X532447Y125585D01*
X532356Y125631D01*
X532264Y125673D01*
X532171Y125712D01*
X532076Y125747D01*
X531979Y125779D01*
X531882Y125807D01*
X531784Y125831D01*
X531685Y125852D01*
X531585Y125869D01*
X531484Y125882D01*
X531383Y125891D01*
X531282Y125897D01*
X531181Y125899D01*
X526666Y125899D01*
X543227Y121384D02*
X547291Y121384D01*
X543227Y121384D02*
X543115Y121382D01*
X543004Y121376D01*
X542893Y121366D01*
X542782Y121353D01*
X542672Y121335D01*
X542563Y121313D01*
X542454Y121288D01*
X542346Y121259D01*
X542240Y121226D01*
X542134Y121189D01*
X542030Y121149D01*
X541928Y121105D01*
X541827Y121057D01*
X541728Y121006D01*
X541630Y120951D01*
X541535Y120893D01*
X541442Y120832D01*
X541351Y120767D01*
X541262Y120699D01*
X541176Y120628D01*
X541093Y120555D01*
X541012Y120478D01*
X540933Y120398D01*
X540858Y120316D01*
X540786Y120231D01*
X540716Y120144D01*
X540650Y120054D01*
X540587Y119962D01*
X540527Y119867D01*
X540471Y119771D01*
X540418Y119673D01*
X540369Y119573D01*
X540323Y119471D01*
X540281Y119368D01*
X540242Y119263D01*
X540207Y119157D01*
X540176Y119050D01*
X540149Y118942D01*
X540125Y118833D01*
X540106Y118723D01*
X540090Y118613D01*
X540078Y118502D01*
X540070Y118390D01*
X540066Y118279D01*
X540066Y118167D01*
X540070Y118056D01*
X540078Y117944D01*
X540090Y117833D01*
X540106Y117723D01*
X540125Y117613D01*
X540149Y117504D01*
X540176Y117396D01*
X540207Y117289D01*
X540242Y117183D01*
X540281Y117078D01*
X540323Y116975D01*
X540369Y116873D01*
X540418Y116773D01*
X540471Y116675D01*
X540527Y116579D01*
X540587Y116484D01*
X540650Y116392D01*
X540716Y116302D01*
X540786Y116215D01*
X540858Y116130D01*
X540933Y116048D01*
X541012Y115968D01*
X541093Y115891D01*
X541176Y115818D01*
X541262Y115747D01*
X541351Y115679D01*
X541442Y115614D01*
X541535Y115553D01*
X541630Y115495D01*
X541728Y115440D01*
X541827Y115389D01*
X541928Y115341D01*
X542030Y115297D01*
X542134Y115257D01*
X542240Y115220D01*
X542346Y115187D01*
X542454Y115158D01*
X542563Y115133D01*
X542672Y115111D01*
X542782Y115093D01*
X542893Y115080D01*
X543004Y115070D01*
X543115Y115064D01*
X543227Y115062D01*
X547291Y115062D01*
X547291Y123190D01*
X547289Y123291D01*
X547283Y123392D01*
X547274Y123493D01*
X547261Y123594D01*
X547244Y123694D01*
X547223Y123793D01*
X547199Y123891D01*
X547171Y123988D01*
X547139Y124085D01*
X547104Y124180D01*
X547065Y124273D01*
X547023Y124365D01*
X546977Y124456D01*
X546928Y124545D01*
X546876Y124631D01*
X546820Y124716D01*
X546762Y124799D01*
X546700Y124879D01*
X546635Y124957D01*
X546568Y125033D01*
X546498Y125106D01*
X546425Y125176D01*
X546349Y125243D01*
X546271Y125308D01*
X546191Y125370D01*
X546108Y125428D01*
X546023Y125484D01*
X545937Y125536D01*
X545848Y125585D01*
X545757Y125631D01*
X545665Y125673D01*
X545572Y125712D01*
X545477Y125747D01*
X545380Y125779D01*
X545283Y125807D01*
X545185Y125831D01*
X545086Y125852D01*
X544986Y125869D01*
X544885Y125882D01*
X544784Y125891D01*
X544683Y125897D01*
X544582Y125899D01*
X540969Y125899D01*
X556934Y115062D02*
X560547Y115062D01*
X556934Y115062D02*
X556833Y115064D01*
X556732Y115070D01*
X556631Y115079D01*
X556530Y115092D01*
X556430Y115109D01*
X556331Y115130D01*
X556233Y115154D01*
X556136Y115182D01*
X556039Y115214D01*
X555944Y115249D01*
X555851Y115288D01*
X555759Y115330D01*
X555668Y115376D01*
X555580Y115425D01*
X555493Y115477D01*
X555408Y115533D01*
X555325Y115591D01*
X555245Y115653D01*
X555167Y115718D01*
X555091Y115785D01*
X555018Y115855D01*
X554948Y115928D01*
X554881Y116004D01*
X554816Y116082D01*
X554754Y116162D01*
X554696Y116245D01*
X554640Y116330D01*
X554588Y116417D01*
X554539Y116505D01*
X554493Y116596D01*
X554451Y116688D01*
X554412Y116781D01*
X554377Y116876D01*
X554345Y116973D01*
X554317Y117070D01*
X554293Y117168D01*
X554272Y117267D01*
X554255Y117367D01*
X554242Y117468D01*
X554233Y117569D01*
X554227Y117670D01*
X554225Y117771D01*
X554225Y123190D01*
X554227Y123291D01*
X554233Y123392D01*
X554242Y123493D01*
X554255Y123594D01*
X554272Y123694D01*
X554293Y123793D01*
X554317Y123891D01*
X554345Y123988D01*
X554377Y124085D01*
X554412Y124180D01*
X554451Y124273D01*
X554493Y124365D01*
X554539Y124456D01*
X554588Y124545D01*
X554640Y124631D01*
X554696Y124716D01*
X554754Y124799D01*
X554816Y124879D01*
X554881Y124957D01*
X554948Y125033D01*
X555018Y125106D01*
X555091Y125176D01*
X555167Y125243D01*
X555245Y125308D01*
X555325Y125370D01*
X555408Y125428D01*
X555493Y125484D01*
X555580Y125536D01*
X555668Y125585D01*
X555759Y125631D01*
X555851Y125673D01*
X555944Y125712D01*
X556039Y125747D01*
X556136Y125779D01*
X556233Y125807D01*
X556331Y125831D01*
X556430Y125852D01*
X556530Y125869D01*
X556631Y125882D01*
X556732Y125891D01*
X556833Y125897D01*
X556934Y125899D01*
X560547Y125899D01*
X566881Y131318D02*
X566881Y115062D01*
X566881Y120481D02*
X574106Y125899D01*
X570042Y122738D02*
X574106Y115062D01*
X580333Y109643D02*
X580333Y125899D01*
X584848Y125899D01*
X584952Y125897D01*
X585055Y125891D01*
X585159Y125881D01*
X585262Y125867D01*
X585364Y125849D01*
X585465Y125828D01*
X585566Y125802D01*
X585665Y125773D01*
X585764Y125740D01*
X585861Y125703D01*
X585956Y125662D01*
X586050Y125618D01*
X586142Y125570D01*
X586232Y125519D01*
X586321Y125464D01*
X586407Y125406D01*
X586490Y125344D01*
X586572Y125280D01*
X586650Y125212D01*
X586726Y125142D01*
X586800Y125069D01*
X586870Y124992D01*
X586938Y124914D01*
X587002Y124832D01*
X587064Y124749D01*
X587122Y124663D01*
X587177Y124574D01*
X587228Y124484D01*
X587276Y124392D01*
X587320Y124298D01*
X587361Y124203D01*
X587398Y124106D01*
X587431Y124007D01*
X587460Y123908D01*
X587486Y123807D01*
X587507Y123706D01*
X587525Y123604D01*
X587539Y123501D01*
X587549Y123397D01*
X587555Y123294D01*
X587557Y123190D01*
X587558Y123190D02*
X587558Y117771D01*
X587557Y117771D02*
X587555Y117670D01*
X587549Y117569D01*
X587540Y117468D01*
X587527Y117367D01*
X587510Y117267D01*
X587489Y117168D01*
X587465Y117070D01*
X587437Y116973D01*
X587405Y116876D01*
X587370Y116781D01*
X587331Y116688D01*
X587289Y116596D01*
X587243Y116505D01*
X587194Y116416D01*
X587142Y116330D01*
X587086Y116245D01*
X587028Y116162D01*
X586966Y116082D01*
X586901Y116004D01*
X586834Y115928D01*
X586764Y115855D01*
X586691Y115785D01*
X586615Y115718D01*
X586537Y115653D01*
X586457Y115591D01*
X586374Y115533D01*
X586289Y115477D01*
X586203Y115425D01*
X586114Y115376D01*
X586023Y115330D01*
X585931Y115288D01*
X585838Y115249D01*
X585743Y115214D01*
X585646Y115182D01*
X585549Y115154D01*
X585451Y115130D01*
X585352Y115109D01*
X585252Y115092D01*
X585151Y115079D01*
X585050Y115070D01*
X584949Y115064D01*
X584848Y115062D01*
X580333Y115062D01*
X594044Y117771D02*
X594044Y131318D01*
X594044Y117771D02*
X594046Y117670D01*
X594052Y117569D01*
X594061Y117468D01*
X594074Y117367D01*
X594091Y117267D01*
X594112Y117168D01*
X594136Y117070D01*
X594164Y116973D01*
X594196Y116876D01*
X594231Y116781D01*
X594270Y116688D01*
X594312Y116596D01*
X594358Y116505D01*
X594407Y116417D01*
X594459Y116330D01*
X594515Y116245D01*
X594573Y116162D01*
X594635Y116082D01*
X594700Y116004D01*
X594767Y115928D01*
X594837Y115855D01*
X594910Y115785D01*
X594986Y115718D01*
X595064Y115653D01*
X595144Y115591D01*
X595227Y115533D01*
X595312Y115477D01*
X595399Y115425D01*
X595487Y115376D01*
X595578Y115330D01*
X595670Y115288D01*
X595763Y115249D01*
X595858Y115214D01*
X595955Y115182D01*
X596052Y115154D01*
X596150Y115130D01*
X596249Y115109D01*
X596349Y115092D01*
X596450Y115079D01*
X596551Y115070D01*
X596652Y115064D01*
X596753Y115062D01*
X605231Y121384D02*
X609295Y121384D01*
X605231Y121384D02*
X605119Y121382D01*
X605008Y121376D01*
X604897Y121366D01*
X604786Y121353D01*
X604676Y121335D01*
X604567Y121313D01*
X604458Y121288D01*
X604350Y121259D01*
X604244Y121226D01*
X604138Y121189D01*
X604034Y121149D01*
X603932Y121105D01*
X603831Y121057D01*
X603732Y121006D01*
X603634Y120951D01*
X603539Y120893D01*
X603446Y120832D01*
X603355Y120767D01*
X603266Y120699D01*
X603180Y120628D01*
X603097Y120555D01*
X603016Y120478D01*
X602937Y120398D01*
X602862Y120316D01*
X602790Y120231D01*
X602720Y120144D01*
X602654Y120054D01*
X602591Y119962D01*
X602531Y119867D01*
X602475Y119771D01*
X602422Y119673D01*
X602373Y119573D01*
X602327Y119471D01*
X602285Y119368D01*
X602246Y119263D01*
X602211Y119157D01*
X602180Y119050D01*
X602153Y118942D01*
X602129Y118833D01*
X602110Y118723D01*
X602094Y118613D01*
X602082Y118502D01*
X602074Y118390D01*
X602070Y118279D01*
X602070Y118167D01*
X602074Y118056D01*
X602082Y117944D01*
X602094Y117833D01*
X602110Y117723D01*
X602129Y117613D01*
X602153Y117504D01*
X602180Y117396D01*
X602211Y117289D01*
X602246Y117183D01*
X602285Y117078D01*
X602327Y116975D01*
X602373Y116873D01*
X602422Y116773D01*
X602475Y116675D01*
X602531Y116579D01*
X602591Y116484D01*
X602654Y116392D01*
X602720Y116302D01*
X602790Y116215D01*
X602862Y116130D01*
X602937Y116048D01*
X603016Y115968D01*
X603097Y115891D01*
X603180Y115818D01*
X603266Y115747D01*
X603355Y115679D01*
X603446Y115614D01*
X603539Y115553D01*
X603634Y115495D01*
X603732Y115440D01*
X603831Y115389D01*
X603932Y115341D01*
X604034Y115297D01*
X604138Y115257D01*
X604244Y115220D01*
X604350Y115187D01*
X604458Y115158D01*
X604567Y115133D01*
X604676Y115111D01*
X604786Y115093D01*
X604897Y115080D01*
X605008Y115070D01*
X605119Y115064D01*
X605231Y115062D01*
X609295Y115062D01*
X609295Y123190D01*
X609293Y123291D01*
X609287Y123392D01*
X609278Y123493D01*
X609265Y123594D01*
X609248Y123694D01*
X609227Y123793D01*
X609203Y123891D01*
X609175Y123988D01*
X609143Y124085D01*
X609108Y124180D01*
X609069Y124273D01*
X609027Y124365D01*
X608981Y124456D01*
X608932Y124545D01*
X608880Y124631D01*
X608824Y124716D01*
X608766Y124799D01*
X608704Y124879D01*
X608639Y124957D01*
X608572Y125033D01*
X608502Y125106D01*
X608429Y125176D01*
X608353Y125243D01*
X608275Y125308D01*
X608195Y125370D01*
X608112Y125428D01*
X608027Y125484D01*
X607941Y125536D01*
X607852Y125585D01*
X607761Y125631D01*
X607669Y125673D01*
X607576Y125712D01*
X607481Y125747D01*
X607384Y125779D01*
X607287Y125807D01*
X607189Y125831D01*
X607090Y125852D01*
X606990Y125869D01*
X606889Y125882D01*
X606788Y125891D01*
X606687Y125897D01*
X606586Y125899D01*
X602973Y125899D01*
X616732Y125899D02*
X616732Y115062D01*
X616732Y125899D02*
X621248Y125899D01*
X621352Y125897D01*
X621455Y125891D01*
X621559Y125881D01*
X621662Y125867D01*
X621764Y125849D01*
X621865Y125828D01*
X621966Y125802D01*
X622065Y125773D01*
X622164Y125740D01*
X622261Y125703D01*
X622356Y125662D01*
X622450Y125618D01*
X622542Y125570D01*
X622632Y125519D01*
X622721Y125464D01*
X622807Y125406D01*
X622890Y125344D01*
X622972Y125280D01*
X623050Y125212D01*
X623126Y125142D01*
X623200Y125069D01*
X623270Y124992D01*
X623338Y124914D01*
X623402Y124832D01*
X623464Y124749D01*
X623522Y124663D01*
X623577Y124574D01*
X623628Y124484D01*
X623676Y124392D01*
X623720Y124298D01*
X623761Y124203D01*
X623798Y124106D01*
X623831Y124007D01*
X623860Y123908D01*
X623886Y123807D01*
X623907Y123706D01*
X623925Y123604D01*
X623939Y123501D01*
X623949Y123397D01*
X623955Y123294D01*
X623957Y123190D01*
X623957Y115062D01*
X633510Y115062D02*
X638025Y115062D01*
X633510Y115062D02*
X633409Y115064D01*
X633308Y115070D01*
X633207Y115079D01*
X633106Y115092D01*
X633006Y115109D01*
X632907Y115130D01*
X632809Y115154D01*
X632712Y115182D01*
X632615Y115214D01*
X632520Y115249D01*
X632427Y115288D01*
X632335Y115330D01*
X632244Y115376D01*
X632156Y115425D01*
X632069Y115477D01*
X631984Y115533D01*
X631901Y115591D01*
X631821Y115653D01*
X631743Y115718D01*
X631667Y115785D01*
X631594Y115855D01*
X631524Y115928D01*
X631457Y116004D01*
X631392Y116082D01*
X631330Y116162D01*
X631272Y116245D01*
X631216Y116330D01*
X631164Y116417D01*
X631115Y116505D01*
X631069Y116596D01*
X631027Y116688D01*
X630988Y116781D01*
X630953Y116876D01*
X630921Y116973D01*
X630893Y117070D01*
X630869Y117168D01*
X630848Y117267D01*
X630831Y117367D01*
X630818Y117468D01*
X630809Y117569D01*
X630803Y117670D01*
X630801Y117771D01*
X630801Y122287D01*
X630803Y122406D01*
X630809Y122526D01*
X630819Y122645D01*
X630833Y122763D01*
X630850Y122882D01*
X630872Y122999D01*
X630897Y123116D01*
X630927Y123231D01*
X630960Y123346D01*
X630997Y123460D01*
X631037Y123572D01*
X631082Y123683D01*
X631130Y123792D01*
X631181Y123900D01*
X631236Y124006D01*
X631295Y124110D01*
X631357Y124212D01*
X631422Y124312D01*
X631491Y124410D01*
X631563Y124506D01*
X631638Y124599D01*
X631715Y124689D01*
X631796Y124777D01*
X631880Y124862D01*
X631967Y124944D01*
X632056Y125024D01*
X632148Y125100D01*
X632242Y125174D01*
X632339Y125244D01*
X632437Y125311D01*
X632538Y125375D01*
X632642Y125435D01*
X632747Y125492D01*
X632854Y125545D01*
X632962Y125595D01*
X633072Y125641D01*
X633184Y125683D01*
X633297Y125722D01*
X633411Y125757D01*
X633526Y125788D01*
X633643Y125816D01*
X633760Y125839D01*
X633877Y125859D01*
X633996Y125875D01*
X634115Y125887D01*
X634234Y125895D01*
X634353Y125899D01*
X634473Y125899D01*
X634592Y125895D01*
X634711Y125887D01*
X634830Y125875D01*
X634949Y125859D01*
X635066Y125839D01*
X635183Y125816D01*
X635300Y125788D01*
X635415Y125757D01*
X635529Y125722D01*
X635642Y125683D01*
X635754Y125641D01*
X635864Y125595D01*
X635972Y125545D01*
X636079Y125492D01*
X636184Y125435D01*
X636288Y125375D01*
X636389Y125311D01*
X636487Y125244D01*
X636584Y125174D01*
X636678Y125100D01*
X636770Y125024D01*
X636859Y124944D01*
X636946Y124862D01*
X637030Y124777D01*
X637111Y124689D01*
X637188Y124599D01*
X637263Y124506D01*
X637335Y124410D01*
X637404Y124312D01*
X637469Y124212D01*
X637531Y124110D01*
X637590Y124006D01*
X637645Y123900D01*
X637696Y123792D01*
X637744Y123683D01*
X637789Y123572D01*
X637829Y123460D01*
X637866Y123346D01*
X637899Y123231D01*
X637929Y123116D01*
X637954Y122999D01*
X637976Y122882D01*
X637993Y122763D01*
X638007Y122645D01*
X638017Y122526D01*
X638023Y122406D01*
X638025Y122287D01*
X638025Y120481D01*
X630801Y120481D01*
X649454Y131318D02*
X649579Y131316D01*
X649704Y131310D01*
X649829Y131301D01*
X649953Y131287D01*
X650077Y131270D01*
X650201Y131249D01*
X650323Y131224D01*
X650445Y131195D01*
X650566Y131163D01*
X650686Y131127D01*
X650805Y131087D01*
X650922Y131044D01*
X651038Y130997D01*
X651153Y130946D01*
X651265Y130892D01*
X651377Y130834D01*
X651486Y130774D01*
X651593Y130709D01*
X651699Y130642D01*
X651802Y130571D01*
X651903Y130497D01*
X652002Y130420D01*
X652098Y130340D01*
X652192Y130257D01*
X652283Y130172D01*
X652372Y130083D01*
X652457Y129992D01*
X652540Y129898D01*
X652620Y129802D01*
X652697Y129703D01*
X652771Y129602D01*
X652842Y129499D01*
X652909Y129393D01*
X652974Y129286D01*
X653034Y129177D01*
X653092Y129065D01*
X653146Y128953D01*
X653197Y128838D01*
X653244Y128722D01*
X653287Y128605D01*
X653327Y128486D01*
X653363Y128366D01*
X653395Y128245D01*
X653424Y128123D01*
X653449Y128001D01*
X653470Y127877D01*
X653487Y127753D01*
X653501Y127629D01*
X653510Y127504D01*
X653516Y127379D01*
X653518Y127254D01*
X649454Y131318D02*
X649311Y131316D01*
X649169Y131310D01*
X649026Y131300D01*
X648884Y131287D01*
X648743Y131269D01*
X648601Y131248D01*
X648461Y131223D01*
X648321Y131194D01*
X648182Y131161D01*
X648044Y131124D01*
X647907Y131084D01*
X647772Y131040D01*
X647637Y130992D01*
X647504Y130940D01*
X647372Y130885D01*
X647242Y130826D01*
X647114Y130764D01*
X646987Y130698D01*
X646862Y130629D01*
X646739Y130557D01*
X646619Y130481D01*
X646500Y130402D01*
X646383Y130319D01*
X646269Y130234D01*
X646157Y130145D01*
X646048Y130054D01*
X645941Y129959D01*
X645836Y129862D01*
X645735Y129761D01*
X645636Y129658D01*
X645540Y129553D01*
X645447Y129444D01*
X645357Y129333D01*
X645270Y129220D01*
X645186Y129105D01*
X645106Y128987D01*
X645028Y128867D01*
X644954Y128745D01*
X644884Y128621D01*
X644816Y128495D01*
X644753Y128367D01*
X644692Y128238D01*
X644635Y128107D01*
X644582Y127975D01*
X644533Y127841D01*
X644487Y127706D01*
X652163Y124093D02*
X652257Y124185D01*
X652347Y124279D01*
X652435Y124376D01*
X652520Y124476D01*
X652602Y124578D01*
X652681Y124683D01*
X652756Y124790D01*
X652828Y124899D01*
X652897Y125010D01*
X652963Y125124D01*
X653025Y125239D01*
X653084Y125356D01*
X653139Y125475D01*
X653190Y125595D01*
X653238Y125717D01*
X653283Y125840D01*
X653323Y125964D01*
X653360Y126090D01*
X653393Y126217D01*
X653422Y126344D01*
X653448Y126473D01*
X653469Y126602D01*
X653487Y126732D01*
X653500Y126862D01*
X653510Y126992D01*
X653516Y127123D01*
X653518Y127254D01*
X652163Y124093D02*
X644487Y115062D01*
X653518Y115062D01*
M02*
