G04 EAGLE Gerber RS-274X export*
G75*
%MOMM*%
%FSLAX34Y34*%
%LPD*%
%INBoard Outline*%
%IPPOS*%
%AMOC8*
5,1,8,0,0,1.08239X$1,22.5*%
G01*
%ADD10C,0.000000*%
%ADD11C,0.254000*%


D10*
X0Y0D02*
X1099312Y0D01*
X1099312Y482600D01*
X0Y482600D01*
X0Y0D01*
X47752Y146050D02*
X47757Y146436D01*
X47771Y146823D01*
X47795Y147208D01*
X47828Y147594D01*
X47870Y147978D01*
X47922Y148361D01*
X47984Y148742D01*
X48055Y149122D01*
X48135Y149500D01*
X48224Y149876D01*
X48322Y150250D01*
X48430Y150621D01*
X48547Y150990D01*
X48673Y151355D01*
X48807Y151718D01*
X48951Y152076D01*
X49103Y152432D01*
X49264Y152783D01*
X49434Y153130D01*
X49612Y153474D01*
X49798Y153812D01*
X49992Y154146D01*
X50195Y154475D01*
X50406Y154799D01*
X50625Y155118D01*
X50851Y155431D01*
X51085Y155739D01*
X51327Y156040D01*
X51575Y156336D01*
X51832Y156626D01*
X52095Y156909D01*
X52364Y157186D01*
X52641Y157455D01*
X52924Y157718D01*
X53214Y157975D01*
X53510Y158223D01*
X53811Y158465D01*
X54119Y158699D01*
X54432Y158925D01*
X54751Y159144D01*
X55075Y159355D01*
X55404Y159558D01*
X55738Y159752D01*
X56076Y159938D01*
X56420Y160116D01*
X56767Y160286D01*
X57118Y160447D01*
X57474Y160599D01*
X57832Y160743D01*
X58195Y160877D01*
X58560Y161003D01*
X58929Y161120D01*
X59300Y161228D01*
X59674Y161326D01*
X60050Y161415D01*
X60428Y161495D01*
X60808Y161566D01*
X61189Y161628D01*
X61572Y161680D01*
X61956Y161722D01*
X62342Y161755D01*
X62727Y161779D01*
X63114Y161793D01*
X63500Y161798D01*
X63886Y161793D01*
X64273Y161779D01*
X64658Y161755D01*
X65044Y161722D01*
X65428Y161680D01*
X65811Y161628D01*
X66192Y161566D01*
X66572Y161495D01*
X66950Y161415D01*
X67326Y161326D01*
X67700Y161228D01*
X68071Y161120D01*
X68440Y161003D01*
X68805Y160877D01*
X69168Y160743D01*
X69526Y160599D01*
X69882Y160447D01*
X70233Y160286D01*
X70580Y160116D01*
X70924Y159938D01*
X71262Y159752D01*
X71596Y159558D01*
X71925Y159355D01*
X72249Y159144D01*
X72568Y158925D01*
X72881Y158699D01*
X73189Y158465D01*
X73490Y158223D01*
X73786Y157975D01*
X74076Y157718D01*
X74359Y157455D01*
X74636Y157186D01*
X74905Y156909D01*
X75168Y156626D01*
X75425Y156336D01*
X75673Y156040D01*
X75915Y155739D01*
X76149Y155431D01*
X76375Y155118D01*
X76594Y154799D01*
X76805Y154475D01*
X77008Y154146D01*
X77202Y153812D01*
X77388Y153474D01*
X77566Y153130D01*
X77736Y152783D01*
X77897Y152432D01*
X78049Y152076D01*
X78193Y151718D01*
X78327Y151355D01*
X78453Y150990D01*
X78570Y150621D01*
X78678Y150250D01*
X78776Y149876D01*
X78865Y149500D01*
X78945Y149122D01*
X79016Y148742D01*
X79078Y148361D01*
X79130Y147978D01*
X79172Y147594D01*
X79205Y147208D01*
X79229Y146823D01*
X79243Y146436D01*
X79248Y146050D01*
X79243Y145664D01*
X79229Y145277D01*
X79205Y144892D01*
X79172Y144506D01*
X79130Y144122D01*
X79078Y143739D01*
X79016Y143358D01*
X78945Y142978D01*
X78865Y142600D01*
X78776Y142224D01*
X78678Y141850D01*
X78570Y141479D01*
X78453Y141110D01*
X78327Y140745D01*
X78193Y140382D01*
X78049Y140024D01*
X77897Y139668D01*
X77736Y139317D01*
X77566Y138970D01*
X77388Y138626D01*
X77202Y138288D01*
X77008Y137954D01*
X76805Y137625D01*
X76594Y137301D01*
X76375Y136982D01*
X76149Y136669D01*
X75915Y136361D01*
X75673Y136060D01*
X75425Y135764D01*
X75168Y135474D01*
X74905Y135191D01*
X74636Y134914D01*
X74359Y134645D01*
X74076Y134382D01*
X73786Y134125D01*
X73490Y133877D01*
X73189Y133635D01*
X72881Y133401D01*
X72568Y133175D01*
X72249Y132956D01*
X71925Y132745D01*
X71596Y132542D01*
X71262Y132348D01*
X70924Y132162D01*
X70580Y131984D01*
X70233Y131814D01*
X69882Y131653D01*
X69526Y131501D01*
X69168Y131357D01*
X68805Y131223D01*
X68440Y131097D01*
X68071Y130980D01*
X67700Y130872D01*
X67326Y130774D01*
X66950Y130685D01*
X66572Y130605D01*
X66192Y130534D01*
X65811Y130472D01*
X65428Y130420D01*
X65044Y130378D01*
X64658Y130345D01*
X64273Y130321D01*
X63886Y130307D01*
X63500Y130302D01*
X63114Y130307D01*
X62727Y130321D01*
X62342Y130345D01*
X61956Y130378D01*
X61572Y130420D01*
X61189Y130472D01*
X60808Y130534D01*
X60428Y130605D01*
X60050Y130685D01*
X59674Y130774D01*
X59300Y130872D01*
X58929Y130980D01*
X58560Y131097D01*
X58195Y131223D01*
X57832Y131357D01*
X57474Y131501D01*
X57118Y131653D01*
X56767Y131814D01*
X56420Y131984D01*
X56076Y132162D01*
X55738Y132348D01*
X55404Y132542D01*
X55075Y132745D01*
X54751Y132956D01*
X54432Y133175D01*
X54119Y133401D01*
X53811Y133635D01*
X53510Y133877D01*
X53214Y134125D01*
X52924Y134382D01*
X52641Y134645D01*
X52364Y134914D01*
X52095Y135191D01*
X51832Y135474D01*
X51575Y135764D01*
X51327Y136060D01*
X51085Y136361D01*
X50851Y136669D01*
X50625Y136982D01*
X50406Y137301D01*
X50195Y137625D01*
X49992Y137954D01*
X49798Y138288D01*
X49612Y138626D01*
X49434Y138970D01*
X49264Y139317D01*
X49103Y139668D01*
X48951Y140024D01*
X48807Y140382D01*
X48673Y140745D01*
X48547Y141110D01*
X48430Y141479D01*
X48322Y141850D01*
X48224Y142224D01*
X48135Y142600D01*
X48055Y142978D01*
X47984Y143358D01*
X47922Y143739D01*
X47870Y144122D01*
X47828Y144506D01*
X47795Y144892D01*
X47771Y145277D01*
X47757Y145664D01*
X47752Y146050D01*
X1020064Y146050D02*
X1020069Y146436D01*
X1020083Y146823D01*
X1020107Y147208D01*
X1020140Y147594D01*
X1020182Y147978D01*
X1020234Y148361D01*
X1020296Y148742D01*
X1020367Y149122D01*
X1020447Y149500D01*
X1020536Y149876D01*
X1020634Y150250D01*
X1020742Y150621D01*
X1020859Y150990D01*
X1020985Y151355D01*
X1021119Y151718D01*
X1021263Y152076D01*
X1021415Y152432D01*
X1021576Y152783D01*
X1021746Y153130D01*
X1021924Y153474D01*
X1022110Y153812D01*
X1022304Y154146D01*
X1022507Y154475D01*
X1022718Y154799D01*
X1022937Y155118D01*
X1023163Y155431D01*
X1023397Y155739D01*
X1023639Y156040D01*
X1023887Y156336D01*
X1024144Y156626D01*
X1024407Y156909D01*
X1024676Y157186D01*
X1024953Y157455D01*
X1025236Y157718D01*
X1025526Y157975D01*
X1025822Y158223D01*
X1026123Y158465D01*
X1026431Y158699D01*
X1026744Y158925D01*
X1027063Y159144D01*
X1027387Y159355D01*
X1027716Y159558D01*
X1028050Y159752D01*
X1028388Y159938D01*
X1028732Y160116D01*
X1029079Y160286D01*
X1029430Y160447D01*
X1029786Y160599D01*
X1030144Y160743D01*
X1030507Y160877D01*
X1030872Y161003D01*
X1031241Y161120D01*
X1031612Y161228D01*
X1031986Y161326D01*
X1032362Y161415D01*
X1032740Y161495D01*
X1033120Y161566D01*
X1033501Y161628D01*
X1033884Y161680D01*
X1034268Y161722D01*
X1034654Y161755D01*
X1035039Y161779D01*
X1035426Y161793D01*
X1035812Y161798D01*
X1036198Y161793D01*
X1036585Y161779D01*
X1036970Y161755D01*
X1037356Y161722D01*
X1037740Y161680D01*
X1038123Y161628D01*
X1038504Y161566D01*
X1038884Y161495D01*
X1039262Y161415D01*
X1039638Y161326D01*
X1040012Y161228D01*
X1040383Y161120D01*
X1040752Y161003D01*
X1041117Y160877D01*
X1041480Y160743D01*
X1041838Y160599D01*
X1042194Y160447D01*
X1042545Y160286D01*
X1042892Y160116D01*
X1043236Y159938D01*
X1043574Y159752D01*
X1043908Y159558D01*
X1044237Y159355D01*
X1044561Y159144D01*
X1044880Y158925D01*
X1045193Y158699D01*
X1045501Y158465D01*
X1045802Y158223D01*
X1046098Y157975D01*
X1046388Y157718D01*
X1046671Y157455D01*
X1046948Y157186D01*
X1047217Y156909D01*
X1047480Y156626D01*
X1047737Y156336D01*
X1047985Y156040D01*
X1048227Y155739D01*
X1048461Y155431D01*
X1048687Y155118D01*
X1048906Y154799D01*
X1049117Y154475D01*
X1049320Y154146D01*
X1049514Y153812D01*
X1049700Y153474D01*
X1049878Y153130D01*
X1050048Y152783D01*
X1050209Y152432D01*
X1050361Y152076D01*
X1050505Y151718D01*
X1050639Y151355D01*
X1050765Y150990D01*
X1050882Y150621D01*
X1050990Y150250D01*
X1051088Y149876D01*
X1051177Y149500D01*
X1051257Y149122D01*
X1051328Y148742D01*
X1051390Y148361D01*
X1051442Y147978D01*
X1051484Y147594D01*
X1051517Y147208D01*
X1051541Y146823D01*
X1051555Y146436D01*
X1051560Y146050D01*
X1051555Y145664D01*
X1051541Y145277D01*
X1051517Y144892D01*
X1051484Y144506D01*
X1051442Y144122D01*
X1051390Y143739D01*
X1051328Y143358D01*
X1051257Y142978D01*
X1051177Y142600D01*
X1051088Y142224D01*
X1050990Y141850D01*
X1050882Y141479D01*
X1050765Y141110D01*
X1050639Y140745D01*
X1050505Y140382D01*
X1050361Y140024D01*
X1050209Y139668D01*
X1050048Y139317D01*
X1049878Y138970D01*
X1049700Y138626D01*
X1049514Y138288D01*
X1049320Y137954D01*
X1049117Y137625D01*
X1048906Y137301D01*
X1048687Y136982D01*
X1048461Y136669D01*
X1048227Y136361D01*
X1047985Y136060D01*
X1047737Y135764D01*
X1047480Y135474D01*
X1047217Y135191D01*
X1046948Y134914D01*
X1046671Y134645D01*
X1046388Y134382D01*
X1046098Y134125D01*
X1045802Y133877D01*
X1045501Y133635D01*
X1045193Y133401D01*
X1044880Y133175D01*
X1044561Y132956D01*
X1044237Y132745D01*
X1043908Y132542D01*
X1043574Y132348D01*
X1043236Y132162D01*
X1042892Y131984D01*
X1042545Y131814D01*
X1042194Y131653D01*
X1041838Y131501D01*
X1041480Y131357D01*
X1041117Y131223D01*
X1040752Y131097D01*
X1040383Y130980D01*
X1040012Y130872D01*
X1039638Y130774D01*
X1039262Y130685D01*
X1038884Y130605D01*
X1038504Y130534D01*
X1038123Y130472D01*
X1037740Y130420D01*
X1037356Y130378D01*
X1036970Y130345D01*
X1036585Y130321D01*
X1036198Y130307D01*
X1035812Y130302D01*
X1035426Y130307D01*
X1035039Y130321D01*
X1034654Y130345D01*
X1034268Y130378D01*
X1033884Y130420D01*
X1033501Y130472D01*
X1033120Y130534D01*
X1032740Y130605D01*
X1032362Y130685D01*
X1031986Y130774D01*
X1031612Y130872D01*
X1031241Y130980D01*
X1030872Y131097D01*
X1030507Y131223D01*
X1030144Y131357D01*
X1029786Y131501D01*
X1029430Y131653D01*
X1029079Y131814D01*
X1028732Y131984D01*
X1028388Y132162D01*
X1028050Y132348D01*
X1027716Y132542D01*
X1027387Y132745D01*
X1027063Y132956D01*
X1026744Y133175D01*
X1026431Y133401D01*
X1026123Y133635D01*
X1025822Y133877D01*
X1025526Y134125D01*
X1025236Y134382D01*
X1024953Y134645D01*
X1024676Y134914D01*
X1024407Y135191D01*
X1024144Y135474D01*
X1023887Y135764D01*
X1023639Y136060D01*
X1023397Y136361D01*
X1023163Y136669D01*
X1022937Y136982D01*
X1022718Y137301D01*
X1022507Y137625D01*
X1022304Y137954D01*
X1022110Y138288D01*
X1021924Y138626D01*
X1021746Y138970D01*
X1021576Y139317D01*
X1021415Y139668D01*
X1021263Y140024D01*
X1021119Y140382D01*
X1020985Y140745D01*
X1020859Y141110D01*
X1020742Y141479D01*
X1020634Y141850D01*
X1020536Y142224D01*
X1020447Y142600D01*
X1020367Y142978D01*
X1020296Y143358D01*
X1020234Y143739D01*
X1020182Y144122D01*
X1020140Y144506D01*
X1020107Y144892D01*
X1020083Y145277D01*
X1020069Y145664D01*
X1020064Y146050D01*
X47752Y336550D02*
X47757Y336936D01*
X47771Y337323D01*
X47795Y337708D01*
X47828Y338094D01*
X47870Y338478D01*
X47922Y338861D01*
X47984Y339242D01*
X48055Y339622D01*
X48135Y340000D01*
X48224Y340376D01*
X48322Y340750D01*
X48430Y341121D01*
X48547Y341490D01*
X48673Y341855D01*
X48807Y342218D01*
X48951Y342576D01*
X49103Y342932D01*
X49264Y343283D01*
X49434Y343630D01*
X49612Y343974D01*
X49798Y344312D01*
X49992Y344646D01*
X50195Y344975D01*
X50406Y345299D01*
X50625Y345618D01*
X50851Y345931D01*
X51085Y346239D01*
X51327Y346540D01*
X51575Y346836D01*
X51832Y347126D01*
X52095Y347409D01*
X52364Y347686D01*
X52641Y347955D01*
X52924Y348218D01*
X53214Y348475D01*
X53510Y348723D01*
X53811Y348965D01*
X54119Y349199D01*
X54432Y349425D01*
X54751Y349644D01*
X55075Y349855D01*
X55404Y350058D01*
X55738Y350252D01*
X56076Y350438D01*
X56420Y350616D01*
X56767Y350786D01*
X57118Y350947D01*
X57474Y351099D01*
X57832Y351243D01*
X58195Y351377D01*
X58560Y351503D01*
X58929Y351620D01*
X59300Y351728D01*
X59674Y351826D01*
X60050Y351915D01*
X60428Y351995D01*
X60808Y352066D01*
X61189Y352128D01*
X61572Y352180D01*
X61956Y352222D01*
X62342Y352255D01*
X62727Y352279D01*
X63114Y352293D01*
X63500Y352298D01*
X63886Y352293D01*
X64273Y352279D01*
X64658Y352255D01*
X65044Y352222D01*
X65428Y352180D01*
X65811Y352128D01*
X66192Y352066D01*
X66572Y351995D01*
X66950Y351915D01*
X67326Y351826D01*
X67700Y351728D01*
X68071Y351620D01*
X68440Y351503D01*
X68805Y351377D01*
X69168Y351243D01*
X69526Y351099D01*
X69882Y350947D01*
X70233Y350786D01*
X70580Y350616D01*
X70924Y350438D01*
X71262Y350252D01*
X71596Y350058D01*
X71925Y349855D01*
X72249Y349644D01*
X72568Y349425D01*
X72881Y349199D01*
X73189Y348965D01*
X73490Y348723D01*
X73786Y348475D01*
X74076Y348218D01*
X74359Y347955D01*
X74636Y347686D01*
X74905Y347409D01*
X75168Y347126D01*
X75425Y346836D01*
X75673Y346540D01*
X75915Y346239D01*
X76149Y345931D01*
X76375Y345618D01*
X76594Y345299D01*
X76805Y344975D01*
X77008Y344646D01*
X77202Y344312D01*
X77388Y343974D01*
X77566Y343630D01*
X77736Y343283D01*
X77897Y342932D01*
X78049Y342576D01*
X78193Y342218D01*
X78327Y341855D01*
X78453Y341490D01*
X78570Y341121D01*
X78678Y340750D01*
X78776Y340376D01*
X78865Y340000D01*
X78945Y339622D01*
X79016Y339242D01*
X79078Y338861D01*
X79130Y338478D01*
X79172Y338094D01*
X79205Y337708D01*
X79229Y337323D01*
X79243Y336936D01*
X79248Y336550D01*
X79243Y336164D01*
X79229Y335777D01*
X79205Y335392D01*
X79172Y335006D01*
X79130Y334622D01*
X79078Y334239D01*
X79016Y333858D01*
X78945Y333478D01*
X78865Y333100D01*
X78776Y332724D01*
X78678Y332350D01*
X78570Y331979D01*
X78453Y331610D01*
X78327Y331245D01*
X78193Y330882D01*
X78049Y330524D01*
X77897Y330168D01*
X77736Y329817D01*
X77566Y329470D01*
X77388Y329126D01*
X77202Y328788D01*
X77008Y328454D01*
X76805Y328125D01*
X76594Y327801D01*
X76375Y327482D01*
X76149Y327169D01*
X75915Y326861D01*
X75673Y326560D01*
X75425Y326264D01*
X75168Y325974D01*
X74905Y325691D01*
X74636Y325414D01*
X74359Y325145D01*
X74076Y324882D01*
X73786Y324625D01*
X73490Y324377D01*
X73189Y324135D01*
X72881Y323901D01*
X72568Y323675D01*
X72249Y323456D01*
X71925Y323245D01*
X71596Y323042D01*
X71262Y322848D01*
X70924Y322662D01*
X70580Y322484D01*
X70233Y322314D01*
X69882Y322153D01*
X69526Y322001D01*
X69168Y321857D01*
X68805Y321723D01*
X68440Y321597D01*
X68071Y321480D01*
X67700Y321372D01*
X67326Y321274D01*
X66950Y321185D01*
X66572Y321105D01*
X66192Y321034D01*
X65811Y320972D01*
X65428Y320920D01*
X65044Y320878D01*
X64658Y320845D01*
X64273Y320821D01*
X63886Y320807D01*
X63500Y320802D01*
X63114Y320807D01*
X62727Y320821D01*
X62342Y320845D01*
X61956Y320878D01*
X61572Y320920D01*
X61189Y320972D01*
X60808Y321034D01*
X60428Y321105D01*
X60050Y321185D01*
X59674Y321274D01*
X59300Y321372D01*
X58929Y321480D01*
X58560Y321597D01*
X58195Y321723D01*
X57832Y321857D01*
X57474Y322001D01*
X57118Y322153D01*
X56767Y322314D01*
X56420Y322484D01*
X56076Y322662D01*
X55738Y322848D01*
X55404Y323042D01*
X55075Y323245D01*
X54751Y323456D01*
X54432Y323675D01*
X54119Y323901D01*
X53811Y324135D01*
X53510Y324377D01*
X53214Y324625D01*
X52924Y324882D01*
X52641Y325145D01*
X52364Y325414D01*
X52095Y325691D01*
X51832Y325974D01*
X51575Y326264D01*
X51327Y326560D01*
X51085Y326861D01*
X50851Y327169D01*
X50625Y327482D01*
X50406Y327801D01*
X50195Y328125D01*
X49992Y328454D01*
X49798Y328788D01*
X49612Y329126D01*
X49434Y329470D01*
X49264Y329817D01*
X49103Y330168D01*
X48951Y330524D01*
X48807Y330882D01*
X48673Y331245D01*
X48547Y331610D01*
X48430Y331979D01*
X48322Y332350D01*
X48224Y332724D01*
X48135Y333100D01*
X48055Y333478D01*
X47984Y333858D01*
X47922Y334239D01*
X47870Y334622D01*
X47828Y335006D01*
X47795Y335392D01*
X47771Y335777D01*
X47757Y336164D01*
X47752Y336550D01*
X1020064Y336550D02*
X1020069Y336936D01*
X1020083Y337323D01*
X1020107Y337708D01*
X1020140Y338094D01*
X1020182Y338478D01*
X1020234Y338861D01*
X1020296Y339242D01*
X1020367Y339622D01*
X1020447Y340000D01*
X1020536Y340376D01*
X1020634Y340750D01*
X1020742Y341121D01*
X1020859Y341490D01*
X1020985Y341855D01*
X1021119Y342218D01*
X1021263Y342576D01*
X1021415Y342932D01*
X1021576Y343283D01*
X1021746Y343630D01*
X1021924Y343974D01*
X1022110Y344312D01*
X1022304Y344646D01*
X1022507Y344975D01*
X1022718Y345299D01*
X1022937Y345618D01*
X1023163Y345931D01*
X1023397Y346239D01*
X1023639Y346540D01*
X1023887Y346836D01*
X1024144Y347126D01*
X1024407Y347409D01*
X1024676Y347686D01*
X1024953Y347955D01*
X1025236Y348218D01*
X1025526Y348475D01*
X1025822Y348723D01*
X1026123Y348965D01*
X1026431Y349199D01*
X1026744Y349425D01*
X1027063Y349644D01*
X1027387Y349855D01*
X1027716Y350058D01*
X1028050Y350252D01*
X1028388Y350438D01*
X1028732Y350616D01*
X1029079Y350786D01*
X1029430Y350947D01*
X1029786Y351099D01*
X1030144Y351243D01*
X1030507Y351377D01*
X1030872Y351503D01*
X1031241Y351620D01*
X1031612Y351728D01*
X1031986Y351826D01*
X1032362Y351915D01*
X1032740Y351995D01*
X1033120Y352066D01*
X1033501Y352128D01*
X1033884Y352180D01*
X1034268Y352222D01*
X1034654Y352255D01*
X1035039Y352279D01*
X1035426Y352293D01*
X1035812Y352298D01*
X1036198Y352293D01*
X1036585Y352279D01*
X1036970Y352255D01*
X1037356Y352222D01*
X1037740Y352180D01*
X1038123Y352128D01*
X1038504Y352066D01*
X1038884Y351995D01*
X1039262Y351915D01*
X1039638Y351826D01*
X1040012Y351728D01*
X1040383Y351620D01*
X1040752Y351503D01*
X1041117Y351377D01*
X1041480Y351243D01*
X1041838Y351099D01*
X1042194Y350947D01*
X1042545Y350786D01*
X1042892Y350616D01*
X1043236Y350438D01*
X1043574Y350252D01*
X1043908Y350058D01*
X1044237Y349855D01*
X1044561Y349644D01*
X1044880Y349425D01*
X1045193Y349199D01*
X1045501Y348965D01*
X1045802Y348723D01*
X1046098Y348475D01*
X1046388Y348218D01*
X1046671Y347955D01*
X1046948Y347686D01*
X1047217Y347409D01*
X1047480Y347126D01*
X1047737Y346836D01*
X1047985Y346540D01*
X1048227Y346239D01*
X1048461Y345931D01*
X1048687Y345618D01*
X1048906Y345299D01*
X1049117Y344975D01*
X1049320Y344646D01*
X1049514Y344312D01*
X1049700Y343974D01*
X1049878Y343630D01*
X1050048Y343283D01*
X1050209Y342932D01*
X1050361Y342576D01*
X1050505Y342218D01*
X1050639Y341855D01*
X1050765Y341490D01*
X1050882Y341121D01*
X1050990Y340750D01*
X1051088Y340376D01*
X1051177Y340000D01*
X1051257Y339622D01*
X1051328Y339242D01*
X1051390Y338861D01*
X1051442Y338478D01*
X1051484Y338094D01*
X1051517Y337708D01*
X1051541Y337323D01*
X1051555Y336936D01*
X1051560Y336550D01*
X1051555Y336164D01*
X1051541Y335777D01*
X1051517Y335392D01*
X1051484Y335006D01*
X1051442Y334622D01*
X1051390Y334239D01*
X1051328Y333858D01*
X1051257Y333478D01*
X1051177Y333100D01*
X1051088Y332724D01*
X1050990Y332350D01*
X1050882Y331979D01*
X1050765Y331610D01*
X1050639Y331245D01*
X1050505Y330882D01*
X1050361Y330524D01*
X1050209Y330168D01*
X1050048Y329817D01*
X1049878Y329470D01*
X1049700Y329126D01*
X1049514Y328788D01*
X1049320Y328454D01*
X1049117Y328125D01*
X1048906Y327801D01*
X1048687Y327482D01*
X1048461Y327169D01*
X1048227Y326861D01*
X1047985Y326560D01*
X1047737Y326264D01*
X1047480Y325974D01*
X1047217Y325691D01*
X1046948Y325414D01*
X1046671Y325145D01*
X1046388Y324882D01*
X1046098Y324625D01*
X1045802Y324377D01*
X1045501Y324135D01*
X1045193Y323901D01*
X1044880Y323675D01*
X1044561Y323456D01*
X1044237Y323245D01*
X1043908Y323042D01*
X1043574Y322848D01*
X1043236Y322662D01*
X1042892Y322484D01*
X1042545Y322314D01*
X1042194Y322153D01*
X1041838Y322001D01*
X1041480Y321857D01*
X1041117Y321723D01*
X1040752Y321597D01*
X1040383Y321480D01*
X1040012Y321372D01*
X1039638Y321274D01*
X1039262Y321185D01*
X1038884Y321105D01*
X1038504Y321034D01*
X1038123Y320972D01*
X1037740Y320920D01*
X1037356Y320878D01*
X1036970Y320845D01*
X1036585Y320821D01*
X1036198Y320807D01*
X1035812Y320802D01*
X1035426Y320807D01*
X1035039Y320821D01*
X1034654Y320845D01*
X1034268Y320878D01*
X1033884Y320920D01*
X1033501Y320972D01*
X1033120Y321034D01*
X1032740Y321105D01*
X1032362Y321185D01*
X1031986Y321274D01*
X1031612Y321372D01*
X1031241Y321480D01*
X1030872Y321597D01*
X1030507Y321723D01*
X1030144Y321857D01*
X1029786Y322001D01*
X1029430Y322153D01*
X1029079Y322314D01*
X1028732Y322484D01*
X1028388Y322662D01*
X1028050Y322848D01*
X1027716Y323042D01*
X1027387Y323245D01*
X1027063Y323456D01*
X1026744Y323675D01*
X1026431Y323901D01*
X1026123Y324135D01*
X1025822Y324377D01*
X1025526Y324625D01*
X1025236Y324882D01*
X1024953Y325145D01*
X1024676Y325414D01*
X1024407Y325691D01*
X1024144Y325974D01*
X1023887Y326264D01*
X1023639Y326560D01*
X1023397Y326861D01*
X1023163Y327169D01*
X1022937Y327482D01*
X1022718Y327801D01*
X1022507Y328125D01*
X1022304Y328454D01*
X1022110Y328788D01*
X1021924Y329126D01*
X1021746Y329470D01*
X1021576Y329817D01*
X1021415Y330168D01*
X1021263Y330524D01*
X1021119Y330882D01*
X1020985Y331245D01*
X1020859Y331610D01*
X1020742Y331979D01*
X1020634Y332350D01*
X1020536Y332724D01*
X1020447Y333100D01*
X1020367Y333478D01*
X1020296Y333858D01*
X1020234Y334239D01*
X1020182Y334622D01*
X1020140Y335006D01*
X1020107Y335392D01*
X1020083Y335777D01*
X1020069Y336164D01*
X1020064Y336550D01*
X19812Y241300D02*
X19817Y241736D01*
X19833Y242172D01*
X19860Y242608D01*
X19898Y243043D01*
X19946Y243476D01*
X20004Y243909D01*
X20074Y244340D01*
X20154Y244769D01*
X20244Y245196D01*
X20345Y245620D01*
X20456Y246042D01*
X20578Y246461D01*
X20709Y246877D01*
X20851Y247290D01*
X21003Y247699D01*
X21165Y248104D01*
X21337Y248505D01*
X21519Y248902D01*
X21710Y249294D01*
X21911Y249681D01*
X22122Y250064D01*
X22342Y250441D01*
X22571Y250812D01*
X22808Y251178D01*
X23055Y251538D01*
X23311Y251892D01*
X23575Y252239D01*
X23848Y252580D01*
X24129Y252913D01*
X24418Y253240D01*
X24715Y253560D01*
X25020Y253872D01*
X25332Y254177D01*
X25652Y254474D01*
X25979Y254763D01*
X26312Y255044D01*
X26653Y255317D01*
X27000Y255581D01*
X27354Y255837D01*
X27714Y256084D01*
X28080Y256321D01*
X28451Y256550D01*
X28828Y256770D01*
X29211Y256981D01*
X29598Y257182D01*
X29990Y257373D01*
X30387Y257555D01*
X30788Y257727D01*
X31193Y257889D01*
X31602Y258041D01*
X32015Y258183D01*
X32431Y258314D01*
X32850Y258436D01*
X33272Y258547D01*
X33696Y258648D01*
X34123Y258738D01*
X34552Y258818D01*
X34983Y258888D01*
X35416Y258946D01*
X35849Y258994D01*
X36284Y259032D01*
X36720Y259059D01*
X37156Y259075D01*
X37592Y259080D01*
X38028Y259075D01*
X38464Y259059D01*
X38900Y259032D01*
X39335Y258994D01*
X39768Y258946D01*
X40201Y258888D01*
X40632Y258818D01*
X41061Y258738D01*
X41488Y258648D01*
X41912Y258547D01*
X42334Y258436D01*
X42753Y258314D01*
X43169Y258183D01*
X43582Y258041D01*
X43991Y257889D01*
X44396Y257727D01*
X44797Y257555D01*
X45194Y257373D01*
X45586Y257182D01*
X45973Y256981D01*
X46356Y256770D01*
X46733Y256550D01*
X47104Y256321D01*
X47470Y256084D01*
X47830Y255837D01*
X48184Y255581D01*
X48531Y255317D01*
X48872Y255044D01*
X49205Y254763D01*
X49532Y254474D01*
X49852Y254177D01*
X50164Y253872D01*
X50469Y253560D01*
X50766Y253240D01*
X51055Y252913D01*
X51336Y252580D01*
X51609Y252239D01*
X51873Y251892D01*
X52129Y251538D01*
X52376Y251178D01*
X52613Y250812D01*
X52842Y250441D01*
X53062Y250064D01*
X53273Y249681D01*
X53474Y249294D01*
X53665Y248902D01*
X53847Y248505D01*
X54019Y248104D01*
X54181Y247699D01*
X54333Y247290D01*
X54475Y246877D01*
X54606Y246461D01*
X54728Y246042D01*
X54839Y245620D01*
X54940Y245196D01*
X55030Y244769D01*
X55110Y244340D01*
X55180Y243909D01*
X55238Y243476D01*
X55286Y243043D01*
X55324Y242608D01*
X55351Y242172D01*
X55367Y241736D01*
X55372Y241300D01*
X55367Y240864D01*
X55351Y240428D01*
X55324Y239992D01*
X55286Y239557D01*
X55238Y239124D01*
X55180Y238691D01*
X55110Y238260D01*
X55030Y237831D01*
X54940Y237404D01*
X54839Y236980D01*
X54728Y236558D01*
X54606Y236139D01*
X54475Y235723D01*
X54333Y235310D01*
X54181Y234901D01*
X54019Y234496D01*
X53847Y234095D01*
X53665Y233698D01*
X53474Y233306D01*
X53273Y232919D01*
X53062Y232536D01*
X52842Y232159D01*
X52613Y231788D01*
X52376Y231422D01*
X52129Y231062D01*
X51873Y230708D01*
X51609Y230361D01*
X51336Y230020D01*
X51055Y229687D01*
X50766Y229360D01*
X50469Y229040D01*
X50164Y228728D01*
X49852Y228423D01*
X49532Y228126D01*
X49205Y227837D01*
X48872Y227556D01*
X48531Y227283D01*
X48184Y227019D01*
X47830Y226763D01*
X47470Y226516D01*
X47104Y226279D01*
X46733Y226050D01*
X46356Y225830D01*
X45973Y225619D01*
X45586Y225418D01*
X45194Y225227D01*
X44797Y225045D01*
X44396Y224873D01*
X43991Y224711D01*
X43582Y224559D01*
X43169Y224417D01*
X42753Y224286D01*
X42334Y224164D01*
X41912Y224053D01*
X41488Y223952D01*
X41061Y223862D01*
X40632Y223782D01*
X40201Y223712D01*
X39768Y223654D01*
X39335Y223606D01*
X38900Y223568D01*
X38464Y223541D01*
X38028Y223525D01*
X37592Y223520D01*
X37156Y223525D01*
X36720Y223541D01*
X36284Y223568D01*
X35849Y223606D01*
X35416Y223654D01*
X34983Y223712D01*
X34552Y223782D01*
X34123Y223862D01*
X33696Y223952D01*
X33272Y224053D01*
X32850Y224164D01*
X32431Y224286D01*
X32015Y224417D01*
X31602Y224559D01*
X31193Y224711D01*
X30788Y224873D01*
X30387Y225045D01*
X29990Y225227D01*
X29598Y225418D01*
X29211Y225619D01*
X28828Y225830D01*
X28451Y226050D01*
X28080Y226279D01*
X27714Y226516D01*
X27354Y226763D01*
X27000Y227019D01*
X26653Y227283D01*
X26312Y227556D01*
X25979Y227837D01*
X25652Y228126D01*
X25332Y228423D01*
X25020Y228728D01*
X24715Y229040D01*
X24418Y229360D01*
X24129Y229687D01*
X23848Y230020D01*
X23575Y230361D01*
X23311Y230708D01*
X23055Y231062D01*
X22808Y231422D01*
X22571Y231788D01*
X22342Y232159D01*
X22122Y232536D01*
X21911Y232919D01*
X21710Y233306D01*
X21519Y233698D01*
X21337Y234095D01*
X21165Y234496D01*
X21003Y234901D01*
X20851Y235310D01*
X20709Y235723D01*
X20578Y236139D01*
X20456Y236558D01*
X20345Y236980D01*
X20244Y237404D01*
X20154Y237831D01*
X20074Y238260D01*
X20004Y238691D01*
X19946Y239124D01*
X19898Y239557D01*
X19860Y239992D01*
X19833Y240428D01*
X19817Y240864D01*
X19812Y241300D01*
X1042924Y241300D02*
X1042929Y241736D01*
X1042945Y242172D01*
X1042972Y242608D01*
X1043010Y243043D01*
X1043058Y243476D01*
X1043116Y243909D01*
X1043186Y244340D01*
X1043266Y244769D01*
X1043356Y245196D01*
X1043457Y245620D01*
X1043568Y246042D01*
X1043690Y246461D01*
X1043821Y246877D01*
X1043963Y247290D01*
X1044115Y247699D01*
X1044277Y248104D01*
X1044449Y248505D01*
X1044631Y248902D01*
X1044822Y249294D01*
X1045023Y249681D01*
X1045234Y250064D01*
X1045454Y250441D01*
X1045683Y250812D01*
X1045920Y251178D01*
X1046167Y251538D01*
X1046423Y251892D01*
X1046687Y252239D01*
X1046960Y252580D01*
X1047241Y252913D01*
X1047530Y253240D01*
X1047827Y253560D01*
X1048132Y253872D01*
X1048444Y254177D01*
X1048764Y254474D01*
X1049091Y254763D01*
X1049424Y255044D01*
X1049765Y255317D01*
X1050112Y255581D01*
X1050466Y255837D01*
X1050826Y256084D01*
X1051192Y256321D01*
X1051563Y256550D01*
X1051940Y256770D01*
X1052323Y256981D01*
X1052710Y257182D01*
X1053102Y257373D01*
X1053499Y257555D01*
X1053900Y257727D01*
X1054305Y257889D01*
X1054714Y258041D01*
X1055127Y258183D01*
X1055543Y258314D01*
X1055962Y258436D01*
X1056384Y258547D01*
X1056808Y258648D01*
X1057235Y258738D01*
X1057664Y258818D01*
X1058095Y258888D01*
X1058528Y258946D01*
X1058961Y258994D01*
X1059396Y259032D01*
X1059832Y259059D01*
X1060268Y259075D01*
X1060704Y259080D01*
X1061140Y259075D01*
X1061576Y259059D01*
X1062012Y259032D01*
X1062447Y258994D01*
X1062880Y258946D01*
X1063313Y258888D01*
X1063744Y258818D01*
X1064173Y258738D01*
X1064600Y258648D01*
X1065024Y258547D01*
X1065446Y258436D01*
X1065865Y258314D01*
X1066281Y258183D01*
X1066694Y258041D01*
X1067103Y257889D01*
X1067508Y257727D01*
X1067909Y257555D01*
X1068306Y257373D01*
X1068698Y257182D01*
X1069085Y256981D01*
X1069468Y256770D01*
X1069845Y256550D01*
X1070216Y256321D01*
X1070582Y256084D01*
X1070942Y255837D01*
X1071296Y255581D01*
X1071643Y255317D01*
X1071984Y255044D01*
X1072317Y254763D01*
X1072644Y254474D01*
X1072964Y254177D01*
X1073276Y253872D01*
X1073581Y253560D01*
X1073878Y253240D01*
X1074167Y252913D01*
X1074448Y252580D01*
X1074721Y252239D01*
X1074985Y251892D01*
X1075241Y251538D01*
X1075488Y251178D01*
X1075725Y250812D01*
X1075954Y250441D01*
X1076174Y250064D01*
X1076385Y249681D01*
X1076586Y249294D01*
X1076777Y248902D01*
X1076959Y248505D01*
X1077131Y248104D01*
X1077293Y247699D01*
X1077445Y247290D01*
X1077587Y246877D01*
X1077718Y246461D01*
X1077840Y246042D01*
X1077951Y245620D01*
X1078052Y245196D01*
X1078142Y244769D01*
X1078222Y244340D01*
X1078292Y243909D01*
X1078350Y243476D01*
X1078398Y243043D01*
X1078436Y242608D01*
X1078463Y242172D01*
X1078479Y241736D01*
X1078484Y241300D01*
X1078479Y240864D01*
X1078463Y240428D01*
X1078436Y239992D01*
X1078398Y239557D01*
X1078350Y239124D01*
X1078292Y238691D01*
X1078222Y238260D01*
X1078142Y237831D01*
X1078052Y237404D01*
X1077951Y236980D01*
X1077840Y236558D01*
X1077718Y236139D01*
X1077587Y235723D01*
X1077445Y235310D01*
X1077293Y234901D01*
X1077131Y234496D01*
X1076959Y234095D01*
X1076777Y233698D01*
X1076586Y233306D01*
X1076385Y232919D01*
X1076174Y232536D01*
X1075954Y232159D01*
X1075725Y231788D01*
X1075488Y231422D01*
X1075241Y231062D01*
X1074985Y230708D01*
X1074721Y230361D01*
X1074448Y230020D01*
X1074167Y229687D01*
X1073878Y229360D01*
X1073581Y229040D01*
X1073276Y228728D01*
X1072964Y228423D01*
X1072644Y228126D01*
X1072317Y227837D01*
X1071984Y227556D01*
X1071643Y227283D01*
X1071296Y227019D01*
X1070942Y226763D01*
X1070582Y226516D01*
X1070216Y226279D01*
X1069845Y226050D01*
X1069468Y225830D01*
X1069085Y225619D01*
X1068698Y225418D01*
X1068306Y225227D01*
X1067909Y225045D01*
X1067508Y224873D01*
X1067103Y224711D01*
X1066694Y224559D01*
X1066281Y224417D01*
X1065865Y224286D01*
X1065446Y224164D01*
X1065024Y224053D01*
X1064600Y223952D01*
X1064173Y223862D01*
X1063744Y223782D01*
X1063313Y223712D01*
X1062880Y223654D01*
X1062447Y223606D01*
X1062012Y223568D01*
X1061576Y223541D01*
X1061140Y223525D01*
X1060704Y223520D01*
X1060268Y223525D01*
X1059832Y223541D01*
X1059396Y223568D01*
X1058961Y223606D01*
X1058528Y223654D01*
X1058095Y223712D01*
X1057664Y223782D01*
X1057235Y223862D01*
X1056808Y223952D01*
X1056384Y224053D01*
X1055962Y224164D01*
X1055543Y224286D01*
X1055127Y224417D01*
X1054714Y224559D01*
X1054305Y224711D01*
X1053900Y224873D01*
X1053499Y225045D01*
X1053102Y225227D01*
X1052710Y225418D01*
X1052323Y225619D01*
X1051940Y225830D01*
X1051563Y226050D01*
X1051192Y226279D01*
X1050826Y226516D01*
X1050466Y226763D01*
X1050112Y227019D01*
X1049765Y227283D01*
X1049424Y227556D01*
X1049091Y227837D01*
X1048764Y228126D01*
X1048444Y228423D01*
X1048132Y228728D01*
X1047827Y229040D01*
X1047530Y229360D01*
X1047241Y229687D01*
X1046960Y230020D01*
X1046687Y230361D01*
X1046423Y230708D01*
X1046167Y231062D01*
X1045920Y231422D01*
X1045683Y231788D01*
X1045454Y232159D01*
X1045234Y232536D01*
X1045023Y232919D01*
X1044822Y233306D01*
X1044631Y233698D01*
X1044449Y234095D01*
X1044277Y234496D01*
X1044115Y234901D01*
X1043963Y235310D01*
X1043821Y235723D01*
X1043690Y236139D01*
X1043568Y236558D01*
X1043457Y236980D01*
X1043356Y237404D01*
X1043266Y237831D01*
X1043186Y238260D01*
X1043116Y238691D01*
X1043058Y239124D01*
X1043010Y239557D01*
X1042972Y239992D01*
X1042945Y240428D01*
X1042929Y240864D01*
X1042924Y241300D01*
X19812Y50800D02*
X19817Y51236D01*
X19833Y51672D01*
X19860Y52108D01*
X19898Y52543D01*
X19946Y52976D01*
X20004Y53409D01*
X20074Y53840D01*
X20154Y54269D01*
X20244Y54696D01*
X20345Y55120D01*
X20456Y55542D01*
X20578Y55961D01*
X20709Y56377D01*
X20851Y56790D01*
X21003Y57199D01*
X21165Y57604D01*
X21337Y58005D01*
X21519Y58402D01*
X21710Y58794D01*
X21911Y59181D01*
X22122Y59564D01*
X22342Y59941D01*
X22571Y60312D01*
X22808Y60678D01*
X23055Y61038D01*
X23311Y61392D01*
X23575Y61739D01*
X23848Y62080D01*
X24129Y62413D01*
X24418Y62740D01*
X24715Y63060D01*
X25020Y63372D01*
X25332Y63677D01*
X25652Y63974D01*
X25979Y64263D01*
X26312Y64544D01*
X26653Y64817D01*
X27000Y65081D01*
X27354Y65337D01*
X27714Y65584D01*
X28080Y65821D01*
X28451Y66050D01*
X28828Y66270D01*
X29211Y66481D01*
X29598Y66682D01*
X29990Y66873D01*
X30387Y67055D01*
X30788Y67227D01*
X31193Y67389D01*
X31602Y67541D01*
X32015Y67683D01*
X32431Y67814D01*
X32850Y67936D01*
X33272Y68047D01*
X33696Y68148D01*
X34123Y68238D01*
X34552Y68318D01*
X34983Y68388D01*
X35416Y68446D01*
X35849Y68494D01*
X36284Y68532D01*
X36720Y68559D01*
X37156Y68575D01*
X37592Y68580D01*
X38028Y68575D01*
X38464Y68559D01*
X38900Y68532D01*
X39335Y68494D01*
X39768Y68446D01*
X40201Y68388D01*
X40632Y68318D01*
X41061Y68238D01*
X41488Y68148D01*
X41912Y68047D01*
X42334Y67936D01*
X42753Y67814D01*
X43169Y67683D01*
X43582Y67541D01*
X43991Y67389D01*
X44396Y67227D01*
X44797Y67055D01*
X45194Y66873D01*
X45586Y66682D01*
X45973Y66481D01*
X46356Y66270D01*
X46733Y66050D01*
X47104Y65821D01*
X47470Y65584D01*
X47830Y65337D01*
X48184Y65081D01*
X48531Y64817D01*
X48872Y64544D01*
X49205Y64263D01*
X49532Y63974D01*
X49852Y63677D01*
X50164Y63372D01*
X50469Y63060D01*
X50766Y62740D01*
X51055Y62413D01*
X51336Y62080D01*
X51609Y61739D01*
X51873Y61392D01*
X52129Y61038D01*
X52376Y60678D01*
X52613Y60312D01*
X52842Y59941D01*
X53062Y59564D01*
X53273Y59181D01*
X53474Y58794D01*
X53665Y58402D01*
X53847Y58005D01*
X54019Y57604D01*
X54181Y57199D01*
X54333Y56790D01*
X54475Y56377D01*
X54606Y55961D01*
X54728Y55542D01*
X54839Y55120D01*
X54940Y54696D01*
X55030Y54269D01*
X55110Y53840D01*
X55180Y53409D01*
X55238Y52976D01*
X55286Y52543D01*
X55324Y52108D01*
X55351Y51672D01*
X55367Y51236D01*
X55372Y50800D01*
X55367Y50364D01*
X55351Y49928D01*
X55324Y49492D01*
X55286Y49057D01*
X55238Y48624D01*
X55180Y48191D01*
X55110Y47760D01*
X55030Y47331D01*
X54940Y46904D01*
X54839Y46480D01*
X54728Y46058D01*
X54606Y45639D01*
X54475Y45223D01*
X54333Y44810D01*
X54181Y44401D01*
X54019Y43996D01*
X53847Y43595D01*
X53665Y43198D01*
X53474Y42806D01*
X53273Y42419D01*
X53062Y42036D01*
X52842Y41659D01*
X52613Y41288D01*
X52376Y40922D01*
X52129Y40562D01*
X51873Y40208D01*
X51609Y39861D01*
X51336Y39520D01*
X51055Y39187D01*
X50766Y38860D01*
X50469Y38540D01*
X50164Y38228D01*
X49852Y37923D01*
X49532Y37626D01*
X49205Y37337D01*
X48872Y37056D01*
X48531Y36783D01*
X48184Y36519D01*
X47830Y36263D01*
X47470Y36016D01*
X47104Y35779D01*
X46733Y35550D01*
X46356Y35330D01*
X45973Y35119D01*
X45586Y34918D01*
X45194Y34727D01*
X44797Y34545D01*
X44396Y34373D01*
X43991Y34211D01*
X43582Y34059D01*
X43169Y33917D01*
X42753Y33786D01*
X42334Y33664D01*
X41912Y33553D01*
X41488Y33452D01*
X41061Y33362D01*
X40632Y33282D01*
X40201Y33212D01*
X39768Y33154D01*
X39335Y33106D01*
X38900Y33068D01*
X38464Y33041D01*
X38028Y33025D01*
X37592Y33020D01*
X37156Y33025D01*
X36720Y33041D01*
X36284Y33068D01*
X35849Y33106D01*
X35416Y33154D01*
X34983Y33212D01*
X34552Y33282D01*
X34123Y33362D01*
X33696Y33452D01*
X33272Y33553D01*
X32850Y33664D01*
X32431Y33786D01*
X32015Y33917D01*
X31602Y34059D01*
X31193Y34211D01*
X30788Y34373D01*
X30387Y34545D01*
X29990Y34727D01*
X29598Y34918D01*
X29211Y35119D01*
X28828Y35330D01*
X28451Y35550D01*
X28080Y35779D01*
X27714Y36016D01*
X27354Y36263D01*
X27000Y36519D01*
X26653Y36783D01*
X26312Y37056D01*
X25979Y37337D01*
X25652Y37626D01*
X25332Y37923D01*
X25020Y38228D01*
X24715Y38540D01*
X24418Y38860D01*
X24129Y39187D01*
X23848Y39520D01*
X23575Y39861D01*
X23311Y40208D01*
X23055Y40562D01*
X22808Y40922D01*
X22571Y41288D01*
X22342Y41659D01*
X22122Y42036D01*
X21911Y42419D01*
X21710Y42806D01*
X21519Y43198D01*
X21337Y43595D01*
X21165Y43996D01*
X21003Y44401D01*
X20851Y44810D01*
X20709Y45223D01*
X20578Y45639D01*
X20456Y46058D01*
X20345Y46480D01*
X20244Y46904D01*
X20154Y47331D01*
X20074Y47760D01*
X20004Y48191D01*
X19946Y48624D01*
X19898Y49057D01*
X19860Y49492D01*
X19833Y49928D01*
X19817Y50364D01*
X19812Y50800D01*
X1042924Y50800D02*
X1042929Y51236D01*
X1042945Y51672D01*
X1042972Y52108D01*
X1043010Y52543D01*
X1043058Y52976D01*
X1043116Y53409D01*
X1043186Y53840D01*
X1043266Y54269D01*
X1043356Y54696D01*
X1043457Y55120D01*
X1043568Y55542D01*
X1043690Y55961D01*
X1043821Y56377D01*
X1043963Y56790D01*
X1044115Y57199D01*
X1044277Y57604D01*
X1044449Y58005D01*
X1044631Y58402D01*
X1044822Y58794D01*
X1045023Y59181D01*
X1045234Y59564D01*
X1045454Y59941D01*
X1045683Y60312D01*
X1045920Y60678D01*
X1046167Y61038D01*
X1046423Y61392D01*
X1046687Y61739D01*
X1046960Y62080D01*
X1047241Y62413D01*
X1047530Y62740D01*
X1047827Y63060D01*
X1048132Y63372D01*
X1048444Y63677D01*
X1048764Y63974D01*
X1049091Y64263D01*
X1049424Y64544D01*
X1049765Y64817D01*
X1050112Y65081D01*
X1050466Y65337D01*
X1050826Y65584D01*
X1051192Y65821D01*
X1051563Y66050D01*
X1051940Y66270D01*
X1052323Y66481D01*
X1052710Y66682D01*
X1053102Y66873D01*
X1053499Y67055D01*
X1053900Y67227D01*
X1054305Y67389D01*
X1054714Y67541D01*
X1055127Y67683D01*
X1055543Y67814D01*
X1055962Y67936D01*
X1056384Y68047D01*
X1056808Y68148D01*
X1057235Y68238D01*
X1057664Y68318D01*
X1058095Y68388D01*
X1058528Y68446D01*
X1058961Y68494D01*
X1059396Y68532D01*
X1059832Y68559D01*
X1060268Y68575D01*
X1060704Y68580D01*
X1061140Y68575D01*
X1061576Y68559D01*
X1062012Y68532D01*
X1062447Y68494D01*
X1062880Y68446D01*
X1063313Y68388D01*
X1063744Y68318D01*
X1064173Y68238D01*
X1064600Y68148D01*
X1065024Y68047D01*
X1065446Y67936D01*
X1065865Y67814D01*
X1066281Y67683D01*
X1066694Y67541D01*
X1067103Y67389D01*
X1067508Y67227D01*
X1067909Y67055D01*
X1068306Y66873D01*
X1068698Y66682D01*
X1069085Y66481D01*
X1069468Y66270D01*
X1069845Y66050D01*
X1070216Y65821D01*
X1070582Y65584D01*
X1070942Y65337D01*
X1071296Y65081D01*
X1071643Y64817D01*
X1071984Y64544D01*
X1072317Y64263D01*
X1072644Y63974D01*
X1072964Y63677D01*
X1073276Y63372D01*
X1073581Y63060D01*
X1073878Y62740D01*
X1074167Y62413D01*
X1074448Y62080D01*
X1074721Y61739D01*
X1074985Y61392D01*
X1075241Y61038D01*
X1075488Y60678D01*
X1075725Y60312D01*
X1075954Y59941D01*
X1076174Y59564D01*
X1076385Y59181D01*
X1076586Y58794D01*
X1076777Y58402D01*
X1076959Y58005D01*
X1077131Y57604D01*
X1077293Y57199D01*
X1077445Y56790D01*
X1077587Y56377D01*
X1077718Y55961D01*
X1077840Y55542D01*
X1077951Y55120D01*
X1078052Y54696D01*
X1078142Y54269D01*
X1078222Y53840D01*
X1078292Y53409D01*
X1078350Y52976D01*
X1078398Y52543D01*
X1078436Y52108D01*
X1078463Y51672D01*
X1078479Y51236D01*
X1078484Y50800D01*
X1078479Y50364D01*
X1078463Y49928D01*
X1078436Y49492D01*
X1078398Y49057D01*
X1078350Y48624D01*
X1078292Y48191D01*
X1078222Y47760D01*
X1078142Y47331D01*
X1078052Y46904D01*
X1077951Y46480D01*
X1077840Y46058D01*
X1077718Y45639D01*
X1077587Y45223D01*
X1077445Y44810D01*
X1077293Y44401D01*
X1077131Y43996D01*
X1076959Y43595D01*
X1076777Y43198D01*
X1076586Y42806D01*
X1076385Y42419D01*
X1076174Y42036D01*
X1075954Y41659D01*
X1075725Y41288D01*
X1075488Y40922D01*
X1075241Y40562D01*
X1074985Y40208D01*
X1074721Y39861D01*
X1074448Y39520D01*
X1074167Y39187D01*
X1073878Y38860D01*
X1073581Y38540D01*
X1073276Y38228D01*
X1072964Y37923D01*
X1072644Y37626D01*
X1072317Y37337D01*
X1071984Y37056D01*
X1071643Y36783D01*
X1071296Y36519D01*
X1070942Y36263D01*
X1070582Y36016D01*
X1070216Y35779D01*
X1069845Y35550D01*
X1069468Y35330D01*
X1069085Y35119D01*
X1068698Y34918D01*
X1068306Y34727D01*
X1067909Y34545D01*
X1067508Y34373D01*
X1067103Y34211D01*
X1066694Y34059D01*
X1066281Y33917D01*
X1065865Y33786D01*
X1065446Y33664D01*
X1065024Y33553D01*
X1064600Y33452D01*
X1064173Y33362D01*
X1063744Y33282D01*
X1063313Y33212D01*
X1062880Y33154D01*
X1062447Y33106D01*
X1062012Y33068D01*
X1061576Y33041D01*
X1061140Y33025D01*
X1060704Y33020D01*
X1060268Y33025D01*
X1059832Y33041D01*
X1059396Y33068D01*
X1058961Y33106D01*
X1058528Y33154D01*
X1058095Y33212D01*
X1057664Y33282D01*
X1057235Y33362D01*
X1056808Y33452D01*
X1056384Y33553D01*
X1055962Y33664D01*
X1055543Y33786D01*
X1055127Y33917D01*
X1054714Y34059D01*
X1054305Y34211D01*
X1053900Y34373D01*
X1053499Y34545D01*
X1053102Y34727D01*
X1052710Y34918D01*
X1052323Y35119D01*
X1051940Y35330D01*
X1051563Y35550D01*
X1051192Y35779D01*
X1050826Y36016D01*
X1050466Y36263D01*
X1050112Y36519D01*
X1049765Y36783D01*
X1049424Y37056D01*
X1049091Y37337D01*
X1048764Y37626D01*
X1048444Y37923D01*
X1048132Y38228D01*
X1047827Y38540D01*
X1047530Y38860D01*
X1047241Y39187D01*
X1046960Y39520D01*
X1046687Y39861D01*
X1046423Y40208D01*
X1046167Y40562D01*
X1045920Y40922D01*
X1045683Y41288D01*
X1045454Y41659D01*
X1045234Y42036D01*
X1045023Y42419D01*
X1044822Y42806D01*
X1044631Y43198D01*
X1044449Y43595D01*
X1044277Y43996D01*
X1044115Y44401D01*
X1043963Y44810D01*
X1043821Y45223D01*
X1043690Y45639D01*
X1043568Y46058D01*
X1043457Y46480D01*
X1043356Y46904D01*
X1043266Y47331D01*
X1043186Y47760D01*
X1043116Y48191D01*
X1043058Y48624D01*
X1043010Y49057D01*
X1042972Y49492D01*
X1042945Y49928D01*
X1042929Y50364D01*
X1042924Y50800D01*
X19812Y431800D02*
X19817Y432236D01*
X19833Y432672D01*
X19860Y433108D01*
X19898Y433543D01*
X19946Y433976D01*
X20004Y434409D01*
X20074Y434840D01*
X20154Y435269D01*
X20244Y435696D01*
X20345Y436120D01*
X20456Y436542D01*
X20578Y436961D01*
X20709Y437377D01*
X20851Y437790D01*
X21003Y438199D01*
X21165Y438604D01*
X21337Y439005D01*
X21519Y439402D01*
X21710Y439794D01*
X21911Y440181D01*
X22122Y440564D01*
X22342Y440941D01*
X22571Y441312D01*
X22808Y441678D01*
X23055Y442038D01*
X23311Y442392D01*
X23575Y442739D01*
X23848Y443080D01*
X24129Y443413D01*
X24418Y443740D01*
X24715Y444060D01*
X25020Y444372D01*
X25332Y444677D01*
X25652Y444974D01*
X25979Y445263D01*
X26312Y445544D01*
X26653Y445817D01*
X27000Y446081D01*
X27354Y446337D01*
X27714Y446584D01*
X28080Y446821D01*
X28451Y447050D01*
X28828Y447270D01*
X29211Y447481D01*
X29598Y447682D01*
X29990Y447873D01*
X30387Y448055D01*
X30788Y448227D01*
X31193Y448389D01*
X31602Y448541D01*
X32015Y448683D01*
X32431Y448814D01*
X32850Y448936D01*
X33272Y449047D01*
X33696Y449148D01*
X34123Y449238D01*
X34552Y449318D01*
X34983Y449388D01*
X35416Y449446D01*
X35849Y449494D01*
X36284Y449532D01*
X36720Y449559D01*
X37156Y449575D01*
X37592Y449580D01*
X38028Y449575D01*
X38464Y449559D01*
X38900Y449532D01*
X39335Y449494D01*
X39768Y449446D01*
X40201Y449388D01*
X40632Y449318D01*
X41061Y449238D01*
X41488Y449148D01*
X41912Y449047D01*
X42334Y448936D01*
X42753Y448814D01*
X43169Y448683D01*
X43582Y448541D01*
X43991Y448389D01*
X44396Y448227D01*
X44797Y448055D01*
X45194Y447873D01*
X45586Y447682D01*
X45973Y447481D01*
X46356Y447270D01*
X46733Y447050D01*
X47104Y446821D01*
X47470Y446584D01*
X47830Y446337D01*
X48184Y446081D01*
X48531Y445817D01*
X48872Y445544D01*
X49205Y445263D01*
X49532Y444974D01*
X49852Y444677D01*
X50164Y444372D01*
X50469Y444060D01*
X50766Y443740D01*
X51055Y443413D01*
X51336Y443080D01*
X51609Y442739D01*
X51873Y442392D01*
X52129Y442038D01*
X52376Y441678D01*
X52613Y441312D01*
X52842Y440941D01*
X53062Y440564D01*
X53273Y440181D01*
X53474Y439794D01*
X53665Y439402D01*
X53847Y439005D01*
X54019Y438604D01*
X54181Y438199D01*
X54333Y437790D01*
X54475Y437377D01*
X54606Y436961D01*
X54728Y436542D01*
X54839Y436120D01*
X54940Y435696D01*
X55030Y435269D01*
X55110Y434840D01*
X55180Y434409D01*
X55238Y433976D01*
X55286Y433543D01*
X55324Y433108D01*
X55351Y432672D01*
X55367Y432236D01*
X55372Y431800D01*
X55367Y431364D01*
X55351Y430928D01*
X55324Y430492D01*
X55286Y430057D01*
X55238Y429624D01*
X55180Y429191D01*
X55110Y428760D01*
X55030Y428331D01*
X54940Y427904D01*
X54839Y427480D01*
X54728Y427058D01*
X54606Y426639D01*
X54475Y426223D01*
X54333Y425810D01*
X54181Y425401D01*
X54019Y424996D01*
X53847Y424595D01*
X53665Y424198D01*
X53474Y423806D01*
X53273Y423419D01*
X53062Y423036D01*
X52842Y422659D01*
X52613Y422288D01*
X52376Y421922D01*
X52129Y421562D01*
X51873Y421208D01*
X51609Y420861D01*
X51336Y420520D01*
X51055Y420187D01*
X50766Y419860D01*
X50469Y419540D01*
X50164Y419228D01*
X49852Y418923D01*
X49532Y418626D01*
X49205Y418337D01*
X48872Y418056D01*
X48531Y417783D01*
X48184Y417519D01*
X47830Y417263D01*
X47470Y417016D01*
X47104Y416779D01*
X46733Y416550D01*
X46356Y416330D01*
X45973Y416119D01*
X45586Y415918D01*
X45194Y415727D01*
X44797Y415545D01*
X44396Y415373D01*
X43991Y415211D01*
X43582Y415059D01*
X43169Y414917D01*
X42753Y414786D01*
X42334Y414664D01*
X41912Y414553D01*
X41488Y414452D01*
X41061Y414362D01*
X40632Y414282D01*
X40201Y414212D01*
X39768Y414154D01*
X39335Y414106D01*
X38900Y414068D01*
X38464Y414041D01*
X38028Y414025D01*
X37592Y414020D01*
X37156Y414025D01*
X36720Y414041D01*
X36284Y414068D01*
X35849Y414106D01*
X35416Y414154D01*
X34983Y414212D01*
X34552Y414282D01*
X34123Y414362D01*
X33696Y414452D01*
X33272Y414553D01*
X32850Y414664D01*
X32431Y414786D01*
X32015Y414917D01*
X31602Y415059D01*
X31193Y415211D01*
X30788Y415373D01*
X30387Y415545D01*
X29990Y415727D01*
X29598Y415918D01*
X29211Y416119D01*
X28828Y416330D01*
X28451Y416550D01*
X28080Y416779D01*
X27714Y417016D01*
X27354Y417263D01*
X27000Y417519D01*
X26653Y417783D01*
X26312Y418056D01*
X25979Y418337D01*
X25652Y418626D01*
X25332Y418923D01*
X25020Y419228D01*
X24715Y419540D01*
X24418Y419860D01*
X24129Y420187D01*
X23848Y420520D01*
X23575Y420861D01*
X23311Y421208D01*
X23055Y421562D01*
X22808Y421922D01*
X22571Y422288D01*
X22342Y422659D01*
X22122Y423036D01*
X21911Y423419D01*
X21710Y423806D01*
X21519Y424198D01*
X21337Y424595D01*
X21165Y424996D01*
X21003Y425401D01*
X20851Y425810D01*
X20709Y426223D01*
X20578Y426639D01*
X20456Y427058D01*
X20345Y427480D01*
X20244Y427904D01*
X20154Y428331D01*
X20074Y428760D01*
X20004Y429191D01*
X19946Y429624D01*
X19898Y430057D01*
X19860Y430492D01*
X19833Y430928D01*
X19817Y431364D01*
X19812Y431800D01*
X1042924Y431800D02*
X1042929Y432236D01*
X1042945Y432672D01*
X1042972Y433108D01*
X1043010Y433543D01*
X1043058Y433976D01*
X1043116Y434409D01*
X1043186Y434840D01*
X1043266Y435269D01*
X1043356Y435696D01*
X1043457Y436120D01*
X1043568Y436542D01*
X1043690Y436961D01*
X1043821Y437377D01*
X1043963Y437790D01*
X1044115Y438199D01*
X1044277Y438604D01*
X1044449Y439005D01*
X1044631Y439402D01*
X1044822Y439794D01*
X1045023Y440181D01*
X1045234Y440564D01*
X1045454Y440941D01*
X1045683Y441312D01*
X1045920Y441678D01*
X1046167Y442038D01*
X1046423Y442392D01*
X1046687Y442739D01*
X1046960Y443080D01*
X1047241Y443413D01*
X1047530Y443740D01*
X1047827Y444060D01*
X1048132Y444372D01*
X1048444Y444677D01*
X1048764Y444974D01*
X1049091Y445263D01*
X1049424Y445544D01*
X1049765Y445817D01*
X1050112Y446081D01*
X1050466Y446337D01*
X1050826Y446584D01*
X1051192Y446821D01*
X1051563Y447050D01*
X1051940Y447270D01*
X1052323Y447481D01*
X1052710Y447682D01*
X1053102Y447873D01*
X1053499Y448055D01*
X1053900Y448227D01*
X1054305Y448389D01*
X1054714Y448541D01*
X1055127Y448683D01*
X1055543Y448814D01*
X1055962Y448936D01*
X1056384Y449047D01*
X1056808Y449148D01*
X1057235Y449238D01*
X1057664Y449318D01*
X1058095Y449388D01*
X1058528Y449446D01*
X1058961Y449494D01*
X1059396Y449532D01*
X1059832Y449559D01*
X1060268Y449575D01*
X1060704Y449580D01*
X1061140Y449575D01*
X1061576Y449559D01*
X1062012Y449532D01*
X1062447Y449494D01*
X1062880Y449446D01*
X1063313Y449388D01*
X1063744Y449318D01*
X1064173Y449238D01*
X1064600Y449148D01*
X1065024Y449047D01*
X1065446Y448936D01*
X1065865Y448814D01*
X1066281Y448683D01*
X1066694Y448541D01*
X1067103Y448389D01*
X1067508Y448227D01*
X1067909Y448055D01*
X1068306Y447873D01*
X1068698Y447682D01*
X1069085Y447481D01*
X1069468Y447270D01*
X1069845Y447050D01*
X1070216Y446821D01*
X1070582Y446584D01*
X1070942Y446337D01*
X1071296Y446081D01*
X1071643Y445817D01*
X1071984Y445544D01*
X1072317Y445263D01*
X1072644Y444974D01*
X1072964Y444677D01*
X1073276Y444372D01*
X1073581Y444060D01*
X1073878Y443740D01*
X1074167Y443413D01*
X1074448Y443080D01*
X1074721Y442739D01*
X1074985Y442392D01*
X1075241Y442038D01*
X1075488Y441678D01*
X1075725Y441312D01*
X1075954Y440941D01*
X1076174Y440564D01*
X1076385Y440181D01*
X1076586Y439794D01*
X1076777Y439402D01*
X1076959Y439005D01*
X1077131Y438604D01*
X1077293Y438199D01*
X1077445Y437790D01*
X1077587Y437377D01*
X1077718Y436961D01*
X1077840Y436542D01*
X1077951Y436120D01*
X1078052Y435696D01*
X1078142Y435269D01*
X1078222Y434840D01*
X1078292Y434409D01*
X1078350Y433976D01*
X1078398Y433543D01*
X1078436Y433108D01*
X1078463Y432672D01*
X1078479Y432236D01*
X1078484Y431800D01*
X1078479Y431364D01*
X1078463Y430928D01*
X1078436Y430492D01*
X1078398Y430057D01*
X1078350Y429624D01*
X1078292Y429191D01*
X1078222Y428760D01*
X1078142Y428331D01*
X1078052Y427904D01*
X1077951Y427480D01*
X1077840Y427058D01*
X1077718Y426639D01*
X1077587Y426223D01*
X1077445Y425810D01*
X1077293Y425401D01*
X1077131Y424996D01*
X1076959Y424595D01*
X1076777Y424198D01*
X1076586Y423806D01*
X1076385Y423419D01*
X1076174Y423036D01*
X1075954Y422659D01*
X1075725Y422288D01*
X1075488Y421922D01*
X1075241Y421562D01*
X1074985Y421208D01*
X1074721Y420861D01*
X1074448Y420520D01*
X1074167Y420187D01*
X1073878Y419860D01*
X1073581Y419540D01*
X1073276Y419228D01*
X1072964Y418923D01*
X1072644Y418626D01*
X1072317Y418337D01*
X1071984Y418056D01*
X1071643Y417783D01*
X1071296Y417519D01*
X1070942Y417263D01*
X1070582Y417016D01*
X1070216Y416779D01*
X1069845Y416550D01*
X1069468Y416330D01*
X1069085Y416119D01*
X1068698Y415918D01*
X1068306Y415727D01*
X1067909Y415545D01*
X1067508Y415373D01*
X1067103Y415211D01*
X1066694Y415059D01*
X1066281Y414917D01*
X1065865Y414786D01*
X1065446Y414664D01*
X1065024Y414553D01*
X1064600Y414452D01*
X1064173Y414362D01*
X1063744Y414282D01*
X1063313Y414212D01*
X1062880Y414154D01*
X1062447Y414106D01*
X1062012Y414068D01*
X1061576Y414041D01*
X1061140Y414025D01*
X1060704Y414020D01*
X1060268Y414025D01*
X1059832Y414041D01*
X1059396Y414068D01*
X1058961Y414106D01*
X1058528Y414154D01*
X1058095Y414212D01*
X1057664Y414282D01*
X1057235Y414362D01*
X1056808Y414452D01*
X1056384Y414553D01*
X1055962Y414664D01*
X1055543Y414786D01*
X1055127Y414917D01*
X1054714Y415059D01*
X1054305Y415211D01*
X1053900Y415373D01*
X1053499Y415545D01*
X1053102Y415727D01*
X1052710Y415918D01*
X1052323Y416119D01*
X1051940Y416330D01*
X1051563Y416550D01*
X1051192Y416779D01*
X1050826Y417016D01*
X1050466Y417263D01*
X1050112Y417519D01*
X1049765Y417783D01*
X1049424Y418056D01*
X1049091Y418337D01*
X1048764Y418626D01*
X1048444Y418923D01*
X1048132Y419228D01*
X1047827Y419540D01*
X1047530Y419860D01*
X1047241Y420187D01*
X1046960Y420520D01*
X1046687Y420861D01*
X1046423Y421208D01*
X1046167Y421562D01*
X1045920Y421922D01*
X1045683Y422288D01*
X1045454Y422659D01*
X1045234Y423036D01*
X1045023Y423419D01*
X1044822Y423806D01*
X1044631Y424198D01*
X1044449Y424595D01*
X1044277Y424996D01*
X1044115Y425401D01*
X1043963Y425810D01*
X1043821Y426223D01*
X1043690Y426639D01*
X1043568Y427058D01*
X1043457Y427480D01*
X1043356Y427904D01*
X1043266Y428331D01*
X1043186Y428760D01*
X1043116Y429191D01*
X1043058Y429624D01*
X1043010Y430057D01*
X1042972Y430492D01*
X1042945Y430928D01*
X1042929Y431364D01*
X1042924Y431800D01*
D11*
X0Y0D02*
X1099312Y0D01*
X1099312Y482600D01*
X0Y482600D01*
X0Y0D01*
X79248Y145534D02*
X79181Y144506D01*
X79046Y143483D01*
X78845Y142472D01*
X78578Y141476D01*
X78247Y140500D01*
X77852Y139547D01*
X77396Y138622D01*
X76880Y137730D01*
X76308Y136872D01*
X75680Y136054D01*
X75000Y135279D01*
X74271Y134550D01*
X73496Y133870D01*
X72678Y133242D01*
X71820Y132670D01*
X70928Y132154D01*
X70003Y131698D01*
X69050Y131303D01*
X68074Y130972D01*
X67078Y130705D01*
X66067Y130504D01*
X65044Y130369D01*
X64016Y130302D01*
X62984Y130302D01*
X61956Y130369D01*
X60933Y130504D01*
X59922Y130705D01*
X58926Y130972D01*
X57950Y131303D01*
X56997Y131698D01*
X56072Y132154D01*
X55180Y132670D01*
X54322Y133242D01*
X53504Y133870D01*
X52729Y134550D01*
X52000Y135279D01*
X51320Y136054D01*
X50692Y136872D01*
X50120Y137730D01*
X49604Y138622D01*
X49148Y139547D01*
X48753Y140500D01*
X48422Y141476D01*
X48155Y142472D01*
X47954Y143483D01*
X47819Y144506D01*
X47752Y145534D01*
X47752Y146566D01*
X47819Y147594D01*
X47954Y148617D01*
X48155Y149628D01*
X48422Y150624D01*
X48753Y151600D01*
X49148Y152553D01*
X49604Y153478D01*
X50120Y154370D01*
X50692Y155228D01*
X51320Y156046D01*
X52000Y156821D01*
X52729Y157550D01*
X53504Y158230D01*
X54322Y158858D01*
X55180Y159430D01*
X56072Y159946D01*
X56997Y160402D01*
X57950Y160797D01*
X58926Y161128D01*
X59922Y161395D01*
X60933Y161596D01*
X61956Y161731D01*
X62984Y161798D01*
X64016Y161798D01*
X65044Y161731D01*
X66067Y161596D01*
X67078Y161395D01*
X68074Y161128D01*
X69050Y160797D01*
X70003Y160402D01*
X70928Y159946D01*
X71820Y159430D01*
X72678Y158858D01*
X73496Y158230D01*
X74271Y157550D01*
X75000Y156821D01*
X75680Y156046D01*
X76308Y155228D01*
X76880Y154370D01*
X77396Y153478D01*
X77852Y152553D01*
X78247Y151600D01*
X78578Y150624D01*
X78845Y149628D01*
X79046Y148617D01*
X79181Y147594D01*
X79248Y146566D01*
X79248Y145534D01*
X1051560Y145534D02*
X1051493Y144506D01*
X1051358Y143483D01*
X1051157Y142472D01*
X1050890Y141476D01*
X1050559Y140500D01*
X1050164Y139547D01*
X1049708Y138622D01*
X1049192Y137730D01*
X1048620Y136872D01*
X1047992Y136054D01*
X1047312Y135279D01*
X1046583Y134550D01*
X1045808Y133870D01*
X1044990Y133242D01*
X1044132Y132670D01*
X1043240Y132154D01*
X1042315Y131698D01*
X1041362Y131303D01*
X1040386Y130972D01*
X1039390Y130705D01*
X1038379Y130504D01*
X1037356Y130369D01*
X1036328Y130302D01*
X1035296Y130302D01*
X1034268Y130369D01*
X1033245Y130504D01*
X1032234Y130705D01*
X1031238Y130972D01*
X1030262Y131303D01*
X1029309Y131698D01*
X1028384Y132154D01*
X1027492Y132670D01*
X1026634Y133242D01*
X1025816Y133870D01*
X1025041Y134550D01*
X1024312Y135279D01*
X1023632Y136054D01*
X1023004Y136872D01*
X1022432Y137730D01*
X1021916Y138622D01*
X1021460Y139547D01*
X1021065Y140500D01*
X1020734Y141476D01*
X1020467Y142472D01*
X1020266Y143483D01*
X1020131Y144506D01*
X1020064Y145534D01*
X1020064Y146566D01*
X1020131Y147594D01*
X1020266Y148617D01*
X1020467Y149628D01*
X1020734Y150624D01*
X1021065Y151600D01*
X1021460Y152553D01*
X1021916Y153478D01*
X1022432Y154370D01*
X1023004Y155228D01*
X1023632Y156046D01*
X1024312Y156821D01*
X1025041Y157550D01*
X1025816Y158230D01*
X1026634Y158858D01*
X1027492Y159430D01*
X1028384Y159946D01*
X1029309Y160402D01*
X1030262Y160797D01*
X1031238Y161128D01*
X1032234Y161395D01*
X1033245Y161596D01*
X1034268Y161731D01*
X1035296Y161798D01*
X1036328Y161798D01*
X1037356Y161731D01*
X1038379Y161596D01*
X1039390Y161395D01*
X1040386Y161128D01*
X1041362Y160797D01*
X1042315Y160402D01*
X1043240Y159946D01*
X1044132Y159430D01*
X1044990Y158858D01*
X1045808Y158230D01*
X1046583Y157550D01*
X1047312Y156821D01*
X1047992Y156046D01*
X1048620Y155228D01*
X1049192Y154370D01*
X1049708Y153478D01*
X1050164Y152553D01*
X1050559Y151600D01*
X1050890Y150624D01*
X1051157Y149628D01*
X1051358Y148617D01*
X1051493Y147594D01*
X1051560Y146566D01*
X1051560Y145534D01*
X79248Y336034D02*
X79181Y335006D01*
X79046Y333983D01*
X78845Y332972D01*
X78578Y331976D01*
X78247Y331000D01*
X77852Y330047D01*
X77396Y329122D01*
X76880Y328230D01*
X76308Y327372D01*
X75680Y326554D01*
X75000Y325779D01*
X74271Y325050D01*
X73496Y324370D01*
X72678Y323742D01*
X71820Y323170D01*
X70928Y322654D01*
X70003Y322198D01*
X69050Y321803D01*
X68074Y321472D01*
X67078Y321205D01*
X66067Y321004D01*
X65044Y320869D01*
X64016Y320802D01*
X62984Y320802D01*
X61956Y320869D01*
X60933Y321004D01*
X59922Y321205D01*
X58926Y321472D01*
X57950Y321803D01*
X56997Y322198D01*
X56072Y322654D01*
X55180Y323170D01*
X54322Y323742D01*
X53504Y324370D01*
X52729Y325050D01*
X52000Y325779D01*
X51320Y326554D01*
X50692Y327372D01*
X50120Y328230D01*
X49604Y329122D01*
X49148Y330047D01*
X48753Y331000D01*
X48422Y331976D01*
X48155Y332972D01*
X47954Y333983D01*
X47819Y335006D01*
X47752Y336034D01*
X47752Y337066D01*
X47819Y338094D01*
X47954Y339117D01*
X48155Y340128D01*
X48422Y341124D01*
X48753Y342100D01*
X49148Y343053D01*
X49604Y343978D01*
X50120Y344870D01*
X50692Y345728D01*
X51320Y346546D01*
X52000Y347321D01*
X52729Y348050D01*
X53504Y348730D01*
X54322Y349358D01*
X55180Y349930D01*
X56072Y350446D01*
X56997Y350902D01*
X57950Y351297D01*
X58926Y351628D01*
X59922Y351895D01*
X60933Y352096D01*
X61956Y352231D01*
X62984Y352298D01*
X64016Y352298D01*
X65044Y352231D01*
X66067Y352096D01*
X67078Y351895D01*
X68074Y351628D01*
X69050Y351297D01*
X70003Y350902D01*
X70928Y350446D01*
X71820Y349930D01*
X72678Y349358D01*
X73496Y348730D01*
X74271Y348050D01*
X75000Y347321D01*
X75680Y346546D01*
X76308Y345728D01*
X76880Y344870D01*
X77396Y343978D01*
X77852Y343053D01*
X78247Y342100D01*
X78578Y341124D01*
X78845Y340128D01*
X79046Y339117D01*
X79181Y338094D01*
X79248Y337066D01*
X79248Y336034D01*
X1051560Y336034D02*
X1051493Y335006D01*
X1051358Y333983D01*
X1051157Y332972D01*
X1050890Y331976D01*
X1050559Y331000D01*
X1050164Y330047D01*
X1049708Y329122D01*
X1049192Y328230D01*
X1048620Y327372D01*
X1047992Y326554D01*
X1047312Y325779D01*
X1046583Y325050D01*
X1045808Y324370D01*
X1044990Y323742D01*
X1044132Y323170D01*
X1043240Y322654D01*
X1042315Y322198D01*
X1041362Y321803D01*
X1040386Y321472D01*
X1039390Y321205D01*
X1038379Y321004D01*
X1037356Y320869D01*
X1036328Y320802D01*
X1035296Y320802D01*
X1034268Y320869D01*
X1033245Y321004D01*
X1032234Y321205D01*
X1031238Y321472D01*
X1030262Y321803D01*
X1029309Y322198D01*
X1028384Y322654D01*
X1027492Y323170D01*
X1026634Y323742D01*
X1025816Y324370D01*
X1025041Y325050D01*
X1024312Y325779D01*
X1023632Y326554D01*
X1023004Y327372D01*
X1022432Y328230D01*
X1021916Y329122D01*
X1021460Y330047D01*
X1021065Y331000D01*
X1020734Y331976D01*
X1020467Y332972D01*
X1020266Y333983D01*
X1020131Y335006D01*
X1020064Y336034D01*
X1020064Y337066D01*
X1020131Y338094D01*
X1020266Y339117D01*
X1020467Y340128D01*
X1020734Y341124D01*
X1021065Y342100D01*
X1021460Y343053D01*
X1021916Y343978D01*
X1022432Y344870D01*
X1023004Y345728D01*
X1023632Y346546D01*
X1024312Y347321D01*
X1025041Y348050D01*
X1025816Y348730D01*
X1026634Y349358D01*
X1027492Y349930D01*
X1028384Y350446D01*
X1029309Y350902D01*
X1030262Y351297D01*
X1031238Y351628D01*
X1032234Y351895D01*
X1033245Y352096D01*
X1034268Y352231D01*
X1035296Y352298D01*
X1036328Y352298D01*
X1037356Y352231D01*
X1038379Y352096D01*
X1039390Y351895D01*
X1040386Y351628D01*
X1041362Y351297D01*
X1042315Y350902D01*
X1043240Y350446D01*
X1044132Y349930D01*
X1044990Y349358D01*
X1045808Y348730D01*
X1046583Y348050D01*
X1047312Y347321D01*
X1047992Y346546D01*
X1048620Y345728D01*
X1049192Y344870D01*
X1049708Y343978D01*
X1050164Y343053D01*
X1050559Y342100D01*
X1050890Y341124D01*
X1051157Y340128D01*
X1051358Y339117D01*
X1051493Y338094D01*
X1051560Y337066D01*
X1051560Y336034D01*
X55372Y240718D02*
X55296Y239556D01*
X55144Y238402D01*
X54917Y237260D01*
X54616Y236136D01*
X54241Y235034D01*
X53796Y233958D01*
X53281Y232914D01*
X52699Y231906D01*
X52052Y230938D01*
X51344Y230014D01*
X50576Y229139D01*
X49753Y228316D01*
X48878Y227549D01*
X47954Y226840D01*
X46986Y226193D01*
X45978Y225611D01*
X44934Y225096D01*
X43858Y224651D01*
X42756Y224277D01*
X41632Y223975D01*
X40490Y223748D01*
X39336Y223596D01*
X38174Y223520D01*
X37010Y223520D01*
X35848Y223596D01*
X34694Y223748D01*
X33552Y223975D01*
X32428Y224277D01*
X31326Y224651D01*
X30250Y225096D01*
X29206Y225611D01*
X28198Y226193D01*
X27230Y226840D01*
X26306Y227549D01*
X25431Y228316D01*
X24608Y229139D01*
X23841Y230014D01*
X23132Y230938D01*
X22485Y231906D01*
X21903Y232914D01*
X21388Y233958D01*
X20943Y235034D01*
X20569Y236136D01*
X20267Y237260D01*
X20040Y238402D01*
X19888Y239556D01*
X19812Y240718D01*
X19812Y241882D01*
X19888Y243044D01*
X20040Y244198D01*
X20267Y245340D01*
X20569Y246464D01*
X20943Y247566D01*
X21388Y248642D01*
X21903Y249686D01*
X22485Y250694D01*
X23132Y251662D01*
X23841Y252586D01*
X24608Y253461D01*
X25431Y254284D01*
X26306Y255052D01*
X27230Y255760D01*
X28198Y256407D01*
X29206Y256989D01*
X30250Y257504D01*
X31326Y257949D01*
X32428Y258324D01*
X33552Y258625D01*
X34694Y258852D01*
X35848Y259004D01*
X37010Y259080D01*
X38174Y259080D01*
X39336Y259004D01*
X40490Y258852D01*
X41632Y258625D01*
X42756Y258324D01*
X43858Y257949D01*
X44934Y257504D01*
X45978Y256989D01*
X46986Y256407D01*
X47954Y255760D01*
X48878Y255052D01*
X49753Y254284D01*
X50576Y253461D01*
X51344Y252586D01*
X52052Y251662D01*
X52699Y250694D01*
X53281Y249686D01*
X53796Y248642D01*
X54241Y247566D01*
X54616Y246464D01*
X54917Y245340D01*
X55144Y244198D01*
X55296Y243044D01*
X55372Y241882D01*
X55372Y240718D01*
X1078484Y240718D02*
X1078408Y239556D01*
X1078256Y238402D01*
X1078029Y237260D01*
X1077728Y236136D01*
X1077353Y235034D01*
X1076908Y233958D01*
X1076393Y232914D01*
X1075811Y231906D01*
X1075164Y230938D01*
X1074456Y230014D01*
X1073688Y229139D01*
X1072865Y228316D01*
X1071990Y227549D01*
X1071066Y226840D01*
X1070098Y226193D01*
X1069090Y225611D01*
X1068046Y225096D01*
X1066970Y224651D01*
X1065868Y224277D01*
X1064744Y223975D01*
X1063602Y223748D01*
X1062448Y223596D01*
X1061286Y223520D01*
X1060122Y223520D01*
X1058960Y223596D01*
X1057806Y223748D01*
X1056664Y223975D01*
X1055540Y224277D01*
X1054438Y224651D01*
X1053362Y225096D01*
X1052318Y225611D01*
X1051310Y226193D01*
X1050342Y226840D01*
X1049418Y227549D01*
X1048543Y228316D01*
X1047720Y229139D01*
X1046953Y230014D01*
X1046244Y230938D01*
X1045597Y231906D01*
X1045015Y232914D01*
X1044500Y233958D01*
X1044055Y235034D01*
X1043681Y236136D01*
X1043379Y237260D01*
X1043152Y238402D01*
X1043000Y239556D01*
X1042924Y240718D01*
X1042924Y241882D01*
X1043000Y243044D01*
X1043152Y244198D01*
X1043379Y245340D01*
X1043681Y246464D01*
X1044055Y247566D01*
X1044500Y248642D01*
X1045015Y249686D01*
X1045597Y250694D01*
X1046244Y251662D01*
X1046953Y252586D01*
X1047720Y253461D01*
X1048543Y254284D01*
X1049418Y255052D01*
X1050342Y255760D01*
X1051310Y256407D01*
X1052318Y256989D01*
X1053362Y257504D01*
X1054438Y257949D01*
X1055540Y258324D01*
X1056664Y258625D01*
X1057806Y258852D01*
X1058960Y259004D01*
X1060122Y259080D01*
X1061286Y259080D01*
X1062448Y259004D01*
X1063602Y258852D01*
X1064744Y258625D01*
X1065868Y258324D01*
X1066970Y257949D01*
X1068046Y257504D01*
X1069090Y256989D01*
X1070098Y256407D01*
X1071066Y255760D01*
X1071990Y255052D01*
X1072865Y254284D01*
X1073688Y253461D01*
X1074456Y252586D01*
X1075164Y251662D01*
X1075811Y250694D01*
X1076393Y249686D01*
X1076908Y248642D01*
X1077353Y247566D01*
X1077728Y246464D01*
X1078029Y245340D01*
X1078256Y244198D01*
X1078408Y243044D01*
X1078484Y241882D01*
X1078484Y240718D01*
X55372Y50218D02*
X55296Y49056D01*
X55144Y47902D01*
X54917Y46760D01*
X54616Y45636D01*
X54241Y44534D01*
X53796Y43458D01*
X53281Y42414D01*
X52699Y41406D01*
X52052Y40438D01*
X51344Y39514D01*
X50576Y38639D01*
X49753Y37816D01*
X48878Y37049D01*
X47954Y36340D01*
X46986Y35693D01*
X45978Y35111D01*
X44934Y34596D01*
X43858Y34151D01*
X42756Y33777D01*
X41632Y33475D01*
X40490Y33248D01*
X39336Y33096D01*
X38174Y33020D01*
X37010Y33020D01*
X35848Y33096D01*
X34694Y33248D01*
X33552Y33475D01*
X32428Y33777D01*
X31326Y34151D01*
X30250Y34596D01*
X29206Y35111D01*
X28198Y35693D01*
X27230Y36340D01*
X26306Y37049D01*
X25431Y37816D01*
X24608Y38639D01*
X23841Y39514D01*
X23132Y40438D01*
X22485Y41406D01*
X21903Y42414D01*
X21388Y43458D01*
X20943Y44534D01*
X20569Y45636D01*
X20267Y46760D01*
X20040Y47902D01*
X19888Y49056D01*
X19812Y50218D01*
X19812Y51382D01*
X19888Y52544D01*
X20040Y53698D01*
X20267Y54840D01*
X20569Y55964D01*
X20943Y57066D01*
X21388Y58142D01*
X21903Y59186D01*
X22485Y60194D01*
X23132Y61162D01*
X23841Y62086D01*
X24608Y62961D01*
X25431Y63784D01*
X26306Y64552D01*
X27230Y65260D01*
X28198Y65907D01*
X29206Y66489D01*
X30250Y67004D01*
X31326Y67449D01*
X32428Y67824D01*
X33552Y68125D01*
X34694Y68352D01*
X35848Y68504D01*
X37010Y68580D01*
X38174Y68580D01*
X39336Y68504D01*
X40490Y68352D01*
X41632Y68125D01*
X42756Y67824D01*
X43858Y67449D01*
X44934Y67004D01*
X45978Y66489D01*
X46986Y65907D01*
X47954Y65260D01*
X48878Y64552D01*
X49753Y63784D01*
X50576Y62961D01*
X51344Y62086D01*
X52052Y61162D01*
X52699Y60194D01*
X53281Y59186D01*
X53796Y58142D01*
X54241Y57066D01*
X54616Y55964D01*
X54917Y54840D01*
X55144Y53698D01*
X55296Y52544D01*
X55372Y51382D01*
X55372Y50218D01*
X1078484Y50218D02*
X1078408Y49056D01*
X1078256Y47902D01*
X1078029Y46760D01*
X1077728Y45636D01*
X1077353Y44534D01*
X1076908Y43458D01*
X1076393Y42414D01*
X1075811Y41406D01*
X1075164Y40438D01*
X1074456Y39514D01*
X1073688Y38639D01*
X1072865Y37816D01*
X1071990Y37049D01*
X1071066Y36340D01*
X1070098Y35693D01*
X1069090Y35111D01*
X1068046Y34596D01*
X1066970Y34151D01*
X1065868Y33777D01*
X1064744Y33475D01*
X1063602Y33248D01*
X1062448Y33096D01*
X1061286Y33020D01*
X1060122Y33020D01*
X1058960Y33096D01*
X1057806Y33248D01*
X1056664Y33475D01*
X1055540Y33777D01*
X1054438Y34151D01*
X1053362Y34596D01*
X1052318Y35111D01*
X1051310Y35693D01*
X1050342Y36340D01*
X1049418Y37049D01*
X1048543Y37816D01*
X1047720Y38639D01*
X1046953Y39514D01*
X1046244Y40438D01*
X1045597Y41406D01*
X1045015Y42414D01*
X1044500Y43458D01*
X1044055Y44534D01*
X1043681Y45636D01*
X1043379Y46760D01*
X1043152Y47902D01*
X1043000Y49056D01*
X1042924Y50218D01*
X1042924Y51382D01*
X1043000Y52544D01*
X1043152Y53698D01*
X1043379Y54840D01*
X1043681Y55964D01*
X1044055Y57066D01*
X1044500Y58142D01*
X1045015Y59186D01*
X1045597Y60194D01*
X1046244Y61162D01*
X1046953Y62086D01*
X1047720Y62961D01*
X1048543Y63784D01*
X1049418Y64552D01*
X1050342Y65260D01*
X1051310Y65907D01*
X1052318Y66489D01*
X1053362Y67004D01*
X1054438Y67449D01*
X1055540Y67824D01*
X1056664Y68125D01*
X1057806Y68352D01*
X1058960Y68504D01*
X1060122Y68580D01*
X1061286Y68580D01*
X1062448Y68504D01*
X1063602Y68352D01*
X1064744Y68125D01*
X1065868Y67824D01*
X1066970Y67449D01*
X1068046Y67004D01*
X1069090Y66489D01*
X1070098Y65907D01*
X1071066Y65260D01*
X1071990Y64552D01*
X1072865Y63784D01*
X1073688Y62961D01*
X1074456Y62086D01*
X1075164Y61162D01*
X1075811Y60194D01*
X1076393Y59186D01*
X1076908Y58142D01*
X1077353Y57066D01*
X1077728Y55964D01*
X1078029Y54840D01*
X1078256Y53698D01*
X1078408Y52544D01*
X1078484Y51382D01*
X1078484Y50218D01*
X55372Y431218D02*
X55296Y430056D01*
X55144Y428902D01*
X54917Y427760D01*
X54616Y426636D01*
X54241Y425534D01*
X53796Y424458D01*
X53281Y423414D01*
X52699Y422406D01*
X52052Y421438D01*
X51344Y420514D01*
X50576Y419639D01*
X49753Y418816D01*
X48878Y418049D01*
X47954Y417340D01*
X46986Y416693D01*
X45978Y416111D01*
X44934Y415596D01*
X43858Y415151D01*
X42756Y414777D01*
X41632Y414475D01*
X40490Y414248D01*
X39336Y414096D01*
X38174Y414020D01*
X37010Y414020D01*
X35848Y414096D01*
X34694Y414248D01*
X33552Y414475D01*
X32428Y414777D01*
X31326Y415151D01*
X30250Y415596D01*
X29206Y416111D01*
X28198Y416693D01*
X27230Y417340D01*
X26306Y418049D01*
X25431Y418816D01*
X24608Y419639D01*
X23841Y420514D01*
X23132Y421438D01*
X22485Y422406D01*
X21903Y423414D01*
X21388Y424458D01*
X20943Y425534D01*
X20569Y426636D01*
X20267Y427760D01*
X20040Y428902D01*
X19888Y430056D01*
X19812Y431218D01*
X19812Y432382D01*
X19888Y433544D01*
X20040Y434698D01*
X20267Y435840D01*
X20569Y436964D01*
X20943Y438066D01*
X21388Y439142D01*
X21903Y440186D01*
X22485Y441194D01*
X23132Y442162D01*
X23841Y443086D01*
X24608Y443961D01*
X25431Y444784D01*
X26306Y445552D01*
X27230Y446260D01*
X28198Y446907D01*
X29206Y447489D01*
X30250Y448004D01*
X31326Y448449D01*
X32428Y448824D01*
X33552Y449125D01*
X34694Y449352D01*
X35848Y449504D01*
X37010Y449580D01*
X38174Y449580D01*
X39336Y449504D01*
X40490Y449352D01*
X41632Y449125D01*
X42756Y448824D01*
X43858Y448449D01*
X44934Y448004D01*
X45978Y447489D01*
X46986Y446907D01*
X47954Y446260D01*
X48878Y445552D01*
X49753Y444784D01*
X50576Y443961D01*
X51344Y443086D01*
X52052Y442162D01*
X52699Y441194D01*
X53281Y440186D01*
X53796Y439142D01*
X54241Y438066D01*
X54616Y436964D01*
X54917Y435840D01*
X55144Y434698D01*
X55296Y433544D01*
X55372Y432382D01*
X55372Y431218D01*
X1078484Y431218D02*
X1078408Y430056D01*
X1078256Y428902D01*
X1078029Y427760D01*
X1077728Y426636D01*
X1077353Y425534D01*
X1076908Y424458D01*
X1076393Y423414D01*
X1075811Y422406D01*
X1075164Y421438D01*
X1074456Y420514D01*
X1073688Y419639D01*
X1072865Y418816D01*
X1071990Y418049D01*
X1071066Y417340D01*
X1070098Y416693D01*
X1069090Y416111D01*
X1068046Y415596D01*
X1066970Y415151D01*
X1065868Y414777D01*
X1064744Y414475D01*
X1063602Y414248D01*
X1062448Y414096D01*
X1061286Y414020D01*
X1060122Y414020D01*
X1058960Y414096D01*
X1057806Y414248D01*
X1056664Y414475D01*
X1055540Y414777D01*
X1054438Y415151D01*
X1053362Y415596D01*
X1052318Y416111D01*
X1051310Y416693D01*
X1050342Y417340D01*
X1049418Y418049D01*
X1048543Y418816D01*
X1047720Y419639D01*
X1046953Y420514D01*
X1046244Y421438D01*
X1045597Y422406D01*
X1045015Y423414D01*
X1044500Y424458D01*
X1044055Y425534D01*
X1043681Y426636D01*
X1043379Y427760D01*
X1043152Y428902D01*
X1043000Y430056D01*
X1042924Y431218D01*
X1042924Y432382D01*
X1043000Y433544D01*
X1043152Y434698D01*
X1043379Y435840D01*
X1043681Y436964D01*
X1044055Y438066D01*
X1044500Y439142D01*
X1045015Y440186D01*
X1045597Y441194D01*
X1046244Y442162D01*
X1046953Y443086D01*
X1047720Y443961D01*
X1048543Y444784D01*
X1049418Y445552D01*
X1050342Y446260D01*
X1051310Y446907D01*
X1052318Y447489D01*
X1053362Y448004D01*
X1054438Y448449D01*
X1055540Y448824D01*
X1056664Y449125D01*
X1057806Y449352D01*
X1058960Y449504D01*
X1060122Y449580D01*
X1061286Y449580D01*
X1062448Y449504D01*
X1063602Y449352D01*
X1064744Y449125D01*
X1065868Y448824D01*
X1066970Y448449D01*
X1068046Y448004D01*
X1069090Y447489D01*
X1070098Y446907D01*
X1071066Y446260D01*
X1071990Y445552D01*
X1072865Y444784D01*
X1073688Y443961D01*
X1074456Y443086D01*
X1075164Y442162D01*
X1075811Y441194D01*
X1076393Y440186D01*
X1076908Y439142D01*
X1077353Y438066D01*
X1077728Y436964D01*
X1078029Y435840D01*
X1078256Y434698D01*
X1078408Y433544D01*
X1078484Y432382D01*
X1078484Y431218D01*
M02*
