G04 EAGLE Gerber RS-274X export*
G75*
%MOMM*%
%FSLAX34Y34*%
%LPD*%
%INSoldermask Bottom*%
%IPPOS*%
%AMOC8*
5,1,8,0,0,1.08239X$1,22.5*%
G01*
%ADD10C,3.352800*%
%ADD11P,2.694285X8X202.500000*%
%ADD12P,2.694285X8X22.500000*%
%ADD13C,3.759200*%


D10*
X63500Y146050D03*
X1035812Y146050D03*
X63500Y336550D03*
X1035812Y336550D03*
D11*
X568960Y261620D03*
X568960Y220980D03*
X608584Y261620D03*
X648208Y261620D03*
X687832Y261620D03*
X727456Y261620D03*
X767080Y261620D03*
X806704Y261620D03*
X846328Y261620D03*
X885952Y261620D03*
X925576Y261620D03*
X965200Y261620D03*
X608584Y220980D03*
X648208Y220980D03*
X687832Y220980D03*
X727456Y220980D03*
X767080Y220980D03*
X806704Y220980D03*
X846328Y220980D03*
X885952Y220980D03*
X925576Y220980D03*
X965200Y220980D03*
D12*
X529336Y220980D03*
X529336Y261620D03*
X489712Y220980D03*
X450088Y220980D03*
X410464Y220980D03*
X370840Y220980D03*
X331216Y220980D03*
X291592Y220980D03*
X251968Y220980D03*
X212344Y220980D03*
X172720Y220980D03*
X133096Y220980D03*
X489712Y261620D03*
X450088Y261620D03*
X410464Y261620D03*
X370840Y261620D03*
X331216Y261620D03*
X291592Y261620D03*
X251968Y261620D03*
X212344Y261620D03*
X172720Y261620D03*
X133096Y261620D03*
D13*
X37592Y241300D03*
X1060704Y241300D03*
D11*
X568960Y71120D03*
X568960Y30480D03*
X608584Y71120D03*
X648208Y71120D03*
X687832Y71120D03*
X727456Y71120D03*
X767080Y71120D03*
X806704Y71120D03*
X846328Y71120D03*
X885952Y71120D03*
X925576Y71120D03*
X965200Y71120D03*
X608584Y30480D03*
X648208Y30480D03*
X687832Y30480D03*
X727456Y30480D03*
X767080Y30480D03*
X806704Y30480D03*
X846328Y30480D03*
X885952Y30480D03*
X925576Y30480D03*
X965200Y30480D03*
D12*
X529336Y30480D03*
X529336Y71120D03*
X489712Y30480D03*
X450088Y30480D03*
X410464Y30480D03*
X370840Y30480D03*
X331216Y30480D03*
X291592Y30480D03*
X251968Y30480D03*
X212344Y30480D03*
X172720Y30480D03*
X133096Y30480D03*
X489712Y71120D03*
X450088Y71120D03*
X410464Y71120D03*
X370840Y71120D03*
X331216Y71120D03*
X291592Y71120D03*
X251968Y71120D03*
X212344Y71120D03*
X172720Y71120D03*
X133096Y71120D03*
D13*
X37592Y50800D03*
X1060704Y50800D03*
D11*
X568960Y452120D03*
X568960Y411480D03*
X608584Y452120D03*
X648208Y452120D03*
X687832Y452120D03*
X727456Y452120D03*
X767080Y452120D03*
X806704Y452120D03*
X846328Y452120D03*
X885952Y452120D03*
X925576Y452120D03*
X965200Y452120D03*
X608584Y411480D03*
X648208Y411480D03*
X687832Y411480D03*
X727456Y411480D03*
X767080Y411480D03*
X806704Y411480D03*
X846328Y411480D03*
X885952Y411480D03*
X925576Y411480D03*
X965200Y411480D03*
D12*
X529336Y411480D03*
X529336Y452120D03*
X489712Y411480D03*
X450088Y411480D03*
X410464Y411480D03*
X370840Y411480D03*
X331216Y411480D03*
X291592Y411480D03*
X251968Y411480D03*
X212344Y411480D03*
X172720Y411480D03*
X133096Y411480D03*
X489712Y452120D03*
X450088Y452120D03*
X410464Y452120D03*
X370840Y452120D03*
X331216Y452120D03*
X291592Y452120D03*
X251968Y452120D03*
X212344Y452120D03*
X172720Y452120D03*
X133096Y452120D03*
D13*
X37592Y431800D03*
X1060704Y431800D03*
M02*
