G04 EAGLE Gerber RS-274X export*
G75*
%MOMM*%
%FSLAX34Y34*%
%LPD*%
%INBottom Copper*%
%IPPOS*%
%AMOC8*
5,1,8,0,0,1.08239X$1,22.5*%
G01*
%ADD10P,2.474344X8X202.500000*%
%ADD11P,2.474344X8X22.500000*%
%ADD12C,0.304800*%
%ADD13C,0.756400*%

G36*
X1093490Y5084D02*
X1093490Y5084D01*
X1093509Y5082D01*
X1093611Y5104D01*
X1093713Y5120D01*
X1093730Y5130D01*
X1093750Y5134D01*
X1093839Y5187D01*
X1093930Y5236D01*
X1093944Y5250D01*
X1093961Y5260D01*
X1094028Y5339D01*
X1094100Y5414D01*
X1094108Y5432D01*
X1094121Y5447D01*
X1094160Y5543D01*
X1094203Y5637D01*
X1094205Y5657D01*
X1094213Y5675D01*
X1094231Y5842D01*
X1094231Y476758D01*
X1094228Y476778D01*
X1094230Y476797D01*
X1094208Y476899D01*
X1094192Y477001D01*
X1094182Y477018D01*
X1094178Y477038D01*
X1094125Y477127D01*
X1094076Y477218D01*
X1094062Y477232D01*
X1094052Y477249D01*
X1093973Y477316D01*
X1093898Y477388D01*
X1093880Y477396D01*
X1093865Y477409D01*
X1093769Y477448D01*
X1093675Y477491D01*
X1093655Y477493D01*
X1093637Y477501D01*
X1093470Y477519D01*
X5842Y477519D01*
X5822Y477516D01*
X5803Y477518D01*
X5701Y477496D01*
X5599Y477480D01*
X5582Y477470D01*
X5562Y477466D01*
X5473Y477413D01*
X5382Y477364D01*
X5368Y477350D01*
X5351Y477340D01*
X5284Y477261D01*
X5212Y477186D01*
X5204Y477168D01*
X5191Y477153D01*
X5152Y477057D01*
X5109Y476963D01*
X5107Y476943D01*
X5099Y476925D01*
X5081Y476758D01*
X5081Y5842D01*
X5084Y5822D01*
X5082Y5803D01*
X5104Y5701D01*
X5120Y5599D01*
X5130Y5582D01*
X5134Y5562D01*
X5187Y5473D01*
X5236Y5382D01*
X5250Y5368D01*
X5260Y5351D01*
X5339Y5284D01*
X5414Y5212D01*
X5432Y5204D01*
X5447Y5191D01*
X5543Y5152D01*
X5637Y5109D01*
X5657Y5107D01*
X5675Y5099D01*
X5842Y5081D01*
X1093470Y5081D01*
X1093490Y5084D01*
G37*
%LPC*%
G36*
X1056157Y408939D02*
X1056157Y408939D01*
X1047754Y412420D01*
X1041324Y418850D01*
X1037843Y427253D01*
X1037843Y436347D01*
X1041324Y444750D01*
X1047754Y451180D01*
X1056157Y454661D01*
X1065251Y454661D01*
X1073654Y451180D01*
X1080084Y444750D01*
X1083565Y436347D01*
X1083565Y427253D01*
X1080084Y418850D01*
X1073654Y412420D01*
X1065251Y408939D01*
X1056157Y408939D01*
G37*
%LPD*%
%LPC*%
G36*
X33045Y408939D02*
X33045Y408939D01*
X24642Y412420D01*
X18212Y418850D01*
X14731Y427253D01*
X14731Y436347D01*
X18212Y444750D01*
X24642Y451180D01*
X33045Y454661D01*
X42139Y454661D01*
X50542Y451180D01*
X56972Y444750D01*
X60453Y436347D01*
X60453Y427253D01*
X56972Y418850D01*
X50542Y412420D01*
X42139Y408939D01*
X33045Y408939D01*
G37*
%LPD*%
%LPC*%
G36*
X33045Y27939D02*
X33045Y27939D01*
X24642Y31420D01*
X18212Y37850D01*
X14731Y46253D01*
X14731Y55347D01*
X18212Y63750D01*
X24642Y70180D01*
X33045Y73661D01*
X42139Y73661D01*
X50542Y70180D01*
X56972Y63750D01*
X60453Y55347D01*
X60453Y46253D01*
X56972Y37850D01*
X50542Y31420D01*
X42139Y27939D01*
X33045Y27939D01*
G37*
%LPD*%
%LPC*%
G36*
X1056157Y27939D02*
X1056157Y27939D01*
X1047754Y31420D01*
X1041324Y37850D01*
X1037843Y46253D01*
X1037843Y55347D01*
X1041324Y63750D01*
X1047754Y70180D01*
X1056157Y73661D01*
X1065251Y73661D01*
X1073654Y70180D01*
X1080084Y63750D01*
X1083565Y55347D01*
X1083565Y46253D01*
X1080084Y37850D01*
X1073654Y31420D01*
X1065251Y27939D01*
X1056157Y27939D01*
G37*
%LPD*%
%LPC*%
G36*
X1056157Y218439D02*
X1056157Y218439D01*
X1047754Y221920D01*
X1041324Y228350D01*
X1037843Y236753D01*
X1037843Y245847D01*
X1041324Y254250D01*
X1047754Y260680D01*
X1056157Y264161D01*
X1065251Y264161D01*
X1073654Y260680D01*
X1080084Y254250D01*
X1083565Y245847D01*
X1083565Y236753D01*
X1080084Y228350D01*
X1073654Y221920D01*
X1065251Y218439D01*
X1056157Y218439D01*
G37*
%LPD*%
%LPC*%
G36*
X33045Y218439D02*
X33045Y218439D01*
X24642Y221920D01*
X18212Y228350D01*
X14731Y236753D01*
X14731Y245847D01*
X18212Y254250D01*
X24642Y260680D01*
X33045Y264161D01*
X42139Y264161D01*
X50542Y260680D01*
X56972Y254250D01*
X60453Y245847D01*
X60453Y236753D01*
X56972Y228350D01*
X50542Y221920D01*
X42139Y218439D01*
X33045Y218439D01*
G37*
%LPD*%
%LPC*%
G36*
X59357Y315721D02*
X59357Y315721D01*
X51701Y318892D01*
X45842Y324751D01*
X42671Y332407D01*
X42671Y340693D01*
X45842Y348349D01*
X51701Y354208D01*
X59357Y357379D01*
X67643Y357379D01*
X75299Y354208D01*
X81158Y348349D01*
X84329Y340693D01*
X84329Y332407D01*
X81158Y324751D01*
X75299Y318892D01*
X67643Y315721D01*
X59357Y315721D01*
G37*
%LPD*%
%LPC*%
G36*
X59357Y125221D02*
X59357Y125221D01*
X51701Y128392D01*
X45842Y134251D01*
X42671Y141907D01*
X42671Y150193D01*
X45842Y157849D01*
X51701Y163708D01*
X59357Y166879D01*
X67643Y166879D01*
X75299Y163708D01*
X81158Y157849D01*
X84329Y150193D01*
X84329Y141907D01*
X81158Y134251D01*
X75299Y128392D01*
X67643Y125221D01*
X59357Y125221D01*
G37*
%LPD*%
%LPC*%
G36*
X1031669Y125221D02*
X1031669Y125221D01*
X1024013Y128392D01*
X1018154Y134251D01*
X1014983Y141907D01*
X1014983Y150193D01*
X1018154Y157849D01*
X1024013Y163708D01*
X1031669Y166879D01*
X1039955Y166879D01*
X1047611Y163708D01*
X1053470Y157849D01*
X1056641Y150193D01*
X1056641Y141907D01*
X1053470Y134251D01*
X1047611Y128392D01*
X1039955Y125221D01*
X1031669Y125221D01*
G37*
%LPD*%
%LPC*%
G36*
X1031669Y315721D02*
X1031669Y315721D01*
X1024013Y318892D01*
X1018154Y324751D01*
X1014983Y332407D01*
X1014983Y340693D01*
X1018154Y348349D01*
X1024013Y354208D01*
X1031669Y357379D01*
X1039955Y357379D01*
X1047611Y354208D01*
X1053470Y348349D01*
X1056641Y340693D01*
X1056641Y332407D01*
X1053470Y324751D01*
X1047611Y318892D01*
X1039955Y315721D01*
X1031669Y315721D01*
G37*
%LPD*%
%LPC*%
G36*
X107977Y189003D02*
X107977Y189003D01*
X105093Y190198D01*
X102885Y192405D01*
X101691Y195289D01*
X101691Y198411D01*
X102885Y201295D01*
X105093Y203502D01*
X107977Y204697D01*
X109165Y204697D01*
X109255Y204711D01*
X109346Y204719D01*
X109376Y204731D01*
X109408Y204736D01*
X109489Y204779D01*
X109573Y204815D01*
X109605Y204841D01*
X109625Y204852D01*
X109648Y204875D01*
X109704Y204920D01*
X117935Y213151D01*
X117947Y213168D01*
X117962Y213180D01*
X117993Y213228D01*
X118000Y213235D01*
X118006Y213247D01*
X118018Y213267D01*
X118079Y213351D01*
X118085Y213370D01*
X118095Y213387D01*
X118121Y213487D01*
X118151Y213586D01*
X118151Y213606D01*
X118155Y213625D01*
X118147Y213728D01*
X118145Y213832D01*
X118138Y213851D01*
X118136Y213871D01*
X118096Y213966D01*
X118060Y214063D01*
X118048Y214079D01*
X118040Y214097D01*
X117935Y214228D01*
X117601Y214562D01*
X117601Y227398D01*
X126678Y236475D01*
X139514Y236475D01*
X148591Y227398D01*
X148591Y214562D01*
X139514Y205485D01*
X126392Y205485D01*
X126302Y205471D01*
X126211Y205463D01*
X126181Y205451D01*
X126149Y205446D01*
X126068Y205403D01*
X125984Y205367D01*
X125952Y205341D01*
X125932Y205330D01*
X125909Y205307D01*
X125853Y205262D01*
X117607Y197016D01*
X117554Y196942D01*
X117495Y196873D01*
X117482Y196842D01*
X117464Y196816D01*
X117437Y196729D01*
X117403Y196644D01*
X117398Y196604D01*
X117391Y196581D01*
X117392Y196549D01*
X117384Y196478D01*
X117384Y195289D01*
X116190Y192405D01*
X113982Y190198D01*
X111098Y189003D01*
X107977Y189003D01*
G37*
%LPD*%
%LPC*%
G36*
X364422Y436625D02*
X364422Y436625D01*
X355345Y445702D01*
X355345Y458538D01*
X364422Y467615D01*
X377258Y467615D01*
X386335Y458538D01*
X386335Y445702D01*
X377258Y436625D01*
X364422Y436625D01*
G37*
%LPD*%
%LPC*%
G36*
X324798Y436625D02*
X324798Y436625D01*
X315721Y445702D01*
X315721Y458538D01*
X324798Y467615D01*
X337634Y467615D01*
X346711Y458538D01*
X346711Y445702D01*
X337634Y436625D01*
X324798Y436625D01*
G37*
%LPD*%
%LPC*%
G36*
X958782Y436625D02*
X958782Y436625D01*
X949705Y445702D01*
X949705Y458538D01*
X958782Y467615D01*
X971618Y467615D01*
X980695Y458538D01*
X980695Y445702D01*
X971618Y436625D01*
X958782Y436625D01*
G37*
%LPD*%
%LPC*%
G36*
X919158Y436625D02*
X919158Y436625D01*
X910081Y445702D01*
X910081Y458538D01*
X919158Y467615D01*
X931994Y467615D01*
X941071Y458538D01*
X941071Y445702D01*
X931994Y436625D01*
X919158Y436625D01*
G37*
%LPD*%
%LPC*%
G36*
X879534Y436625D02*
X879534Y436625D01*
X870457Y445702D01*
X870457Y458538D01*
X879534Y467615D01*
X892370Y467615D01*
X901447Y458538D01*
X901447Y445702D01*
X892370Y436625D01*
X879534Y436625D01*
G37*
%LPD*%
%LPC*%
G36*
X839910Y436625D02*
X839910Y436625D01*
X830833Y445702D01*
X830833Y458538D01*
X839910Y467615D01*
X852746Y467615D01*
X861823Y458538D01*
X861823Y445702D01*
X852746Y436625D01*
X839910Y436625D01*
G37*
%LPD*%
%LPC*%
G36*
X800286Y436625D02*
X800286Y436625D01*
X791209Y445702D01*
X791209Y458538D01*
X800286Y467615D01*
X813122Y467615D01*
X822199Y458538D01*
X822199Y445702D01*
X813122Y436625D01*
X800286Y436625D01*
G37*
%LPD*%
%LPC*%
G36*
X760662Y436625D02*
X760662Y436625D01*
X751585Y445702D01*
X751585Y458538D01*
X760662Y467615D01*
X773498Y467615D01*
X782575Y458538D01*
X782575Y445702D01*
X773498Y436625D01*
X760662Y436625D01*
G37*
%LPD*%
%LPC*%
G36*
X721038Y436625D02*
X721038Y436625D01*
X711961Y445702D01*
X711961Y458538D01*
X721038Y467615D01*
X733874Y467615D01*
X742951Y458538D01*
X742951Y445702D01*
X733874Y436625D01*
X721038Y436625D01*
G37*
%LPD*%
%LPC*%
G36*
X681414Y436625D02*
X681414Y436625D01*
X672337Y445702D01*
X672337Y458538D01*
X681414Y467615D01*
X694250Y467615D01*
X703327Y458538D01*
X703327Y445702D01*
X694250Y436625D01*
X681414Y436625D01*
G37*
%LPD*%
%LPC*%
G36*
X641790Y436625D02*
X641790Y436625D01*
X632713Y445702D01*
X632713Y458538D01*
X641790Y467615D01*
X654626Y467615D01*
X663703Y458538D01*
X663703Y445702D01*
X654626Y436625D01*
X641790Y436625D01*
G37*
%LPD*%
%LPC*%
G36*
X602166Y436625D02*
X602166Y436625D01*
X593089Y445702D01*
X593089Y458538D01*
X602166Y467615D01*
X615002Y467615D01*
X624079Y458538D01*
X624079Y445702D01*
X615002Y436625D01*
X602166Y436625D01*
G37*
%LPD*%
%LPC*%
G36*
X562542Y436625D02*
X562542Y436625D01*
X553465Y445702D01*
X553465Y458538D01*
X562542Y467615D01*
X575378Y467615D01*
X584455Y458538D01*
X584455Y445702D01*
X575378Y436625D01*
X562542Y436625D01*
G37*
%LPD*%
%LPC*%
G36*
X522918Y436625D02*
X522918Y436625D01*
X513841Y445702D01*
X513841Y458538D01*
X522918Y467615D01*
X535754Y467615D01*
X544831Y458538D01*
X544831Y445702D01*
X535754Y436625D01*
X522918Y436625D01*
G37*
%LPD*%
%LPC*%
G36*
X483294Y436625D02*
X483294Y436625D01*
X474217Y445702D01*
X474217Y458538D01*
X483294Y467615D01*
X496130Y467615D01*
X505207Y458538D01*
X505207Y445702D01*
X496130Y436625D01*
X483294Y436625D01*
G37*
%LPD*%
%LPC*%
G36*
X443670Y436625D02*
X443670Y436625D01*
X434593Y445702D01*
X434593Y458538D01*
X443670Y467615D01*
X456506Y467615D01*
X465583Y458538D01*
X465583Y445702D01*
X456506Y436625D01*
X443670Y436625D01*
G37*
%LPD*%
%LPC*%
G36*
X404046Y436625D02*
X404046Y436625D01*
X394969Y445702D01*
X394969Y458538D01*
X404046Y467615D01*
X416882Y467615D01*
X425959Y458538D01*
X425959Y445702D01*
X416882Y436625D01*
X404046Y436625D01*
G37*
%LPD*%
%LPC*%
G36*
X285174Y436625D02*
X285174Y436625D01*
X276097Y445702D01*
X276097Y458538D01*
X285174Y467615D01*
X298010Y467615D01*
X307087Y458538D01*
X307087Y445702D01*
X298010Y436625D01*
X285174Y436625D01*
G37*
%LPD*%
%LPC*%
G36*
X245550Y436625D02*
X245550Y436625D01*
X236473Y445702D01*
X236473Y458538D01*
X245550Y467615D01*
X258386Y467615D01*
X267463Y458538D01*
X267463Y445702D01*
X258386Y436625D01*
X245550Y436625D01*
G37*
%LPD*%
%LPC*%
G36*
X205926Y436625D02*
X205926Y436625D01*
X196849Y445702D01*
X196849Y458538D01*
X205926Y467615D01*
X218762Y467615D01*
X227839Y458538D01*
X227839Y445702D01*
X218762Y436625D01*
X205926Y436625D01*
G37*
%LPD*%
%LPC*%
G36*
X166302Y436625D02*
X166302Y436625D01*
X157225Y445702D01*
X157225Y458538D01*
X166302Y467615D01*
X179138Y467615D01*
X188215Y458538D01*
X188215Y445702D01*
X179138Y436625D01*
X166302Y436625D01*
G37*
%LPD*%
%LPC*%
G36*
X166302Y14985D02*
X166302Y14985D01*
X157225Y24062D01*
X157225Y36898D01*
X166302Y45975D01*
X179138Y45975D01*
X188215Y36898D01*
X188215Y24062D01*
X179138Y14985D01*
X166302Y14985D01*
G37*
%LPD*%
%LPC*%
G36*
X126678Y14985D02*
X126678Y14985D01*
X117601Y24062D01*
X117601Y36898D01*
X126678Y45975D01*
X139514Y45975D01*
X148591Y36898D01*
X148591Y24062D01*
X139514Y14985D01*
X126678Y14985D01*
G37*
%LPD*%
%LPC*%
G36*
X721038Y395985D02*
X721038Y395985D01*
X711961Y405062D01*
X711961Y417898D01*
X721038Y426975D01*
X733874Y426975D01*
X742951Y417898D01*
X742951Y405062D01*
X733874Y395985D01*
X721038Y395985D01*
G37*
%LPD*%
%LPC*%
G36*
X681414Y395985D02*
X681414Y395985D01*
X672337Y405062D01*
X672337Y417898D01*
X681414Y426975D01*
X694250Y426975D01*
X703327Y417898D01*
X703327Y405062D01*
X694250Y395985D01*
X681414Y395985D01*
G37*
%LPD*%
%LPC*%
G36*
X958782Y395985D02*
X958782Y395985D01*
X949705Y405062D01*
X949705Y417898D01*
X958782Y426975D01*
X971618Y426975D01*
X980695Y417898D01*
X980695Y405062D01*
X971618Y395985D01*
X958782Y395985D01*
G37*
%LPD*%
%LPC*%
G36*
X919158Y395985D02*
X919158Y395985D01*
X910081Y405062D01*
X910081Y417898D01*
X919158Y426975D01*
X931994Y426975D01*
X941071Y417898D01*
X941071Y405062D01*
X931994Y395985D01*
X919158Y395985D01*
G37*
%LPD*%
%LPC*%
G36*
X879534Y395985D02*
X879534Y395985D01*
X870457Y405062D01*
X870457Y417898D01*
X879534Y426975D01*
X892370Y426975D01*
X901447Y417898D01*
X901447Y405062D01*
X892370Y395985D01*
X879534Y395985D01*
G37*
%LPD*%
%LPC*%
G36*
X839910Y395985D02*
X839910Y395985D01*
X830833Y405062D01*
X830833Y417898D01*
X839910Y426975D01*
X852746Y426975D01*
X861823Y417898D01*
X861823Y405062D01*
X852746Y395985D01*
X839910Y395985D01*
G37*
%LPD*%
%LPC*%
G36*
X800286Y395985D02*
X800286Y395985D01*
X791209Y405062D01*
X791209Y417898D01*
X800286Y426975D01*
X813122Y426975D01*
X822199Y417898D01*
X822199Y405062D01*
X813122Y395985D01*
X800286Y395985D01*
G37*
%LPD*%
%LPC*%
G36*
X760662Y395985D02*
X760662Y395985D01*
X751585Y405062D01*
X751585Y417898D01*
X760662Y426975D01*
X773498Y426975D01*
X782575Y417898D01*
X782575Y405062D01*
X773498Y395985D01*
X760662Y395985D01*
G37*
%LPD*%
%LPC*%
G36*
X364422Y395985D02*
X364422Y395985D01*
X355345Y405062D01*
X355345Y417898D01*
X364422Y426975D01*
X377258Y426975D01*
X386335Y417898D01*
X386335Y405062D01*
X377258Y395985D01*
X364422Y395985D01*
G37*
%LPD*%
%LPC*%
G36*
X324798Y395985D02*
X324798Y395985D01*
X315721Y405062D01*
X315721Y417898D01*
X324798Y426975D01*
X337634Y426975D01*
X346711Y417898D01*
X346711Y405062D01*
X337634Y395985D01*
X324798Y395985D01*
G37*
%LPD*%
%LPC*%
G36*
X641790Y395985D02*
X641790Y395985D01*
X632713Y405062D01*
X632713Y417898D01*
X641790Y426975D01*
X654626Y426975D01*
X663703Y417898D01*
X663703Y405062D01*
X654626Y395985D01*
X641790Y395985D01*
G37*
%LPD*%
%LPC*%
G36*
X602166Y395985D02*
X602166Y395985D01*
X593089Y405062D01*
X593089Y417898D01*
X602166Y426975D01*
X615002Y426975D01*
X624079Y417898D01*
X624079Y405062D01*
X615002Y395985D01*
X602166Y395985D01*
G37*
%LPD*%
%LPC*%
G36*
X562542Y395985D02*
X562542Y395985D01*
X553465Y405062D01*
X553465Y417898D01*
X562542Y426975D01*
X575378Y426975D01*
X584455Y417898D01*
X584455Y405062D01*
X575378Y395985D01*
X562542Y395985D01*
G37*
%LPD*%
%LPC*%
G36*
X522918Y395985D02*
X522918Y395985D01*
X513841Y405062D01*
X513841Y417898D01*
X522918Y426975D01*
X535754Y426975D01*
X544831Y417898D01*
X544831Y405062D01*
X535754Y395985D01*
X522918Y395985D01*
G37*
%LPD*%
%LPC*%
G36*
X483294Y395985D02*
X483294Y395985D01*
X474217Y405062D01*
X474217Y417898D01*
X483294Y426975D01*
X496130Y426975D01*
X505207Y417898D01*
X505207Y405062D01*
X496130Y395985D01*
X483294Y395985D01*
G37*
%LPD*%
%LPC*%
G36*
X443670Y395985D02*
X443670Y395985D01*
X434593Y405062D01*
X434593Y417898D01*
X443670Y426975D01*
X456506Y426975D01*
X465583Y417898D01*
X465583Y405062D01*
X456506Y395985D01*
X443670Y395985D01*
G37*
%LPD*%
%LPC*%
G36*
X404046Y395985D02*
X404046Y395985D01*
X394969Y405062D01*
X394969Y417898D01*
X404046Y426975D01*
X416882Y426975D01*
X425959Y417898D01*
X425959Y405062D01*
X416882Y395985D01*
X404046Y395985D01*
G37*
%LPD*%
%LPC*%
G36*
X285174Y395985D02*
X285174Y395985D01*
X276097Y405062D01*
X276097Y417898D01*
X285174Y426975D01*
X298010Y426975D01*
X307087Y417898D01*
X307087Y405062D01*
X298010Y395985D01*
X285174Y395985D01*
G37*
%LPD*%
%LPC*%
G36*
X245550Y395985D02*
X245550Y395985D01*
X236473Y405062D01*
X236473Y417898D01*
X245550Y426975D01*
X258386Y426975D01*
X267463Y417898D01*
X267463Y405062D01*
X258386Y395985D01*
X245550Y395985D01*
G37*
%LPD*%
%LPC*%
G36*
X205926Y395985D02*
X205926Y395985D01*
X196849Y405062D01*
X196849Y417898D01*
X205926Y426975D01*
X218762Y426975D01*
X227839Y417898D01*
X227839Y405062D01*
X218762Y395985D01*
X205926Y395985D01*
G37*
%LPD*%
%LPC*%
G36*
X166302Y395985D02*
X166302Y395985D01*
X157225Y405062D01*
X157225Y417898D01*
X166302Y426975D01*
X179138Y426975D01*
X188215Y417898D01*
X188215Y405062D01*
X179138Y395985D01*
X166302Y395985D01*
G37*
%LPD*%
%LPC*%
G36*
X126678Y395985D02*
X126678Y395985D01*
X117601Y405062D01*
X117601Y417898D01*
X126678Y426975D01*
X139514Y426975D01*
X148591Y417898D01*
X148591Y405062D01*
X139514Y395985D01*
X126678Y395985D01*
G37*
%LPD*%
%LPC*%
G36*
X958782Y246125D02*
X958782Y246125D01*
X949705Y255202D01*
X949705Y268038D01*
X958782Y277115D01*
X971618Y277115D01*
X980695Y268038D01*
X980695Y255202D01*
X971618Y246125D01*
X958782Y246125D01*
G37*
%LPD*%
%LPC*%
G36*
X919158Y246125D02*
X919158Y246125D01*
X910081Y255202D01*
X910081Y268038D01*
X919158Y277115D01*
X931994Y277115D01*
X941071Y268038D01*
X941071Y255202D01*
X931994Y246125D01*
X919158Y246125D01*
G37*
%LPD*%
%LPC*%
G36*
X879534Y246125D02*
X879534Y246125D01*
X870457Y255202D01*
X870457Y268038D01*
X879534Y277115D01*
X892370Y277115D01*
X901447Y268038D01*
X901447Y255202D01*
X892370Y246125D01*
X879534Y246125D01*
G37*
%LPD*%
%LPC*%
G36*
X839910Y246125D02*
X839910Y246125D01*
X830833Y255202D01*
X830833Y268038D01*
X839910Y277115D01*
X852746Y277115D01*
X861823Y268038D01*
X861823Y255202D01*
X852746Y246125D01*
X839910Y246125D01*
G37*
%LPD*%
%LPC*%
G36*
X800286Y246125D02*
X800286Y246125D01*
X791209Y255202D01*
X791209Y268038D01*
X800286Y277115D01*
X813122Y277115D01*
X822199Y268038D01*
X822199Y255202D01*
X813122Y246125D01*
X800286Y246125D01*
G37*
%LPD*%
%LPC*%
G36*
X721038Y246125D02*
X721038Y246125D01*
X711961Y255202D01*
X711961Y268038D01*
X721038Y277115D01*
X733874Y277115D01*
X742951Y268038D01*
X742951Y255202D01*
X733874Y246125D01*
X721038Y246125D01*
G37*
%LPD*%
%LPC*%
G36*
X681414Y246125D02*
X681414Y246125D01*
X672337Y255202D01*
X672337Y268038D01*
X681414Y277115D01*
X694250Y277115D01*
X703327Y268038D01*
X703327Y255202D01*
X694250Y246125D01*
X681414Y246125D01*
G37*
%LPD*%
%LPC*%
G36*
X641790Y246125D02*
X641790Y246125D01*
X632713Y255202D01*
X632713Y268038D01*
X641790Y277115D01*
X654626Y277115D01*
X663703Y268038D01*
X663703Y255202D01*
X654626Y246125D01*
X641790Y246125D01*
G37*
%LPD*%
%LPC*%
G36*
X602166Y246125D02*
X602166Y246125D01*
X593089Y255202D01*
X593089Y268038D01*
X602166Y277115D01*
X615002Y277115D01*
X624079Y268038D01*
X624079Y255202D01*
X615002Y246125D01*
X602166Y246125D01*
G37*
%LPD*%
%LPC*%
G36*
X562542Y246125D02*
X562542Y246125D01*
X553465Y255202D01*
X553465Y268038D01*
X562542Y277115D01*
X575378Y277115D01*
X584455Y268038D01*
X584455Y255202D01*
X575378Y246125D01*
X562542Y246125D01*
G37*
%LPD*%
%LPC*%
G36*
X522918Y246125D02*
X522918Y246125D01*
X513841Y255202D01*
X513841Y268038D01*
X522918Y277115D01*
X535754Y277115D01*
X544831Y268038D01*
X544831Y255202D01*
X535754Y246125D01*
X522918Y246125D01*
G37*
%LPD*%
%LPC*%
G36*
X483294Y246125D02*
X483294Y246125D01*
X474217Y255202D01*
X474217Y268038D01*
X483294Y277115D01*
X496130Y277115D01*
X505207Y268038D01*
X505207Y255202D01*
X496130Y246125D01*
X483294Y246125D01*
G37*
%LPD*%
%LPC*%
G36*
X443670Y246125D02*
X443670Y246125D01*
X434593Y255202D01*
X434593Y268038D01*
X443670Y277115D01*
X456506Y277115D01*
X465583Y268038D01*
X465583Y255202D01*
X456506Y246125D01*
X443670Y246125D01*
G37*
%LPD*%
%LPC*%
G36*
X404046Y246125D02*
X404046Y246125D01*
X394969Y255202D01*
X394969Y268038D01*
X404046Y277115D01*
X416882Y277115D01*
X425959Y268038D01*
X425959Y255202D01*
X416882Y246125D01*
X404046Y246125D01*
G37*
%LPD*%
%LPC*%
G36*
X364422Y246125D02*
X364422Y246125D01*
X355345Y255202D01*
X355345Y268038D01*
X364422Y277115D01*
X377258Y277115D01*
X386335Y268038D01*
X386335Y255202D01*
X377258Y246125D01*
X364422Y246125D01*
G37*
%LPD*%
%LPC*%
G36*
X324798Y246125D02*
X324798Y246125D01*
X315721Y255202D01*
X315721Y268038D01*
X324798Y277115D01*
X337634Y277115D01*
X346711Y268038D01*
X346711Y255202D01*
X337634Y246125D01*
X324798Y246125D01*
G37*
%LPD*%
%LPC*%
G36*
X285174Y246125D02*
X285174Y246125D01*
X276097Y255202D01*
X276097Y268038D01*
X285174Y277115D01*
X298010Y277115D01*
X307087Y268038D01*
X307087Y255202D01*
X298010Y246125D01*
X285174Y246125D01*
G37*
%LPD*%
%LPC*%
G36*
X245550Y246125D02*
X245550Y246125D01*
X236473Y255202D01*
X236473Y268038D01*
X245550Y277115D01*
X258386Y277115D01*
X267463Y268038D01*
X267463Y255202D01*
X258386Y246125D01*
X245550Y246125D01*
G37*
%LPD*%
%LPC*%
G36*
X205926Y246125D02*
X205926Y246125D01*
X196849Y255202D01*
X196849Y268038D01*
X205926Y277115D01*
X218762Y277115D01*
X227839Y268038D01*
X227839Y255202D01*
X218762Y246125D01*
X205926Y246125D01*
G37*
%LPD*%
%LPC*%
G36*
X166302Y246125D02*
X166302Y246125D01*
X157225Y255202D01*
X157225Y268038D01*
X166302Y277115D01*
X179138Y277115D01*
X188215Y268038D01*
X188215Y255202D01*
X179138Y246125D01*
X166302Y246125D01*
G37*
%LPD*%
%LPC*%
G36*
X760662Y246125D02*
X760662Y246125D01*
X751585Y255202D01*
X751585Y268038D01*
X760662Y277115D01*
X773498Y277115D01*
X782575Y268038D01*
X782575Y255202D01*
X773498Y246125D01*
X760662Y246125D01*
G37*
%LPD*%
%LPC*%
G36*
X800286Y205485D02*
X800286Y205485D01*
X791209Y214562D01*
X791209Y227398D01*
X800286Y236475D01*
X813122Y236475D01*
X822199Y227398D01*
X822199Y214562D01*
X813122Y205485D01*
X800286Y205485D01*
G37*
%LPD*%
%LPC*%
G36*
X760662Y205485D02*
X760662Y205485D01*
X751585Y214562D01*
X751585Y227398D01*
X760662Y236475D01*
X773498Y236475D01*
X782575Y227398D01*
X782575Y214562D01*
X773498Y205485D01*
X760662Y205485D01*
G37*
%LPD*%
%LPC*%
G36*
X958782Y205485D02*
X958782Y205485D01*
X949705Y214562D01*
X949705Y227398D01*
X958782Y236475D01*
X971618Y236475D01*
X980695Y227398D01*
X980695Y214562D01*
X971618Y205485D01*
X958782Y205485D01*
G37*
%LPD*%
%LPC*%
G36*
X919158Y205485D02*
X919158Y205485D01*
X910081Y214562D01*
X910081Y227398D01*
X919158Y236475D01*
X931994Y236475D01*
X941071Y227398D01*
X941071Y214562D01*
X931994Y205485D01*
X919158Y205485D01*
G37*
%LPD*%
%LPC*%
G36*
X879534Y205485D02*
X879534Y205485D01*
X870457Y214562D01*
X870457Y227398D01*
X879534Y236475D01*
X892370Y236475D01*
X901447Y227398D01*
X901447Y214562D01*
X892370Y205485D01*
X879534Y205485D01*
G37*
%LPD*%
%LPC*%
G36*
X839910Y205485D02*
X839910Y205485D01*
X830833Y214562D01*
X830833Y227398D01*
X839910Y236475D01*
X852746Y236475D01*
X861823Y227398D01*
X861823Y214562D01*
X852746Y205485D01*
X839910Y205485D01*
G37*
%LPD*%
%LPC*%
G36*
X443670Y205485D02*
X443670Y205485D01*
X434593Y214562D01*
X434593Y227398D01*
X443670Y236475D01*
X456506Y236475D01*
X465583Y227398D01*
X465583Y214562D01*
X456506Y205485D01*
X443670Y205485D01*
G37*
%LPD*%
%LPC*%
G36*
X404046Y205485D02*
X404046Y205485D01*
X394969Y214562D01*
X394969Y227398D01*
X404046Y236475D01*
X416882Y236475D01*
X425959Y227398D01*
X425959Y214562D01*
X416882Y205485D01*
X404046Y205485D01*
G37*
%LPD*%
%LPC*%
G36*
X721038Y205485D02*
X721038Y205485D01*
X711961Y214562D01*
X711961Y227398D01*
X721038Y236475D01*
X733874Y236475D01*
X742951Y227398D01*
X742951Y214562D01*
X733874Y205485D01*
X721038Y205485D01*
G37*
%LPD*%
%LPC*%
G36*
X681414Y205485D02*
X681414Y205485D01*
X672337Y214562D01*
X672337Y227398D01*
X681414Y236475D01*
X694250Y236475D01*
X703327Y227398D01*
X703327Y214562D01*
X694250Y205485D01*
X681414Y205485D01*
G37*
%LPD*%
%LPC*%
G36*
X641790Y205485D02*
X641790Y205485D01*
X632713Y214562D01*
X632713Y227398D01*
X641790Y236475D01*
X654626Y236475D01*
X663703Y227398D01*
X663703Y214562D01*
X654626Y205485D01*
X641790Y205485D01*
G37*
%LPD*%
%LPC*%
G36*
X602166Y205485D02*
X602166Y205485D01*
X593089Y214562D01*
X593089Y227398D01*
X602166Y236475D01*
X615002Y236475D01*
X624079Y227398D01*
X624079Y214562D01*
X615002Y205485D01*
X602166Y205485D01*
G37*
%LPD*%
%LPC*%
G36*
X562542Y205485D02*
X562542Y205485D01*
X553465Y214562D01*
X553465Y227398D01*
X562542Y236475D01*
X575378Y236475D01*
X584455Y227398D01*
X584455Y214562D01*
X575378Y205485D01*
X562542Y205485D01*
G37*
%LPD*%
%LPC*%
G36*
X522918Y205485D02*
X522918Y205485D01*
X513841Y214562D01*
X513841Y227398D01*
X522918Y236475D01*
X535754Y236475D01*
X544831Y227398D01*
X544831Y214562D01*
X535754Y205485D01*
X522918Y205485D01*
G37*
%LPD*%
%LPC*%
G36*
X483294Y205485D02*
X483294Y205485D01*
X474217Y214562D01*
X474217Y227398D01*
X483294Y236475D01*
X496130Y236475D01*
X505207Y227398D01*
X505207Y214562D01*
X496130Y205485D01*
X483294Y205485D01*
G37*
%LPD*%
%LPC*%
G36*
X364422Y205485D02*
X364422Y205485D01*
X355345Y214562D01*
X355345Y227398D01*
X364422Y236475D01*
X377258Y236475D01*
X386335Y227398D01*
X386335Y214562D01*
X377258Y205485D01*
X364422Y205485D01*
G37*
%LPD*%
%LPC*%
G36*
X324798Y205485D02*
X324798Y205485D01*
X315721Y214562D01*
X315721Y227398D01*
X324798Y236475D01*
X337634Y236475D01*
X346711Y227398D01*
X346711Y214562D01*
X337634Y205485D01*
X324798Y205485D01*
G37*
%LPD*%
%LPC*%
G36*
X285174Y205485D02*
X285174Y205485D01*
X276097Y214562D01*
X276097Y227398D01*
X285174Y236475D01*
X298010Y236475D01*
X307087Y227398D01*
X307087Y214562D01*
X298010Y205485D01*
X285174Y205485D01*
G37*
%LPD*%
%LPC*%
G36*
X245550Y205485D02*
X245550Y205485D01*
X236473Y214562D01*
X236473Y227398D01*
X245550Y236475D01*
X258386Y236475D01*
X267463Y227398D01*
X267463Y214562D01*
X258386Y205485D01*
X245550Y205485D01*
G37*
%LPD*%
%LPC*%
G36*
X205926Y205485D02*
X205926Y205485D01*
X196849Y214562D01*
X196849Y227398D01*
X205926Y236475D01*
X218762Y236475D01*
X227839Y227398D01*
X227839Y214562D01*
X218762Y205485D01*
X205926Y205485D01*
G37*
%LPD*%
%LPC*%
G36*
X166302Y205485D02*
X166302Y205485D01*
X157225Y214562D01*
X157225Y227398D01*
X166302Y236475D01*
X179138Y236475D01*
X188215Y227398D01*
X188215Y214562D01*
X179138Y205485D01*
X166302Y205485D01*
G37*
%LPD*%
%LPC*%
G36*
X205926Y55625D02*
X205926Y55625D01*
X196849Y64702D01*
X196849Y77538D01*
X205926Y86615D01*
X218762Y86615D01*
X227839Y77538D01*
X227839Y64702D01*
X218762Y55625D01*
X205926Y55625D01*
G37*
%LPD*%
%LPC*%
G36*
X166302Y55625D02*
X166302Y55625D01*
X157225Y64702D01*
X157225Y77538D01*
X166302Y86615D01*
X179138Y86615D01*
X188215Y77538D01*
X188215Y64702D01*
X179138Y55625D01*
X166302Y55625D01*
G37*
%LPD*%
%LPC*%
G36*
X958782Y55625D02*
X958782Y55625D01*
X949705Y64702D01*
X949705Y77538D01*
X958782Y86615D01*
X971618Y86615D01*
X980695Y77538D01*
X980695Y64702D01*
X971618Y55625D01*
X958782Y55625D01*
G37*
%LPD*%
%LPC*%
G36*
X919158Y55625D02*
X919158Y55625D01*
X910081Y64702D01*
X910081Y77538D01*
X919158Y86615D01*
X931994Y86615D01*
X941071Y77538D01*
X941071Y64702D01*
X931994Y55625D01*
X919158Y55625D01*
G37*
%LPD*%
%LPC*%
G36*
X879534Y55625D02*
X879534Y55625D01*
X870457Y64702D01*
X870457Y77538D01*
X879534Y86615D01*
X892370Y86615D01*
X901447Y77538D01*
X901447Y64702D01*
X892370Y55625D01*
X879534Y55625D01*
G37*
%LPD*%
%LPC*%
G36*
X839910Y55625D02*
X839910Y55625D01*
X830833Y64702D01*
X830833Y77538D01*
X839910Y86615D01*
X852746Y86615D01*
X861823Y77538D01*
X861823Y64702D01*
X852746Y55625D01*
X839910Y55625D01*
G37*
%LPD*%
%LPC*%
G36*
X800286Y55625D02*
X800286Y55625D01*
X791209Y64702D01*
X791209Y77538D01*
X800286Y86615D01*
X813122Y86615D01*
X822199Y77538D01*
X822199Y64702D01*
X813122Y55625D01*
X800286Y55625D01*
G37*
%LPD*%
%LPC*%
G36*
X760662Y55625D02*
X760662Y55625D01*
X751585Y64702D01*
X751585Y77538D01*
X760662Y86615D01*
X773498Y86615D01*
X782575Y77538D01*
X782575Y64702D01*
X773498Y55625D01*
X760662Y55625D01*
G37*
%LPD*%
%LPC*%
G36*
X721038Y55625D02*
X721038Y55625D01*
X711961Y64702D01*
X711961Y77538D01*
X721038Y86615D01*
X733874Y86615D01*
X742951Y77538D01*
X742951Y64702D01*
X733874Y55625D01*
X721038Y55625D01*
G37*
%LPD*%
%LPC*%
G36*
X681414Y55625D02*
X681414Y55625D01*
X672337Y64702D01*
X672337Y77538D01*
X681414Y86615D01*
X694250Y86615D01*
X703327Y77538D01*
X703327Y64702D01*
X694250Y55625D01*
X681414Y55625D01*
G37*
%LPD*%
%LPC*%
G36*
X641790Y55625D02*
X641790Y55625D01*
X632713Y64702D01*
X632713Y77538D01*
X641790Y86615D01*
X654626Y86615D01*
X663703Y77538D01*
X663703Y64702D01*
X654626Y55625D01*
X641790Y55625D01*
G37*
%LPD*%
%LPC*%
G36*
X602166Y55625D02*
X602166Y55625D01*
X593089Y64702D01*
X593089Y77538D01*
X602166Y86615D01*
X615002Y86615D01*
X624079Y77538D01*
X624079Y64702D01*
X615002Y55625D01*
X602166Y55625D01*
G37*
%LPD*%
%LPC*%
G36*
X562542Y55625D02*
X562542Y55625D01*
X553465Y64702D01*
X553465Y77538D01*
X562542Y86615D01*
X575378Y86615D01*
X584455Y77538D01*
X584455Y64702D01*
X575378Y55625D01*
X562542Y55625D01*
G37*
%LPD*%
%LPC*%
G36*
X522918Y55625D02*
X522918Y55625D01*
X513841Y64702D01*
X513841Y77538D01*
X522918Y86615D01*
X535754Y86615D01*
X544831Y77538D01*
X544831Y64702D01*
X535754Y55625D01*
X522918Y55625D01*
G37*
%LPD*%
%LPC*%
G36*
X483294Y55625D02*
X483294Y55625D01*
X474217Y64702D01*
X474217Y77538D01*
X483294Y86615D01*
X496130Y86615D01*
X505207Y77538D01*
X505207Y64702D01*
X496130Y55625D01*
X483294Y55625D01*
G37*
%LPD*%
%LPC*%
G36*
X443670Y55625D02*
X443670Y55625D01*
X434593Y64702D01*
X434593Y77538D01*
X443670Y86615D01*
X456506Y86615D01*
X465583Y77538D01*
X465583Y64702D01*
X456506Y55625D01*
X443670Y55625D01*
G37*
%LPD*%
%LPC*%
G36*
X404046Y55625D02*
X404046Y55625D01*
X394969Y64702D01*
X394969Y77538D01*
X404046Y86615D01*
X416882Y86615D01*
X425959Y77538D01*
X425959Y64702D01*
X416882Y55625D01*
X404046Y55625D01*
G37*
%LPD*%
%LPC*%
G36*
X364422Y55625D02*
X364422Y55625D01*
X355345Y64702D01*
X355345Y77538D01*
X364422Y86615D01*
X377258Y86615D01*
X386335Y77538D01*
X386335Y64702D01*
X377258Y55625D01*
X364422Y55625D01*
G37*
%LPD*%
%LPC*%
G36*
X324798Y55625D02*
X324798Y55625D01*
X315721Y64702D01*
X315721Y77538D01*
X324798Y86615D01*
X337634Y86615D01*
X346711Y77538D01*
X346711Y64702D01*
X337634Y55625D01*
X324798Y55625D01*
G37*
%LPD*%
%LPC*%
G36*
X285174Y55625D02*
X285174Y55625D01*
X276097Y64702D01*
X276097Y77538D01*
X285174Y86615D01*
X298010Y86615D01*
X307087Y77538D01*
X307087Y64702D01*
X298010Y55625D01*
X285174Y55625D01*
G37*
%LPD*%
%LPC*%
G36*
X245550Y55625D02*
X245550Y55625D01*
X236473Y64702D01*
X236473Y77538D01*
X245550Y86615D01*
X258386Y86615D01*
X267463Y77538D01*
X267463Y64702D01*
X258386Y55625D01*
X245550Y55625D01*
G37*
%LPD*%
%LPC*%
G36*
X958782Y14985D02*
X958782Y14985D01*
X949705Y24062D01*
X949705Y36898D01*
X958782Y45975D01*
X971618Y45975D01*
X980695Y36898D01*
X980695Y24062D01*
X971618Y14985D01*
X958782Y14985D01*
G37*
%LPD*%
%LPC*%
G36*
X919158Y14985D02*
X919158Y14985D01*
X910081Y24062D01*
X910081Y36898D01*
X919158Y45975D01*
X931994Y45975D01*
X941071Y36898D01*
X941071Y24062D01*
X931994Y14985D01*
X919158Y14985D01*
G37*
%LPD*%
%LPC*%
G36*
X879534Y14985D02*
X879534Y14985D01*
X870457Y24062D01*
X870457Y36898D01*
X879534Y45975D01*
X892370Y45975D01*
X901447Y36898D01*
X901447Y24062D01*
X892370Y14985D01*
X879534Y14985D01*
G37*
%LPD*%
%LPC*%
G36*
X839910Y14985D02*
X839910Y14985D01*
X830833Y24062D01*
X830833Y36898D01*
X839910Y45975D01*
X852746Y45975D01*
X861823Y36898D01*
X861823Y24062D01*
X852746Y14985D01*
X839910Y14985D01*
G37*
%LPD*%
%LPC*%
G36*
X800286Y14985D02*
X800286Y14985D01*
X791209Y24062D01*
X791209Y36898D01*
X800286Y45975D01*
X813122Y45975D01*
X822199Y36898D01*
X822199Y24062D01*
X813122Y14985D01*
X800286Y14985D01*
G37*
%LPD*%
%LPC*%
G36*
X760662Y14985D02*
X760662Y14985D01*
X751585Y24062D01*
X751585Y36898D01*
X760662Y45975D01*
X773498Y45975D01*
X782575Y36898D01*
X782575Y24062D01*
X773498Y14985D01*
X760662Y14985D01*
G37*
%LPD*%
%LPC*%
G36*
X721038Y14985D02*
X721038Y14985D01*
X711961Y24062D01*
X711961Y36898D01*
X721038Y45975D01*
X733874Y45975D01*
X742951Y36898D01*
X742951Y24062D01*
X733874Y14985D01*
X721038Y14985D01*
G37*
%LPD*%
%LPC*%
G36*
X681414Y14985D02*
X681414Y14985D01*
X672337Y24062D01*
X672337Y36898D01*
X681414Y45975D01*
X694250Y45975D01*
X703327Y36898D01*
X703327Y24062D01*
X694250Y14985D01*
X681414Y14985D01*
G37*
%LPD*%
%LPC*%
G36*
X641790Y14985D02*
X641790Y14985D01*
X632713Y24062D01*
X632713Y36898D01*
X641790Y45975D01*
X654626Y45975D01*
X663703Y36898D01*
X663703Y24062D01*
X654626Y14985D01*
X641790Y14985D01*
G37*
%LPD*%
%LPC*%
G36*
X602166Y14985D02*
X602166Y14985D01*
X593089Y24062D01*
X593089Y36898D01*
X602166Y45975D01*
X615002Y45975D01*
X624079Y36898D01*
X624079Y24062D01*
X615002Y14985D01*
X602166Y14985D01*
G37*
%LPD*%
%LPC*%
G36*
X562542Y14985D02*
X562542Y14985D01*
X553465Y24062D01*
X553465Y36898D01*
X562542Y45975D01*
X575378Y45975D01*
X584455Y36898D01*
X584455Y24062D01*
X575378Y14985D01*
X562542Y14985D01*
G37*
%LPD*%
%LPC*%
G36*
X522918Y14985D02*
X522918Y14985D01*
X513841Y24062D01*
X513841Y36898D01*
X522918Y45975D01*
X535754Y45975D01*
X544831Y36898D01*
X544831Y24062D01*
X535754Y14985D01*
X522918Y14985D01*
G37*
%LPD*%
%LPC*%
G36*
X483294Y14985D02*
X483294Y14985D01*
X474217Y24062D01*
X474217Y36898D01*
X483294Y45975D01*
X496130Y45975D01*
X505207Y36898D01*
X505207Y24062D01*
X496130Y14985D01*
X483294Y14985D01*
G37*
%LPD*%
%LPC*%
G36*
X443670Y14985D02*
X443670Y14985D01*
X434593Y24062D01*
X434593Y36898D01*
X443670Y45975D01*
X456506Y45975D01*
X465583Y36898D01*
X465583Y24062D01*
X456506Y14985D01*
X443670Y14985D01*
G37*
%LPD*%
%LPC*%
G36*
X404046Y14985D02*
X404046Y14985D01*
X394969Y24062D01*
X394969Y36898D01*
X404046Y45975D01*
X416882Y45975D01*
X425959Y36898D01*
X425959Y24062D01*
X416882Y14985D01*
X404046Y14985D01*
G37*
%LPD*%
%LPC*%
G36*
X364422Y14985D02*
X364422Y14985D01*
X355345Y24062D01*
X355345Y36898D01*
X364422Y45975D01*
X377258Y45975D01*
X386335Y36898D01*
X386335Y24062D01*
X377258Y14985D01*
X364422Y14985D01*
G37*
%LPD*%
%LPC*%
G36*
X324798Y14985D02*
X324798Y14985D01*
X315721Y24062D01*
X315721Y36898D01*
X324798Y45975D01*
X337634Y45975D01*
X346711Y36898D01*
X346711Y24062D01*
X337634Y14985D01*
X324798Y14985D01*
G37*
%LPD*%
%LPC*%
G36*
X285174Y14985D02*
X285174Y14985D01*
X276097Y24062D01*
X276097Y36898D01*
X285174Y45975D01*
X298010Y45975D01*
X307087Y36898D01*
X307087Y24062D01*
X298010Y14985D01*
X285174Y14985D01*
G37*
%LPD*%
%LPC*%
G36*
X245550Y14985D02*
X245550Y14985D01*
X236473Y24062D01*
X236473Y36898D01*
X245550Y45975D01*
X258386Y45975D01*
X267463Y36898D01*
X267463Y24062D01*
X258386Y14985D01*
X245550Y14985D01*
G37*
%LPD*%
%LPC*%
G36*
X205926Y14985D02*
X205926Y14985D01*
X196849Y24062D01*
X196849Y36898D01*
X205926Y45975D01*
X218762Y45975D01*
X227839Y36898D01*
X227839Y24062D01*
X218762Y14985D01*
X205926Y14985D01*
G37*
%LPD*%
%LPC*%
G36*
X134619Y453643D02*
X134619Y453643D01*
X134619Y466091D01*
X138883Y466091D01*
X147067Y457907D01*
X147067Y453643D01*
X134619Y453643D01*
G37*
%LPD*%
%LPC*%
G36*
X134619Y263143D02*
X134619Y263143D01*
X134619Y275591D01*
X138883Y275591D01*
X147067Y267407D01*
X147067Y263143D01*
X134619Y263143D01*
G37*
%LPD*%
%LPC*%
G36*
X134619Y72643D02*
X134619Y72643D01*
X134619Y85091D01*
X138883Y85091D01*
X147067Y76907D01*
X147067Y72643D01*
X134619Y72643D01*
G37*
%LPD*%
%LPC*%
G36*
X119125Y453643D02*
X119125Y453643D01*
X119125Y457907D01*
X127309Y466091D01*
X131573Y466091D01*
X131573Y453643D01*
X119125Y453643D01*
G37*
%LPD*%
%LPC*%
G36*
X119125Y263143D02*
X119125Y263143D01*
X119125Y267407D01*
X127309Y275591D01*
X131573Y275591D01*
X131573Y263143D01*
X119125Y263143D01*
G37*
%LPD*%
%LPC*%
G36*
X119125Y72643D02*
X119125Y72643D01*
X119125Y76907D01*
X127309Y85091D01*
X131573Y85091D01*
X131573Y72643D01*
X119125Y72643D01*
G37*
%LPD*%
%LPC*%
G36*
X134619Y57149D02*
X134619Y57149D01*
X134619Y69597D01*
X147067Y69597D01*
X147067Y65333D01*
X138883Y57149D01*
X134619Y57149D01*
G37*
%LPD*%
%LPC*%
G36*
X134619Y247649D02*
X134619Y247649D01*
X134619Y260097D01*
X147067Y260097D01*
X147067Y255833D01*
X138883Y247649D01*
X134619Y247649D01*
G37*
%LPD*%
%LPC*%
G36*
X134619Y438149D02*
X134619Y438149D01*
X134619Y450597D01*
X147067Y450597D01*
X147067Y446333D01*
X138883Y438149D01*
X134619Y438149D01*
G37*
%LPD*%
%LPC*%
G36*
X127309Y57149D02*
X127309Y57149D01*
X119125Y65333D01*
X119125Y69597D01*
X131573Y69597D01*
X131573Y57149D01*
X127309Y57149D01*
G37*
%LPD*%
%LPC*%
G36*
X127309Y438149D02*
X127309Y438149D01*
X119125Y446333D01*
X119125Y450597D01*
X131573Y450597D01*
X131573Y438149D01*
X127309Y438149D01*
G37*
%LPD*%
%LPC*%
G36*
X127309Y247649D02*
X127309Y247649D01*
X119125Y255833D01*
X119125Y260097D01*
X131573Y260097D01*
X131573Y247649D01*
X127309Y247649D01*
G37*
%LPD*%
%LPC*%
G36*
X133095Y452119D02*
X133095Y452119D01*
X133095Y452121D01*
X133097Y452121D01*
X133097Y452119D01*
X133095Y452119D01*
G37*
%LPD*%
%LPC*%
G36*
X133095Y71119D02*
X133095Y71119D01*
X133095Y71121D01*
X133097Y71121D01*
X133097Y71119D01*
X133095Y71119D01*
G37*
%LPD*%
%LPC*%
G36*
X133095Y261619D02*
X133095Y261619D01*
X133095Y261621D01*
X133097Y261621D01*
X133097Y261619D01*
X133095Y261619D01*
G37*
%LPD*%
D10*
X568960Y261620D03*
X568960Y220980D03*
X608584Y261620D03*
X648208Y261620D03*
X687832Y261620D03*
X727456Y261620D03*
X767080Y261620D03*
X806704Y261620D03*
X846328Y261620D03*
X885952Y261620D03*
X925576Y261620D03*
X965200Y261620D03*
X608584Y220980D03*
X648208Y220980D03*
X687832Y220980D03*
X727456Y220980D03*
X767080Y220980D03*
X806704Y220980D03*
X846328Y220980D03*
X885952Y220980D03*
X925576Y220980D03*
X965200Y220980D03*
D11*
X529336Y220980D03*
X529336Y261620D03*
X489712Y220980D03*
X450088Y220980D03*
X410464Y220980D03*
X370840Y220980D03*
X331216Y220980D03*
X291592Y220980D03*
X251968Y220980D03*
X212344Y220980D03*
X172720Y220980D03*
X133096Y220980D03*
X489712Y261620D03*
X450088Y261620D03*
X410464Y261620D03*
X370840Y261620D03*
X331216Y261620D03*
X291592Y261620D03*
X251968Y261620D03*
X212344Y261620D03*
X172720Y261620D03*
X133096Y261620D03*
D10*
X568960Y71120D03*
X568960Y30480D03*
X608584Y71120D03*
X648208Y71120D03*
X687832Y71120D03*
X727456Y71120D03*
X767080Y71120D03*
X806704Y71120D03*
X846328Y71120D03*
X885952Y71120D03*
X925576Y71120D03*
X965200Y71120D03*
X608584Y30480D03*
X648208Y30480D03*
X687832Y30480D03*
X727456Y30480D03*
X767080Y30480D03*
X806704Y30480D03*
X846328Y30480D03*
X885952Y30480D03*
X925576Y30480D03*
X965200Y30480D03*
D11*
X529336Y30480D03*
X529336Y71120D03*
X489712Y30480D03*
X450088Y30480D03*
X410464Y30480D03*
X370840Y30480D03*
X331216Y30480D03*
X291592Y30480D03*
X251968Y30480D03*
X212344Y30480D03*
X172720Y30480D03*
X133096Y30480D03*
X489712Y71120D03*
X450088Y71120D03*
X410464Y71120D03*
X370840Y71120D03*
X331216Y71120D03*
X291592Y71120D03*
X251968Y71120D03*
X212344Y71120D03*
X172720Y71120D03*
X133096Y71120D03*
D10*
X568960Y452120D03*
X568960Y411480D03*
X608584Y452120D03*
X648208Y452120D03*
X687832Y452120D03*
X727456Y452120D03*
X767080Y452120D03*
X806704Y452120D03*
X846328Y452120D03*
X885952Y452120D03*
X925576Y452120D03*
X965200Y452120D03*
X608584Y411480D03*
X648208Y411480D03*
X687832Y411480D03*
X727456Y411480D03*
X767080Y411480D03*
X806704Y411480D03*
X846328Y411480D03*
X885952Y411480D03*
X925576Y411480D03*
X965200Y411480D03*
D11*
X529336Y411480D03*
X529336Y452120D03*
X489712Y411480D03*
X450088Y411480D03*
X410464Y411480D03*
X370840Y411480D03*
X331216Y411480D03*
X291592Y411480D03*
X251968Y411480D03*
X212344Y411480D03*
X172720Y411480D03*
X133096Y411480D03*
X489712Y452120D03*
X450088Y452120D03*
X410464Y452120D03*
X370840Y452120D03*
X331216Y452120D03*
X291592Y452120D03*
X251968Y452120D03*
X212344Y452120D03*
X172720Y452120D03*
X133096Y452120D03*
D12*
X131763Y219075D02*
X109538Y196850D01*
X131763Y219075D02*
X131763Y220663D01*
X133096Y220980D01*
D13*
X109538Y196850D03*
M02*
