G04 EAGLE Gerber RS-274X export*
G75*
%MOMM*%
%FSLAX34Y34*%
%LPD*%
%INBottom Copper*%
%IPPOS*%
%AMOC8*
5,1,8,0,0,1.08239X$1,22.5*%
G01*
%ADD10P,2.474344X8X202.500000*%
%ADD11P,2.474344X8X22.500000*%
%ADD12C,0.812800*%

G36*
X1093490Y5084D02*
X1093490Y5084D01*
X1093509Y5082D01*
X1093611Y5104D01*
X1093713Y5120D01*
X1093730Y5130D01*
X1093750Y5134D01*
X1093839Y5187D01*
X1093930Y5236D01*
X1093944Y5250D01*
X1093961Y5260D01*
X1094028Y5339D01*
X1094100Y5414D01*
X1094108Y5432D01*
X1094121Y5447D01*
X1094160Y5543D01*
X1094203Y5637D01*
X1094205Y5657D01*
X1094213Y5675D01*
X1094231Y5842D01*
X1094231Y476758D01*
X1094228Y476778D01*
X1094230Y476797D01*
X1094208Y476899D01*
X1094192Y477001D01*
X1094182Y477018D01*
X1094178Y477038D01*
X1094125Y477127D01*
X1094076Y477218D01*
X1094062Y477232D01*
X1094052Y477249D01*
X1093973Y477316D01*
X1093898Y477388D01*
X1093880Y477396D01*
X1093865Y477409D01*
X1093769Y477448D01*
X1093675Y477491D01*
X1093655Y477493D01*
X1093637Y477501D01*
X1093470Y477519D01*
X5842Y477519D01*
X5822Y477516D01*
X5803Y477518D01*
X5701Y477496D01*
X5599Y477480D01*
X5582Y477470D01*
X5562Y477466D01*
X5473Y477413D01*
X5382Y477364D01*
X5368Y477350D01*
X5351Y477340D01*
X5284Y477261D01*
X5212Y477186D01*
X5204Y477168D01*
X5191Y477153D01*
X5152Y477057D01*
X5109Y476963D01*
X5107Y476943D01*
X5099Y476925D01*
X5081Y476758D01*
X5081Y5842D01*
X5084Y5822D01*
X5082Y5803D01*
X5104Y5701D01*
X5120Y5599D01*
X5130Y5582D01*
X5134Y5562D01*
X5187Y5473D01*
X5236Y5382D01*
X5250Y5368D01*
X5260Y5351D01*
X5339Y5284D01*
X5414Y5212D01*
X5432Y5204D01*
X5447Y5191D01*
X5543Y5152D01*
X5637Y5109D01*
X5657Y5107D01*
X5675Y5099D01*
X5842Y5081D01*
X1093470Y5081D01*
X1093490Y5084D01*
G37*
%LPC*%
G36*
X166302Y55625D02*
X166302Y55625D01*
X157225Y64702D01*
X157225Y73851D01*
X157211Y73941D01*
X157203Y74032D01*
X157191Y74062D01*
X157186Y74094D01*
X157143Y74175D01*
X157107Y74258D01*
X157081Y74291D01*
X157070Y74311D01*
X157047Y74333D01*
X157002Y74389D01*
X108215Y123177D01*
X105821Y125570D01*
X104584Y128558D01*
X104584Y242917D01*
X105821Y245905D01*
X108108Y248191D01*
X111096Y249429D01*
X123692Y249429D01*
X123763Y249440D01*
X123834Y249442D01*
X123883Y249460D01*
X123935Y249468D01*
X123998Y249502D01*
X124065Y249527D01*
X124106Y249559D01*
X124152Y249584D01*
X124201Y249636D01*
X124257Y249680D01*
X124286Y249724D01*
X124321Y249762D01*
X124352Y249827D01*
X124390Y249887D01*
X124403Y249938D01*
X124425Y249985D01*
X124433Y250056D01*
X124450Y250126D01*
X124446Y250178D01*
X124452Y250229D01*
X124437Y250300D01*
X124431Y250371D01*
X124411Y250419D01*
X124400Y250470D01*
X124363Y250531D01*
X124335Y250597D01*
X124290Y250653D01*
X124274Y250681D01*
X124263Y250690D01*
X124260Y250694D01*
X124251Y250702D01*
X124230Y250728D01*
X119125Y255833D01*
X119125Y260097D01*
X132334Y260097D01*
X132354Y260100D01*
X132373Y260098D01*
X132475Y260120D01*
X132577Y260137D01*
X132594Y260146D01*
X132614Y260150D01*
X132703Y260203D01*
X132794Y260252D01*
X132808Y260266D01*
X132825Y260276D01*
X132892Y260355D01*
X132963Y260430D01*
X132972Y260448D01*
X132985Y260463D01*
X133023Y260559D01*
X133067Y260653D01*
X133069Y260673D01*
X133077Y260691D01*
X133095Y260858D01*
X133095Y261621D01*
X133097Y261621D01*
X133097Y260858D01*
X133100Y260839D01*
X133098Y260821D01*
X133098Y260820D01*
X133098Y260819D01*
X133120Y260717D01*
X133137Y260615D01*
X133146Y260598D01*
X133150Y260578D01*
X133203Y260489D01*
X133252Y260398D01*
X133266Y260384D01*
X133276Y260367D01*
X133355Y260300D01*
X133430Y260229D01*
X133448Y260220D01*
X133463Y260207D01*
X133559Y260168D01*
X133653Y260125D01*
X133673Y260123D01*
X133691Y260115D01*
X133858Y260097D01*
X147067Y260097D01*
X147067Y255833D01*
X141962Y250728D01*
X141920Y250670D01*
X141871Y250618D01*
X141849Y250571D01*
X141818Y250529D01*
X141797Y250460D01*
X141767Y250395D01*
X141761Y250343D01*
X141746Y250293D01*
X141748Y250222D01*
X141740Y250151D01*
X141751Y250100D01*
X141752Y250048D01*
X141777Y249980D01*
X141792Y249910D01*
X141819Y249865D01*
X141837Y249817D01*
X141882Y249761D01*
X141918Y249699D01*
X141958Y249665D01*
X141990Y249625D01*
X142051Y249586D01*
X142105Y249539D01*
X142154Y249520D01*
X142197Y249492D01*
X142267Y249474D01*
X142333Y249447D01*
X142405Y249439D01*
X142436Y249431D01*
X142459Y249433D01*
X142500Y249429D01*
X148718Y249429D01*
X148808Y249443D01*
X148899Y249451D01*
X148928Y249463D01*
X148960Y249468D01*
X149041Y249511D01*
X149125Y249547D01*
X149157Y249573D01*
X149178Y249584D01*
X149190Y249596D01*
X149191Y249597D01*
X149203Y249609D01*
X149256Y249652D01*
X157002Y257398D01*
X157055Y257472D01*
X157115Y257541D01*
X157127Y257572D01*
X157146Y257598D01*
X157173Y257685D01*
X157207Y257770D01*
X157211Y257811D01*
X157218Y257833D01*
X157217Y257865D01*
X157225Y257936D01*
X157225Y268038D01*
X166302Y277115D01*
X177991Y277115D01*
X178081Y277129D01*
X178172Y277137D01*
X178202Y277149D01*
X178234Y277154D01*
X178315Y277197D01*
X178398Y277233D01*
X178431Y277259D01*
X178451Y277270D01*
X178473Y277293D01*
X178529Y277338D01*
X190658Y289466D01*
X193646Y290704D01*
X302260Y290704D01*
X302280Y290707D01*
X302299Y290705D01*
X302401Y290727D01*
X302503Y290743D01*
X302520Y290753D01*
X302540Y290757D01*
X302629Y290810D01*
X302720Y290859D01*
X302734Y290873D01*
X302751Y290883D01*
X302818Y290962D01*
X302890Y291037D01*
X302898Y291055D01*
X302911Y291070D01*
X302950Y291166D01*
X302993Y291260D01*
X302995Y291280D01*
X303003Y291298D01*
X303021Y291465D01*
X303021Y399159D01*
X303010Y399229D01*
X303008Y399301D01*
X302990Y399350D01*
X302982Y399401D01*
X302948Y399465D01*
X302923Y399532D01*
X302891Y399573D01*
X302866Y399619D01*
X302814Y399668D01*
X302770Y399724D01*
X302726Y399752D01*
X302688Y399788D01*
X302623Y399818D01*
X302563Y399857D01*
X302512Y399870D01*
X302465Y399892D01*
X302394Y399900D01*
X302324Y399917D01*
X302272Y399913D01*
X302221Y399919D01*
X302150Y399904D01*
X302079Y399898D01*
X302031Y399878D01*
X301980Y399867D01*
X301919Y399830D01*
X301853Y399802D01*
X301797Y399757D01*
X301769Y399740D01*
X301754Y399723D01*
X301722Y399697D01*
X298010Y395985D01*
X285174Y395985D01*
X276097Y405062D01*
X276097Y417898D01*
X280571Y422372D01*
X280613Y422430D01*
X280662Y422482D01*
X280684Y422529D01*
X280714Y422571D01*
X280736Y422640D01*
X280766Y422705D01*
X280771Y422757D01*
X280787Y422807D01*
X280785Y422878D01*
X280793Y422949D01*
X280782Y423000D01*
X280780Y423052D01*
X280756Y423120D01*
X280741Y423190D01*
X280714Y423235D01*
X280696Y423283D01*
X280651Y423339D01*
X280614Y423401D01*
X280575Y423435D01*
X280542Y423475D01*
X280482Y423514D01*
X280427Y423561D01*
X280379Y423580D01*
X280335Y423608D01*
X280266Y423626D01*
X280199Y423653D01*
X280128Y423661D01*
X280097Y423669D01*
X280074Y423667D01*
X280033Y423671D01*
X263527Y423671D01*
X263457Y423660D01*
X263385Y423658D01*
X263336Y423640D01*
X263285Y423632D01*
X263221Y423598D01*
X263154Y423573D01*
X263113Y423541D01*
X263067Y423516D01*
X263018Y423464D01*
X262962Y423420D01*
X262934Y423376D01*
X262898Y423338D01*
X262868Y423273D01*
X262829Y423213D01*
X262816Y423162D01*
X262794Y423115D01*
X262786Y423044D01*
X262769Y422974D01*
X262773Y422922D01*
X262767Y422871D01*
X262782Y422800D01*
X262788Y422729D01*
X262808Y422681D01*
X262819Y422630D01*
X262856Y422569D01*
X262884Y422503D01*
X262929Y422447D01*
X262946Y422419D01*
X262963Y422404D01*
X262989Y422372D01*
X267463Y417898D01*
X267463Y405062D01*
X258386Y395985D01*
X245550Y395985D01*
X236473Y405062D01*
X236473Y417898D01*
X240947Y422372D01*
X240989Y422430D01*
X241038Y422482D01*
X241060Y422529D01*
X241090Y422571D01*
X241112Y422640D01*
X241142Y422705D01*
X241147Y422757D01*
X241163Y422807D01*
X241161Y422878D01*
X241169Y422949D01*
X241158Y423000D01*
X241156Y423052D01*
X241132Y423120D01*
X241117Y423190D01*
X241090Y423235D01*
X241072Y423283D01*
X241027Y423339D01*
X240990Y423401D01*
X240951Y423435D01*
X240918Y423475D01*
X240858Y423514D01*
X240803Y423561D01*
X240755Y423580D01*
X240711Y423608D01*
X240642Y423626D01*
X240575Y423653D01*
X240504Y423661D01*
X240473Y423669D01*
X240450Y423667D01*
X240409Y423671D01*
X223903Y423671D01*
X223833Y423660D01*
X223761Y423658D01*
X223712Y423640D01*
X223661Y423632D01*
X223597Y423598D01*
X223530Y423573D01*
X223489Y423541D01*
X223443Y423516D01*
X223394Y423464D01*
X223338Y423420D01*
X223310Y423376D01*
X223274Y423338D01*
X223244Y423273D01*
X223205Y423213D01*
X223192Y423162D01*
X223170Y423115D01*
X223162Y423044D01*
X223145Y422974D01*
X223149Y422922D01*
X223143Y422871D01*
X223158Y422800D01*
X223164Y422729D01*
X223184Y422681D01*
X223195Y422630D01*
X223232Y422569D01*
X223260Y422503D01*
X223305Y422447D01*
X223322Y422419D01*
X223339Y422404D01*
X223365Y422372D01*
X227839Y417898D01*
X227839Y405062D01*
X218762Y395985D01*
X205926Y395985D01*
X196849Y405062D01*
X196849Y417898D01*
X201323Y422372D01*
X201365Y422430D01*
X201414Y422482D01*
X201436Y422529D01*
X201466Y422571D01*
X201488Y422640D01*
X201518Y422705D01*
X201523Y422757D01*
X201539Y422807D01*
X201537Y422878D01*
X201545Y422949D01*
X201534Y423000D01*
X201532Y423052D01*
X201508Y423120D01*
X201493Y423190D01*
X201466Y423235D01*
X201448Y423283D01*
X201403Y423339D01*
X201366Y423401D01*
X201327Y423435D01*
X201294Y423475D01*
X201234Y423514D01*
X201179Y423561D01*
X201131Y423580D01*
X201087Y423608D01*
X201018Y423626D01*
X200951Y423653D01*
X200880Y423661D01*
X200849Y423669D01*
X200826Y423667D01*
X200785Y423671D01*
X190471Y423671D01*
X187483Y424909D01*
X175989Y436402D01*
X175915Y436455D01*
X175846Y436515D01*
X175816Y436527D01*
X175790Y436546D01*
X175703Y436573D01*
X175618Y436607D01*
X175577Y436611D01*
X175555Y436618D01*
X175522Y436617D01*
X175451Y436625D01*
X166302Y436625D01*
X157225Y445702D01*
X157225Y458538D01*
X166302Y467615D01*
X179138Y467615D01*
X188215Y458538D01*
X188215Y447484D01*
X188229Y447394D01*
X188237Y447303D01*
X188249Y447273D01*
X188254Y447241D01*
X188297Y447160D01*
X188333Y447077D01*
X188359Y447044D01*
X188370Y447024D01*
X188393Y447002D01*
X188438Y446946D01*
X195232Y440152D01*
X195306Y440099D01*
X195375Y440039D01*
X195405Y440027D01*
X195431Y440008D01*
X195518Y439981D01*
X195603Y439947D01*
X195644Y439943D01*
X195666Y439936D01*
X195699Y439937D01*
X195770Y439929D01*
X200785Y439929D01*
X200855Y439940D01*
X200927Y439942D01*
X200976Y439960D01*
X201027Y439968D01*
X201091Y440002D01*
X201158Y440027D01*
X201199Y440059D01*
X201245Y440084D01*
X201294Y440136D01*
X201350Y440180D01*
X201378Y440224D01*
X201414Y440262D01*
X201444Y440327D01*
X201483Y440387D01*
X201496Y440438D01*
X201518Y440485D01*
X201526Y440556D01*
X201543Y440626D01*
X201539Y440678D01*
X201545Y440729D01*
X201530Y440800D01*
X201524Y440871D01*
X201504Y440919D01*
X201493Y440970D01*
X201456Y441031D01*
X201428Y441097D01*
X201383Y441153D01*
X201366Y441181D01*
X201349Y441196D01*
X201323Y441228D01*
X196849Y445702D01*
X196849Y458538D01*
X205926Y467615D01*
X218762Y467615D01*
X227839Y458538D01*
X227839Y445702D01*
X223365Y441228D01*
X223323Y441170D01*
X223274Y441118D01*
X223252Y441071D01*
X223222Y441029D01*
X223200Y440960D01*
X223170Y440895D01*
X223165Y440843D01*
X223149Y440793D01*
X223151Y440722D01*
X223143Y440651D01*
X223154Y440600D01*
X223156Y440548D01*
X223180Y440480D01*
X223195Y440410D01*
X223222Y440365D01*
X223240Y440317D01*
X223285Y440261D01*
X223322Y440199D01*
X223361Y440165D01*
X223394Y440125D01*
X223454Y440086D01*
X223509Y440039D01*
X223557Y440020D01*
X223601Y439992D01*
X223670Y439974D01*
X223737Y439947D01*
X223808Y439939D01*
X223839Y439931D01*
X223862Y439933D01*
X223903Y439929D01*
X240409Y439929D01*
X240479Y439940D01*
X240551Y439942D01*
X240600Y439960D01*
X240651Y439968D01*
X240715Y440002D01*
X240782Y440027D01*
X240823Y440059D01*
X240869Y440084D01*
X240918Y440136D01*
X240974Y440180D01*
X241002Y440224D01*
X241038Y440262D01*
X241068Y440327D01*
X241107Y440387D01*
X241120Y440438D01*
X241142Y440485D01*
X241150Y440556D01*
X241167Y440626D01*
X241163Y440678D01*
X241169Y440729D01*
X241154Y440800D01*
X241148Y440871D01*
X241128Y440919D01*
X241117Y440970D01*
X241080Y441031D01*
X241052Y441097D01*
X241007Y441153D01*
X240990Y441181D01*
X240973Y441196D01*
X240947Y441228D01*
X236473Y445702D01*
X236473Y458538D01*
X245550Y467615D01*
X258386Y467615D01*
X267463Y458538D01*
X267463Y445702D01*
X262989Y441228D01*
X262947Y441170D01*
X262898Y441118D01*
X262876Y441071D01*
X262846Y441029D01*
X262824Y440960D01*
X262794Y440895D01*
X262789Y440843D01*
X262773Y440793D01*
X262775Y440722D01*
X262767Y440651D01*
X262778Y440600D01*
X262780Y440548D01*
X262804Y440480D01*
X262819Y440410D01*
X262846Y440365D01*
X262864Y440317D01*
X262909Y440261D01*
X262946Y440199D01*
X262985Y440165D01*
X263018Y440125D01*
X263078Y440086D01*
X263133Y440039D01*
X263181Y440020D01*
X263225Y439992D01*
X263294Y439974D01*
X263361Y439947D01*
X263432Y439939D01*
X263463Y439931D01*
X263486Y439933D01*
X263527Y439929D01*
X280033Y439929D01*
X280103Y439940D01*
X280175Y439942D01*
X280224Y439960D01*
X280275Y439968D01*
X280339Y440002D01*
X280406Y440027D01*
X280447Y440059D01*
X280493Y440084D01*
X280542Y440136D01*
X280598Y440180D01*
X280626Y440224D01*
X280662Y440262D01*
X280692Y440327D01*
X280731Y440387D01*
X280744Y440438D01*
X280766Y440485D01*
X280774Y440556D01*
X280791Y440626D01*
X280787Y440678D01*
X280793Y440729D01*
X280778Y440800D01*
X280772Y440871D01*
X280752Y440919D01*
X280741Y440970D01*
X280704Y441031D01*
X280676Y441097D01*
X280631Y441153D01*
X280614Y441181D01*
X280597Y441196D01*
X280571Y441228D01*
X276097Y445702D01*
X276097Y458538D01*
X285174Y467615D01*
X298010Y467615D01*
X307087Y458538D01*
X307087Y445702D01*
X302219Y440834D01*
X302192Y440797D01*
X302158Y440766D01*
X302121Y440698D01*
X302075Y440634D01*
X302062Y440591D01*
X302040Y440550D01*
X302026Y440474D01*
X302003Y440399D01*
X302004Y440353D01*
X301996Y440308D01*
X302007Y440231D01*
X302009Y440153D01*
X302025Y440110D01*
X302032Y440065D01*
X302067Y439996D01*
X302094Y439922D01*
X302123Y439887D01*
X302143Y439846D01*
X302199Y439791D01*
X302248Y439730D01*
X302286Y439706D01*
X302319Y439673D01*
X302439Y439607D01*
X302455Y439597D01*
X302459Y439596D01*
X302466Y439593D01*
X304642Y438691D01*
X318041Y425292D01*
X319091Y422757D01*
X319116Y422718D01*
X319131Y422675D01*
X319180Y422614D01*
X319221Y422548D01*
X319256Y422518D01*
X319285Y422483D01*
X319350Y422441D01*
X319410Y422391D01*
X319453Y422374D01*
X319492Y422350D01*
X319567Y422331D01*
X319640Y422303D01*
X319686Y422301D01*
X319730Y422290D01*
X319808Y422296D01*
X319886Y422292D01*
X319930Y422305D01*
X319976Y422309D01*
X320047Y422339D01*
X320122Y422361D01*
X320160Y422387D01*
X320202Y422405D01*
X320309Y422490D01*
X320324Y422501D01*
X320327Y422505D01*
X320333Y422510D01*
X324798Y426975D01*
X337634Y426975D01*
X346711Y417898D01*
X346711Y405062D01*
X337634Y395985D01*
X324798Y395985D01*
X320578Y400205D01*
X320520Y400247D01*
X320468Y400296D01*
X320421Y400318D01*
X320379Y400348D01*
X320310Y400370D01*
X320245Y400400D01*
X320193Y400405D01*
X320143Y400421D01*
X320072Y400419D01*
X320001Y400427D01*
X319950Y400416D01*
X319898Y400414D01*
X319830Y400390D01*
X319760Y400375D01*
X319715Y400348D01*
X319667Y400330D01*
X319611Y400285D01*
X319549Y400248D01*
X319515Y400209D01*
X319475Y400176D01*
X319436Y400116D01*
X319389Y400061D01*
X319370Y400013D01*
X319342Y399969D01*
X319324Y399900D01*
X319297Y399833D01*
X319289Y399762D01*
X319281Y399731D01*
X319283Y399708D01*
X319279Y399667D01*
X319279Y280958D01*
X318041Y277970D01*
X315755Y275684D01*
X312767Y274446D01*
X302516Y274446D01*
X302446Y274435D01*
X302374Y274433D01*
X302325Y274415D01*
X302274Y274407D01*
X302210Y274373D01*
X302143Y274348D01*
X302102Y274316D01*
X302056Y274291D01*
X302007Y274239D01*
X301951Y274195D01*
X301923Y274151D01*
X301887Y274113D01*
X301857Y274048D01*
X301818Y273988D01*
X301805Y273937D01*
X301783Y273890D01*
X301775Y273819D01*
X301758Y273749D01*
X301762Y273697D01*
X301756Y273646D01*
X301771Y273575D01*
X301777Y273504D01*
X301797Y273456D01*
X301808Y273405D01*
X301845Y273344D01*
X301873Y273278D01*
X301918Y273222D01*
X301935Y273194D01*
X301952Y273179D01*
X301978Y273147D01*
X307087Y268038D01*
X307087Y255202D01*
X298010Y246125D01*
X285174Y246125D01*
X276097Y255202D01*
X276097Y268038D01*
X281206Y273147D01*
X281248Y273205D01*
X281297Y273257D01*
X281319Y273304D01*
X281349Y273346D01*
X281371Y273415D01*
X281401Y273480D01*
X281406Y273532D01*
X281422Y273582D01*
X281420Y273653D01*
X281428Y273724D01*
X281417Y273775D01*
X281415Y273827D01*
X281391Y273895D01*
X281376Y273965D01*
X281349Y274010D01*
X281331Y274058D01*
X281286Y274114D01*
X281249Y274176D01*
X281210Y274210D01*
X281177Y274250D01*
X281117Y274289D01*
X281062Y274336D01*
X281014Y274355D01*
X280970Y274383D01*
X280901Y274401D01*
X280834Y274428D01*
X280763Y274436D01*
X280732Y274444D01*
X280709Y274442D01*
X280668Y274446D01*
X262892Y274446D01*
X262822Y274435D01*
X262750Y274433D01*
X262701Y274415D01*
X262650Y274407D01*
X262586Y274373D01*
X262519Y274348D01*
X262478Y274316D01*
X262432Y274291D01*
X262383Y274239D01*
X262327Y274195D01*
X262299Y274151D01*
X262263Y274113D01*
X262233Y274048D01*
X262194Y273988D01*
X262181Y273937D01*
X262159Y273890D01*
X262151Y273819D01*
X262134Y273749D01*
X262138Y273697D01*
X262132Y273646D01*
X262147Y273575D01*
X262153Y273504D01*
X262173Y273456D01*
X262184Y273405D01*
X262221Y273344D01*
X262249Y273278D01*
X262294Y273222D01*
X262311Y273194D01*
X262328Y273179D01*
X262354Y273147D01*
X267463Y268038D01*
X267463Y255202D01*
X258386Y246125D01*
X245550Y246125D01*
X236473Y255202D01*
X236473Y268038D01*
X241582Y273147D01*
X241624Y273205D01*
X241673Y273257D01*
X241695Y273304D01*
X241725Y273346D01*
X241747Y273415D01*
X241777Y273480D01*
X241782Y273532D01*
X241798Y273582D01*
X241796Y273653D01*
X241804Y273724D01*
X241793Y273775D01*
X241791Y273827D01*
X241767Y273895D01*
X241752Y273965D01*
X241725Y274010D01*
X241707Y274058D01*
X241662Y274114D01*
X241625Y274176D01*
X241586Y274210D01*
X241553Y274250D01*
X241493Y274289D01*
X241438Y274336D01*
X241390Y274355D01*
X241346Y274383D01*
X241277Y274401D01*
X241210Y274428D01*
X241139Y274436D01*
X241108Y274444D01*
X241085Y274442D01*
X241044Y274446D01*
X223268Y274446D01*
X223198Y274435D01*
X223126Y274433D01*
X223077Y274415D01*
X223026Y274407D01*
X222962Y274373D01*
X222895Y274348D01*
X222854Y274316D01*
X222808Y274291D01*
X222759Y274239D01*
X222703Y274195D01*
X222675Y274151D01*
X222639Y274113D01*
X222609Y274048D01*
X222570Y273988D01*
X222557Y273937D01*
X222535Y273890D01*
X222527Y273819D01*
X222510Y273749D01*
X222514Y273697D01*
X222508Y273646D01*
X222523Y273575D01*
X222529Y273504D01*
X222549Y273456D01*
X222560Y273405D01*
X222597Y273344D01*
X222625Y273278D01*
X222670Y273222D01*
X222687Y273194D01*
X222704Y273179D01*
X222730Y273147D01*
X227839Y268038D01*
X227839Y255202D01*
X218762Y246125D01*
X205926Y246125D01*
X196849Y255202D01*
X196849Y268038D01*
X201958Y273147D01*
X202000Y273205D01*
X202049Y273257D01*
X202071Y273304D01*
X202101Y273346D01*
X202123Y273415D01*
X202153Y273480D01*
X202158Y273532D01*
X202174Y273582D01*
X202172Y273653D01*
X202180Y273724D01*
X202169Y273775D01*
X202167Y273827D01*
X202143Y273895D01*
X202128Y273965D01*
X202101Y274010D01*
X202083Y274058D01*
X202038Y274114D01*
X202001Y274176D01*
X201962Y274210D01*
X201929Y274250D01*
X201869Y274289D01*
X201814Y274336D01*
X201766Y274355D01*
X201722Y274383D01*
X201653Y274401D01*
X201586Y274428D01*
X201515Y274436D01*
X201484Y274444D01*
X201461Y274442D01*
X201420Y274446D01*
X198945Y274446D01*
X198855Y274432D01*
X198764Y274424D01*
X198734Y274412D01*
X198702Y274407D01*
X198621Y274364D01*
X198538Y274328D01*
X198505Y274302D01*
X198485Y274291D01*
X198463Y274268D01*
X198407Y274223D01*
X188438Y264254D01*
X188385Y264180D01*
X188325Y264111D01*
X188313Y264081D01*
X188294Y264055D01*
X188267Y263968D01*
X188233Y263883D01*
X188229Y263842D01*
X188222Y263820D01*
X188223Y263787D01*
X188215Y263716D01*
X188215Y255202D01*
X179138Y246125D01*
X169036Y246125D01*
X168946Y246111D01*
X168855Y246103D01*
X168826Y246091D01*
X168794Y246086D01*
X168713Y246043D01*
X168629Y246007D01*
X168597Y245981D01*
X168576Y245970D01*
X168554Y245947D01*
X168498Y245902D01*
X157005Y234409D01*
X154017Y233171D01*
X144655Y233171D01*
X144585Y233160D01*
X144513Y233158D01*
X144464Y233140D01*
X144413Y233132D01*
X144349Y233098D01*
X144282Y233073D01*
X144241Y233041D01*
X144195Y233016D01*
X144146Y232964D01*
X144090Y232920D01*
X144062Y232876D01*
X144026Y232838D01*
X143996Y232773D01*
X143957Y232713D01*
X143944Y232662D01*
X143922Y232615D01*
X143914Y232544D01*
X143897Y232474D01*
X143901Y232422D01*
X143895Y232371D01*
X143910Y232300D01*
X143916Y232229D01*
X143936Y232181D01*
X143947Y232130D01*
X143984Y232069D01*
X144012Y232003D01*
X144057Y231947D01*
X144074Y231919D01*
X144091Y231904D01*
X144117Y231872D01*
X148591Y227398D01*
X148591Y214562D01*
X139514Y205485D01*
X126678Y205485D01*
X122141Y210022D01*
X122083Y210064D01*
X122031Y210114D01*
X121983Y210136D01*
X121941Y210166D01*
X121873Y210187D01*
X121807Y210217D01*
X121756Y210223D01*
X121706Y210238D01*
X121634Y210236D01*
X121563Y210244D01*
X121512Y210233D01*
X121460Y210232D01*
X121393Y210207D01*
X121323Y210192D01*
X121278Y210165D01*
X121229Y210147D01*
X121173Y210103D01*
X121112Y210066D01*
X121078Y210026D01*
X121037Y209994D01*
X120998Y209933D01*
X120952Y209879D01*
X120932Y209831D01*
X120904Y209787D01*
X120887Y209717D01*
X120860Y209651D01*
X120852Y209579D01*
X120844Y209548D01*
X120846Y209525D01*
X120841Y209484D01*
X120841Y133857D01*
X120856Y133767D01*
X120863Y133676D01*
X120876Y133647D01*
X120881Y133615D01*
X120924Y133534D01*
X120959Y133450D01*
X120985Y133418D01*
X120996Y133397D01*
X121019Y133375D01*
X121064Y133319D01*
X167546Y86838D01*
X167619Y86785D01*
X167689Y86725D01*
X167719Y86713D01*
X167745Y86694D01*
X167832Y86667D01*
X167917Y86633D01*
X167958Y86629D01*
X167980Y86622D01*
X168013Y86623D01*
X168084Y86615D01*
X179138Y86615D01*
X188215Y77538D01*
X188215Y64702D01*
X179138Y55625D01*
X166302Y55625D01*
G37*
%LPD*%
%LPC*%
G36*
X1056157Y408939D02*
X1056157Y408939D01*
X1047754Y412420D01*
X1041324Y418850D01*
X1037843Y427253D01*
X1037843Y436347D01*
X1041324Y444750D01*
X1047754Y451180D01*
X1056157Y454661D01*
X1065251Y454661D01*
X1073654Y451180D01*
X1080084Y444750D01*
X1083565Y436347D01*
X1083565Y427253D01*
X1080084Y418850D01*
X1073654Y412420D01*
X1065251Y408939D01*
X1056157Y408939D01*
G37*
%LPD*%
%LPC*%
G36*
X1056157Y218439D02*
X1056157Y218439D01*
X1047754Y221920D01*
X1041324Y228350D01*
X1037843Y236753D01*
X1037843Y245847D01*
X1041324Y254250D01*
X1047754Y260680D01*
X1056157Y264161D01*
X1065251Y264161D01*
X1073654Y260680D01*
X1080084Y254250D01*
X1083565Y245847D01*
X1083565Y236753D01*
X1080084Y228350D01*
X1073654Y221920D01*
X1065251Y218439D01*
X1056157Y218439D01*
G37*
%LPD*%
%LPC*%
G36*
X33045Y27939D02*
X33045Y27939D01*
X24642Y31420D01*
X18212Y37850D01*
X14731Y46253D01*
X14731Y55347D01*
X18212Y63750D01*
X24642Y70180D01*
X33045Y73661D01*
X42139Y73661D01*
X50542Y70180D01*
X56972Y63750D01*
X60453Y55347D01*
X60453Y46253D01*
X56972Y37850D01*
X50542Y31420D01*
X42139Y27939D01*
X33045Y27939D01*
G37*
%LPD*%
%LPC*%
G36*
X1056157Y27939D02*
X1056157Y27939D01*
X1047754Y31420D01*
X1041324Y37850D01*
X1037843Y46253D01*
X1037843Y55347D01*
X1041324Y63750D01*
X1047754Y70180D01*
X1056157Y73661D01*
X1065251Y73661D01*
X1073654Y70180D01*
X1080084Y63750D01*
X1083565Y55347D01*
X1083565Y46253D01*
X1080084Y37850D01*
X1073654Y31420D01*
X1065251Y27939D01*
X1056157Y27939D01*
G37*
%LPD*%
%LPC*%
G36*
X33045Y218439D02*
X33045Y218439D01*
X24642Y221920D01*
X18212Y228350D01*
X14731Y236753D01*
X14731Y245847D01*
X18212Y254250D01*
X24642Y260680D01*
X33045Y264161D01*
X42139Y264161D01*
X50542Y260680D01*
X56972Y254250D01*
X60453Y245847D01*
X60453Y236753D01*
X56972Y228350D01*
X50542Y221920D01*
X42139Y218439D01*
X33045Y218439D01*
G37*
%LPD*%
%LPC*%
G36*
X33045Y408939D02*
X33045Y408939D01*
X24642Y412420D01*
X18212Y418850D01*
X14731Y427253D01*
X14731Y436347D01*
X18212Y444750D01*
X24642Y451180D01*
X33045Y454661D01*
X42139Y454661D01*
X50542Y451180D01*
X56972Y444750D01*
X60453Y436347D01*
X60453Y427253D01*
X56972Y418850D01*
X50542Y412420D01*
X42139Y408939D01*
X33045Y408939D01*
G37*
%LPD*%
%LPC*%
G36*
X1031669Y315721D02*
X1031669Y315721D01*
X1024013Y318892D01*
X1018154Y324751D01*
X1014983Y332407D01*
X1014983Y340693D01*
X1018154Y348349D01*
X1024013Y354208D01*
X1031669Y357379D01*
X1039955Y357379D01*
X1047611Y354208D01*
X1053470Y348349D01*
X1056641Y340693D01*
X1056641Y332407D01*
X1053470Y324751D01*
X1047611Y318892D01*
X1039955Y315721D01*
X1031669Y315721D01*
G37*
%LPD*%
%LPC*%
G36*
X59357Y315721D02*
X59357Y315721D01*
X51701Y318892D01*
X45842Y324751D01*
X42671Y332407D01*
X42671Y340693D01*
X45842Y348349D01*
X51701Y354208D01*
X59357Y357379D01*
X67643Y357379D01*
X75299Y354208D01*
X81158Y348349D01*
X84329Y340693D01*
X84329Y332407D01*
X81158Y324751D01*
X75299Y318892D01*
X67643Y315721D01*
X59357Y315721D01*
G37*
%LPD*%
%LPC*%
G36*
X59357Y125221D02*
X59357Y125221D01*
X51701Y128392D01*
X45842Y134251D01*
X42671Y141907D01*
X42671Y150193D01*
X45842Y157849D01*
X51701Y163708D01*
X59357Y166879D01*
X67643Y166879D01*
X75299Y163708D01*
X81158Y157849D01*
X84329Y150193D01*
X84329Y141907D01*
X81158Y134251D01*
X75299Y128392D01*
X67643Y125221D01*
X59357Y125221D01*
G37*
%LPD*%
%LPC*%
G36*
X1031669Y125221D02*
X1031669Y125221D01*
X1024013Y128392D01*
X1018154Y134251D01*
X1014983Y141907D01*
X1014983Y150193D01*
X1018154Y157849D01*
X1024013Y163708D01*
X1031669Y166879D01*
X1039955Y166879D01*
X1047611Y163708D01*
X1053470Y157849D01*
X1056641Y150193D01*
X1056641Y141907D01*
X1053470Y134251D01*
X1047611Y128392D01*
X1039955Y125221D01*
X1031669Y125221D01*
G37*
%LPD*%
%LPC*%
G36*
X879534Y436625D02*
X879534Y436625D01*
X870457Y445702D01*
X870457Y458538D01*
X879534Y467615D01*
X892370Y467615D01*
X901447Y458538D01*
X901447Y445702D01*
X892370Y436625D01*
X879534Y436625D01*
G37*
%LPD*%
%LPC*%
G36*
X919158Y436625D02*
X919158Y436625D01*
X910081Y445702D01*
X910081Y458538D01*
X919158Y467615D01*
X931994Y467615D01*
X941071Y458538D01*
X941071Y445702D01*
X931994Y436625D01*
X919158Y436625D01*
G37*
%LPD*%
%LPC*%
G36*
X958782Y436625D02*
X958782Y436625D01*
X949705Y445702D01*
X949705Y458538D01*
X958782Y467615D01*
X971618Y467615D01*
X980695Y458538D01*
X980695Y445702D01*
X971618Y436625D01*
X958782Y436625D01*
G37*
%LPD*%
%LPC*%
G36*
X324798Y436625D02*
X324798Y436625D01*
X315721Y445702D01*
X315721Y458538D01*
X324798Y467615D01*
X337634Y467615D01*
X346711Y458538D01*
X346711Y445702D01*
X337634Y436625D01*
X324798Y436625D01*
G37*
%LPD*%
%LPC*%
G36*
X364422Y436625D02*
X364422Y436625D01*
X355345Y445702D01*
X355345Y458538D01*
X364422Y467615D01*
X377258Y467615D01*
X386335Y458538D01*
X386335Y445702D01*
X377258Y436625D01*
X364422Y436625D01*
G37*
%LPD*%
%LPC*%
G36*
X404046Y436625D02*
X404046Y436625D01*
X394969Y445702D01*
X394969Y458538D01*
X404046Y467615D01*
X416882Y467615D01*
X425959Y458538D01*
X425959Y445702D01*
X416882Y436625D01*
X404046Y436625D01*
G37*
%LPD*%
%LPC*%
G36*
X443670Y436625D02*
X443670Y436625D01*
X434593Y445702D01*
X434593Y458538D01*
X443670Y467615D01*
X456506Y467615D01*
X465583Y458538D01*
X465583Y445702D01*
X456506Y436625D01*
X443670Y436625D01*
G37*
%LPD*%
%LPC*%
G36*
X483294Y436625D02*
X483294Y436625D01*
X474217Y445702D01*
X474217Y458538D01*
X483294Y467615D01*
X496130Y467615D01*
X505207Y458538D01*
X505207Y445702D01*
X496130Y436625D01*
X483294Y436625D01*
G37*
%LPD*%
%LPC*%
G36*
X681414Y436625D02*
X681414Y436625D01*
X672337Y445702D01*
X672337Y458538D01*
X681414Y467615D01*
X694250Y467615D01*
X703327Y458538D01*
X703327Y445702D01*
X694250Y436625D01*
X681414Y436625D01*
G37*
%LPD*%
%LPC*%
G36*
X522918Y436625D02*
X522918Y436625D01*
X513841Y445702D01*
X513841Y458538D01*
X522918Y467615D01*
X535754Y467615D01*
X544831Y458538D01*
X544831Y445702D01*
X535754Y436625D01*
X522918Y436625D01*
G37*
%LPD*%
%LPC*%
G36*
X562542Y436625D02*
X562542Y436625D01*
X553465Y445702D01*
X553465Y458538D01*
X562542Y467615D01*
X575378Y467615D01*
X584455Y458538D01*
X584455Y445702D01*
X575378Y436625D01*
X562542Y436625D01*
G37*
%LPD*%
%LPC*%
G36*
X602166Y436625D02*
X602166Y436625D01*
X593089Y445702D01*
X593089Y458538D01*
X602166Y467615D01*
X615002Y467615D01*
X624079Y458538D01*
X624079Y445702D01*
X615002Y436625D01*
X602166Y436625D01*
G37*
%LPD*%
%LPC*%
G36*
X721038Y436625D02*
X721038Y436625D01*
X711961Y445702D01*
X711961Y458538D01*
X721038Y467615D01*
X733874Y467615D01*
X742951Y458538D01*
X742951Y445702D01*
X733874Y436625D01*
X721038Y436625D01*
G37*
%LPD*%
%LPC*%
G36*
X641790Y436625D02*
X641790Y436625D01*
X632713Y445702D01*
X632713Y458538D01*
X641790Y467615D01*
X654626Y467615D01*
X663703Y458538D01*
X663703Y445702D01*
X654626Y436625D01*
X641790Y436625D01*
G37*
%LPD*%
%LPC*%
G36*
X760662Y436625D02*
X760662Y436625D01*
X751585Y445702D01*
X751585Y458538D01*
X760662Y467615D01*
X773498Y467615D01*
X782575Y458538D01*
X782575Y445702D01*
X773498Y436625D01*
X760662Y436625D01*
G37*
%LPD*%
%LPC*%
G36*
X800286Y436625D02*
X800286Y436625D01*
X791209Y445702D01*
X791209Y458538D01*
X800286Y467615D01*
X813122Y467615D01*
X822199Y458538D01*
X822199Y445702D01*
X813122Y436625D01*
X800286Y436625D01*
G37*
%LPD*%
%LPC*%
G36*
X839910Y436625D02*
X839910Y436625D01*
X830833Y445702D01*
X830833Y458538D01*
X839910Y467615D01*
X852746Y467615D01*
X861823Y458538D01*
X861823Y445702D01*
X852746Y436625D01*
X839910Y436625D01*
G37*
%LPD*%
%LPC*%
G36*
X205926Y14985D02*
X205926Y14985D01*
X196849Y24062D01*
X196849Y36898D01*
X205926Y45975D01*
X218762Y45975D01*
X227839Y36898D01*
X227839Y24062D01*
X218762Y14985D01*
X205926Y14985D01*
G37*
%LPD*%
%LPC*%
G36*
X166302Y14985D02*
X166302Y14985D01*
X157225Y24062D01*
X157225Y36898D01*
X166302Y45975D01*
X179138Y45975D01*
X188215Y36898D01*
X188215Y24062D01*
X179138Y14985D01*
X166302Y14985D01*
G37*
%LPD*%
%LPC*%
G36*
X126678Y14985D02*
X126678Y14985D01*
X117601Y24062D01*
X117601Y36898D01*
X126678Y45975D01*
X139514Y45975D01*
X148591Y36898D01*
X148591Y24062D01*
X139514Y14985D01*
X126678Y14985D01*
G37*
%LPD*%
%LPC*%
G36*
X166302Y395985D02*
X166302Y395985D01*
X157225Y405062D01*
X157225Y417898D01*
X166302Y426975D01*
X179138Y426975D01*
X188215Y417898D01*
X188215Y405062D01*
X179138Y395985D01*
X166302Y395985D01*
G37*
%LPD*%
%LPC*%
G36*
X126678Y395985D02*
X126678Y395985D01*
X117601Y405062D01*
X117601Y417898D01*
X126678Y426975D01*
X139514Y426975D01*
X148591Y417898D01*
X148591Y405062D01*
X139514Y395985D01*
X126678Y395985D01*
G37*
%LPD*%
%LPC*%
G36*
X522918Y395985D02*
X522918Y395985D01*
X513841Y405062D01*
X513841Y417898D01*
X522918Y426975D01*
X535754Y426975D01*
X544831Y417898D01*
X544831Y405062D01*
X535754Y395985D01*
X522918Y395985D01*
G37*
%LPD*%
%LPC*%
G36*
X602166Y395985D02*
X602166Y395985D01*
X593089Y405062D01*
X593089Y417898D01*
X602166Y426975D01*
X615002Y426975D01*
X624079Y417898D01*
X624079Y405062D01*
X615002Y395985D01*
X602166Y395985D01*
G37*
%LPD*%
%LPC*%
G36*
X641790Y395985D02*
X641790Y395985D01*
X632713Y405062D01*
X632713Y417898D01*
X641790Y426975D01*
X654626Y426975D01*
X663703Y417898D01*
X663703Y405062D01*
X654626Y395985D01*
X641790Y395985D01*
G37*
%LPD*%
%LPC*%
G36*
X681414Y395985D02*
X681414Y395985D01*
X672337Y405062D01*
X672337Y417898D01*
X681414Y426975D01*
X694250Y426975D01*
X703327Y417898D01*
X703327Y405062D01*
X694250Y395985D01*
X681414Y395985D01*
G37*
%LPD*%
%LPC*%
G36*
X721038Y395985D02*
X721038Y395985D01*
X711961Y405062D01*
X711961Y417898D01*
X721038Y426975D01*
X733874Y426975D01*
X742951Y417898D01*
X742951Y405062D01*
X733874Y395985D01*
X721038Y395985D01*
G37*
%LPD*%
%LPC*%
G36*
X760662Y395985D02*
X760662Y395985D01*
X751585Y405062D01*
X751585Y417898D01*
X760662Y426975D01*
X773498Y426975D01*
X782575Y417898D01*
X782575Y405062D01*
X773498Y395985D01*
X760662Y395985D01*
G37*
%LPD*%
%LPC*%
G36*
X800286Y395985D02*
X800286Y395985D01*
X791209Y405062D01*
X791209Y417898D01*
X800286Y426975D01*
X813122Y426975D01*
X822199Y417898D01*
X822199Y405062D01*
X813122Y395985D01*
X800286Y395985D01*
G37*
%LPD*%
%LPC*%
G36*
X483294Y395985D02*
X483294Y395985D01*
X474217Y405062D01*
X474217Y417898D01*
X483294Y426975D01*
X496130Y426975D01*
X505207Y417898D01*
X505207Y405062D01*
X496130Y395985D01*
X483294Y395985D01*
G37*
%LPD*%
%LPC*%
G36*
X443670Y395985D02*
X443670Y395985D01*
X434593Y405062D01*
X434593Y417898D01*
X443670Y426975D01*
X456506Y426975D01*
X465583Y417898D01*
X465583Y405062D01*
X456506Y395985D01*
X443670Y395985D01*
G37*
%LPD*%
%LPC*%
G36*
X839910Y395985D02*
X839910Y395985D01*
X830833Y405062D01*
X830833Y417898D01*
X839910Y426975D01*
X852746Y426975D01*
X861823Y417898D01*
X861823Y405062D01*
X852746Y395985D01*
X839910Y395985D01*
G37*
%LPD*%
%LPC*%
G36*
X404046Y395985D02*
X404046Y395985D01*
X394969Y405062D01*
X394969Y417898D01*
X404046Y426975D01*
X416882Y426975D01*
X425959Y417898D01*
X425959Y405062D01*
X416882Y395985D01*
X404046Y395985D01*
G37*
%LPD*%
%LPC*%
G36*
X364422Y395985D02*
X364422Y395985D01*
X355345Y405062D01*
X355345Y417898D01*
X364422Y426975D01*
X377258Y426975D01*
X386335Y417898D01*
X386335Y405062D01*
X377258Y395985D01*
X364422Y395985D01*
G37*
%LPD*%
%LPC*%
G36*
X562542Y395985D02*
X562542Y395985D01*
X553465Y405062D01*
X553465Y417898D01*
X562542Y426975D01*
X575378Y426975D01*
X584455Y417898D01*
X584455Y405062D01*
X575378Y395985D01*
X562542Y395985D01*
G37*
%LPD*%
%LPC*%
G36*
X879534Y395985D02*
X879534Y395985D01*
X870457Y405062D01*
X870457Y417898D01*
X879534Y426975D01*
X892370Y426975D01*
X901447Y417898D01*
X901447Y405062D01*
X892370Y395985D01*
X879534Y395985D01*
G37*
%LPD*%
%LPC*%
G36*
X919158Y395985D02*
X919158Y395985D01*
X910081Y405062D01*
X910081Y417898D01*
X919158Y426975D01*
X931994Y426975D01*
X941071Y417898D01*
X941071Y405062D01*
X931994Y395985D01*
X919158Y395985D01*
G37*
%LPD*%
%LPC*%
G36*
X958782Y395985D02*
X958782Y395985D01*
X949705Y405062D01*
X949705Y417898D01*
X958782Y426975D01*
X971618Y426975D01*
X980695Y417898D01*
X980695Y405062D01*
X971618Y395985D01*
X958782Y395985D01*
G37*
%LPD*%
%LPC*%
G36*
X483294Y246125D02*
X483294Y246125D01*
X474217Y255202D01*
X474217Y268038D01*
X483294Y277115D01*
X496130Y277115D01*
X505207Y268038D01*
X505207Y255202D01*
X496130Y246125D01*
X483294Y246125D01*
G37*
%LPD*%
%LPC*%
G36*
X443670Y246125D02*
X443670Y246125D01*
X434593Y255202D01*
X434593Y268038D01*
X443670Y277115D01*
X456506Y277115D01*
X465583Y268038D01*
X465583Y255202D01*
X456506Y246125D01*
X443670Y246125D01*
G37*
%LPD*%
%LPC*%
G36*
X681414Y246125D02*
X681414Y246125D01*
X672337Y255202D01*
X672337Y268038D01*
X681414Y277115D01*
X694250Y277115D01*
X703327Y268038D01*
X703327Y255202D01*
X694250Y246125D01*
X681414Y246125D01*
G37*
%LPD*%
%LPC*%
G36*
X958782Y246125D02*
X958782Y246125D01*
X949705Y255202D01*
X949705Y268038D01*
X958782Y277115D01*
X971618Y277115D01*
X980695Y268038D01*
X980695Y255202D01*
X971618Y246125D01*
X958782Y246125D01*
G37*
%LPD*%
%LPC*%
G36*
X919158Y246125D02*
X919158Y246125D01*
X910081Y255202D01*
X910081Y268038D01*
X919158Y277115D01*
X931994Y277115D01*
X941071Y268038D01*
X941071Y255202D01*
X931994Y246125D01*
X919158Y246125D01*
G37*
%LPD*%
%LPC*%
G36*
X879534Y246125D02*
X879534Y246125D01*
X870457Y255202D01*
X870457Y268038D01*
X879534Y277115D01*
X892370Y277115D01*
X901447Y268038D01*
X901447Y255202D01*
X892370Y246125D01*
X879534Y246125D01*
G37*
%LPD*%
%LPC*%
G36*
X839910Y246125D02*
X839910Y246125D01*
X830833Y255202D01*
X830833Y268038D01*
X839910Y277115D01*
X852746Y277115D01*
X861823Y268038D01*
X861823Y255202D01*
X852746Y246125D01*
X839910Y246125D01*
G37*
%LPD*%
%LPC*%
G36*
X800286Y246125D02*
X800286Y246125D01*
X791209Y255202D01*
X791209Y268038D01*
X800286Y277115D01*
X813122Y277115D01*
X822199Y268038D01*
X822199Y255202D01*
X813122Y246125D01*
X800286Y246125D01*
G37*
%LPD*%
%LPC*%
G36*
X760662Y246125D02*
X760662Y246125D01*
X751585Y255202D01*
X751585Y268038D01*
X760662Y277115D01*
X773498Y277115D01*
X782575Y268038D01*
X782575Y255202D01*
X773498Y246125D01*
X760662Y246125D01*
G37*
%LPD*%
%LPC*%
G36*
X721038Y246125D02*
X721038Y246125D01*
X711961Y255202D01*
X711961Y268038D01*
X721038Y277115D01*
X733874Y277115D01*
X742951Y268038D01*
X742951Y255202D01*
X733874Y246125D01*
X721038Y246125D01*
G37*
%LPD*%
%LPC*%
G36*
X404046Y246125D02*
X404046Y246125D01*
X394969Y255202D01*
X394969Y268038D01*
X404046Y277115D01*
X416882Y277115D01*
X425959Y268038D01*
X425959Y255202D01*
X416882Y246125D01*
X404046Y246125D01*
G37*
%LPD*%
%LPC*%
G36*
X364422Y246125D02*
X364422Y246125D01*
X355345Y255202D01*
X355345Y268038D01*
X364422Y277115D01*
X377258Y277115D01*
X386335Y268038D01*
X386335Y255202D01*
X377258Y246125D01*
X364422Y246125D01*
G37*
%LPD*%
%LPC*%
G36*
X324798Y246125D02*
X324798Y246125D01*
X315721Y255202D01*
X315721Y268038D01*
X324798Y277115D01*
X337634Y277115D01*
X346711Y268038D01*
X346711Y255202D01*
X337634Y246125D01*
X324798Y246125D01*
G37*
%LPD*%
%LPC*%
G36*
X641790Y246125D02*
X641790Y246125D01*
X632713Y255202D01*
X632713Y268038D01*
X641790Y277115D01*
X654626Y277115D01*
X663703Y268038D01*
X663703Y255202D01*
X654626Y246125D01*
X641790Y246125D01*
G37*
%LPD*%
%LPC*%
G36*
X602166Y246125D02*
X602166Y246125D01*
X593089Y255202D01*
X593089Y268038D01*
X602166Y277115D01*
X615002Y277115D01*
X624079Y268038D01*
X624079Y255202D01*
X615002Y246125D01*
X602166Y246125D01*
G37*
%LPD*%
%LPC*%
G36*
X562542Y246125D02*
X562542Y246125D01*
X553465Y255202D01*
X553465Y268038D01*
X562542Y277115D01*
X575378Y277115D01*
X584455Y268038D01*
X584455Y255202D01*
X575378Y246125D01*
X562542Y246125D01*
G37*
%LPD*%
%LPC*%
G36*
X522918Y246125D02*
X522918Y246125D01*
X513841Y255202D01*
X513841Y268038D01*
X522918Y277115D01*
X535754Y277115D01*
X544831Y268038D01*
X544831Y255202D01*
X535754Y246125D01*
X522918Y246125D01*
G37*
%LPD*%
%LPC*%
G36*
X245550Y205485D02*
X245550Y205485D01*
X236473Y214562D01*
X236473Y227398D01*
X245550Y236475D01*
X258386Y236475D01*
X267463Y227398D01*
X267463Y214562D01*
X258386Y205485D01*
X245550Y205485D01*
G37*
%LPD*%
%LPC*%
G36*
X205926Y205485D02*
X205926Y205485D01*
X196849Y214562D01*
X196849Y227398D01*
X205926Y236475D01*
X218762Y236475D01*
X227839Y227398D01*
X227839Y214562D01*
X218762Y205485D01*
X205926Y205485D01*
G37*
%LPD*%
%LPC*%
G36*
X800286Y205485D02*
X800286Y205485D01*
X791209Y214562D01*
X791209Y227398D01*
X800286Y236475D01*
X813122Y236475D01*
X822199Y227398D01*
X822199Y214562D01*
X813122Y205485D01*
X800286Y205485D01*
G37*
%LPD*%
%LPC*%
G36*
X166302Y205485D02*
X166302Y205485D01*
X157225Y214562D01*
X157225Y227398D01*
X166302Y236475D01*
X179138Y236475D01*
X188215Y227398D01*
X188215Y214562D01*
X179138Y205485D01*
X166302Y205485D01*
G37*
%LPD*%
%LPC*%
G36*
X839910Y205485D02*
X839910Y205485D01*
X830833Y214562D01*
X830833Y227398D01*
X839910Y236475D01*
X852746Y236475D01*
X861823Y227398D01*
X861823Y214562D01*
X852746Y205485D01*
X839910Y205485D01*
G37*
%LPD*%
%LPC*%
G36*
X958782Y205485D02*
X958782Y205485D01*
X949705Y214562D01*
X949705Y227398D01*
X958782Y236475D01*
X971618Y236475D01*
X980695Y227398D01*
X980695Y214562D01*
X971618Y205485D01*
X958782Y205485D01*
G37*
%LPD*%
%LPC*%
G36*
X919158Y205485D02*
X919158Y205485D01*
X910081Y214562D01*
X910081Y227398D01*
X919158Y236475D01*
X931994Y236475D01*
X941071Y227398D01*
X941071Y214562D01*
X931994Y205485D01*
X919158Y205485D01*
G37*
%LPD*%
%LPC*%
G36*
X879534Y205485D02*
X879534Y205485D01*
X870457Y214562D01*
X870457Y227398D01*
X879534Y236475D01*
X892370Y236475D01*
X901447Y227398D01*
X901447Y214562D01*
X892370Y205485D01*
X879534Y205485D01*
G37*
%LPD*%
%LPC*%
G36*
X483294Y205485D02*
X483294Y205485D01*
X474217Y214562D01*
X474217Y227398D01*
X483294Y236475D01*
X496130Y236475D01*
X505207Y227398D01*
X505207Y214562D01*
X496130Y205485D01*
X483294Y205485D01*
G37*
%LPD*%
%LPC*%
G36*
X760662Y205485D02*
X760662Y205485D01*
X751585Y214562D01*
X751585Y227398D01*
X760662Y236475D01*
X773498Y236475D01*
X782575Y227398D01*
X782575Y214562D01*
X773498Y205485D01*
X760662Y205485D01*
G37*
%LPD*%
%LPC*%
G36*
X721038Y205485D02*
X721038Y205485D01*
X711961Y214562D01*
X711961Y227398D01*
X721038Y236475D01*
X733874Y236475D01*
X742951Y227398D01*
X742951Y214562D01*
X733874Y205485D01*
X721038Y205485D01*
G37*
%LPD*%
%LPC*%
G36*
X681414Y205485D02*
X681414Y205485D01*
X672337Y214562D01*
X672337Y227398D01*
X681414Y236475D01*
X694250Y236475D01*
X703327Y227398D01*
X703327Y214562D01*
X694250Y205485D01*
X681414Y205485D01*
G37*
%LPD*%
%LPC*%
G36*
X641790Y205485D02*
X641790Y205485D01*
X632713Y214562D01*
X632713Y227398D01*
X641790Y236475D01*
X654626Y236475D01*
X663703Y227398D01*
X663703Y214562D01*
X654626Y205485D01*
X641790Y205485D01*
G37*
%LPD*%
%LPC*%
G36*
X602166Y205485D02*
X602166Y205485D01*
X593089Y214562D01*
X593089Y227398D01*
X602166Y236475D01*
X615002Y236475D01*
X624079Y227398D01*
X624079Y214562D01*
X615002Y205485D01*
X602166Y205485D01*
G37*
%LPD*%
%LPC*%
G36*
X562542Y205485D02*
X562542Y205485D01*
X553465Y214562D01*
X553465Y227398D01*
X562542Y236475D01*
X575378Y236475D01*
X584455Y227398D01*
X584455Y214562D01*
X575378Y205485D01*
X562542Y205485D01*
G37*
%LPD*%
%LPC*%
G36*
X522918Y205485D02*
X522918Y205485D01*
X513841Y214562D01*
X513841Y227398D01*
X522918Y236475D01*
X535754Y236475D01*
X544831Y227398D01*
X544831Y214562D01*
X535754Y205485D01*
X522918Y205485D01*
G37*
%LPD*%
%LPC*%
G36*
X443670Y205485D02*
X443670Y205485D01*
X434593Y214562D01*
X434593Y227398D01*
X443670Y236475D01*
X456506Y236475D01*
X465583Y227398D01*
X465583Y214562D01*
X456506Y205485D01*
X443670Y205485D01*
G37*
%LPD*%
%LPC*%
G36*
X404046Y205485D02*
X404046Y205485D01*
X394969Y214562D01*
X394969Y227398D01*
X404046Y236475D01*
X416882Y236475D01*
X425959Y227398D01*
X425959Y214562D01*
X416882Y205485D01*
X404046Y205485D01*
G37*
%LPD*%
%LPC*%
G36*
X364422Y205485D02*
X364422Y205485D01*
X355345Y214562D01*
X355345Y227398D01*
X364422Y236475D01*
X377258Y236475D01*
X386335Y227398D01*
X386335Y214562D01*
X377258Y205485D01*
X364422Y205485D01*
G37*
%LPD*%
%LPC*%
G36*
X324798Y205485D02*
X324798Y205485D01*
X315721Y214562D01*
X315721Y227398D01*
X324798Y236475D01*
X337634Y236475D01*
X346711Y227398D01*
X346711Y214562D01*
X337634Y205485D01*
X324798Y205485D01*
G37*
%LPD*%
%LPC*%
G36*
X285174Y205485D02*
X285174Y205485D01*
X276097Y214562D01*
X276097Y227398D01*
X285174Y236475D01*
X298010Y236475D01*
X307087Y227398D01*
X307087Y214562D01*
X298010Y205485D01*
X285174Y205485D01*
G37*
%LPD*%
%LPC*%
G36*
X245550Y55625D02*
X245550Y55625D01*
X236473Y64702D01*
X236473Y77538D01*
X245550Y86615D01*
X258386Y86615D01*
X267463Y77538D01*
X267463Y64702D01*
X258386Y55625D01*
X245550Y55625D01*
G37*
%LPD*%
%LPC*%
G36*
X205926Y55625D02*
X205926Y55625D01*
X196849Y64702D01*
X196849Y77538D01*
X205926Y86615D01*
X218762Y86615D01*
X227839Y77538D01*
X227839Y64702D01*
X218762Y55625D01*
X205926Y55625D01*
G37*
%LPD*%
%LPC*%
G36*
X958782Y55625D02*
X958782Y55625D01*
X949705Y64702D01*
X949705Y77538D01*
X958782Y86615D01*
X971618Y86615D01*
X980695Y77538D01*
X980695Y64702D01*
X971618Y55625D01*
X958782Y55625D01*
G37*
%LPD*%
%LPC*%
G36*
X919158Y55625D02*
X919158Y55625D01*
X910081Y64702D01*
X910081Y77538D01*
X919158Y86615D01*
X931994Y86615D01*
X941071Y77538D01*
X941071Y64702D01*
X931994Y55625D01*
X919158Y55625D01*
G37*
%LPD*%
%LPC*%
G36*
X879534Y55625D02*
X879534Y55625D01*
X870457Y64702D01*
X870457Y77538D01*
X879534Y86615D01*
X892370Y86615D01*
X901447Y77538D01*
X901447Y64702D01*
X892370Y55625D01*
X879534Y55625D01*
G37*
%LPD*%
%LPC*%
G36*
X839910Y55625D02*
X839910Y55625D01*
X830833Y64702D01*
X830833Y77538D01*
X839910Y86615D01*
X852746Y86615D01*
X861823Y77538D01*
X861823Y64702D01*
X852746Y55625D01*
X839910Y55625D01*
G37*
%LPD*%
%LPC*%
G36*
X800286Y55625D02*
X800286Y55625D01*
X791209Y64702D01*
X791209Y77538D01*
X800286Y86615D01*
X813122Y86615D01*
X822199Y77538D01*
X822199Y64702D01*
X813122Y55625D01*
X800286Y55625D01*
G37*
%LPD*%
%LPC*%
G36*
X760662Y55625D02*
X760662Y55625D01*
X751585Y64702D01*
X751585Y77538D01*
X760662Y86615D01*
X773498Y86615D01*
X782575Y77538D01*
X782575Y64702D01*
X773498Y55625D01*
X760662Y55625D01*
G37*
%LPD*%
%LPC*%
G36*
X721038Y55625D02*
X721038Y55625D01*
X711961Y64702D01*
X711961Y77538D01*
X721038Y86615D01*
X733874Y86615D01*
X742951Y77538D01*
X742951Y64702D01*
X733874Y55625D01*
X721038Y55625D01*
G37*
%LPD*%
%LPC*%
G36*
X681414Y55625D02*
X681414Y55625D01*
X672337Y64702D01*
X672337Y77538D01*
X681414Y86615D01*
X694250Y86615D01*
X703327Y77538D01*
X703327Y64702D01*
X694250Y55625D01*
X681414Y55625D01*
G37*
%LPD*%
%LPC*%
G36*
X641790Y55625D02*
X641790Y55625D01*
X632713Y64702D01*
X632713Y77538D01*
X641790Y86615D01*
X654626Y86615D01*
X663703Y77538D01*
X663703Y64702D01*
X654626Y55625D01*
X641790Y55625D01*
G37*
%LPD*%
%LPC*%
G36*
X602166Y55625D02*
X602166Y55625D01*
X593089Y64702D01*
X593089Y77538D01*
X602166Y86615D01*
X615002Y86615D01*
X624079Y77538D01*
X624079Y64702D01*
X615002Y55625D01*
X602166Y55625D01*
G37*
%LPD*%
%LPC*%
G36*
X562542Y55625D02*
X562542Y55625D01*
X553465Y64702D01*
X553465Y77538D01*
X562542Y86615D01*
X575378Y86615D01*
X584455Y77538D01*
X584455Y64702D01*
X575378Y55625D01*
X562542Y55625D01*
G37*
%LPD*%
%LPC*%
G36*
X522918Y55625D02*
X522918Y55625D01*
X513841Y64702D01*
X513841Y77538D01*
X522918Y86615D01*
X535754Y86615D01*
X544831Y77538D01*
X544831Y64702D01*
X535754Y55625D01*
X522918Y55625D01*
G37*
%LPD*%
%LPC*%
G36*
X483294Y55625D02*
X483294Y55625D01*
X474217Y64702D01*
X474217Y77538D01*
X483294Y86615D01*
X496130Y86615D01*
X505207Y77538D01*
X505207Y64702D01*
X496130Y55625D01*
X483294Y55625D01*
G37*
%LPD*%
%LPC*%
G36*
X443670Y55625D02*
X443670Y55625D01*
X434593Y64702D01*
X434593Y77538D01*
X443670Y86615D01*
X456506Y86615D01*
X465583Y77538D01*
X465583Y64702D01*
X456506Y55625D01*
X443670Y55625D01*
G37*
%LPD*%
%LPC*%
G36*
X404046Y55625D02*
X404046Y55625D01*
X394969Y64702D01*
X394969Y77538D01*
X404046Y86615D01*
X416882Y86615D01*
X425959Y77538D01*
X425959Y64702D01*
X416882Y55625D01*
X404046Y55625D01*
G37*
%LPD*%
%LPC*%
G36*
X364422Y55625D02*
X364422Y55625D01*
X355345Y64702D01*
X355345Y77538D01*
X364422Y86615D01*
X377258Y86615D01*
X386335Y77538D01*
X386335Y64702D01*
X377258Y55625D01*
X364422Y55625D01*
G37*
%LPD*%
%LPC*%
G36*
X324798Y55625D02*
X324798Y55625D01*
X315721Y64702D01*
X315721Y77538D01*
X324798Y86615D01*
X337634Y86615D01*
X346711Y77538D01*
X346711Y64702D01*
X337634Y55625D01*
X324798Y55625D01*
G37*
%LPD*%
%LPC*%
G36*
X285174Y55625D02*
X285174Y55625D01*
X276097Y64702D01*
X276097Y77538D01*
X285174Y86615D01*
X298010Y86615D01*
X307087Y77538D01*
X307087Y64702D01*
X298010Y55625D01*
X285174Y55625D01*
G37*
%LPD*%
%LPC*%
G36*
X958782Y14985D02*
X958782Y14985D01*
X949705Y24062D01*
X949705Y36898D01*
X958782Y45975D01*
X971618Y45975D01*
X980695Y36898D01*
X980695Y24062D01*
X971618Y14985D01*
X958782Y14985D01*
G37*
%LPD*%
%LPC*%
G36*
X919158Y14985D02*
X919158Y14985D01*
X910081Y24062D01*
X910081Y36898D01*
X919158Y45975D01*
X931994Y45975D01*
X941071Y36898D01*
X941071Y24062D01*
X931994Y14985D01*
X919158Y14985D01*
G37*
%LPD*%
%LPC*%
G36*
X879534Y14985D02*
X879534Y14985D01*
X870457Y24062D01*
X870457Y36898D01*
X879534Y45975D01*
X892370Y45975D01*
X901447Y36898D01*
X901447Y24062D01*
X892370Y14985D01*
X879534Y14985D01*
G37*
%LPD*%
%LPC*%
G36*
X839910Y14985D02*
X839910Y14985D01*
X830833Y24062D01*
X830833Y36898D01*
X839910Y45975D01*
X852746Y45975D01*
X861823Y36898D01*
X861823Y24062D01*
X852746Y14985D01*
X839910Y14985D01*
G37*
%LPD*%
%LPC*%
G36*
X800286Y14985D02*
X800286Y14985D01*
X791209Y24062D01*
X791209Y36898D01*
X800286Y45975D01*
X813122Y45975D01*
X822199Y36898D01*
X822199Y24062D01*
X813122Y14985D01*
X800286Y14985D01*
G37*
%LPD*%
%LPC*%
G36*
X760662Y14985D02*
X760662Y14985D01*
X751585Y24062D01*
X751585Y36898D01*
X760662Y45975D01*
X773498Y45975D01*
X782575Y36898D01*
X782575Y24062D01*
X773498Y14985D01*
X760662Y14985D01*
G37*
%LPD*%
%LPC*%
G36*
X721038Y14985D02*
X721038Y14985D01*
X711961Y24062D01*
X711961Y36898D01*
X721038Y45975D01*
X733874Y45975D01*
X742951Y36898D01*
X742951Y24062D01*
X733874Y14985D01*
X721038Y14985D01*
G37*
%LPD*%
%LPC*%
G36*
X681414Y14985D02*
X681414Y14985D01*
X672337Y24062D01*
X672337Y36898D01*
X681414Y45975D01*
X694250Y45975D01*
X703327Y36898D01*
X703327Y24062D01*
X694250Y14985D01*
X681414Y14985D01*
G37*
%LPD*%
%LPC*%
G36*
X641790Y14985D02*
X641790Y14985D01*
X632713Y24062D01*
X632713Y36898D01*
X641790Y45975D01*
X654626Y45975D01*
X663703Y36898D01*
X663703Y24062D01*
X654626Y14985D01*
X641790Y14985D01*
G37*
%LPD*%
%LPC*%
G36*
X602166Y14985D02*
X602166Y14985D01*
X593089Y24062D01*
X593089Y36898D01*
X602166Y45975D01*
X615002Y45975D01*
X624079Y36898D01*
X624079Y24062D01*
X615002Y14985D01*
X602166Y14985D01*
G37*
%LPD*%
%LPC*%
G36*
X562542Y14985D02*
X562542Y14985D01*
X553465Y24062D01*
X553465Y36898D01*
X562542Y45975D01*
X575378Y45975D01*
X584455Y36898D01*
X584455Y24062D01*
X575378Y14985D01*
X562542Y14985D01*
G37*
%LPD*%
%LPC*%
G36*
X522918Y14985D02*
X522918Y14985D01*
X513841Y24062D01*
X513841Y36898D01*
X522918Y45975D01*
X535754Y45975D01*
X544831Y36898D01*
X544831Y24062D01*
X535754Y14985D01*
X522918Y14985D01*
G37*
%LPD*%
%LPC*%
G36*
X483294Y14985D02*
X483294Y14985D01*
X474217Y24062D01*
X474217Y36898D01*
X483294Y45975D01*
X496130Y45975D01*
X505207Y36898D01*
X505207Y24062D01*
X496130Y14985D01*
X483294Y14985D01*
G37*
%LPD*%
%LPC*%
G36*
X443670Y14985D02*
X443670Y14985D01*
X434593Y24062D01*
X434593Y36898D01*
X443670Y45975D01*
X456506Y45975D01*
X465583Y36898D01*
X465583Y24062D01*
X456506Y14985D01*
X443670Y14985D01*
G37*
%LPD*%
%LPC*%
G36*
X404046Y14985D02*
X404046Y14985D01*
X394969Y24062D01*
X394969Y36898D01*
X404046Y45975D01*
X416882Y45975D01*
X425959Y36898D01*
X425959Y24062D01*
X416882Y14985D01*
X404046Y14985D01*
G37*
%LPD*%
%LPC*%
G36*
X364422Y14985D02*
X364422Y14985D01*
X355345Y24062D01*
X355345Y36898D01*
X364422Y45975D01*
X377258Y45975D01*
X386335Y36898D01*
X386335Y24062D01*
X377258Y14985D01*
X364422Y14985D01*
G37*
%LPD*%
%LPC*%
G36*
X324798Y14985D02*
X324798Y14985D01*
X315721Y24062D01*
X315721Y36898D01*
X324798Y45975D01*
X337634Y45975D01*
X346711Y36898D01*
X346711Y24062D01*
X337634Y14985D01*
X324798Y14985D01*
G37*
%LPD*%
%LPC*%
G36*
X285174Y14985D02*
X285174Y14985D01*
X276097Y24062D01*
X276097Y36898D01*
X285174Y45975D01*
X298010Y45975D01*
X307087Y36898D01*
X307087Y24062D01*
X298010Y14985D01*
X285174Y14985D01*
G37*
%LPD*%
%LPC*%
G36*
X245550Y14985D02*
X245550Y14985D01*
X236473Y24062D01*
X236473Y36898D01*
X245550Y45975D01*
X258386Y45975D01*
X267463Y36898D01*
X267463Y24062D01*
X258386Y14985D01*
X245550Y14985D01*
G37*
%LPD*%
%LPC*%
G36*
X134619Y453643D02*
X134619Y453643D01*
X134619Y466091D01*
X138883Y466091D01*
X147067Y457907D01*
X147067Y453643D01*
X134619Y453643D01*
G37*
%LPD*%
%LPC*%
G36*
X134619Y263143D02*
X134619Y263143D01*
X134619Y275591D01*
X138883Y275591D01*
X147067Y267407D01*
X147067Y263143D01*
X134619Y263143D01*
G37*
%LPD*%
%LPC*%
G36*
X134619Y72643D02*
X134619Y72643D01*
X134619Y85091D01*
X138883Y85091D01*
X147067Y76907D01*
X147067Y72643D01*
X134619Y72643D01*
G37*
%LPD*%
%LPC*%
G36*
X119125Y453643D02*
X119125Y453643D01*
X119125Y457907D01*
X127309Y466091D01*
X131573Y466091D01*
X131573Y453643D01*
X119125Y453643D01*
G37*
%LPD*%
%LPC*%
G36*
X119125Y263143D02*
X119125Y263143D01*
X119125Y267407D01*
X127309Y275591D01*
X131573Y275591D01*
X131573Y263143D01*
X119125Y263143D01*
G37*
%LPD*%
%LPC*%
G36*
X119125Y72643D02*
X119125Y72643D01*
X119125Y76907D01*
X127309Y85091D01*
X131573Y85091D01*
X131573Y72643D01*
X119125Y72643D01*
G37*
%LPD*%
%LPC*%
G36*
X134619Y438149D02*
X134619Y438149D01*
X134619Y450597D01*
X147067Y450597D01*
X147067Y446333D01*
X138883Y438149D01*
X134619Y438149D01*
G37*
%LPD*%
%LPC*%
G36*
X134619Y57149D02*
X134619Y57149D01*
X134619Y69597D01*
X147067Y69597D01*
X147067Y65333D01*
X138883Y57149D01*
X134619Y57149D01*
G37*
%LPD*%
%LPC*%
G36*
X127309Y438149D02*
X127309Y438149D01*
X119125Y446333D01*
X119125Y450597D01*
X131573Y450597D01*
X131573Y438149D01*
X127309Y438149D01*
G37*
%LPD*%
%LPC*%
G36*
X127309Y57149D02*
X127309Y57149D01*
X119125Y65333D01*
X119125Y69597D01*
X131573Y69597D01*
X131573Y57149D01*
X127309Y57149D01*
G37*
%LPD*%
%LPC*%
G36*
X133095Y452119D02*
X133095Y452119D01*
X133095Y452121D01*
X133097Y452121D01*
X133097Y452119D01*
X133095Y452119D01*
G37*
%LPD*%
%LPC*%
G36*
X133095Y71119D02*
X133095Y71119D01*
X133095Y71121D01*
X133097Y71121D01*
X133097Y71119D01*
X133095Y71119D01*
G37*
%LPD*%
D10*
X568960Y261620D03*
X568960Y220980D03*
X608584Y261620D03*
X648208Y261620D03*
X687832Y261620D03*
X727456Y261620D03*
X767080Y261620D03*
X806704Y261620D03*
X846328Y261620D03*
X885952Y261620D03*
X925576Y261620D03*
X965200Y261620D03*
X608584Y220980D03*
X648208Y220980D03*
X687832Y220980D03*
X727456Y220980D03*
X767080Y220980D03*
X806704Y220980D03*
X846328Y220980D03*
X885952Y220980D03*
X925576Y220980D03*
X965200Y220980D03*
D11*
X529336Y220980D03*
X529336Y261620D03*
X489712Y220980D03*
X450088Y220980D03*
X410464Y220980D03*
X370840Y220980D03*
X331216Y220980D03*
X291592Y220980D03*
X251968Y220980D03*
X212344Y220980D03*
X172720Y220980D03*
X133096Y220980D03*
X489712Y261620D03*
X450088Y261620D03*
X410464Y261620D03*
X370840Y261620D03*
X331216Y261620D03*
X291592Y261620D03*
X251968Y261620D03*
X212344Y261620D03*
X172720Y261620D03*
X133096Y261620D03*
D10*
X568960Y71120D03*
X568960Y30480D03*
X608584Y71120D03*
X648208Y71120D03*
X687832Y71120D03*
X727456Y71120D03*
X767080Y71120D03*
X806704Y71120D03*
X846328Y71120D03*
X885952Y71120D03*
X925576Y71120D03*
X965200Y71120D03*
X608584Y30480D03*
X648208Y30480D03*
X687832Y30480D03*
X727456Y30480D03*
X767080Y30480D03*
X806704Y30480D03*
X846328Y30480D03*
X885952Y30480D03*
X925576Y30480D03*
X965200Y30480D03*
D11*
X529336Y30480D03*
X529336Y71120D03*
X489712Y30480D03*
X450088Y30480D03*
X410464Y30480D03*
X370840Y30480D03*
X331216Y30480D03*
X291592Y30480D03*
X251968Y30480D03*
X212344Y30480D03*
X172720Y30480D03*
X133096Y30480D03*
X489712Y71120D03*
X450088Y71120D03*
X410464Y71120D03*
X370840Y71120D03*
X331216Y71120D03*
X291592Y71120D03*
X251968Y71120D03*
X212344Y71120D03*
X172720Y71120D03*
X133096Y71120D03*
D10*
X568960Y452120D03*
X568960Y411480D03*
X608584Y452120D03*
X648208Y452120D03*
X687832Y452120D03*
X727456Y452120D03*
X767080Y452120D03*
X806704Y452120D03*
X846328Y452120D03*
X885952Y452120D03*
X925576Y452120D03*
X965200Y452120D03*
X608584Y411480D03*
X648208Y411480D03*
X687832Y411480D03*
X727456Y411480D03*
X767080Y411480D03*
X806704Y411480D03*
X846328Y411480D03*
X885952Y411480D03*
X925576Y411480D03*
X965200Y411480D03*
D11*
X529336Y411480D03*
X529336Y452120D03*
X489712Y411480D03*
X450088Y411480D03*
X410464Y411480D03*
X370840Y411480D03*
X331216Y411480D03*
X291592Y411480D03*
X251968Y411480D03*
X212344Y411480D03*
X172720Y411480D03*
X133096Y411480D03*
X489712Y452120D03*
X450088Y452120D03*
X410464Y452120D03*
X370840Y452120D03*
X331216Y452120D03*
X291592Y452120D03*
X251968Y452120D03*
X212344Y452120D03*
X172720Y452120D03*
X133096Y452120D03*
D12*
X112713Y130175D02*
X171450Y71438D01*
X112713Y130175D02*
X112713Y241300D01*
X152400Y241300D01*
X172720Y261620D01*
X171450Y71438D02*
X172720Y71120D01*
X192088Y431800D02*
X173038Y450850D01*
X192088Y431800D02*
X300038Y431800D01*
X311150Y420688D01*
X311150Y282575D01*
X195263Y282575D01*
X176213Y263525D01*
X173038Y450850D02*
X172720Y452120D01*
X176213Y263525D02*
X172720Y261620D01*
X131763Y93663D02*
X131763Y71438D01*
X131763Y93663D02*
X100013Y125413D01*
X100013Y260350D01*
X112713Y260350D02*
X131763Y260350D01*
X112713Y260350D02*
X100013Y260350D01*
X131763Y71438D02*
X133096Y71120D01*
X131763Y260350D02*
X133096Y261620D01*
X112713Y431800D02*
X131763Y450850D01*
X112713Y431800D02*
X112713Y260350D01*
X131763Y450850D02*
X133096Y452120D01*
M02*
