M48
;GenerationSoftware,Autodesk,EAGLE,9.6.1*%
;CreationDate,2024-04-08T00:03:12Z*%
FMAT,2
ICI,OFF
METRIC,TZ,000.000
T4C0.350
T3C1.524
T2C3.150
T1C3.556
%
G90
M71
T1
X3759Y24130
X106070Y24130
X3759Y5080
X106070Y5080
X3759Y43180
X106070Y43180
T2
X103581Y33655
X6350Y14605
X103581Y14605
X6350Y33655
T3
X76708Y26162
X56896Y26162
X56896Y22098
X60858Y26162
X64821Y26162
X68783Y26162
X72746Y26162
X52934Y26162
X80670Y26162
X84633Y26162
X88595Y26162
X92558Y26162
X96520Y26162
X60858Y22098
X64821Y22098
X68783Y22098
X72746Y22098
X76708Y22098
X80670Y22098
X84633Y22098
X88595Y22098
X92558Y22098
X96520Y22098
X52934Y22098
X13310Y45212
X48971Y22098
X45009Y22098
X41046Y22098
X37084Y22098
X33122Y22098
X29159Y22098
X25197Y22098
X21234Y22098
X17272Y22098
X13310Y22098
X48971Y26162
X45009Y26162
X41046Y26162
X37084Y26162
X33122Y26162
X29159Y26162
X25197Y26162
X21234Y26162
X17272Y26162
X13310Y26162
X56896Y7112
X56896Y3048
X60858Y7112
X64821Y7112
X68783Y7112
X72746Y7112
X76708Y7112
X80670Y7112
X84633Y7112
X88595Y7112
X92558Y7112
X96520Y7112
X60858Y3048
X64821Y3048
X68783Y3048
X72746Y3048
X76708Y3048
X80670Y3048
X84633Y3048
X88595Y3048
X92558Y3048
X96520Y3048
X52934Y3048
X52934Y7112
X48971Y3048
X45009Y3048
X41046Y3048
X37084Y3048
X33122Y3048
X29159Y3048
X25197Y3048
X21234Y3048
X17272Y3048
X13310Y3048
X48971Y7112
X45009Y7112
X41046Y7112
X37084Y7112
X33122Y7112
X29159Y7112
X25197Y7112
X21234Y7112
X17272Y7112
X13310Y7112
X56896Y45212
X56896Y41148
X60858Y45212
X64821Y45212
X68783Y45212
X72746Y45212
X76708Y45212
X80670Y45212
X84633Y45212
X88595Y45212
X92558Y45212
X96520Y45212
X60858Y41148
X64821Y41148
X68783Y41148
X72746Y41148
X76708Y41148
X80670Y41148
X84633Y41148
X88595Y41148
X92558Y41148
X96520Y41148
X52934Y41148
X52934Y45212
X48971Y41148
X45009Y41148
X41046Y41148
X37084Y41148
X33122Y41148
X29159Y41148
X25197Y41148
X21234Y41148
X17272Y41148
X13310Y41148
X48971Y45212
X45009Y45212
X41046Y45212
X37084Y45212
X33122Y45212
X29159Y45212
X25197Y45212
X21234Y45212
X17272Y45212
T4
X10954Y19685
M30