G04 EAGLE Gerber RS-274X export*
G75*
%MOMM*%
%FSLAX34Y34*%
%LPD*%
%INBoard Outline*%
%IPPOS*%
%AMOC8*
5,1,8,0,0,1.08239X$1,22.5*%
G01*
%ADD10C,0.000000*%
%ADD11C,0.254000*%


D10*
X0Y0D02*
X1099312Y0D01*
X1099312Y228600D01*
X0Y228600D01*
X0Y0D01*
X47752Y114300D02*
X47757Y114686D01*
X47771Y115073D01*
X47795Y115458D01*
X47828Y115844D01*
X47870Y116228D01*
X47922Y116611D01*
X47984Y116992D01*
X48055Y117372D01*
X48135Y117750D01*
X48224Y118126D01*
X48322Y118500D01*
X48430Y118871D01*
X48547Y119240D01*
X48673Y119605D01*
X48807Y119968D01*
X48951Y120326D01*
X49103Y120682D01*
X49264Y121033D01*
X49434Y121380D01*
X49612Y121724D01*
X49798Y122062D01*
X49992Y122396D01*
X50195Y122725D01*
X50406Y123049D01*
X50625Y123368D01*
X50851Y123681D01*
X51085Y123989D01*
X51327Y124290D01*
X51575Y124586D01*
X51832Y124876D01*
X52095Y125159D01*
X52364Y125436D01*
X52641Y125705D01*
X52924Y125968D01*
X53214Y126225D01*
X53510Y126473D01*
X53811Y126715D01*
X54119Y126949D01*
X54432Y127175D01*
X54751Y127394D01*
X55075Y127605D01*
X55404Y127808D01*
X55738Y128002D01*
X56076Y128188D01*
X56420Y128366D01*
X56767Y128536D01*
X57118Y128697D01*
X57474Y128849D01*
X57832Y128993D01*
X58195Y129127D01*
X58560Y129253D01*
X58929Y129370D01*
X59300Y129478D01*
X59674Y129576D01*
X60050Y129665D01*
X60428Y129745D01*
X60808Y129816D01*
X61189Y129878D01*
X61572Y129930D01*
X61956Y129972D01*
X62342Y130005D01*
X62727Y130029D01*
X63114Y130043D01*
X63500Y130048D01*
X63886Y130043D01*
X64273Y130029D01*
X64658Y130005D01*
X65044Y129972D01*
X65428Y129930D01*
X65811Y129878D01*
X66192Y129816D01*
X66572Y129745D01*
X66950Y129665D01*
X67326Y129576D01*
X67700Y129478D01*
X68071Y129370D01*
X68440Y129253D01*
X68805Y129127D01*
X69168Y128993D01*
X69526Y128849D01*
X69882Y128697D01*
X70233Y128536D01*
X70580Y128366D01*
X70924Y128188D01*
X71262Y128002D01*
X71596Y127808D01*
X71925Y127605D01*
X72249Y127394D01*
X72568Y127175D01*
X72881Y126949D01*
X73189Y126715D01*
X73490Y126473D01*
X73786Y126225D01*
X74076Y125968D01*
X74359Y125705D01*
X74636Y125436D01*
X74905Y125159D01*
X75168Y124876D01*
X75425Y124586D01*
X75673Y124290D01*
X75915Y123989D01*
X76149Y123681D01*
X76375Y123368D01*
X76594Y123049D01*
X76805Y122725D01*
X77008Y122396D01*
X77202Y122062D01*
X77388Y121724D01*
X77566Y121380D01*
X77736Y121033D01*
X77897Y120682D01*
X78049Y120326D01*
X78193Y119968D01*
X78327Y119605D01*
X78453Y119240D01*
X78570Y118871D01*
X78678Y118500D01*
X78776Y118126D01*
X78865Y117750D01*
X78945Y117372D01*
X79016Y116992D01*
X79078Y116611D01*
X79130Y116228D01*
X79172Y115844D01*
X79205Y115458D01*
X79229Y115073D01*
X79243Y114686D01*
X79248Y114300D01*
X79243Y113914D01*
X79229Y113527D01*
X79205Y113142D01*
X79172Y112756D01*
X79130Y112372D01*
X79078Y111989D01*
X79016Y111608D01*
X78945Y111228D01*
X78865Y110850D01*
X78776Y110474D01*
X78678Y110100D01*
X78570Y109729D01*
X78453Y109360D01*
X78327Y108995D01*
X78193Y108632D01*
X78049Y108274D01*
X77897Y107918D01*
X77736Y107567D01*
X77566Y107220D01*
X77388Y106876D01*
X77202Y106538D01*
X77008Y106204D01*
X76805Y105875D01*
X76594Y105551D01*
X76375Y105232D01*
X76149Y104919D01*
X75915Y104611D01*
X75673Y104310D01*
X75425Y104014D01*
X75168Y103724D01*
X74905Y103441D01*
X74636Y103164D01*
X74359Y102895D01*
X74076Y102632D01*
X73786Y102375D01*
X73490Y102127D01*
X73189Y101885D01*
X72881Y101651D01*
X72568Y101425D01*
X72249Y101206D01*
X71925Y100995D01*
X71596Y100792D01*
X71262Y100598D01*
X70924Y100412D01*
X70580Y100234D01*
X70233Y100064D01*
X69882Y99903D01*
X69526Y99751D01*
X69168Y99607D01*
X68805Y99473D01*
X68440Y99347D01*
X68071Y99230D01*
X67700Y99122D01*
X67326Y99024D01*
X66950Y98935D01*
X66572Y98855D01*
X66192Y98784D01*
X65811Y98722D01*
X65428Y98670D01*
X65044Y98628D01*
X64658Y98595D01*
X64273Y98571D01*
X63886Y98557D01*
X63500Y98552D01*
X63114Y98557D01*
X62727Y98571D01*
X62342Y98595D01*
X61956Y98628D01*
X61572Y98670D01*
X61189Y98722D01*
X60808Y98784D01*
X60428Y98855D01*
X60050Y98935D01*
X59674Y99024D01*
X59300Y99122D01*
X58929Y99230D01*
X58560Y99347D01*
X58195Y99473D01*
X57832Y99607D01*
X57474Y99751D01*
X57118Y99903D01*
X56767Y100064D01*
X56420Y100234D01*
X56076Y100412D01*
X55738Y100598D01*
X55404Y100792D01*
X55075Y100995D01*
X54751Y101206D01*
X54432Y101425D01*
X54119Y101651D01*
X53811Y101885D01*
X53510Y102127D01*
X53214Y102375D01*
X52924Y102632D01*
X52641Y102895D01*
X52364Y103164D01*
X52095Y103441D01*
X51832Y103724D01*
X51575Y104014D01*
X51327Y104310D01*
X51085Y104611D01*
X50851Y104919D01*
X50625Y105232D01*
X50406Y105551D01*
X50195Y105875D01*
X49992Y106204D01*
X49798Y106538D01*
X49612Y106876D01*
X49434Y107220D01*
X49264Y107567D01*
X49103Y107918D01*
X48951Y108274D01*
X48807Y108632D01*
X48673Y108995D01*
X48547Y109360D01*
X48430Y109729D01*
X48322Y110100D01*
X48224Y110474D01*
X48135Y110850D01*
X48055Y111228D01*
X47984Y111608D01*
X47922Y111989D01*
X47870Y112372D01*
X47828Y112756D01*
X47795Y113142D01*
X47771Y113527D01*
X47757Y113914D01*
X47752Y114300D01*
X1020064Y114300D02*
X1020069Y114686D01*
X1020083Y115073D01*
X1020107Y115458D01*
X1020140Y115844D01*
X1020182Y116228D01*
X1020234Y116611D01*
X1020296Y116992D01*
X1020367Y117372D01*
X1020447Y117750D01*
X1020536Y118126D01*
X1020634Y118500D01*
X1020742Y118871D01*
X1020859Y119240D01*
X1020985Y119605D01*
X1021119Y119968D01*
X1021263Y120326D01*
X1021415Y120682D01*
X1021576Y121033D01*
X1021746Y121380D01*
X1021924Y121724D01*
X1022110Y122062D01*
X1022304Y122396D01*
X1022507Y122725D01*
X1022718Y123049D01*
X1022937Y123368D01*
X1023163Y123681D01*
X1023397Y123989D01*
X1023639Y124290D01*
X1023887Y124586D01*
X1024144Y124876D01*
X1024407Y125159D01*
X1024676Y125436D01*
X1024953Y125705D01*
X1025236Y125968D01*
X1025526Y126225D01*
X1025822Y126473D01*
X1026123Y126715D01*
X1026431Y126949D01*
X1026744Y127175D01*
X1027063Y127394D01*
X1027387Y127605D01*
X1027716Y127808D01*
X1028050Y128002D01*
X1028388Y128188D01*
X1028732Y128366D01*
X1029079Y128536D01*
X1029430Y128697D01*
X1029786Y128849D01*
X1030144Y128993D01*
X1030507Y129127D01*
X1030872Y129253D01*
X1031241Y129370D01*
X1031612Y129478D01*
X1031986Y129576D01*
X1032362Y129665D01*
X1032740Y129745D01*
X1033120Y129816D01*
X1033501Y129878D01*
X1033884Y129930D01*
X1034268Y129972D01*
X1034654Y130005D01*
X1035039Y130029D01*
X1035426Y130043D01*
X1035812Y130048D01*
X1036198Y130043D01*
X1036585Y130029D01*
X1036970Y130005D01*
X1037356Y129972D01*
X1037740Y129930D01*
X1038123Y129878D01*
X1038504Y129816D01*
X1038884Y129745D01*
X1039262Y129665D01*
X1039638Y129576D01*
X1040012Y129478D01*
X1040383Y129370D01*
X1040752Y129253D01*
X1041117Y129127D01*
X1041480Y128993D01*
X1041838Y128849D01*
X1042194Y128697D01*
X1042545Y128536D01*
X1042892Y128366D01*
X1043236Y128188D01*
X1043574Y128002D01*
X1043908Y127808D01*
X1044237Y127605D01*
X1044561Y127394D01*
X1044880Y127175D01*
X1045193Y126949D01*
X1045501Y126715D01*
X1045802Y126473D01*
X1046098Y126225D01*
X1046388Y125968D01*
X1046671Y125705D01*
X1046948Y125436D01*
X1047217Y125159D01*
X1047480Y124876D01*
X1047737Y124586D01*
X1047985Y124290D01*
X1048227Y123989D01*
X1048461Y123681D01*
X1048687Y123368D01*
X1048906Y123049D01*
X1049117Y122725D01*
X1049320Y122396D01*
X1049514Y122062D01*
X1049700Y121724D01*
X1049878Y121380D01*
X1050048Y121033D01*
X1050209Y120682D01*
X1050361Y120326D01*
X1050505Y119968D01*
X1050639Y119605D01*
X1050765Y119240D01*
X1050882Y118871D01*
X1050990Y118500D01*
X1051088Y118126D01*
X1051177Y117750D01*
X1051257Y117372D01*
X1051328Y116992D01*
X1051390Y116611D01*
X1051442Y116228D01*
X1051484Y115844D01*
X1051517Y115458D01*
X1051541Y115073D01*
X1051555Y114686D01*
X1051560Y114300D01*
X1051555Y113914D01*
X1051541Y113527D01*
X1051517Y113142D01*
X1051484Y112756D01*
X1051442Y112372D01*
X1051390Y111989D01*
X1051328Y111608D01*
X1051257Y111228D01*
X1051177Y110850D01*
X1051088Y110474D01*
X1050990Y110100D01*
X1050882Y109729D01*
X1050765Y109360D01*
X1050639Y108995D01*
X1050505Y108632D01*
X1050361Y108274D01*
X1050209Y107918D01*
X1050048Y107567D01*
X1049878Y107220D01*
X1049700Y106876D01*
X1049514Y106538D01*
X1049320Y106204D01*
X1049117Y105875D01*
X1048906Y105551D01*
X1048687Y105232D01*
X1048461Y104919D01*
X1048227Y104611D01*
X1047985Y104310D01*
X1047737Y104014D01*
X1047480Y103724D01*
X1047217Y103441D01*
X1046948Y103164D01*
X1046671Y102895D01*
X1046388Y102632D01*
X1046098Y102375D01*
X1045802Y102127D01*
X1045501Y101885D01*
X1045193Y101651D01*
X1044880Y101425D01*
X1044561Y101206D01*
X1044237Y100995D01*
X1043908Y100792D01*
X1043574Y100598D01*
X1043236Y100412D01*
X1042892Y100234D01*
X1042545Y100064D01*
X1042194Y99903D01*
X1041838Y99751D01*
X1041480Y99607D01*
X1041117Y99473D01*
X1040752Y99347D01*
X1040383Y99230D01*
X1040012Y99122D01*
X1039638Y99024D01*
X1039262Y98935D01*
X1038884Y98855D01*
X1038504Y98784D01*
X1038123Y98722D01*
X1037740Y98670D01*
X1037356Y98628D01*
X1036970Y98595D01*
X1036585Y98571D01*
X1036198Y98557D01*
X1035812Y98552D01*
X1035426Y98557D01*
X1035039Y98571D01*
X1034654Y98595D01*
X1034268Y98628D01*
X1033884Y98670D01*
X1033501Y98722D01*
X1033120Y98784D01*
X1032740Y98855D01*
X1032362Y98935D01*
X1031986Y99024D01*
X1031612Y99122D01*
X1031241Y99230D01*
X1030872Y99347D01*
X1030507Y99473D01*
X1030144Y99607D01*
X1029786Y99751D01*
X1029430Y99903D01*
X1029079Y100064D01*
X1028732Y100234D01*
X1028388Y100412D01*
X1028050Y100598D01*
X1027716Y100792D01*
X1027387Y100995D01*
X1027063Y101206D01*
X1026744Y101425D01*
X1026431Y101651D01*
X1026123Y101885D01*
X1025822Y102127D01*
X1025526Y102375D01*
X1025236Y102632D01*
X1024953Y102895D01*
X1024676Y103164D01*
X1024407Y103441D01*
X1024144Y103724D01*
X1023887Y104014D01*
X1023639Y104310D01*
X1023397Y104611D01*
X1023163Y104919D01*
X1022937Y105232D01*
X1022718Y105551D01*
X1022507Y105875D01*
X1022304Y106204D01*
X1022110Y106538D01*
X1021924Y106876D01*
X1021746Y107220D01*
X1021576Y107567D01*
X1021415Y107918D01*
X1021263Y108274D01*
X1021119Y108632D01*
X1020985Y108995D01*
X1020859Y109360D01*
X1020742Y109729D01*
X1020634Y110100D01*
X1020536Y110474D01*
X1020447Y110850D01*
X1020367Y111228D01*
X1020296Y111608D01*
X1020234Y111989D01*
X1020182Y112372D01*
X1020140Y112756D01*
X1020107Y113142D01*
X1020083Y113527D01*
X1020069Y113914D01*
X1020064Y114300D01*
X19812Y177800D02*
X19817Y178236D01*
X19833Y178672D01*
X19860Y179108D01*
X19898Y179543D01*
X19946Y179976D01*
X20004Y180409D01*
X20074Y180840D01*
X20154Y181269D01*
X20244Y181696D01*
X20345Y182120D01*
X20456Y182542D01*
X20578Y182961D01*
X20709Y183377D01*
X20851Y183790D01*
X21003Y184199D01*
X21165Y184604D01*
X21337Y185005D01*
X21519Y185402D01*
X21710Y185794D01*
X21911Y186181D01*
X22122Y186564D01*
X22342Y186941D01*
X22571Y187312D01*
X22808Y187678D01*
X23055Y188038D01*
X23311Y188392D01*
X23575Y188739D01*
X23848Y189080D01*
X24129Y189413D01*
X24418Y189740D01*
X24715Y190060D01*
X25020Y190372D01*
X25332Y190677D01*
X25652Y190974D01*
X25979Y191263D01*
X26312Y191544D01*
X26653Y191817D01*
X27000Y192081D01*
X27354Y192337D01*
X27714Y192584D01*
X28080Y192821D01*
X28451Y193050D01*
X28828Y193270D01*
X29211Y193481D01*
X29598Y193682D01*
X29990Y193873D01*
X30387Y194055D01*
X30788Y194227D01*
X31193Y194389D01*
X31602Y194541D01*
X32015Y194683D01*
X32431Y194814D01*
X32850Y194936D01*
X33272Y195047D01*
X33696Y195148D01*
X34123Y195238D01*
X34552Y195318D01*
X34983Y195388D01*
X35416Y195446D01*
X35849Y195494D01*
X36284Y195532D01*
X36720Y195559D01*
X37156Y195575D01*
X37592Y195580D01*
X38028Y195575D01*
X38464Y195559D01*
X38900Y195532D01*
X39335Y195494D01*
X39768Y195446D01*
X40201Y195388D01*
X40632Y195318D01*
X41061Y195238D01*
X41488Y195148D01*
X41912Y195047D01*
X42334Y194936D01*
X42753Y194814D01*
X43169Y194683D01*
X43582Y194541D01*
X43991Y194389D01*
X44396Y194227D01*
X44797Y194055D01*
X45194Y193873D01*
X45586Y193682D01*
X45973Y193481D01*
X46356Y193270D01*
X46733Y193050D01*
X47104Y192821D01*
X47470Y192584D01*
X47830Y192337D01*
X48184Y192081D01*
X48531Y191817D01*
X48872Y191544D01*
X49205Y191263D01*
X49532Y190974D01*
X49852Y190677D01*
X50164Y190372D01*
X50469Y190060D01*
X50766Y189740D01*
X51055Y189413D01*
X51336Y189080D01*
X51609Y188739D01*
X51873Y188392D01*
X52129Y188038D01*
X52376Y187678D01*
X52613Y187312D01*
X52842Y186941D01*
X53062Y186564D01*
X53273Y186181D01*
X53474Y185794D01*
X53665Y185402D01*
X53847Y185005D01*
X54019Y184604D01*
X54181Y184199D01*
X54333Y183790D01*
X54475Y183377D01*
X54606Y182961D01*
X54728Y182542D01*
X54839Y182120D01*
X54940Y181696D01*
X55030Y181269D01*
X55110Y180840D01*
X55180Y180409D01*
X55238Y179976D01*
X55286Y179543D01*
X55324Y179108D01*
X55351Y178672D01*
X55367Y178236D01*
X55372Y177800D01*
X55367Y177364D01*
X55351Y176928D01*
X55324Y176492D01*
X55286Y176057D01*
X55238Y175624D01*
X55180Y175191D01*
X55110Y174760D01*
X55030Y174331D01*
X54940Y173904D01*
X54839Y173480D01*
X54728Y173058D01*
X54606Y172639D01*
X54475Y172223D01*
X54333Y171810D01*
X54181Y171401D01*
X54019Y170996D01*
X53847Y170595D01*
X53665Y170198D01*
X53474Y169806D01*
X53273Y169419D01*
X53062Y169036D01*
X52842Y168659D01*
X52613Y168288D01*
X52376Y167922D01*
X52129Y167562D01*
X51873Y167208D01*
X51609Y166861D01*
X51336Y166520D01*
X51055Y166187D01*
X50766Y165860D01*
X50469Y165540D01*
X50164Y165228D01*
X49852Y164923D01*
X49532Y164626D01*
X49205Y164337D01*
X48872Y164056D01*
X48531Y163783D01*
X48184Y163519D01*
X47830Y163263D01*
X47470Y163016D01*
X47104Y162779D01*
X46733Y162550D01*
X46356Y162330D01*
X45973Y162119D01*
X45586Y161918D01*
X45194Y161727D01*
X44797Y161545D01*
X44396Y161373D01*
X43991Y161211D01*
X43582Y161059D01*
X43169Y160917D01*
X42753Y160786D01*
X42334Y160664D01*
X41912Y160553D01*
X41488Y160452D01*
X41061Y160362D01*
X40632Y160282D01*
X40201Y160212D01*
X39768Y160154D01*
X39335Y160106D01*
X38900Y160068D01*
X38464Y160041D01*
X38028Y160025D01*
X37592Y160020D01*
X37156Y160025D01*
X36720Y160041D01*
X36284Y160068D01*
X35849Y160106D01*
X35416Y160154D01*
X34983Y160212D01*
X34552Y160282D01*
X34123Y160362D01*
X33696Y160452D01*
X33272Y160553D01*
X32850Y160664D01*
X32431Y160786D01*
X32015Y160917D01*
X31602Y161059D01*
X31193Y161211D01*
X30788Y161373D01*
X30387Y161545D01*
X29990Y161727D01*
X29598Y161918D01*
X29211Y162119D01*
X28828Y162330D01*
X28451Y162550D01*
X28080Y162779D01*
X27714Y163016D01*
X27354Y163263D01*
X27000Y163519D01*
X26653Y163783D01*
X26312Y164056D01*
X25979Y164337D01*
X25652Y164626D01*
X25332Y164923D01*
X25020Y165228D01*
X24715Y165540D01*
X24418Y165860D01*
X24129Y166187D01*
X23848Y166520D01*
X23575Y166861D01*
X23311Y167208D01*
X23055Y167562D01*
X22808Y167922D01*
X22571Y168288D01*
X22342Y168659D01*
X22122Y169036D01*
X21911Y169419D01*
X21710Y169806D01*
X21519Y170198D01*
X21337Y170595D01*
X21165Y170996D01*
X21003Y171401D01*
X20851Y171810D01*
X20709Y172223D01*
X20578Y172639D01*
X20456Y173058D01*
X20345Y173480D01*
X20244Y173904D01*
X20154Y174331D01*
X20074Y174760D01*
X20004Y175191D01*
X19946Y175624D01*
X19898Y176057D01*
X19860Y176492D01*
X19833Y176928D01*
X19817Y177364D01*
X19812Y177800D01*
X1042924Y177800D02*
X1042929Y178236D01*
X1042945Y178672D01*
X1042972Y179108D01*
X1043010Y179543D01*
X1043058Y179976D01*
X1043116Y180409D01*
X1043186Y180840D01*
X1043266Y181269D01*
X1043356Y181696D01*
X1043457Y182120D01*
X1043568Y182542D01*
X1043690Y182961D01*
X1043821Y183377D01*
X1043963Y183790D01*
X1044115Y184199D01*
X1044277Y184604D01*
X1044449Y185005D01*
X1044631Y185402D01*
X1044822Y185794D01*
X1045023Y186181D01*
X1045234Y186564D01*
X1045454Y186941D01*
X1045683Y187312D01*
X1045920Y187678D01*
X1046167Y188038D01*
X1046423Y188392D01*
X1046687Y188739D01*
X1046960Y189080D01*
X1047241Y189413D01*
X1047530Y189740D01*
X1047827Y190060D01*
X1048132Y190372D01*
X1048444Y190677D01*
X1048764Y190974D01*
X1049091Y191263D01*
X1049424Y191544D01*
X1049765Y191817D01*
X1050112Y192081D01*
X1050466Y192337D01*
X1050826Y192584D01*
X1051192Y192821D01*
X1051563Y193050D01*
X1051940Y193270D01*
X1052323Y193481D01*
X1052710Y193682D01*
X1053102Y193873D01*
X1053499Y194055D01*
X1053900Y194227D01*
X1054305Y194389D01*
X1054714Y194541D01*
X1055127Y194683D01*
X1055543Y194814D01*
X1055962Y194936D01*
X1056384Y195047D01*
X1056808Y195148D01*
X1057235Y195238D01*
X1057664Y195318D01*
X1058095Y195388D01*
X1058528Y195446D01*
X1058961Y195494D01*
X1059396Y195532D01*
X1059832Y195559D01*
X1060268Y195575D01*
X1060704Y195580D01*
X1061140Y195575D01*
X1061576Y195559D01*
X1062012Y195532D01*
X1062447Y195494D01*
X1062880Y195446D01*
X1063313Y195388D01*
X1063744Y195318D01*
X1064173Y195238D01*
X1064600Y195148D01*
X1065024Y195047D01*
X1065446Y194936D01*
X1065865Y194814D01*
X1066281Y194683D01*
X1066694Y194541D01*
X1067103Y194389D01*
X1067508Y194227D01*
X1067909Y194055D01*
X1068306Y193873D01*
X1068698Y193682D01*
X1069085Y193481D01*
X1069468Y193270D01*
X1069845Y193050D01*
X1070216Y192821D01*
X1070582Y192584D01*
X1070942Y192337D01*
X1071296Y192081D01*
X1071643Y191817D01*
X1071984Y191544D01*
X1072317Y191263D01*
X1072644Y190974D01*
X1072964Y190677D01*
X1073276Y190372D01*
X1073581Y190060D01*
X1073878Y189740D01*
X1074167Y189413D01*
X1074448Y189080D01*
X1074721Y188739D01*
X1074985Y188392D01*
X1075241Y188038D01*
X1075488Y187678D01*
X1075725Y187312D01*
X1075954Y186941D01*
X1076174Y186564D01*
X1076385Y186181D01*
X1076586Y185794D01*
X1076777Y185402D01*
X1076959Y185005D01*
X1077131Y184604D01*
X1077293Y184199D01*
X1077445Y183790D01*
X1077587Y183377D01*
X1077718Y182961D01*
X1077840Y182542D01*
X1077951Y182120D01*
X1078052Y181696D01*
X1078142Y181269D01*
X1078222Y180840D01*
X1078292Y180409D01*
X1078350Y179976D01*
X1078398Y179543D01*
X1078436Y179108D01*
X1078463Y178672D01*
X1078479Y178236D01*
X1078484Y177800D01*
X1078479Y177364D01*
X1078463Y176928D01*
X1078436Y176492D01*
X1078398Y176057D01*
X1078350Y175624D01*
X1078292Y175191D01*
X1078222Y174760D01*
X1078142Y174331D01*
X1078052Y173904D01*
X1077951Y173480D01*
X1077840Y173058D01*
X1077718Y172639D01*
X1077587Y172223D01*
X1077445Y171810D01*
X1077293Y171401D01*
X1077131Y170996D01*
X1076959Y170595D01*
X1076777Y170198D01*
X1076586Y169806D01*
X1076385Y169419D01*
X1076174Y169036D01*
X1075954Y168659D01*
X1075725Y168288D01*
X1075488Y167922D01*
X1075241Y167562D01*
X1074985Y167208D01*
X1074721Y166861D01*
X1074448Y166520D01*
X1074167Y166187D01*
X1073878Y165860D01*
X1073581Y165540D01*
X1073276Y165228D01*
X1072964Y164923D01*
X1072644Y164626D01*
X1072317Y164337D01*
X1071984Y164056D01*
X1071643Y163783D01*
X1071296Y163519D01*
X1070942Y163263D01*
X1070582Y163016D01*
X1070216Y162779D01*
X1069845Y162550D01*
X1069468Y162330D01*
X1069085Y162119D01*
X1068698Y161918D01*
X1068306Y161727D01*
X1067909Y161545D01*
X1067508Y161373D01*
X1067103Y161211D01*
X1066694Y161059D01*
X1066281Y160917D01*
X1065865Y160786D01*
X1065446Y160664D01*
X1065024Y160553D01*
X1064600Y160452D01*
X1064173Y160362D01*
X1063744Y160282D01*
X1063313Y160212D01*
X1062880Y160154D01*
X1062447Y160106D01*
X1062012Y160068D01*
X1061576Y160041D01*
X1061140Y160025D01*
X1060704Y160020D01*
X1060268Y160025D01*
X1059832Y160041D01*
X1059396Y160068D01*
X1058961Y160106D01*
X1058528Y160154D01*
X1058095Y160212D01*
X1057664Y160282D01*
X1057235Y160362D01*
X1056808Y160452D01*
X1056384Y160553D01*
X1055962Y160664D01*
X1055543Y160786D01*
X1055127Y160917D01*
X1054714Y161059D01*
X1054305Y161211D01*
X1053900Y161373D01*
X1053499Y161545D01*
X1053102Y161727D01*
X1052710Y161918D01*
X1052323Y162119D01*
X1051940Y162330D01*
X1051563Y162550D01*
X1051192Y162779D01*
X1050826Y163016D01*
X1050466Y163263D01*
X1050112Y163519D01*
X1049765Y163783D01*
X1049424Y164056D01*
X1049091Y164337D01*
X1048764Y164626D01*
X1048444Y164923D01*
X1048132Y165228D01*
X1047827Y165540D01*
X1047530Y165860D01*
X1047241Y166187D01*
X1046960Y166520D01*
X1046687Y166861D01*
X1046423Y167208D01*
X1046167Y167562D01*
X1045920Y167922D01*
X1045683Y168288D01*
X1045454Y168659D01*
X1045234Y169036D01*
X1045023Y169419D01*
X1044822Y169806D01*
X1044631Y170198D01*
X1044449Y170595D01*
X1044277Y170996D01*
X1044115Y171401D01*
X1043963Y171810D01*
X1043821Y172223D01*
X1043690Y172639D01*
X1043568Y173058D01*
X1043457Y173480D01*
X1043356Y173904D01*
X1043266Y174331D01*
X1043186Y174760D01*
X1043116Y175191D01*
X1043058Y175624D01*
X1043010Y176057D01*
X1042972Y176492D01*
X1042945Y176928D01*
X1042929Y177364D01*
X1042924Y177800D01*
X19812Y50800D02*
X19817Y51236D01*
X19833Y51672D01*
X19860Y52108D01*
X19898Y52543D01*
X19946Y52976D01*
X20004Y53409D01*
X20074Y53840D01*
X20154Y54269D01*
X20244Y54696D01*
X20345Y55120D01*
X20456Y55542D01*
X20578Y55961D01*
X20709Y56377D01*
X20851Y56790D01*
X21003Y57199D01*
X21165Y57604D01*
X21337Y58005D01*
X21519Y58402D01*
X21710Y58794D01*
X21911Y59181D01*
X22122Y59564D01*
X22342Y59941D01*
X22571Y60312D01*
X22808Y60678D01*
X23055Y61038D01*
X23311Y61392D01*
X23575Y61739D01*
X23848Y62080D01*
X24129Y62413D01*
X24418Y62740D01*
X24715Y63060D01*
X25020Y63372D01*
X25332Y63677D01*
X25652Y63974D01*
X25979Y64263D01*
X26312Y64544D01*
X26653Y64817D01*
X27000Y65081D01*
X27354Y65337D01*
X27714Y65584D01*
X28080Y65821D01*
X28451Y66050D01*
X28828Y66270D01*
X29211Y66481D01*
X29598Y66682D01*
X29990Y66873D01*
X30387Y67055D01*
X30788Y67227D01*
X31193Y67389D01*
X31602Y67541D01*
X32015Y67683D01*
X32431Y67814D01*
X32850Y67936D01*
X33272Y68047D01*
X33696Y68148D01*
X34123Y68238D01*
X34552Y68318D01*
X34983Y68388D01*
X35416Y68446D01*
X35849Y68494D01*
X36284Y68532D01*
X36720Y68559D01*
X37156Y68575D01*
X37592Y68580D01*
X38028Y68575D01*
X38464Y68559D01*
X38900Y68532D01*
X39335Y68494D01*
X39768Y68446D01*
X40201Y68388D01*
X40632Y68318D01*
X41061Y68238D01*
X41488Y68148D01*
X41912Y68047D01*
X42334Y67936D01*
X42753Y67814D01*
X43169Y67683D01*
X43582Y67541D01*
X43991Y67389D01*
X44396Y67227D01*
X44797Y67055D01*
X45194Y66873D01*
X45586Y66682D01*
X45973Y66481D01*
X46356Y66270D01*
X46733Y66050D01*
X47104Y65821D01*
X47470Y65584D01*
X47830Y65337D01*
X48184Y65081D01*
X48531Y64817D01*
X48872Y64544D01*
X49205Y64263D01*
X49532Y63974D01*
X49852Y63677D01*
X50164Y63372D01*
X50469Y63060D01*
X50766Y62740D01*
X51055Y62413D01*
X51336Y62080D01*
X51609Y61739D01*
X51873Y61392D01*
X52129Y61038D01*
X52376Y60678D01*
X52613Y60312D01*
X52842Y59941D01*
X53062Y59564D01*
X53273Y59181D01*
X53474Y58794D01*
X53665Y58402D01*
X53847Y58005D01*
X54019Y57604D01*
X54181Y57199D01*
X54333Y56790D01*
X54475Y56377D01*
X54606Y55961D01*
X54728Y55542D01*
X54839Y55120D01*
X54940Y54696D01*
X55030Y54269D01*
X55110Y53840D01*
X55180Y53409D01*
X55238Y52976D01*
X55286Y52543D01*
X55324Y52108D01*
X55351Y51672D01*
X55367Y51236D01*
X55372Y50800D01*
X55367Y50364D01*
X55351Y49928D01*
X55324Y49492D01*
X55286Y49057D01*
X55238Y48624D01*
X55180Y48191D01*
X55110Y47760D01*
X55030Y47331D01*
X54940Y46904D01*
X54839Y46480D01*
X54728Y46058D01*
X54606Y45639D01*
X54475Y45223D01*
X54333Y44810D01*
X54181Y44401D01*
X54019Y43996D01*
X53847Y43595D01*
X53665Y43198D01*
X53474Y42806D01*
X53273Y42419D01*
X53062Y42036D01*
X52842Y41659D01*
X52613Y41288D01*
X52376Y40922D01*
X52129Y40562D01*
X51873Y40208D01*
X51609Y39861D01*
X51336Y39520D01*
X51055Y39187D01*
X50766Y38860D01*
X50469Y38540D01*
X50164Y38228D01*
X49852Y37923D01*
X49532Y37626D01*
X49205Y37337D01*
X48872Y37056D01*
X48531Y36783D01*
X48184Y36519D01*
X47830Y36263D01*
X47470Y36016D01*
X47104Y35779D01*
X46733Y35550D01*
X46356Y35330D01*
X45973Y35119D01*
X45586Y34918D01*
X45194Y34727D01*
X44797Y34545D01*
X44396Y34373D01*
X43991Y34211D01*
X43582Y34059D01*
X43169Y33917D01*
X42753Y33786D01*
X42334Y33664D01*
X41912Y33553D01*
X41488Y33452D01*
X41061Y33362D01*
X40632Y33282D01*
X40201Y33212D01*
X39768Y33154D01*
X39335Y33106D01*
X38900Y33068D01*
X38464Y33041D01*
X38028Y33025D01*
X37592Y33020D01*
X37156Y33025D01*
X36720Y33041D01*
X36284Y33068D01*
X35849Y33106D01*
X35416Y33154D01*
X34983Y33212D01*
X34552Y33282D01*
X34123Y33362D01*
X33696Y33452D01*
X33272Y33553D01*
X32850Y33664D01*
X32431Y33786D01*
X32015Y33917D01*
X31602Y34059D01*
X31193Y34211D01*
X30788Y34373D01*
X30387Y34545D01*
X29990Y34727D01*
X29598Y34918D01*
X29211Y35119D01*
X28828Y35330D01*
X28451Y35550D01*
X28080Y35779D01*
X27714Y36016D01*
X27354Y36263D01*
X27000Y36519D01*
X26653Y36783D01*
X26312Y37056D01*
X25979Y37337D01*
X25652Y37626D01*
X25332Y37923D01*
X25020Y38228D01*
X24715Y38540D01*
X24418Y38860D01*
X24129Y39187D01*
X23848Y39520D01*
X23575Y39861D01*
X23311Y40208D01*
X23055Y40562D01*
X22808Y40922D01*
X22571Y41288D01*
X22342Y41659D01*
X22122Y42036D01*
X21911Y42419D01*
X21710Y42806D01*
X21519Y43198D01*
X21337Y43595D01*
X21165Y43996D01*
X21003Y44401D01*
X20851Y44810D01*
X20709Y45223D01*
X20578Y45639D01*
X20456Y46058D01*
X20345Y46480D01*
X20244Y46904D01*
X20154Y47331D01*
X20074Y47760D01*
X20004Y48191D01*
X19946Y48624D01*
X19898Y49057D01*
X19860Y49492D01*
X19833Y49928D01*
X19817Y50364D01*
X19812Y50800D01*
X1042924Y50800D02*
X1042929Y51236D01*
X1042945Y51672D01*
X1042972Y52108D01*
X1043010Y52543D01*
X1043058Y52976D01*
X1043116Y53409D01*
X1043186Y53840D01*
X1043266Y54269D01*
X1043356Y54696D01*
X1043457Y55120D01*
X1043568Y55542D01*
X1043690Y55961D01*
X1043821Y56377D01*
X1043963Y56790D01*
X1044115Y57199D01*
X1044277Y57604D01*
X1044449Y58005D01*
X1044631Y58402D01*
X1044822Y58794D01*
X1045023Y59181D01*
X1045234Y59564D01*
X1045454Y59941D01*
X1045683Y60312D01*
X1045920Y60678D01*
X1046167Y61038D01*
X1046423Y61392D01*
X1046687Y61739D01*
X1046960Y62080D01*
X1047241Y62413D01*
X1047530Y62740D01*
X1047827Y63060D01*
X1048132Y63372D01*
X1048444Y63677D01*
X1048764Y63974D01*
X1049091Y64263D01*
X1049424Y64544D01*
X1049765Y64817D01*
X1050112Y65081D01*
X1050466Y65337D01*
X1050826Y65584D01*
X1051192Y65821D01*
X1051563Y66050D01*
X1051940Y66270D01*
X1052323Y66481D01*
X1052710Y66682D01*
X1053102Y66873D01*
X1053499Y67055D01*
X1053900Y67227D01*
X1054305Y67389D01*
X1054714Y67541D01*
X1055127Y67683D01*
X1055543Y67814D01*
X1055962Y67936D01*
X1056384Y68047D01*
X1056808Y68148D01*
X1057235Y68238D01*
X1057664Y68318D01*
X1058095Y68388D01*
X1058528Y68446D01*
X1058961Y68494D01*
X1059396Y68532D01*
X1059832Y68559D01*
X1060268Y68575D01*
X1060704Y68580D01*
X1061140Y68575D01*
X1061576Y68559D01*
X1062012Y68532D01*
X1062447Y68494D01*
X1062880Y68446D01*
X1063313Y68388D01*
X1063744Y68318D01*
X1064173Y68238D01*
X1064600Y68148D01*
X1065024Y68047D01*
X1065446Y67936D01*
X1065865Y67814D01*
X1066281Y67683D01*
X1066694Y67541D01*
X1067103Y67389D01*
X1067508Y67227D01*
X1067909Y67055D01*
X1068306Y66873D01*
X1068698Y66682D01*
X1069085Y66481D01*
X1069468Y66270D01*
X1069845Y66050D01*
X1070216Y65821D01*
X1070582Y65584D01*
X1070942Y65337D01*
X1071296Y65081D01*
X1071643Y64817D01*
X1071984Y64544D01*
X1072317Y64263D01*
X1072644Y63974D01*
X1072964Y63677D01*
X1073276Y63372D01*
X1073581Y63060D01*
X1073878Y62740D01*
X1074167Y62413D01*
X1074448Y62080D01*
X1074721Y61739D01*
X1074985Y61392D01*
X1075241Y61038D01*
X1075488Y60678D01*
X1075725Y60312D01*
X1075954Y59941D01*
X1076174Y59564D01*
X1076385Y59181D01*
X1076586Y58794D01*
X1076777Y58402D01*
X1076959Y58005D01*
X1077131Y57604D01*
X1077293Y57199D01*
X1077445Y56790D01*
X1077587Y56377D01*
X1077718Y55961D01*
X1077840Y55542D01*
X1077951Y55120D01*
X1078052Y54696D01*
X1078142Y54269D01*
X1078222Y53840D01*
X1078292Y53409D01*
X1078350Y52976D01*
X1078398Y52543D01*
X1078436Y52108D01*
X1078463Y51672D01*
X1078479Y51236D01*
X1078484Y50800D01*
X1078479Y50364D01*
X1078463Y49928D01*
X1078436Y49492D01*
X1078398Y49057D01*
X1078350Y48624D01*
X1078292Y48191D01*
X1078222Y47760D01*
X1078142Y47331D01*
X1078052Y46904D01*
X1077951Y46480D01*
X1077840Y46058D01*
X1077718Y45639D01*
X1077587Y45223D01*
X1077445Y44810D01*
X1077293Y44401D01*
X1077131Y43996D01*
X1076959Y43595D01*
X1076777Y43198D01*
X1076586Y42806D01*
X1076385Y42419D01*
X1076174Y42036D01*
X1075954Y41659D01*
X1075725Y41288D01*
X1075488Y40922D01*
X1075241Y40562D01*
X1074985Y40208D01*
X1074721Y39861D01*
X1074448Y39520D01*
X1074167Y39187D01*
X1073878Y38860D01*
X1073581Y38540D01*
X1073276Y38228D01*
X1072964Y37923D01*
X1072644Y37626D01*
X1072317Y37337D01*
X1071984Y37056D01*
X1071643Y36783D01*
X1071296Y36519D01*
X1070942Y36263D01*
X1070582Y36016D01*
X1070216Y35779D01*
X1069845Y35550D01*
X1069468Y35330D01*
X1069085Y35119D01*
X1068698Y34918D01*
X1068306Y34727D01*
X1067909Y34545D01*
X1067508Y34373D01*
X1067103Y34211D01*
X1066694Y34059D01*
X1066281Y33917D01*
X1065865Y33786D01*
X1065446Y33664D01*
X1065024Y33553D01*
X1064600Y33452D01*
X1064173Y33362D01*
X1063744Y33282D01*
X1063313Y33212D01*
X1062880Y33154D01*
X1062447Y33106D01*
X1062012Y33068D01*
X1061576Y33041D01*
X1061140Y33025D01*
X1060704Y33020D01*
X1060268Y33025D01*
X1059832Y33041D01*
X1059396Y33068D01*
X1058961Y33106D01*
X1058528Y33154D01*
X1058095Y33212D01*
X1057664Y33282D01*
X1057235Y33362D01*
X1056808Y33452D01*
X1056384Y33553D01*
X1055962Y33664D01*
X1055543Y33786D01*
X1055127Y33917D01*
X1054714Y34059D01*
X1054305Y34211D01*
X1053900Y34373D01*
X1053499Y34545D01*
X1053102Y34727D01*
X1052710Y34918D01*
X1052323Y35119D01*
X1051940Y35330D01*
X1051563Y35550D01*
X1051192Y35779D01*
X1050826Y36016D01*
X1050466Y36263D01*
X1050112Y36519D01*
X1049765Y36783D01*
X1049424Y37056D01*
X1049091Y37337D01*
X1048764Y37626D01*
X1048444Y37923D01*
X1048132Y38228D01*
X1047827Y38540D01*
X1047530Y38860D01*
X1047241Y39187D01*
X1046960Y39520D01*
X1046687Y39861D01*
X1046423Y40208D01*
X1046167Y40562D01*
X1045920Y40922D01*
X1045683Y41288D01*
X1045454Y41659D01*
X1045234Y42036D01*
X1045023Y42419D01*
X1044822Y42806D01*
X1044631Y43198D01*
X1044449Y43595D01*
X1044277Y43996D01*
X1044115Y44401D01*
X1043963Y44810D01*
X1043821Y45223D01*
X1043690Y45639D01*
X1043568Y46058D01*
X1043457Y46480D01*
X1043356Y46904D01*
X1043266Y47331D01*
X1043186Y47760D01*
X1043116Y48191D01*
X1043058Y48624D01*
X1043010Y49057D01*
X1042972Y49492D01*
X1042945Y49928D01*
X1042929Y50364D01*
X1042924Y50800D01*
D11*
X0Y0D02*
X1099312Y0D01*
X1099312Y228600D01*
X0Y228600D01*
X0Y0D01*
X79248Y113784D02*
X79181Y112756D01*
X79046Y111733D01*
X78845Y110722D01*
X78578Y109726D01*
X78247Y108750D01*
X77852Y107797D01*
X77396Y106872D01*
X76880Y105980D01*
X76308Y105122D01*
X75680Y104304D01*
X75000Y103529D01*
X74271Y102800D01*
X73496Y102120D01*
X72678Y101492D01*
X71820Y100920D01*
X70928Y100404D01*
X70003Y99948D01*
X69050Y99553D01*
X68074Y99222D01*
X67078Y98955D01*
X66067Y98754D01*
X65044Y98619D01*
X64016Y98552D01*
X62984Y98552D01*
X61956Y98619D01*
X60933Y98754D01*
X59922Y98955D01*
X58926Y99222D01*
X57950Y99553D01*
X56997Y99948D01*
X56072Y100404D01*
X55180Y100920D01*
X54322Y101492D01*
X53504Y102120D01*
X52729Y102800D01*
X52000Y103529D01*
X51320Y104304D01*
X50692Y105122D01*
X50120Y105980D01*
X49604Y106872D01*
X49148Y107797D01*
X48753Y108750D01*
X48422Y109726D01*
X48155Y110722D01*
X47954Y111733D01*
X47819Y112756D01*
X47752Y113784D01*
X47752Y114816D01*
X47819Y115844D01*
X47954Y116867D01*
X48155Y117878D01*
X48422Y118874D01*
X48753Y119850D01*
X49148Y120803D01*
X49604Y121728D01*
X50120Y122620D01*
X50692Y123478D01*
X51320Y124296D01*
X52000Y125071D01*
X52729Y125800D01*
X53504Y126480D01*
X54322Y127108D01*
X55180Y127680D01*
X56072Y128196D01*
X56997Y128652D01*
X57950Y129047D01*
X58926Y129378D01*
X59922Y129645D01*
X60933Y129846D01*
X61956Y129981D01*
X62984Y130048D01*
X64016Y130048D01*
X65044Y129981D01*
X66067Y129846D01*
X67078Y129645D01*
X68074Y129378D01*
X69050Y129047D01*
X70003Y128652D01*
X70928Y128196D01*
X71820Y127680D01*
X72678Y127108D01*
X73496Y126480D01*
X74271Y125800D01*
X75000Y125071D01*
X75680Y124296D01*
X76308Y123478D01*
X76880Y122620D01*
X77396Y121728D01*
X77852Y120803D01*
X78247Y119850D01*
X78578Y118874D01*
X78845Y117878D01*
X79046Y116867D01*
X79181Y115844D01*
X79248Y114816D01*
X79248Y113784D01*
X1051560Y113784D02*
X1051493Y112756D01*
X1051358Y111733D01*
X1051157Y110722D01*
X1050890Y109726D01*
X1050559Y108750D01*
X1050164Y107797D01*
X1049708Y106872D01*
X1049192Y105980D01*
X1048620Y105122D01*
X1047992Y104304D01*
X1047312Y103529D01*
X1046583Y102800D01*
X1045808Y102120D01*
X1044990Y101492D01*
X1044132Y100920D01*
X1043240Y100404D01*
X1042315Y99948D01*
X1041362Y99553D01*
X1040386Y99222D01*
X1039390Y98955D01*
X1038379Y98754D01*
X1037356Y98619D01*
X1036328Y98552D01*
X1035296Y98552D01*
X1034268Y98619D01*
X1033245Y98754D01*
X1032234Y98955D01*
X1031238Y99222D01*
X1030262Y99553D01*
X1029309Y99948D01*
X1028384Y100404D01*
X1027492Y100920D01*
X1026634Y101492D01*
X1025816Y102120D01*
X1025041Y102800D01*
X1024312Y103529D01*
X1023632Y104304D01*
X1023004Y105122D01*
X1022432Y105980D01*
X1021916Y106872D01*
X1021460Y107797D01*
X1021065Y108750D01*
X1020734Y109726D01*
X1020467Y110722D01*
X1020266Y111733D01*
X1020131Y112756D01*
X1020064Y113784D01*
X1020064Y114816D01*
X1020131Y115844D01*
X1020266Y116867D01*
X1020467Y117878D01*
X1020734Y118874D01*
X1021065Y119850D01*
X1021460Y120803D01*
X1021916Y121728D01*
X1022432Y122620D01*
X1023004Y123478D01*
X1023632Y124296D01*
X1024312Y125071D01*
X1025041Y125800D01*
X1025816Y126480D01*
X1026634Y127108D01*
X1027492Y127680D01*
X1028384Y128196D01*
X1029309Y128652D01*
X1030262Y129047D01*
X1031238Y129378D01*
X1032234Y129645D01*
X1033245Y129846D01*
X1034268Y129981D01*
X1035296Y130048D01*
X1036328Y130048D01*
X1037356Y129981D01*
X1038379Y129846D01*
X1039390Y129645D01*
X1040386Y129378D01*
X1041362Y129047D01*
X1042315Y128652D01*
X1043240Y128196D01*
X1044132Y127680D01*
X1044990Y127108D01*
X1045808Y126480D01*
X1046583Y125800D01*
X1047312Y125071D01*
X1047992Y124296D01*
X1048620Y123478D01*
X1049192Y122620D01*
X1049708Y121728D01*
X1050164Y120803D01*
X1050559Y119850D01*
X1050890Y118874D01*
X1051157Y117878D01*
X1051358Y116867D01*
X1051493Y115844D01*
X1051560Y114816D01*
X1051560Y113784D01*
X55372Y177218D02*
X55296Y176056D01*
X55144Y174902D01*
X54917Y173760D01*
X54616Y172636D01*
X54241Y171534D01*
X53796Y170458D01*
X53281Y169414D01*
X52699Y168406D01*
X52052Y167438D01*
X51344Y166514D01*
X50576Y165639D01*
X49753Y164816D01*
X48878Y164049D01*
X47954Y163340D01*
X46986Y162693D01*
X45978Y162111D01*
X44934Y161596D01*
X43858Y161151D01*
X42756Y160777D01*
X41632Y160475D01*
X40490Y160248D01*
X39336Y160096D01*
X38174Y160020D01*
X37010Y160020D01*
X35848Y160096D01*
X34694Y160248D01*
X33552Y160475D01*
X32428Y160777D01*
X31326Y161151D01*
X30250Y161596D01*
X29206Y162111D01*
X28198Y162693D01*
X27230Y163340D01*
X26306Y164049D01*
X25431Y164816D01*
X24608Y165639D01*
X23841Y166514D01*
X23132Y167438D01*
X22485Y168406D01*
X21903Y169414D01*
X21388Y170458D01*
X20943Y171534D01*
X20569Y172636D01*
X20267Y173760D01*
X20040Y174902D01*
X19888Y176056D01*
X19812Y177218D01*
X19812Y178382D01*
X19888Y179544D01*
X20040Y180698D01*
X20267Y181840D01*
X20569Y182964D01*
X20943Y184066D01*
X21388Y185142D01*
X21903Y186186D01*
X22485Y187194D01*
X23132Y188162D01*
X23841Y189086D01*
X24608Y189961D01*
X25431Y190784D01*
X26306Y191552D01*
X27230Y192260D01*
X28198Y192907D01*
X29206Y193489D01*
X30250Y194004D01*
X31326Y194449D01*
X32428Y194824D01*
X33552Y195125D01*
X34694Y195352D01*
X35848Y195504D01*
X37010Y195580D01*
X38174Y195580D01*
X39336Y195504D01*
X40490Y195352D01*
X41632Y195125D01*
X42756Y194824D01*
X43858Y194449D01*
X44934Y194004D01*
X45978Y193489D01*
X46986Y192907D01*
X47954Y192260D01*
X48878Y191552D01*
X49753Y190784D01*
X50576Y189961D01*
X51344Y189086D01*
X52052Y188162D01*
X52699Y187194D01*
X53281Y186186D01*
X53796Y185142D01*
X54241Y184066D01*
X54616Y182964D01*
X54917Y181840D01*
X55144Y180698D01*
X55296Y179544D01*
X55372Y178382D01*
X55372Y177218D01*
X1078484Y177218D02*
X1078408Y176056D01*
X1078256Y174902D01*
X1078029Y173760D01*
X1077728Y172636D01*
X1077353Y171534D01*
X1076908Y170458D01*
X1076393Y169414D01*
X1075811Y168406D01*
X1075164Y167438D01*
X1074456Y166514D01*
X1073688Y165639D01*
X1072865Y164816D01*
X1071990Y164049D01*
X1071066Y163340D01*
X1070098Y162693D01*
X1069090Y162111D01*
X1068046Y161596D01*
X1066970Y161151D01*
X1065868Y160777D01*
X1064744Y160475D01*
X1063602Y160248D01*
X1062448Y160096D01*
X1061286Y160020D01*
X1060122Y160020D01*
X1058960Y160096D01*
X1057806Y160248D01*
X1056664Y160475D01*
X1055540Y160777D01*
X1054438Y161151D01*
X1053362Y161596D01*
X1052318Y162111D01*
X1051310Y162693D01*
X1050342Y163340D01*
X1049418Y164049D01*
X1048543Y164816D01*
X1047720Y165639D01*
X1046953Y166514D01*
X1046244Y167438D01*
X1045597Y168406D01*
X1045015Y169414D01*
X1044500Y170458D01*
X1044055Y171534D01*
X1043681Y172636D01*
X1043379Y173760D01*
X1043152Y174902D01*
X1043000Y176056D01*
X1042924Y177218D01*
X1042924Y178382D01*
X1043000Y179544D01*
X1043152Y180698D01*
X1043379Y181840D01*
X1043681Y182964D01*
X1044055Y184066D01*
X1044500Y185142D01*
X1045015Y186186D01*
X1045597Y187194D01*
X1046244Y188162D01*
X1046953Y189086D01*
X1047720Y189961D01*
X1048543Y190784D01*
X1049418Y191552D01*
X1050342Y192260D01*
X1051310Y192907D01*
X1052318Y193489D01*
X1053362Y194004D01*
X1054438Y194449D01*
X1055540Y194824D01*
X1056664Y195125D01*
X1057806Y195352D01*
X1058960Y195504D01*
X1060122Y195580D01*
X1061286Y195580D01*
X1062448Y195504D01*
X1063602Y195352D01*
X1064744Y195125D01*
X1065868Y194824D01*
X1066970Y194449D01*
X1068046Y194004D01*
X1069090Y193489D01*
X1070098Y192907D01*
X1071066Y192260D01*
X1071990Y191552D01*
X1072865Y190784D01*
X1073688Y189961D01*
X1074456Y189086D01*
X1075164Y188162D01*
X1075811Y187194D01*
X1076393Y186186D01*
X1076908Y185142D01*
X1077353Y184066D01*
X1077728Y182964D01*
X1078029Y181840D01*
X1078256Y180698D01*
X1078408Y179544D01*
X1078484Y178382D01*
X1078484Y177218D01*
X55372Y50218D02*
X55296Y49056D01*
X55144Y47902D01*
X54917Y46760D01*
X54616Y45636D01*
X54241Y44534D01*
X53796Y43458D01*
X53281Y42414D01*
X52699Y41406D01*
X52052Y40438D01*
X51344Y39514D01*
X50576Y38639D01*
X49753Y37816D01*
X48878Y37049D01*
X47954Y36340D01*
X46986Y35693D01*
X45978Y35111D01*
X44934Y34596D01*
X43858Y34151D01*
X42756Y33777D01*
X41632Y33475D01*
X40490Y33248D01*
X39336Y33096D01*
X38174Y33020D01*
X37010Y33020D01*
X35848Y33096D01*
X34694Y33248D01*
X33552Y33475D01*
X32428Y33777D01*
X31326Y34151D01*
X30250Y34596D01*
X29206Y35111D01*
X28198Y35693D01*
X27230Y36340D01*
X26306Y37049D01*
X25431Y37816D01*
X24608Y38639D01*
X23841Y39514D01*
X23132Y40438D01*
X22485Y41406D01*
X21903Y42414D01*
X21388Y43458D01*
X20943Y44534D01*
X20569Y45636D01*
X20267Y46760D01*
X20040Y47902D01*
X19888Y49056D01*
X19812Y50218D01*
X19812Y51382D01*
X19888Y52544D01*
X20040Y53698D01*
X20267Y54840D01*
X20569Y55964D01*
X20943Y57066D01*
X21388Y58142D01*
X21903Y59186D01*
X22485Y60194D01*
X23132Y61162D01*
X23841Y62086D01*
X24608Y62961D01*
X25431Y63784D01*
X26306Y64552D01*
X27230Y65260D01*
X28198Y65907D01*
X29206Y66489D01*
X30250Y67004D01*
X31326Y67449D01*
X32428Y67824D01*
X33552Y68125D01*
X34694Y68352D01*
X35848Y68504D01*
X37010Y68580D01*
X38174Y68580D01*
X39336Y68504D01*
X40490Y68352D01*
X41632Y68125D01*
X42756Y67824D01*
X43858Y67449D01*
X44934Y67004D01*
X45978Y66489D01*
X46986Y65907D01*
X47954Y65260D01*
X48878Y64552D01*
X49753Y63784D01*
X50576Y62961D01*
X51344Y62086D01*
X52052Y61162D01*
X52699Y60194D01*
X53281Y59186D01*
X53796Y58142D01*
X54241Y57066D01*
X54616Y55964D01*
X54917Y54840D01*
X55144Y53698D01*
X55296Y52544D01*
X55372Y51382D01*
X55372Y50218D01*
X1078484Y50218D02*
X1078408Y49056D01*
X1078256Y47902D01*
X1078029Y46760D01*
X1077728Y45636D01*
X1077353Y44534D01*
X1076908Y43458D01*
X1076393Y42414D01*
X1075811Y41406D01*
X1075164Y40438D01*
X1074456Y39514D01*
X1073688Y38639D01*
X1072865Y37816D01*
X1071990Y37049D01*
X1071066Y36340D01*
X1070098Y35693D01*
X1069090Y35111D01*
X1068046Y34596D01*
X1066970Y34151D01*
X1065868Y33777D01*
X1064744Y33475D01*
X1063602Y33248D01*
X1062448Y33096D01*
X1061286Y33020D01*
X1060122Y33020D01*
X1058960Y33096D01*
X1057806Y33248D01*
X1056664Y33475D01*
X1055540Y33777D01*
X1054438Y34151D01*
X1053362Y34596D01*
X1052318Y35111D01*
X1051310Y35693D01*
X1050342Y36340D01*
X1049418Y37049D01*
X1048543Y37816D01*
X1047720Y38639D01*
X1046953Y39514D01*
X1046244Y40438D01*
X1045597Y41406D01*
X1045015Y42414D01*
X1044500Y43458D01*
X1044055Y44534D01*
X1043681Y45636D01*
X1043379Y46760D01*
X1043152Y47902D01*
X1043000Y49056D01*
X1042924Y50218D01*
X1042924Y51382D01*
X1043000Y52544D01*
X1043152Y53698D01*
X1043379Y54840D01*
X1043681Y55964D01*
X1044055Y57066D01*
X1044500Y58142D01*
X1045015Y59186D01*
X1045597Y60194D01*
X1046244Y61162D01*
X1046953Y62086D01*
X1047720Y62961D01*
X1048543Y63784D01*
X1049418Y64552D01*
X1050342Y65260D01*
X1051310Y65907D01*
X1052318Y66489D01*
X1053362Y67004D01*
X1054438Y67449D01*
X1055540Y67824D01*
X1056664Y68125D01*
X1057806Y68352D01*
X1058960Y68504D01*
X1060122Y68580D01*
X1061286Y68580D01*
X1062448Y68504D01*
X1063602Y68352D01*
X1064744Y68125D01*
X1065868Y67824D01*
X1066970Y67449D01*
X1068046Y67004D01*
X1069090Y66489D01*
X1070098Y65907D01*
X1071066Y65260D01*
X1071990Y64552D01*
X1072865Y63784D01*
X1073688Y62961D01*
X1074456Y62086D01*
X1075164Y61162D01*
X1075811Y60194D01*
X1076393Y59186D01*
X1076908Y58142D01*
X1077353Y57066D01*
X1077728Y55964D01*
X1078029Y54840D01*
X1078256Y53698D01*
X1078408Y52544D01*
X1078484Y51382D01*
X1078484Y50218D01*
M02*
