G04 EAGLE Gerber RS-274X export*
G75*
%MOMM*%
%FSLAX34Y34*%
%LPD*%
%INBottom Copper*%
%IPPOS*%
%AMOC8*
5,1,8,0,0,1.08239X$1,22.5*%
G01*
%ADD10P,2.474344X8X202.500000*%
%ADD11P,2.474344X8X22.500000*%

G36*
X1093490Y5084D02*
X1093490Y5084D01*
X1093509Y5082D01*
X1093611Y5104D01*
X1093713Y5120D01*
X1093730Y5130D01*
X1093750Y5134D01*
X1093839Y5187D01*
X1093930Y5236D01*
X1093944Y5250D01*
X1093961Y5260D01*
X1094028Y5339D01*
X1094100Y5414D01*
X1094108Y5432D01*
X1094121Y5447D01*
X1094160Y5543D01*
X1094203Y5637D01*
X1094205Y5657D01*
X1094213Y5675D01*
X1094231Y5842D01*
X1094231Y222758D01*
X1094228Y222778D01*
X1094230Y222797D01*
X1094208Y222899D01*
X1094192Y223001D01*
X1094182Y223018D01*
X1094178Y223038D01*
X1094125Y223127D01*
X1094076Y223218D01*
X1094062Y223232D01*
X1094052Y223249D01*
X1093973Y223316D01*
X1093898Y223388D01*
X1093880Y223396D01*
X1093865Y223409D01*
X1093769Y223448D01*
X1093675Y223491D01*
X1093655Y223493D01*
X1093637Y223501D01*
X1093470Y223519D01*
X5842Y223519D01*
X5822Y223516D01*
X5803Y223518D01*
X5701Y223496D01*
X5599Y223480D01*
X5582Y223470D01*
X5562Y223466D01*
X5473Y223413D01*
X5382Y223364D01*
X5368Y223350D01*
X5351Y223340D01*
X5284Y223261D01*
X5212Y223186D01*
X5204Y223168D01*
X5191Y223153D01*
X5152Y223057D01*
X5109Y222963D01*
X5107Y222943D01*
X5099Y222925D01*
X5081Y222758D01*
X5081Y5842D01*
X5084Y5822D01*
X5082Y5803D01*
X5104Y5701D01*
X5120Y5599D01*
X5130Y5582D01*
X5134Y5562D01*
X5187Y5473D01*
X5236Y5382D01*
X5250Y5368D01*
X5260Y5351D01*
X5339Y5284D01*
X5414Y5212D01*
X5432Y5204D01*
X5447Y5191D01*
X5543Y5152D01*
X5637Y5109D01*
X5657Y5107D01*
X5675Y5099D01*
X5842Y5081D01*
X1093470Y5081D01*
X1093490Y5084D01*
G37*
%LPC*%
G36*
X33045Y154939D02*
X33045Y154939D01*
X24642Y158420D01*
X18212Y164850D01*
X14731Y173253D01*
X14731Y182347D01*
X18212Y190750D01*
X24642Y197180D01*
X33045Y200661D01*
X42139Y200661D01*
X50542Y197180D01*
X56972Y190750D01*
X60453Y182347D01*
X60453Y173253D01*
X56972Y164850D01*
X50542Y158420D01*
X42139Y154939D01*
X33045Y154939D01*
G37*
%LPD*%
%LPC*%
G36*
X33045Y27939D02*
X33045Y27939D01*
X24642Y31420D01*
X18212Y37850D01*
X14731Y46253D01*
X14731Y55347D01*
X18212Y63750D01*
X24642Y70180D01*
X33045Y73661D01*
X42139Y73661D01*
X50542Y70180D01*
X56972Y63750D01*
X60453Y55347D01*
X60453Y46253D01*
X56972Y37850D01*
X50542Y31420D01*
X42139Y27939D01*
X33045Y27939D01*
G37*
%LPD*%
%LPC*%
G36*
X1056157Y27939D02*
X1056157Y27939D01*
X1047754Y31420D01*
X1041324Y37850D01*
X1037843Y46253D01*
X1037843Y55347D01*
X1041324Y63750D01*
X1047754Y70180D01*
X1056157Y73661D01*
X1065251Y73661D01*
X1073654Y70180D01*
X1080084Y63750D01*
X1083565Y55347D01*
X1083565Y46253D01*
X1080084Y37850D01*
X1073654Y31420D01*
X1065251Y27939D01*
X1056157Y27939D01*
G37*
%LPD*%
%LPC*%
G36*
X1056157Y154939D02*
X1056157Y154939D01*
X1047754Y158420D01*
X1041324Y164850D01*
X1037843Y173253D01*
X1037843Y182347D01*
X1041324Y190750D01*
X1047754Y197180D01*
X1056157Y200661D01*
X1065251Y200661D01*
X1073654Y197180D01*
X1080084Y190750D01*
X1083565Y182347D01*
X1083565Y173253D01*
X1080084Y164850D01*
X1073654Y158420D01*
X1065251Y154939D01*
X1056157Y154939D01*
G37*
%LPD*%
%LPC*%
G36*
X59357Y93471D02*
X59357Y93471D01*
X51701Y96642D01*
X45842Y102501D01*
X42671Y110157D01*
X42671Y118443D01*
X45842Y126099D01*
X51701Y131958D01*
X59357Y135129D01*
X67643Y135129D01*
X75299Y131958D01*
X81158Y126099D01*
X84329Y118443D01*
X84329Y110157D01*
X81158Y102501D01*
X75299Y96642D01*
X67643Y93471D01*
X59357Y93471D01*
G37*
%LPD*%
%LPC*%
G36*
X1031669Y93471D02*
X1031669Y93471D01*
X1024013Y96642D01*
X1018154Y102501D01*
X1014983Y110157D01*
X1014983Y118443D01*
X1018154Y126099D01*
X1024013Y131958D01*
X1031669Y135129D01*
X1039955Y135129D01*
X1047611Y131958D01*
X1053470Y126099D01*
X1056641Y118443D01*
X1056641Y110157D01*
X1053470Y102501D01*
X1047611Y96642D01*
X1039955Y93471D01*
X1031669Y93471D01*
G37*
%LPD*%
%LPC*%
G36*
X602166Y182625D02*
X602166Y182625D01*
X593089Y191702D01*
X593089Y204538D01*
X602166Y213615D01*
X615002Y213615D01*
X624079Y204538D01*
X624079Y191702D01*
X615002Y182625D01*
X602166Y182625D01*
G37*
%LPD*%
%LPC*%
G36*
X562542Y182625D02*
X562542Y182625D01*
X553465Y191702D01*
X553465Y204538D01*
X562542Y213615D01*
X575378Y213615D01*
X584455Y204538D01*
X584455Y191702D01*
X575378Y182625D01*
X562542Y182625D01*
G37*
%LPD*%
%LPC*%
G36*
X958782Y182625D02*
X958782Y182625D01*
X949705Y191702D01*
X949705Y204538D01*
X958782Y213615D01*
X971618Y213615D01*
X980695Y204538D01*
X980695Y191702D01*
X971618Y182625D01*
X958782Y182625D01*
G37*
%LPD*%
%LPC*%
G36*
X919158Y182625D02*
X919158Y182625D01*
X910081Y191702D01*
X910081Y204538D01*
X919158Y213615D01*
X931994Y213615D01*
X941071Y204538D01*
X941071Y191702D01*
X931994Y182625D01*
X919158Y182625D01*
G37*
%LPD*%
%LPC*%
G36*
X879534Y182625D02*
X879534Y182625D01*
X870457Y191702D01*
X870457Y204538D01*
X879534Y213615D01*
X892370Y213615D01*
X901447Y204538D01*
X901447Y191702D01*
X892370Y182625D01*
X879534Y182625D01*
G37*
%LPD*%
%LPC*%
G36*
X839910Y182625D02*
X839910Y182625D01*
X830833Y191702D01*
X830833Y204538D01*
X839910Y213615D01*
X852746Y213615D01*
X861823Y204538D01*
X861823Y191702D01*
X852746Y182625D01*
X839910Y182625D01*
G37*
%LPD*%
%LPC*%
G36*
X800286Y182625D02*
X800286Y182625D01*
X791209Y191702D01*
X791209Y204538D01*
X800286Y213615D01*
X813122Y213615D01*
X822199Y204538D01*
X822199Y191702D01*
X813122Y182625D01*
X800286Y182625D01*
G37*
%LPD*%
%LPC*%
G36*
X760662Y182625D02*
X760662Y182625D01*
X751585Y191702D01*
X751585Y204538D01*
X760662Y213615D01*
X773498Y213615D01*
X782575Y204538D01*
X782575Y191702D01*
X773498Y182625D01*
X760662Y182625D01*
G37*
%LPD*%
%LPC*%
G36*
X721038Y182625D02*
X721038Y182625D01*
X711961Y191702D01*
X711961Y204538D01*
X721038Y213615D01*
X733874Y213615D01*
X742951Y204538D01*
X742951Y191702D01*
X733874Y182625D01*
X721038Y182625D01*
G37*
%LPD*%
%LPC*%
G36*
X681414Y182625D02*
X681414Y182625D01*
X672337Y191702D01*
X672337Y204538D01*
X681414Y213615D01*
X694250Y213615D01*
X703327Y204538D01*
X703327Y191702D01*
X694250Y182625D01*
X681414Y182625D01*
G37*
%LPD*%
%LPC*%
G36*
X641790Y182625D02*
X641790Y182625D01*
X632713Y191702D01*
X632713Y204538D01*
X641790Y213615D01*
X654626Y213615D01*
X663703Y204538D01*
X663703Y191702D01*
X654626Y182625D01*
X641790Y182625D01*
G37*
%LPD*%
%LPC*%
G36*
X483294Y182625D02*
X483294Y182625D01*
X474217Y191702D01*
X474217Y204538D01*
X483294Y213615D01*
X496130Y213615D01*
X505207Y204538D01*
X505207Y191702D01*
X496130Y182625D01*
X483294Y182625D01*
G37*
%LPD*%
%LPC*%
G36*
X443670Y182625D02*
X443670Y182625D01*
X434593Y191702D01*
X434593Y204538D01*
X443670Y213615D01*
X456506Y213615D01*
X465583Y204538D01*
X465583Y191702D01*
X456506Y182625D01*
X443670Y182625D01*
G37*
%LPD*%
%LPC*%
G36*
X404046Y182625D02*
X404046Y182625D01*
X394969Y191702D01*
X394969Y204538D01*
X404046Y213615D01*
X416882Y213615D01*
X425959Y204538D01*
X425959Y191702D01*
X416882Y182625D01*
X404046Y182625D01*
G37*
%LPD*%
%LPC*%
G36*
X364422Y182625D02*
X364422Y182625D01*
X355345Y191702D01*
X355345Y204538D01*
X364422Y213615D01*
X377258Y213615D01*
X386335Y204538D01*
X386335Y191702D01*
X377258Y182625D01*
X364422Y182625D01*
G37*
%LPD*%
%LPC*%
G36*
X324798Y182625D02*
X324798Y182625D01*
X315721Y191702D01*
X315721Y204538D01*
X324798Y213615D01*
X337634Y213615D01*
X346711Y204538D01*
X346711Y191702D01*
X337634Y182625D01*
X324798Y182625D01*
G37*
%LPD*%
%LPC*%
G36*
X285174Y182625D02*
X285174Y182625D01*
X276097Y191702D01*
X276097Y204538D01*
X285174Y213615D01*
X298010Y213615D01*
X307087Y204538D01*
X307087Y191702D01*
X298010Y182625D01*
X285174Y182625D01*
G37*
%LPD*%
%LPC*%
G36*
X245550Y182625D02*
X245550Y182625D01*
X236473Y191702D01*
X236473Y204538D01*
X245550Y213615D01*
X258386Y213615D01*
X267463Y204538D01*
X267463Y191702D01*
X258386Y182625D01*
X245550Y182625D01*
G37*
%LPD*%
%LPC*%
G36*
X205926Y182625D02*
X205926Y182625D01*
X196849Y191702D01*
X196849Y204538D01*
X205926Y213615D01*
X218762Y213615D01*
X227839Y204538D01*
X227839Y191702D01*
X218762Y182625D01*
X205926Y182625D01*
G37*
%LPD*%
%LPC*%
G36*
X166302Y182625D02*
X166302Y182625D01*
X157225Y191702D01*
X157225Y204538D01*
X166302Y213615D01*
X179138Y213615D01*
X188215Y204538D01*
X188215Y191702D01*
X179138Y182625D01*
X166302Y182625D01*
G37*
%LPD*%
%LPC*%
G36*
X205926Y14985D02*
X205926Y14985D01*
X196849Y24062D01*
X196849Y36898D01*
X205926Y45975D01*
X218762Y45975D01*
X227839Y36898D01*
X227839Y24062D01*
X218762Y14985D01*
X205926Y14985D01*
G37*
%LPD*%
%LPC*%
G36*
X166302Y14985D02*
X166302Y14985D01*
X157225Y24062D01*
X157225Y36898D01*
X166302Y45975D01*
X179138Y45975D01*
X188215Y36898D01*
X188215Y24062D01*
X179138Y14985D01*
X166302Y14985D01*
G37*
%LPD*%
%LPC*%
G36*
X522918Y182625D02*
X522918Y182625D01*
X513841Y191702D01*
X513841Y204538D01*
X522918Y213615D01*
X535754Y213615D01*
X544831Y204538D01*
X544831Y191702D01*
X535754Y182625D01*
X522918Y182625D01*
G37*
%LPD*%
%LPC*%
G36*
X166302Y141985D02*
X166302Y141985D01*
X157225Y151062D01*
X157225Y163898D01*
X166302Y172975D01*
X179138Y172975D01*
X188215Y163898D01*
X188215Y151062D01*
X179138Y141985D01*
X166302Y141985D01*
G37*
%LPD*%
%LPC*%
G36*
X126678Y141985D02*
X126678Y141985D01*
X117601Y151062D01*
X117601Y163898D01*
X126678Y172975D01*
X139514Y172975D01*
X148591Y163898D01*
X148591Y151062D01*
X139514Y141985D01*
X126678Y141985D01*
G37*
%LPD*%
%LPC*%
G36*
X958782Y141985D02*
X958782Y141985D01*
X949705Y151062D01*
X949705Y163898D01*
X958782Y172975D01*
X971618Y172975D01*
X980695Y163898D01*
X980695Y151062D01*
X971618Y141985D01*
X958782Y141985D01*
G37*
%LPD*%
%LPC*%
G36*
X919158Y141985D02*
X919158Y141985D01*
X910081Y151062D01*
X910081Y163898D01*
X919158Y172975D01*
X931994Y172975D01*
X941071Y163898D01*
X941071Y151062D01*
X931994Y141985D01*
X919158Y141985D01*
G37*
%LPD*%
%LPC*%
G36*
X879534Y141985D02*
X879534Y141985D01*
X870457Y151062D01*
X870457Y163898D01*
X879534Y172975D01*
X892370Y172975D01*
X901447Y163898D01*
X901447Y151062D01*
X892370Y141985D01*
X879534Y141985D01*
G37*
%LPD*%
%LPC*%
G36*
X839910Y141985D02*
X839910Y141985D01*
X830833Y151062D01*
X830833Y163898D01*
X839910Y172975D01*
X852746Y172975D01*
X861823Y163898D01*
X861823Y151062D01*
X852746Y141985D01*
X839910Y141985D01*
G37*
%LPD*%
%LPC*%
G36*
X800286Y141985D02*
X800286Y141985D01*
X791209Y151062D01*
X791209Y163898D01*
X800286Y172975D01*
X813122Y172975D01*
X822199Y163898D01*
X822199Y151062D01*
X813122Y141985D01*
X800286Y141985D01*
G37*
%LPD*%
%LPC*%
G36*
X760662Y141985D02*
X760662Y141985D01*
X751585Y151062D01*
X751585Y163898D01*
X760662Y172975D01*
X773498Y172975D01*
X782575Y163898D01*
X782575Y151062D01*
X773498Y141985D01*
X760662Y141985D01*
G37*
%LPD*%
%LPC*%
G36*
X721038Y141985D02*
X721038Y141985D01*
X711961Y151062D01*
X711961Y163898D01*
X721038Y172975D01*
X733874Y172975D01*
X742951Y163898D01*
X742951Y151062D01*
X733874Y141985D01*
X721038Y141985D01*
G37*
%LPD*%
%LPC*%
G36*
X681414Y141985D02*
X681414Y141985D01*
X672337Y151062D01*
X672337Y163898D01*
X681414Y172975D01*
X694250Y172975D01*
X703327Y163898D01*
X703327Y151062D01*
X694250Y141985D01*
X681414Y141985D01*
G37*
%LPD*%
%LPC*%
G36*
X602166Y141985D02*
X602166Y141985D01*
X593089Y151062D01*
X593089Y163898D01*
X602166Y172975D01*
X615002Y172975D01*
X624079Y163898D01*
X624079Y151062D01*
X615002Y141985D01*
X602166Y141985D01*
G37*
%LPD*%
%LPC*%
G36*
X562542Y141985D02*
X562542Y141985D01*
X553465Y151062D01*
X553465Y163898D01*
X562542Y172975D01*
X575378Y172975D01*
X584455Y163898D01*
X584455Y151062D01*
X575378Y141985D01*
X562542Y141985D01*
G37*
%LPD*%
%LPC*%
G36*
X522918Y141985D02*
X522918Y141985D01*
X513841Y151062D01*
X513841Y163898D01*
X522918Y172975D01*
X535754Y172975D01*
X544831Y163898D01*
X544831Y151062D01*
X535754Y141985D01*
X522918Y141985D01*
G37*
%LPD*%
%LPC*%
G36*
X483294Y141985D02*
X483294Y141985D01*
X474217Y151062D01*
X474217Y163898D01*
X483294Y172975D01*
X496130Y172975D01*
X505207Y163898D01*
X505207Y151062D01*
X496130Y141985D01*
X483294Y141985D01*
G37*
%LPD*%
%LPC*%
G36*
X443670Y141985D02*
X443670Y141985D01*
X434593Y151062D01*
X434593Y163898D01*
X443670Y172975D01*
X456506Y172975D01*
X465583Y163898D01*
X465583Y151062D01*
X456506Y141985D01*
X443670Y141985D01*
G37*
%LPD*%
%LPC*%
G36*
X404046Y141985D02*
X404046Y141985D01*
X394969Y151062D01*
X394969Y163898D01*
X404046Y172975D01*
X416882Y172975D01*
X425959Y163898D01*
X425959Y151062D01*
X416882Y141985D01*
X404046Y141985D01*
G37*
%LPD*%
%LPC*%
G36*
X364422Y141985D02*
X364422Y141985D01*
X355345Y151062D01*
X355345Y163898D01*
X364422Y172975D01*
X377258Y172975D01*
X386335Y163898D01*
X386335Y151062D01*
X377258Y141985D01*
X364422Y141985D01*
G37*
%LPD*%
%LPC*%
G36*
X324798Y141985D02*
X324798Y141985D01*
X315721Y151062D01*
X315721Y163898D01*
X324798Y172975D01*
X337634Y172975D01*
X346711Y163898D01*
X346711Y151062D01*
X337634Y141985D01*
X324798Y141985D01*
G37*
%LPD*%
%LPC*%
G36*
X285174Y141985D02*
X285174Y141985D01*
X276097Y151062D01*
X276097Y163898D01*
X285174Y172975D01*
X298010Y172975D01*
X307087Y163898D01*
X307087Y151062D01*
X298010Y141985D01*
X285174Y141985D01*
G37*
%LPD*%
%LPC*%
G36*
X245550Y141985D02*
X245550Y141985D01*
X236473Y151062D01*
X236473Y163898D01*
X245550Y172975D01*
X258386Y172975D01*
X267463Y163898D01*
X267463Y151062D01*
X258386Y141985D01*
X245550Y141985D01*
G37*
%LPD*%
%LPC*%
G36*
X205926Y141985D02*
X205926Y141985D01*
X196849Y151062D01*
X196849Y163898D01*
X205926Y172975D01*
X218762Y172975D01*
X227839Y163898D01*
X227839Y151062D01*
X218762Y141985D01*
X205926Y141985D01*
G37*
%LPD*%
%LPC*%
G36*
X641790Y141985D02*
X641790Y141985D01*
X632713Y151062D01*
X632713Y163898D01*
X641790Y172975D01*
X654626Y172975D01*
X663703Y163898D01*
X663703Y151062D01*
X654626Y141985D01*
X641790Y141985D01*
G37*
%LPD*%
%LPC*%
G36*
X879534Y55625D02*
X879534Y55625D01*
X870457Y64702D01*
X870457Y77538D01*
X879534Y86615D01*
X892370Y86615D01*
X901447Y77538D01*
X901447Y64702D01*
X892370Y55625D01*
X879534Y55625D01*
G37*
%LPD*%
%LPC*%
G36*
X839910Y55625D02*
X839910Y55625D01*
X830833Y64702D01*
X830833Y77538D01*
X839910Y86615D01*
X852746Y86615D01*
X861823Y77538D01*
X861823Y64702D01*
X852746Y55625D01*
X839910Y55625D01*
G37*
%LPD*%
%LPC*%
G36*
X958782Y55625D02*
X958782Y55625D01*
X949705Y64702D01*
X949705Y77538D01*
X958782Y86615D01*
X971618Y86615D01*
X980695Y77538D01*
X980695Y64702D01*
X971618Y55625D01*
X958782Y55625D01*
G37*
%LPD*%
%LPC*%
G36*
X919158Y55625D02*
X919158Y55625D01*
X910081Y64702D01*
X910081Y77538D01*
X919158Y86615D01*
X931994Y86615D01*
X941071Y77538D01*
X941071Y64702D01*
X931994Y55625D01*
X919158Y55625D01*
G37*
%LPD*%
%LPC*%
G36*
X641790Y55625D02*
X641790Y55625D01*
X632713Y64702D01*
X632713Y77538D01*
X641790Y86615D01*
X654626Y86615D01*
X663703Y77538D01*
X663703Y64702D01*
X654626Y55625D01*
X641790Y55625D01*
G37*
%LPD*%
%LPC*%
G36*
X602166Y55625D02*
X602166Y55625D01*
X593089Y64702D01*
X593089Y77538D01*
X602166Y86615D01*
X615002Y86615D01*
X624079Y77538D01*
X624079Y64702D01*
X615002Y55625D01*
X602166Y55625D01*
G37*
%LPD*%
%LPC*%
G36*
X800286Y55625D02*
X800286Y55625D01*
X791209Y64702D01*
X791209Y77538D01*
X800286Y86615D01*
X813122Y86615D01*
X822199Y77538D01*
X822199Y64702D01*
X813122Y55625D01*
X800286Y55625D01*
G37*
%LPD*%
%LPC*%
G36*
X760662Y55625D02*
X760662Y55625D01*
X751585Y64702D01*
X751585Y77538D01*
X760662Y86615D01*
X773498Y86615D01*
X782575Y77538D01*
X782575Y64702D01*
X773498Y55625D01*
X760662Y55625D01*
G37*
%LPD*%
%LPC*%
G36*
X721038Y55625D02*
X721038Y55625D01*
X711961Y64702D01*
X711961Y77538D01*
X721038Y86615D01*
X733874Y86615D01*
X742951Y77538D01*
X742951Y64702D01*
X733874Y55625D01*
X721038Y55625D01*
G37*
%LPD*%
%LPC*%
G36*
X681414Y55625D02*
X681414Y55625D01*
X672337Y64702D01*
X672337Y77538D01*
X681414Y86615D01*
X694250Y86615D01*
X703327Y77538D01*
X703327Y64702D01*
X694250Y55625D01*
X681414Y55625D01*
G37*
%LPD*%
%LPC*%
G36*
X562542Y55625D02*
X562542Y55625D01*
X553465Y64702D01*
X553465Y77538D01*
X562542Y86615D01*
X575378Y86615D01*
X584455Y77538D01*
X584455Y64702D01*
X575378Y55625D01*
X562542Y55625D01*
G37*
%LPD*%
%LPC*%
G36*
X522918Y55625D02*
X522918Y55625D01*
X513841Y64702D01*
X513841Y77538D01*
X522918Y86615D01*
X535754Y86615D01*
X544831Y77538D01*
X544831Y64702D01*
X535754Y55625D01*
X522918Y55625D01*
G37*
%LPD*%
%LPC*%
G36*
X483294Y55625D02*
X483294Y55625D01*
X474217Y64702D01*
X474217Y77538D01*
X483294Y86615D01*
X496130Y86615D01*
X505207Y77538D01*
X505207Y64702D01*
X496130Y55625D01*
X483294Y55625D01*
G37*
%LPD*%
%LPC*%
G36*
X443670Y55625D02*
X443670Y55625D01*
X434593Y64702D01*
X434593Y77538D01*
X443670Y86615D01*
X456506Y86615D01*
X465583Y77538D01*
X465583Y64702D01*
X456506Y55625D01*
X443670Y55625D01*
G37*
%LPD*%
%LPC*%
G36*
X404046Y55625D02*
X404046Y55625D01*
X394969Y64702D01*
X394969Y77538D01*
X404046Y86615D01*
X416882Y86615D01*
X425959Y77538D01*
X425959Y64702D01*
X416882Y55625D01*
X404046Y55625D01*
G37*
%LPD*%
%LPC*%
G36*
X364422Y55625D02*
X364422Y55625D01*
X355345Y64702D01*
X355345Y77538D01*
X364422Y86615D01*
X377258Y86615D01*
X386335Y77538D01*
X386335Y64702D01*
X377258Y55625D01*
X364422Y55625D01*
G37*
%LPD*%
%LPC*%
G36*
X324798Y55625D02*
X324798Y55625D01*
X315721Y64702D01*
X315721Y77538D01*
X324798Y86615D01*
X337634Y86615D01*
X346711Y77538D01*
X346711Y64702D01*
X337634Y55625D01*
X324798Y55625D01*
G37*
%LPD*%
%LPC*%
G36*
X285174Y55625D02*
X285174Y55625D01*
X276097Y64702D01*
X276097Y77538D01*
X285174Y86615D01*
X298010Y86615D01*
X307087Y77538D01*
X307087Y64702D01*
X298010Y55625D01*
X285174Y55625D01*
G37*
%LPD*%
%LPC*%
G36*
X245550Y55625D02*
X245550Y55625D01*
X236473Y64702D01*
X236473Y77538D01*
X245550Y86615D01*
X258386Y86615D01*
X267463Y77538D01*
X267463Y64702D01*
X258386Y55625D01*
X245550Y55625D01*
G37*
%LPD*%
%LPC*%
G36*
X205926Y55625D02*
X205926Y55625D01*
X196849Y64702D01*
X196849Y77538D01*
X205926Y86615D01*
X218762Y86615D01*
X227839Y77538D01*
X227839Y64702D01*
X218762Y55625D01*
X205926Y55625D01*
G37*
%LPD*%
%LPC*%
G36*
X166302Y55625D02*
X166302Y55625D01*
X157225Y64702D01*
X157225Y77538D01*
X166302Y86615D01*
X179138Y86615D01*
X188215Y77538D01*
X188215Y64702D01*
X179138Y55625D01*
X166302Y55625D01*
G37*
%LPD*%
%LPC*%
G36*
X602166Y14985D02*
X602166Y14985D01*
X593089Y24062D01*
X593089Y36898D01*
X602166Y45975D01*
X615002Y45975D01*
X624079Y36898D01*
X624079Y24062D01*
X615002Y14985D01*
X602166Y14985D01*
G37*
%LPD*%
%LPC*%
G36*
X958782Y14985D02*
X958782Y14985D01*
X949705Y24062D01*
X949705Y36898D01*
X958782Y45975D01*
X971618Y45975D01*
X980695Y36898D01*
X980695Y24062D01*
X971618Y14985D01*
X958782Y14985D01*
G37*
%LPD*%
%LPC*%
G36*
X919158Y14985D02*
X919158Y14985D01*
X910081Y24062D01*
X910081Y36898D01*
X919158Y45975D01*
X931994Y45975D01*
X941071Y36898D01*
X941071Y24062D01*
X931994Y14985D01*
X919158Y14985D01*
G37*
%LPD*%
%LPC*%
G36*
X879534Y14985D02*
X879534Y14985D01*
X870457Y24062D01*
X870457Y36898D01*
X879534Y45975D01*
X892370Y45975D01*
X901447Y36898D01*
X901447Y24062D01*
X892370Y14985D01*
X879534Y14985D01*
G37*
%LPD*%
%LPC*%
G36*
X839910Y14985D02*
X839910Y14985D01*
X830833Y24062D01*
X830833Y36898D01*
X839910Y45975D01*
X852746Y45975D01*
X861823Y36898D01*
X861823Y24062D01*
X852746Y14985D01*
X839910Y14985D01*
G37*
%LPD*%
%LPC*%
G36*
X800286Y14985D02*
X800286Y14985D01*
X791209Y24062D01*
X791209Y36898D01*
X800286Y45975D01*
X813122Y45975D01*
X822199Y36898D01*
X822199Y24062D01*
X813122Y14985D01*
X800286Y14985D01*
G37*
%LPD*%
%LPC*%
G36*
X760662Y14985D02*
X760662Y14985D01*
X751585Y24062D01*
X751585Y36898D01*
X760662Y45975D01*
X773498Y45975D01*
X782575Y36898D01*
X782575Y24062D01*
X773498Y14985D01*
X760662Y14985D01*
G37*
%LPD*%
%LPC*%
G36*
X721038Y14985D02*
X721038Y14985D01*
X711961Y24062D01*
X711961Y36898D01*
X721038Y45975D01*
X733874Y45975D01*
X742951Y36898D01*
X742951Y24062D01*
X733874Y14985D01*
X721038Y14985D01*
G37*
%LPD*%
%LPC*%
G36*
X681414Y14985D02*
X681414Y14985D01*
X672337Y24062D01*
X672337Y36898D01*
X681414Y45975D01*
X694250Y45975D01*
X703327Y36898D01*
X703327Y24062D01*
X694250Y14985D01*
X681414Y14985D01*
G37*
%LPD*%
%LPC*%
G36*
X641790Y14985D02*
X641790Y14985D01*
X632713Y24062D01*
X632713Y36898D01*
X641790Y45975D01*
X654626Y45975D01*
X663703Y36898D01*
X663703Y24062D01*
X654626Y14985D01*
X641790Y14985D01*
G37*
%LPD*%
%LPC*%
G36*
X126678Y14985D02*
X126678Y14985D01*
X117601Y24062D01*
X117601Y36898D01*
X126678Y45975D01*
X139514Y45975D01*
X148591Y36898D01*
X148591Y24062D01*
X139514Y14985D01*
X126678Y14985D01*
G37*
%LPD*%
%LPC*%
G36*
X562542Y14985D02*
X562542Y14985D01*
X553465Y24062D01*
X553465Y36898D01*
X562542Y45975D01*
X575378Y45975D01*
X584455Y36898D01*
X584455Y24062D01*
X575378Y14985D01*
X562542Y14985D01*
G37*
%LPD*%
%LPC*%
G36*
X522918Y14985D02*
X522918Y14985D01*
X513841Y24062D01*
X513841Y36898D01*
X522918Y45975D01*
X535754Y45975D01*
X544831Y36898D01*
X544831Y24062D01*
X535754Y14985D01*
X522918Y14985D01*
G37*
%LPD*%
%LPC*%
G36*
X483294Y14985D02*
X483294Y14985D01*
X474217Y24062D01*
X474217Y36898D01*
X483294Y45975D01*
X496130Y45975D01*
X505207Y36898D01*
X505207Y24062D01*
X496130Y14985D01*
X483294Y14985D01*
G37*
%LPD*%
%LPC*%
G36*
X443670Y14985D02*
X443670Y14985D01*
X434593Y24062D01*
X434593Y36898D01*
X443670Y45975D01*
X456506Y45975D01*
X465583Y36898D01*
X465583Y24062D01*
X456506Y14985D01*
X443670Y14985D01*
G37*
%LPD*%
%LPC*%
G36*
X404046Y14985D02*
X404046Y14985D01*
X394969Y24062D01*
X394969Y36898D01*
X404046Y45975D01*
X416882Y45975D01*
X425959Y36898D01*
X425959Y24062D01*
X416882Y14985D01*
X404046Y14985D01*
G37*
%LPD*%
%LPC*%
G36*
X364422Y14985D02*
X364422Y14985D01*
X355345Y24062D01*
X355345Y36898D01*
X364422Y45975D01*
X377258Y45975D01*
X386335Y36898D01*
X386335Y24062D01*
X377258Y14985D01*
X364422Y14985D01*
G37*
%LPD*%
%LPC*%
G36*
X324798Y14985D02*
X324798Y14985D01*
X315721Y24062D01*
X315721Y36898D01*
X324798Y45975D01*
X337634Y45975D01*
X346711Y36898D01*
X346711Y24062D01*
X337634Y14985D01*
X324798Y14985D01*
G37*
%LPD*%
%LPC*%
G36*
X285174Y14985D02*
X285174Y14985D01*
X276097Y24062D01*
X276097Y36898D01*
X285174Y45975D01*
X298010Y45975D01*
X307087Y36898D01*
X307087Y24062D01*
X298010Y14985D01*
X285174Y14985D01*
G37*
%LPD*%
%LPC*%
G36*
X245550Y14985D02*
X245550Y14985D01*
X236473Y24062D01*
X236473Y36898D01*
X245550Y45975D01*
X258386Y45975D01*
X267463Y36898D01*
X267463Y24062D01*
X258386Y14985D01*
X245550Y14985D01*
G37*
%LPD*%
%LPC*%
G36*
X134619Y199643D02*
X134619Y199643D01*
X134619Y212091D01*
X138883Y212091D01*
X147067Y203907D01*
X147067Y199643D01*
X134619Y199643D01*
G37*
%LPD*%
%LPC*%
G36*
X134619Y72643D02*
X134619Y72643D01*
X134619Y85091D01*
X138883Y85091D01*
X147067Y76907D01*
X147067Y72643D01*
X134619Y72643D01*
G37*
%LPD*%
%LPC*%
G36*
X119125Y199643D02*
X119125Y199643D01*
X119125Y203907D01*
X127309Y212091D01*
X131573Y212091D01*
X131573Y199643D01*
X119125Y199643D01*
G37*
%LPD*%
%LPC*%
G36*
X119125Y72643D02*
X119125Y72643D01*
X119125Y76907D01*
X127309Y85091D01*
X131573Y85091D01*
X131573Y72643D01*
X119125Y72643D01*
G37*
%LPD*%
%LPC*%
G36*
X134619Y184149D02*
X134619Y184149D01*
X134619Y196597D01*
X147067Y196597D01*
X147067Y192333D01*
X138883Y184149D01*
X134619Y184149D01*
G37*
%LPD*%
%LPC*%
G36*
X134619Y57149D02*
X134619Y57149D01*
X134619Y69597D01*
X147067Y69597D01*
X147067Y65333D01*
X138883Y57149D01*
X134619Y57149D01*
G37*
%LPD*%
%LPC*%
G36*
X127309Y184149D02*
X127309Y184149D01*
X119125Y192333D01*
X119125Y196597D01*
X131573Y196597D01*
X131573Y184149D01*
X127309Y184149D01*
G37*
%LPD*%
%LPC*%
G36*
X127309Y57149D02*
X127309Y57149D01*
X119125Y65333D01*
X119125Y69597D01*
X131573Y69597D01*
X131573Y57149D01*
X127309Y57149D01*
G37*
%LPD*%
%LPC*%
G36*
X133095Y198119D02*
X133095Y198119D01*
X133095Y198121D01*
X133097Y198121D01*
X133097Y198119D01*
X133095Y198119D01*
G37*
%LPD*%
%LPC*%
G36*
X133095Y71119D02*
X133095Y71119D01*
X133095Y71121D01*
X133097Y71121D01*
X133097Y71119D01*
X133095Y71119D01*
G37*
%LPD*%
D10*
X568960Y198120D03*
X568960Y157480D03*
X608584Y198120D03*
X648208Y198120D03*
X687832Y198120D03*
X727456Y198120D03*
X767080Y198120D03*
X806704Y198120D03*
X846328Y198120D03*
X885952Y198120D03*
X925576Y198120D03*
X965200Y198120D03*
X608584Y157480D03*
X648208Y157480D03*
X687832Y157480D03*
X727456Y157480D03*
X767080Y157480D03*
X806704Y157480D03*
X846328Y157480D03*
X885952Y157480D03*
X925576Y157480D03*
X965200Y157480D03*
D11*
X529336Y157480D03*
X529336Y198120D03*
X489712Y157480D03*
X450088Y157480D03*
X410464Y157480D03*
X370840Y157480D03*
X331216Y157480D03*
X291592Y157480D03*
X251968Y157480D03*
X212344Y157480D03*
X172720Y157480D03*
X133096Y157480D03*
X489712Y198120D03*
X450088Y198120D03*
X410464Y198120D03*
X370840Y198120D03*
X331216Y198120D03*
X291592Y198120D03*
X251968Y198120D03*
X212344Y198120D03*
X172720Y198120D03*
X133096Y198120D03*
D10*
X568960Y71120D03*
X568960Y30480D03*
X608584Y71120D03*
X648208Y71120D03*
X687832Y71120D03*
X727456Y71120D03*
X767080Y71120D03*
X806704Y71120D03*
X846328Y71120D03*
X885952Y71120D03*
X925576Y71120D03*
X965200Y71120D03*
X608584Y30480D03*
X648208Y30480D03*
X687832Y30480D03*
X727456Y30480D03*
X767080Y30480D03*
X806704Y30480D03*
X846328Y30480D03*
X885952Y30480D03*
X925576Y30480D03*
X965200Y30480D03*
D11*
X529336Y30480D03*
X529336Y71120D03*
X489712Y30480D03*
X450088Y30480D03*
X410464Y30480D03*
X370840Y30480D03*
X331216Y30480D03*
X291592Y30480D03*
X251968Y30480D03*
X212344Y30480D03*
X172720Y30480D03*
X133096Y30480D03*
X489712Y71120D03*
X450088Y71120D03*
X410464Y71120D03*
X370840Y71120D03*
X331216Y71120D03*
X291592Y71120D03*
X251968Y71120D03*
X212344Y71120D03*
X172720Y71120D03*
X133096Y71120D03*
M02*
