G04 EAGLE Gerber RS-274X export*
G75*
%MOMM*%
%FSLAX34Y34*%
%LPD*%
%INTop Copper*%
%IPPOS*%
%AMOC8*
5,1,8,0,0,1.08239X$1,22.5*%
G01*
%ADD10P,2.474344X8X202.500000*%
%ADD11P,2.474344X8X22.500000*%
%ADD12C,0.812800*%
%ADD13C,0.304800*%


D10*
X568960Y198120D03*
X568960Y157480D03*
X608584Y198120D03*
X648208Y198120D03*
X687832Y198120D03*
X727456Y198120D03*
X767080Y198120D03*
X806704Y198120D03*
X846328Y198120D03*
X885952Y198120D03*
X925576Y198120D03*
X965200Y198120D03*
X608584Y157480D03*
X648208Y157480D03*
X687832Y157480D03*
X727456Y157480D03*
X767080Y157480D03*
X806704Y157480D03*
X846328Y157480D03*
X885952Y157480D03*
X925576Y157480D03*
X965200Y157480D03*
D11*
X529336Y157480D03*
X529336Y198120D03*
X489712Y157480D03*
X450088Y157480D03*
X410464Y157480D03*
X370840Y157480D03*
X331216Y157480D03*
X291592Y157480D03*
X251968Y157480D03*
X212344Y157480D03*
X172720Y157480D03*
X133096Y157480D03*
X489712Y198120D03*
X450088Y198120D03*
X410464Y198120D03*
X370840Y198120D03*
X331216Y198120D03*
X291592Y198120D03*
X251968Y198120D03*
X212344Y198120D03*
X172720Y198120D03*
X133096Y198120D03*
D10*
X568960Y71120D03*
X568960Y30480D03*
X608584Y71120D03*
X648208Y71120D03*
X687832Y71120D03*
X727456Y71120D03*
X767080Y71120D03*
X806704Y71120D03*
X846328Y71120D03*
X885952Y71120D03*
X925576Y71120D03*
X965200Y71120D03*
X608584Y30480D03*
X648208Y30480D03*
X687832Y30480D03*
X727456Y30480D03*
X767080Y30480D03*
X806704Y30480D03*
X846328Y30480D03*
X885952Y30480D03*
X925576Y30480D03*
X965200Y30480D03*
D11*
X529336Y30480D03*
X529336Y71120D03*
X489712Y30480D03*
X450088Y30480D03*
X410464Y30480D03*
X370840Y30480D03*
X331216Y30480D03*
X291592Y30480D03*
X251968Y30480D03*
X212344Y30480D03*
X172720Y30480D03*
X133096Y30480D03*
X489712Y71120D03*
X450088Y71120D03*
X410464Y71120D03*
X370840Y71120D03*
X331216Y71120D03*
X291592Y71120D03*
X251968Y71120D03*
X212344Y71120D03*
X172720Y71120D03*
X133096Y71120D03*
D12*
X172593Y72009D02*
X172593Y129159D01*
X153162Y148590D01*
X153162Y178308D01*
X172593Y197739D01*
X172593Y72009D02*
X172720Y71120D01*
X172593Y197739D02*
X172720Y198120D01*
D13*
X924687Y51435D02*
X924687Y30861D01*
X924687Y51435D02*
X910971Y65151D01*
X910971Y142875D01*
X925576Y157480D01*
X924687Y30861D02*
X925576Y30480D01*
X885825Y30861D02*
X885825Y50292D01*
X870966Y65151D01*
X870966Y141732D01*
X885825Y156591D01*
X885825Y30861D02*
X885952Y30480D01*
X885825Y156591D02*
X885952Y157480D01*
X845820Y50292D02*
X845820Y30861D01*
X845820Y50292D02*
X830961Y65151D01*
X830961Y141732D01*
X845820Y156591D01*
X845820Y30861D02*
X846328Y30480D01*
X845820Y156591D02*
X846328Y157480D01*
X648081Y50292D02*
X648081Y30861D01*
X648081Y50292D02*
X633222Y65151D01*
X633222Y141732D01*
X648081Y156591D01*
X648081Y30861D02*
X648208Y30480D01*
X648081Y156591D02*
X648208Y157480D01*
X608076Y50292D02*
X608076Y30861D01*
X608076Y50292D02*
X593217Y65151D01*
X593217Y141732D01*
X608076Y156591D01*
X608076Y30861D02*
X608584Y30480D01*
X608076Y156591D02*
X608584Y157480D01*
X568071Y51435D02*
X568071Y30861D01*
X568071Y51435D02*
X554355Y65151D01*
X554355Y142875D01*
X568960Y157480D01*
X568071Y30861D02*
X568960Y30480D01*
X529209Y30861D02*
X529209Y50292D01*
X514350Y65151D01*
X514350Y141732D01*
X529209Y156591D01*
X529209Y30861D02*
X529336Y30480D01*
X529209Y156591D02*
X529336Y157480D01*
X489204Y50292D02*
X489204Y30861D01*
X489204Y50292D02*
X474345Y65151D01*
X474345Y141732D01*
X489204Y156591D01*
X489204Y30861D02*
X489712Y30480D01*
X489204Y156591D02*
X489712Y157480D01*
X449199Y51435D02*
X449199Y30861D01*
X449199Y51435D02*
X435483Y65151D01*
X435483Y142875D01*
X450088Y157480D01*
X449199Y30861D02*
X450088Y30480D01*
X965835Y30861D02*
X965835Y50292D01*
X980694Y65151D01*
X980694Y141732D01*
X965835Y156591D01*
X965835Y30861D02*
X965200Y30480D01*
X965835Y156591D02*
X965200Y157480D01*
X805815Y51435D02*
X805815Y30861D01*
X805815Y51435D02*
X792099Y65151D01*
X792099Y142875D01*
X806704Y157480D01*
X805815Y30861D02*
X806704Y30480D01*
X766953Y30861D02*
X766953Y50292D01*
X752094Y65151D01*
X752094Y141732D01*
X766953Y156591D01*
X766953Y30861D02*
X767080Y30480D01*
X766953Y156591D02*
X767080Y157480D01*
X726948Y50292D02*
X726948Y30861D01*
X726948Y50292D02*
X712089Y65151D01*
X712089Y141732D01*
X726948Y156591D01*
X726948Y30861D02*
X727456Y30480D01*
X726948Y156591D02*
X727456Y157480D01*
X686943Y51435D02*
X686943Y30861D01*
X686943Y51435D02*
X673227Y65151D01*
X673227Y142875D01*
X687832Y157480D01*
X686943Y30861D02*
X687832Y30480D01*
X410337Y30861D02*
X410337Y50292D01*
X395478Y65151D01*
X395478Y140589D01*
X411480Y156591D01*
X410337Y30861D02*
X410464Y30480D01*
X411480Y156591D02*
X410464Y157480D01*
X370332Y46863D02*
X370332Y30861D01*
X370332Y46863D02*
X353187Y64008D01*
X353187Y137160D01*
X370332Y154305D01*
X370332Y156591D01*
X370332Y30861D02*
X370840Y30480D01*
X370332Y156591D02*
X370840Y157480D01*
X728091Y137160D02*
X728091Y72009D01*
X728091Y137160D02*
X742950Y152019D01*
X742950Y182880D01*
X728091Y197739D01*
X728091Y72009D02*
X727456Y71120D01*
X728091Y197739D02*
X727456Y198120D01*
X450342Y137160D02*
X450342Y72009D01*
X450342Y137160D02*
X465201Y152019D01*
X465201Y182880D01*
X450342Y197739D01*
X450342Y72009D02*
X450088Y71120D01*
X450342Y197739D02*
X450088Y198120D01*
X490347Y137160D02*
X490347Y72009D01*
X490347Y137160D02*
X505206Y152019D01*
X505206Y182880D01*
X490347Y197739D01*
X490347Y72009D02*
X489712Y71120D01*
X490347Y197739D02*
X489712Y198120D01*
X530352Y137160D02*
X530352Y72009D01*
X530352Y137160D02*
X544068Y150876D01*
X544068Y184023D01*
X530352Y197739D01*
X530352Y72009D02*
X529336Y71120D01*
X530352Y197739D02*
X529336Y198120D01*
X569214Y137160D02*
X569214Y72009D01*
X569214Y137160D02*
X584073Y152019D01*
X584073Y182880D01*
X569214Y197739D01*
X569214Y72009D02*
X568960Y71120D01*
X569214Y197739D02*
X568960Y198120D01*
X609219Y137160D02*
X609219Y72009D01*
X609219Y137160D02*
X624078Y152019D01*
X624078Y182880D01*
X609219Y197739D01*
X609219Y72009D02*
X608584Y71120D01*
X609219Y197739D02*
X608584Y198120D01*
X649224Y137160D02*
X649224Y72009D01*
X649224Y137160D02*
X662940Y150876D01*
X662940Y184023D01*
X649224Y197739D01*
X649224Y72009D02*
X648208Y71120D01*
X649224Y197739D02*
X648208Y198120D01*
X688086Y137160D02*
X688086Y72009D01*
X688086Y137160D02*
X702945Y152019D01*
X702945Y182880D01*
X688086Y197739D01*
X688086Y72009D02*
X687832Y71120D01*
X688086Y197739D02*
X687832Y198120D01*
X330327Y46863D02*
X330327Y30861D01*
X330327Y46863D02*
X313182Y64008D01*
X313182Y139446D01*
X331216Y157480D01*
X330327Y30861D02*
X331216Y30480D01*
X411480Y72009D02*
X411480Y137160D01*
X425196Y150876D01*
X425196Y184023D01*
X411480Y197739D01*
X411480Y72009D02*
X410464Y71120D01*
X411480Y197739D02*
X410464Y198120D01*
X768096Y137160D02*
X768096Y72009D01*
X768096Y137160D02*
X781812Y150876D01*
X781812Y184023D01*
X768096Y197739D01*
X768096Y72009D02*
X767080Y71120D01*
X768096Y197739D02*
X767080Y198120D01*
X846963Y137160D02*
X846963Y72009D01*
X846963Y137160D02*
X861822Y152019D01*
X861822Y182880D01*
X846963Y197739D01*
X846963Y72009D02*
X846328Y71120D01*
X846963Y197739D02*
X846328Y198120D01*
X886968Y137160D02*
X886968Y72009D01*
X886968Y137160D02*
X900684Y150876D01*
X900684Y184023D01*
X886968Y197739D01*
X886968Y72009D02*
X885952Y71120D01*
X886968Y197739D02*
X885952Y198120D01*
X173736Y48006D02*
X173736Y30861D01*
X173736Y48006D02*
X189738Y64008D01*
X189738Y140589D01*
X173736Y156591D01*
X173736Y30861D02*
X172720Y30480D01*
X173736Y156591D02*
X172720Y157480D01*
X925830Y137160D02*
X925830Y72009D01*
X925830Y137160D02*
X940689Y152019D01*
X940689Y182880D01*
X925830Y197739D01*
X925830Y72009D02*
X925576Y71120D01*
X925830Y197739D02*
X925576Y198120D01*
X964692Y137160D02*
X964692Y72009D01*
X964692Y137160D02*
X949833Y152019D01*
X949833Y182880D01*
X964692Y197739D01*
X964692Y72009D02*
X965200Y71120D01*
X964692Y197739D02*
X965200Y198120D01*
X211455Y51435D02*
X211455Y30861D01*
X211455Y51435D02*
X197739Y65151D01*
X197739Y142875D01*
X212344Y157480D01*
X211455Y30861D02*
X212344Y30480D01*
X806958Y72009D02*
X806958Y137160D01*
X821817Y152019D01*
X821817Y182880D01*
X806958Y197739D01*
X806958Y72009D02*
X806704Y71120D01*
X806958Y197739D02*
X806704Y198120D01*
D12*
X371475Y130302D02*
X371475Y72009D01*
X371475Y130302D02*
X390906Y149733D01*
X390906Y178308D01*
X371475Y197739D01*
X371475Y72009D02*
X370840Y71120D01*
X371475Y197739D02*
X370840Y198120D01*
D13*
X291465Y136017D02*
X291465Y72009D01*
X291465Y136017D02*
X276606Y150876D01*
X276606Y182880D01*
X291465Y197739D01*
X291465Y72009D02*
X291592Y71120D01*
X291465Y197739D02*
X291592Y198120D01*
X251460Y137160D02*
X251460Y72009D01*
X251460Y137160D02*
X236601Y152019D01*
X236601Y182880D01*
X251460Y197739D01*
X251460Y72009D02*
X251968Y71120D01*
X251460Y197739D02*
X251968Y198120D01*
X212598Y137160D02*
X212598Y72009D01*
X212598Y137160D02*
X227457Y152019D01*
X227457Y182880D01*
X212598Y197739D01*
X212598Y72009D02*
X212344Y71120D01*
X212598Y197739D02*
X212344Y198120D01*
X252603Y50292D02*
X252603Y30861D01*
X252603Y50292D02*
X267462Y65151D01*
X267462Y141732D01*
X252603Y156591D01*
X252603Y30861D02*
X251968Y30480D01*
X252603Y156591D02*
X251968Y157480D01*
X292608Y51435D02*
X292608Y30861D01*
X292608Y51435D02*
X306324Y65151D01*
X306324Y142875D01*
X292608Y156591D01*
X292608Y30861D02*
X291592Y30480D01*
X292608Y156591D02*
X291592Y157480D01*
X132588Y46863D02*
X132588Y30861D01*
X132588Y46863D02*
X115443Y64008D01*
X115443Y139446D01*
X132588Y156591D01*
X132588Y30861D02*
X133096Y30480D01*
X132588Y156591D02*
X133096Y157480D01*
D12*
X331470Y129159D02*
X331470Y72009D01*
X331470Y129159D02*
X350901Y148590D01*
X350901Y178308D01*
X331470Y197739D01*
X331470Y72009D02*
X331216Y71120D01*
X331470Y197739D02*
X331216Y198120D01*
M02*
