M48
;GenerationSoftware,Autodesk,EAGLE,9.6.1*%
;CreationDate,2024-04-07T23:53:10Z*%
FMAT,2
ICI,OFF
METRIC,TZ,000.000
T3C1.524
T2C3.150
T1C3.556
%
G90
M71
T1
X3759Y17780
X106070Y17780
X3759Y5080
X106070Y5080
T2
X6350Y11430
X103581Y11430
T3
X56896Y19812
X56896Y15748
X60858Y19812
X64821Y19812
X68783Y19812
X72746Y19812
X76708Y19812
X80670Y19812
X84633Y19812
X88595Y19812
X92558Y19812
X96520Y19812
X60858Y15748
X64821Y15748
X68783Y15748
X72746Y15748
X76708Y15748
X80670Y15748
X84633Y15748
X88595Y15748
X92558Y15748
X96520Y15748
X52934Y15748
X52934Y19812
X48971Y15748
X45009Y15748
X41046Y15748
X37084Y15748
X33122Y15748
X29159Y15748
X25197Y15748
X21234Y15748
X17272Y15748
X13310Y15748
X48971Y19812
X45009Y19812
X41046Y19812
X37084Y19812
X33122Y19812
X29159Y19812
X25197Y19812
X21234Y19812
X17272Y19812
X13310Y19812
X56896Y7112
X56896Y3048
X60858Y7112
X64821Y7112
X68783Y7112
X72746Y7112
X76708Y7112
X80670Y7112
X84633Y7112
X88595Y7112
X92558Y7112
X96520Y7112
X60858Y3048
X64821Y3048
X68783Y3048
X72746Y3048
X76708Y3048
X80670Y3048
X84633Y3048
X88595Y3048
X92558Y3048
X96520Y3048
X52934Y3048
X52934Y7112
X48971Y3048
X45009Y3048
X41046Y3048
X37084Y3048
X33122Y3048
X29159Y3048
X25197Y3048
X21234Y3048
X17272Y3048
X13310Y3048
X48971Y7112
X45009Y7112
X41046Y7112
X37084Y7112
X33122Y7112
X29159Y7112
X25197Y7112
X21234Y7112
X17272Y7112
X13310Y7112
M30