G04 EAGLE Gerber RS-274X export*
G75*
%MOMM*%
%FSLAX34Y34*%
%LPD*%
%INBottom Copper*%
%IPPOS*%
%AMOC8*
5,1,8,0,0,1.08239X$1,22.5*%
G01*
%ADD10P,2.474344X8X202.500000*%
%ADD11P,2.474344X8X22.500000*%
%ADD12C,0.812800*%

G36*
X1093490Y5084D02*
X1093490Y5084D01*
X1093509Y5082D01*
X1093611Y5104D01*
X1093713Y5120D01*
X1093730Y5130D01*
X1093750Y5134D01*
X1093839Y5187D01*
X1093930Y5236D01*
X1093944Y5250D01*
X1093961Y5260D01*
X1094028Y5339D01*
X1094100Y5414D01*
X1094108Y5432D01*
X1094121Y5447D01*
X1094160Y5543D01*
X1094203Y5637D01*
X1094205Y5657D01*
X1094213Y5675D01*
X1094231Y5842D01*
X1094231Y413258D01*
X1094228Y413278D01*
X1094230Y413297D01*
X1094208Y413399D01*
X1094192Y413501D01*
X1094182Y413518D01*
X1094178Y413538D01*
X1094125Y413627D01*
X1094076Y413718D01*
X1094062Y413732D01*
X1094052Y413749D01*
X1093973Y413816D01*
X1093898Y413888D01*
X1093880Y413896D01*
X1093865Y413909D01*
X1093769Y413948D01*
X1093675Y413991D01*
X1093655Y413993D01*
X1093637Y414001D01*
X1093470Y414019D01*
X5842Y414019D01*
X5822Y414016D01*
X5803Y414018D01*
X5701Y413996D01*
X5599Y413980D01*
X5582Y413970D01*
X5562Y413966D01*
X5473Y413913D01*
X5382Y413864D01*
X5368Y413850D01*
X5351Y413840D01*
X5284Y413761D01*
X5212Y413686D01*
X5204Y413668D01*
X5191Y413653D01*
X5152Y413557D01*
X5109Y413463D01*
X5107Y413443D01*
X5099Y413425D01*
X5081Y413258D01*
X5081Y5842D01*
X5084Y5822D01*
X5082Y5803D01*
X5104Y5701D01*
X5120Y5599D01*
X5130Y5582D01*
X5134Y5562D01*
X5187Y5473D01*
X5236Y5382D01*
X5250Y5368D01*
X5260Y5351D01*
X5339Y5284D01*
X5414Y5212D01*
X5432Y5204D01*
X5447Y5191D01*
X5543Y5152D01*
X5637Y5109D01*
X5657Y5107D01*
X5675Y5099D01*
X5842Y5081D01*
X1093470Y5081D01*
X1093490Y5084D01*
G37*
%LPC*%
G36*
X166302Y55625D02*
X166302Y55625D01*
X157225Y64702D01*
X157225Y77538D01*
X163098Y83411D01*
X163151Y83485D01*
X163211Y83555D01*
X163223Y83585D01*
X163242Y83611D01*
X163269Y83698D01*
X163303Y83783D01*
X163307Y83824D01*
X163314Y83846D01*
X163313Y83878D01*
X163321Y83949D01*
X163321Y191135D01*
X163318Y191155D01*
X163320Y191174D01*
X163298Y191276D01*
X163282Y191378D01*
X163272Y191395D01*
X163268Y191415D01*
X163215Y191504D01*
X163166Y191595D01*
X163152Y191609D01*
X163142Y191626D01*
X163063Y191693D01*
X162988Y191765D01*
X162970Y191773D01*
X162955Y191786D01*
X162859Y191825D01*
X162765Y191868D01*
X162745Y191870D01*
X162727Y191878D01*
X162560Y191896D01*
X122208Y191896D01*
X119220Y193134D01*
X104234Y208120D01*
X102996Y211108D01*
X102996Y242917D01*
X104234Y245905D01*
X106520Y248191D01*
X109508Y249429D01*
X123692Y249429D01*
X123763Y249440D01*
X123834Y249442D01*
X123883Y249460D01*
X123935Y249468D01*
X123998Y249502D01*
X124065Y249527D01*
X124106Y249559D01*
X124152Y249584D01*
X124201Y249636D01*
X124257Y249680D01*
X124286Y249724D01*
X124321Y249762D01*
X124352Y249827D01*
X124390Y249887D01*
X124403Y249938D01*
X124425Y249985D01*
X124433Y250056D01*
X124450Y250126D01*
X124446Y250178D01*
X124452Y250229D01*
X124437Y250300D01*
X124431Y250371D01*
X124411Y250419D01*
X124400Y250470D01*
X124363Y250531D01*
X124335Y250597D01*
X124290Y250653D01*
X124274Y250681D01*
X124263Y250690D01*
X124260Y250694D01*
X124251Y250702D01*
X124230Y250728D01*
X119125Y255833D01*
X119125Y260097D01*
X132334Y260097D01*
X132354Y260100D01*
X132373Y260098D01*
X132475Y260120D01*
X132577Y260137D01*
X132594Y260146D01*
X132614Y260150D01*
X132703Y260203D01*
X132794Y260252D01*
X132808Y260266D01*
X132825Y260276D01*
X132892Y260355D01*
X132963Y260430D01*
X132972Y260448D01*
X132985Y260463D01*
X133023Y260559D01*
X133067Y260653D01*
X133069Y260673D01*
X133077Y260691D01*
X133095Y260858D01*
X133095Y262382D01*
X133092Y262402D01*
X133094Y262421D01*
X133072Y262523D01*
X133055Y262625D01*
X133046Y262642D01*
X133042Y262662D01*
X132989Y262751D01*
X132940Y262842D01*
X132926Y262856D01*
X132916Y262873D01*
X132837Y262940D01*
X132762Y263011D01*
X132744Y263020D01*
X132729Y263033D01*
X132633Y263072D01*
X132539Y263115D01*
X132519Y263117D01*
X132501Y263125D01*
X132334Y263143D01*
X119125Y263143D01*
X119125Y267407D01*
X124865Y273147D01*
X124907Y273205D01*
X124956Y273257D01*
X124978Y273304D01*
X125009Y273346D01*
X125030Y273415D01*
X125060Y273480D01*
X125066Y273532D01*
X125081Y273582D01*
X125079Y273653D01*
X125087Y273724D01*
X125076Y273775D01*
X125075Y273827D01*
X125050Y273895D01*
X125035Y273965D01*
X125008Y274010D01*
X124990Y274058D01*
X124945Y274114D01*
X124909Y274176D01*
X124869Y274210D01*
X124837Y274250D01*
X124776Y274289D01*
X124722Y274336D01*
X124673Y274355D01*
X124630Y274383D01*
X124560Y274401D01*
X124494Y274428D01*
X124422Y274436D01*
X124391Y274444D01*
X124368Y274442D01*
X124327Y274446D01*
X109508Y274446D01*
X106520Y275684D01*
X104234Y277970D01*
X102996Y280958D01*
X102996Y357217D01*
X104234Y360205D01*
X119220Y375191D01*
X122208Y376429D01*
X123692Y376429D01*
X123763Y376440D01*
X123834Y376442D01*
X123883Y376460D01*
X123935Y376468D01*
X123998Y376502D01*
X124065Y376527D01*
X124106Y376559D01*
X124152Y376584D01*
X124201Y376636D01*
X124257Y376680D01*
X124286Y376724D01*
X124321Y376762D01*
X124352Y376827D01*
X124390Y376887D01*
X124403Y376938D01*
X124425Y376985D01*
X124433Y377056D01*
X124450Y377126D01*
X124446Y377178D01*
X124452Y377229D01*
X124437Y377300D01*
X124431Y377371D01*
X124411Y377419D01*
X124400Y377470D01*
X124363Y377531D01*
X124335Y377597D01*
X124290Y377653D01*
X124274Y377681D01*
X124256Y377696D01*
X124230Y377728D01*
X119125Y382833D01*
X119125Y387097D01*
X132334Y387097D01*
X132354Y387100D01*
X132373Y387098D01*
X132475Y387120D01*
X132577Y387137D01*
X132594Y387146D01*
X132614Y387150D01*
X132703Y387203D01*
X132794Y387252D01*
X132808Y387266D01*
X132825Y387276D01*
X132892Y387355D01*
X132963Y387430D01*
X132972Y387448D01*
X132985Y387463D01*
X133023Y387559D01*
X133067Y387653D01*
X133069Y387673D01*
X133077Y387691D01*
X133095Y387858D01*
X133095Y388621D01*
X133097Y388621D01*
X133097Y387858D01*
X133100Y387838D01*
X133098Y387819D01*
X133120Y387717D01*
X133137Y387615D01*
X133146Y387598D01*
X133150Y387578D01*
X133203Y387489D01*
X133252Y387398D01*
X133266Y387384D01*
X133276Y387367D01*
X133355Y387300D01*
X133430Y387229D01*
X133448Y387220D01*
X133463Y387207D01*
X133559Y387168D01*
X133653Y387125D01*
X133673Y387123D01*
X133691Y387115D01*
X133858Y387097D01*
X147067Y387097D01*
X147067Y382833D01*
X141962Y377728D01*
X141920Y377670D01*
X141871Y377618D01*
X141849Y377571D01*
X141818Y377529D01*
X141797Y377460D01*
X141767Y377395D01*
X141761Y377343D01*
X141746Y377293D01*
X141748Y377222D01*
X141740Y377151D01*
X141751Y377100D01*
X141752Y377048D01*
X141777Y376980D01*
X141792Y376910D01*
X141819Y376865D01*
X141837Y376817D01*
X141882Y376761D01*
X141918Y376699D01*
X141958Y376665D01*
X141990Y376625D01*
X142051Y376586D01*
X142105Y376539D01*
X142154Y376520D01*
X142197Y376492D01*
X142267Y376474D01*
X142333Y376447D01*
X142405Y376439D01*
X142436Y376431D01*
X142459Y376433D01*
X142500Y376429D01*
X148718Y376429D01*
X148808Y376443D01*
X148899Y376451D01*
X148928Y376463D01*
X148960Y376468D01*
X149041Y376511D01*
X149125Y376547D01*
X149157Y376573D01*
X149178Y376584D01*
X149200Y376607D01*
X149256Y376652D01*
X157002Y384398D01*
X157055Y384472D01*
X157093Y384515D01*
X157094Y384516D01*
X157094Y384517D01*
X157115Y384541D01*
X157127Y384572D01*
X157146Y384598D01*
X157173Y384685D01*
X157178Y384699D01*
X157197Y384739D01*
X157198Y384748D01*
X157207Y384770D01*
X157211Y384811D01*
X157218Y384833D01*
X157217Y384865D01*
X157225Y384936D01*
X157225Y395038D01*
X166302Y404115D01*
X179138Y404115D01*
X188215Y395038D01*
X188215Y382202D01*
X179138Y373125D01*
X169036Y373125D01*
X168946Y373111D01*
X168855Y373103D01*
X168826Y373091D01*
X168794Y373086D01*
X168713Y373043D01*
X168629Y373007D01*
X168597Y372981D01*
X168576Y372970D01*
X168554Y372947D01*
X168498Y372902D01*
X157005Y361409D01*
X154017Y360171D01*
X144655Y360171D01*
X144585Y360160D01*
X144513Y360158D01*
X144464Y360140D01*
X144413Y360132D01*
X144349Y360098D01*
X144282Y360073D01*
X144241Y360041D01*
X144195Y360016D01*
X144146Y359964D01*
X144090Y359920D01*
X144062Y359876D01*
X144026Y359838D01*
X143996Y359773D01*
X143957Y359713D01*
X143944Y359662D01*
X143922Y359615D01*
X143914Y359544D01*
X143897Y359474D01*
X143901Y359422D01*
X143895Y359371D01*
X143910Y359300D01*
X143916Y359229D01*
X143936Y359181D01*
X143947Y359130D01*
X143984Y359069D01*
X144012Y359003D01*
X144057Y358947D01*
X144074Y358919D01*
X144091Y358904D01*
X144117Y358872D01*
X148591Y354398D01*
X148591Y341562D01*
X139514Y332485D01*
X126678Y332485D01*
X120553Y338610D01*
X120495Y338652D01*
X120443Y338701D01*
X120396Y338723D01*
X120354Y338753D01*
X120285Y338775D01*
X120220Y338805D01*
X120168Y338810D01*
X120118Y338826D01*
X120047Y338824D01*
X119976Y338832D01*
X119925Y338821D01*
X119873Y338819D01*
X119805Y338795D01*
X119735Y338780D01*
X119690Y338753D01*
X119642Y338735D01*
X119586Y338690D01*
X119524Y338653D01*
X119490Y338614D01*
X119450Y338581D01*
X119411Y338521D01*
X119364Y338466D01*
X119345Y338418D01*
X119317Y338374D01*
X119299Y338305D01*
X119272Y338238D01*
X119264Y338167D01*
X119256Y338136D01*
X119258Y338113D01*
X119254Y338072D01*
X119254Y291465D01*
X119257Y291445D01*
X119255Y291426D01*
X119277Y291324D01*
X119293Y291222D01*
X119303Y291205D01*
X119307Y291185D01*
X119360Y291096D01*
X119409Y291005D01*
X119423Y290991D01*
X119433Y290974D01*
X119512Y290907D01*
X119587Y290835D01*
X119605Y290827D01*
X119620Y290814D01*
X119716Y290775D01*
X119810Y290732D01*
X119830Y290730D01*
X119848Y290722D01*
X120015Y290704D01*
X147667Y290704D01*
X150655Y289466D01*
X164116Y276005D01*
X164132Y275993D01*
X164144Y275978D01*
X164232Y275922D01*
X164315Y275862D01*
X164334Y275856D01*
X164351Y275845D01*
X164452Y275820D01*
X164550Y275789D01*
X164570Y275790D01*
X164590Y275785D01*
X164693Y275793D01*
X164796Y275796D01*
X164815Y275802D01*
X164835Y275804D01*
X164930Y275844D01*
X165027Y275880D01*
X165043Y275892D01*
X165061Y275900D01*
X165192Y276005D01*
X166302Y277115D01*
X179138Y277115D01*
X188215Y268038D01*
X188215Y255202D01*
X179138Y246125D01*
X169036Y246125D01*
X168946Y246111D01*
X168855Y246103D01*
X168826Y246091D01*
X168794Y246086D01*
X168713Y246043D01*
X168629Y246007D01*
X168597Y245981D01*
X168576Y245970D01*
X168554Y245947D01*
X168498Y245902D01*
X157005Y234409D01*
X154017Y233171D01*
X144655Y233171D01*
X144585Y233160D01*
X144513Y233158D01*
X144464Y233140D01*
X144413Y233132D01*
X144349Y233098D01*
X144282Y233073D01*
X144241Y233041D01*
X144195Y233016D01*
X144146Y232964D01*
X144090Y232920D01*
X144062Y232876D01*
X144026Y232838D01*
X143996Y232773D01*
X143957Y232713D01*
X143944Y232662D01*
X143922Y232615D01*
X143914Y232544D01*
X143897Y232474D01*
X143901Y232422D01*
X143895Y232371D01*
X143910Y232300D01*
X143916Y232229D01*
X143936Y232181D01*
X143947Y232130D01*
X143984Y232069D01*
X144012Y232003D01*
X144057Y231947D01*
X144074Y231919D01*
X144091Y231904D01*
X144117Y231872D01*
X148591Y227398D01*
X148591Y214562D01*
X143482Y209453D01*
X143440Y209395D01*
X143391Y209343D01*
X143369Y209296D01*
X143339Y209254D01*
X143317Y209185D01*
X143287Y209120D01*
X143282Y209068D01*
X143266Y209018D01*
X143268Y208947D01*
X143260Y208876D01*
X143271Y208825D01*
X143273Y208773D01*
X143297Y208705D01*
X143312Y208635D01*
X143339Y208590D01*
X143357Y208542D01*
X143402Y208486D01*
X143439Y208424D01*
X143478Y208390D01*
X143511Y208350D01*
X143571Y208311D01*
X143626Y208264D01*
X143674Y208245D01*
X143718Y208217D01*
X143787Y208199D01*
X143854Y208172D01*
X143925Y208164D01*
X143956Y208156D01*
X143979Y208158D01*
X144020Y208154D01*
X161796Y208154D01*
X161866Y208165D01*
X161938Y208167D01*
X161987Y208185D01*
X162038Y208193D01*
X162102Y208227D01*
X162169Y208252D01*
X162210Y208284D01*
X162256Y208309D01*
X162305Y208361D01*
X162361Y208405D01*
X162389Y208449D01*
X162425Y208487D01*
X162455Y208552D01*
X162494Y208612D01*
X162507Y208663D01*
X162529Y208710D01*
X162537Y208781D01*
X162554Y208851D01*
X162550Y208903D01*
X162556Y208954D01*
X162541Y209025D01*
X162535Y209096D01*
X162515Y209144D01*
X162504Y209195D01*
X162467Y209256D01*
X162439Y209322D01*
X162394Y209378D01*
X162377Y209406D01*
X162360Y209421D01*
X162334Y209453D01*
X157225Y214562D01*
X157225Y227398D01*
X166302Y236475D01*
X179138Y236475D01*
X188215Y227398D01*
X188215Y214562D01*
X179138Y205485D01*
X179126Y205485D01*
X179081Y205478D01*
X179035Y205480D01*
X178960Y205458D01*
X178883Y205446D01*
X178843Y205424D01*
X178799Y205411D01*
X178735Y205367D01*
X178666Y205330D01*
X178634Y205297D01*
X178597Y205271D01*
X178550Y205208D01*
X178497Y205152D01*
X178477Y205110D01*
X178450Y205074D01*
X178426Y205000D01*
X178393Y204929D01*
X178388Y204883D01*
X178374Y204840D01*
X178374Y204762D01*
X178366Y204685D01*
X178376Y204640D01*
X178376Y204594D01*
X178414Y204462D01*
X178418Y204444D01*
X178421Y204440D01*
X178423Y204433D01*
X179579Y201642D01*
X179579Y86489D01*
X179593Y86399D01*
X179601Y86308D01*
X179613Y86279D01*
X179618Y86247D01*
X179661Y86166D01*
X179697Y86082D01*
X179723Y86050D01*
X179734Y86029D01*
X179757Y86007D01*
X179802Y85951D01*
X188215Y77538D01*
X188215Y64702D01*
X179138Y55625D01*
X166302Y55625D01*
G37*
%LPD*%
%LPC*%
G36*
X364422Y55625D02*
X364422Y55625D01*
X355345Y64702D01*
X355345Y77538D01*
X363123Y85316D01*
X363176Y85390D01*
X363236Y85460D01*
X363248Y85490D01*
X363267Y85516D01*
X363294Y85603D01*
X363328Y85688D01*
X363332Y85729D01*
X363339Y85751D01*
X363338Y85783D01*
X363346Y85854D01*
X363346Y201642D01*
X364592Y204650D01*
X364619Y204763D01*
X364648Y204877D01*
X364647Y204884D01*
X364649Y204890D01*
X364638Y205006D01*
X364628Y205123D01*
X364626Y205128D01*
X364625Y205135D01*
X364578Y205242D01*
X364532Y205349D01*
X364527Y205355D01*
X364525Y205359D01*
X364513Y205373D01*
X364427Y205480D01*
X355345Y214562D01*
X355345Y227398D01*
X364422Y236475D01*
X377258Y236475D01*
X381097Y232636D01*
X381155Y232594D01*
X381207Y232545D01*
X381254Y232523D01*
X381296Y232493D01*
X381365Y232471D01*
X381430Y232441D01*
X381482Y232436D01*
X381532Y232420D01*
X381603Y232422D01*
X381674Y232414D01*
X381725Y232425D01*
X381777Y232427D01*
X381845Y232451D01*
X381915Y232466D01*
X381960Y232493D01*
X382008Y232511D01*
X382064Y232556D01*
X382126Y232593D01*
X382160Y232632D01*
X382200Y232665D01*
X382239Y232725D01*
X382286Y232780D01*
X382305Y232828D01*
X382333Y232872D01*
X382351Y232941D01*
X382378Y233008D01*
X382386Y233079D01*
X382394Y233110D01*
X382392Y233133D01*
X382396Y233174D01*
X382396Y249426D01*
X382385Y249496D01*
X382383Y249568D01*
X382365Y249617D01*
X382357Y249668D01*
X382323Y249732D01*
X382298Y249799D01*
X382266Y249840D01*
X382241Y249886D01*
X382189Y249935D01*
X382145Y249991D01*
X382101Y250019D01*
X382063Y250055D01*
X381998Y250085D01*
X381938Y250124D01*
X381887Y250137D01*
X381840Y250159D01*
X381769Y250167D01*
X381699Y250184D01*
X381647Y250180D01*
X381596Y250186D01*
X381525Y250171D01*
X381454Y250165D01*
X381406Y250145D01*
X381355Y250134D01*
X381294Y250097D01*
X381228Y250069D01*
X381172Y250024D01*
X381144Y250007D01*
X381129Y249990D01*
X381097Y249964D01*
X377258Y246125D01*
X364422Y246125D01*
X355345Y255202D01*
X355345Y268038D01*
X364422Y277115D01*
X377258Y277115D01*
X381097Y273276D01*
X381155Y273234D01*
X381207Y273185D01*
X381254Y273163D01*
X381296Y273133D01*
X381365Y273111D01*
X381430Y273081D01*
X381482Y273076D01*
X381532Y273060D01*
X381603Y273062D01*
X381674Y273054D01*
X381725Y273065D01*
X381777Y273067D01*
X381845Y273091D01*
X381915Y273106D01*
X381960Y273133D01*
X382008Y273151D01*
X382064Y273196D01*
X382126Y273233D01*
X382160Y273272D01*
X382200Y273305D01*
X382239Y273365D01*
X382286Y273420D01*
X382305Y273468D01*
X382333Y273512D01*
X382351Y273581D01*
X382378Y273648D01*
X382386Y273719D01*
X382394Y273750D01*
X382392Y273773D01*
X382396Y273814D01*
X382396Y335786D01*
X382385Y335856D01*
X382383Y335928D01*
X382365Y335977D01*
X382357Y336028D01*
X382323Y336092D01*
X382298Y336159D01*
X382266Y336200D01*
X382241Y336246D01*
X382189Y336295D01*
X382145Y336351D01*
X382101Y336379D01*
X382063Y336415D01*
X381998Y336445D01*
X381938Y336484D01*
X381887Y336497D01*
X381840Y336519D01*
X381769Y336527D01*
X381699Y336544D01*
X381647Y336540D01*
X381596Y336546D01*
X381525Y336531D01*
X381454Y336525D01*
X381406Y336505D01*
X381355Y336494D01*
X381294Y336457D01*
X381228Y336429D01*
X381172Y336384D01*
X381144Y336367D01*
X381129Y336350D01*
X381097Y336324D01*
X377258Y332485D01*
X364422Y332485D01*
X355345Y341562D01*
X355345Y354398D01*
X364422Y363475D01*
X377258Y363475D01*
X381097Y359636D01*
X381155Y359594D01*
X381207Y359545D01*
X381254Y359523D01*
X381296Y359493D01*
X381365Y359471D01*
X381430Y359441D01*
X381482Y359436D01*
X381532Y359420D01*
X381603Y359422D01*
X381674Y359414D01*
X381725Y359425D01*
X381777Y359427D01*
X381845Y359451D01*
X381915Y359466D01*
X381960Y359493D01*
X382008Y359511D01*
X382064Y359556D01*
X382126Y359593D01*
X382160Y359632D01*
X382200Y359665D01*
X382239Y359725D01*
X382286Y359780D01*
X382305Y359828D01*
X382333Y359872D01*
X382351Y359941D01*
X382378Y360008D01*
X382386Y360079D01*
X382394Y360110D01*
X382392Y360133D01*
X382396Y360174D01*
X382396Y364618D01*
X382382Y364708D01*
X382374Y364799D01*
X382362Y364828D01*
X382357Y364860D01*
X382314Y364941D01*
X382278Y365025D01*
X382252Y365057D01*
X382241Y365078D01*
X382218Y365100D01*
X382173Y365156D01*
X374427Y372902D01*
X374353Y372955D01*
X374284Y373015D01*
X374253Y373027D01*
X374227Y373046D01*
X374140Y373073D01*
X374055Y373107D01*
X374014Y373111D01*
X373992Y373118D01*
X373960Y373117D01*
X373889Y373125D01*
X364422Y373125D01*
X355345Y382202D01*
X355345Y395038D01*
X364422Y404115D01*
X377258Y404115D01*
X386335Y395038D01*
X386335Y384301D01*
X386349Y384211D01*
X386357Y384120D01*
X386369Y384091D01*
X386374Y384059D01*
X386417Y383978D01*
X386453Y383894D01*
X386479Y383862D01*
X386490Y383841D01*
X386513Y383819D01*
X386558Y383763D01*
X397416Y372905D01*
X398654Y369917D01*
X398654Y359920D01*
X398665Y359850D01*
X398667Y359778D01*
X398685Y359729D01*
X398693Y359678D01*
X398727Y359614D01*
X398752Y359547D01*
X398784Y359506D01*
X398809Y359460D01*
X398861Y359411D01*
X398905Y359355D01*
X398949Y359327D01*
X398987Y359291D01*
X399052Y359261D01*
X399112Y359222D01*
X399163Y359209D01*
X399210Y359187D01*
X399281Y359179D01*
X399351Y359162D01*
X399403Y359166D01*
X399454Y359160D01*
X399525Y359175D01*
X399596Y359181D01*
X399644Y359201D01*
X399695Y359212D01*
X399756Y359249D01*
X399822Y359277D01*
X399878Y359322D01*
X399906Y359339D01*
X399921Y359356D01*
X399953Y359382D01*
X404046Y363475D01*
X416882Y363475D01*
X425959Y354398D01*
X425959Y341562D01*
X416882Y332485D01*
X404046Y332485D01*
X399953Y336578D01*
X399895Y336620D01*
X399843Y336669D01*
X399796Y336691D01*
X399754Y336721D01*
X399685Y336743D01*
X399620Y336773D01*
X399568Y336778D01*
X399518Y336794D01*
X399447Y336792D01*
X399376Y336800D01*
X399325Y336789D01*
X399273Y336787D01*
X399205Y336763D01*
X399135Y336748D01*
X399090Y336721D01*
X399042Y336703D01*
X398986Y336658D01*
X398924Y336621D01*
X398890Y336582D01*
X398850Y336549D01*
X398811Y336489D01*
X398764Y336434D01*
X398745Y336386D01*
X398717Y336342D01*
X398699Y336273D01*
X398672Y336206D01*
X398664Y336135D01*
X398656Y336104D01*
X398658Y336081D01*
X398654Y336040D01*
X398654Y273560D01*
X398665Y273490D01*
X398667Y273418D01*
X398685Y273369D01*
X398693Y273318D01*
X398727Y273254D01*
X398752Y273187D01*
X398784Y273146D01*
X398809Y273100D01*
X398861Y273051D01*
X398905Y272995D01*
X398949Y272967D01*
X398987Y272931D01*
X399052Y272901D01*
X399112Y272862D01*
X399163Y272849D01*
X399210Y272827D01*
X399281Y272819D01*
X399351Y272802D01*
X399403Y272806D01*
X399454Y272800D01*
X399525Y272815D01*
X399596Y272821D01*
X399644Y272841D01*
X399695Y272852D01*
X399756Y272889D01*
X399822Y272917D01*
X399878Y272962D01*
X399906Y272979D01*
X399921Y272996D01*
X399953Y273022D01*
X404046Y277115D01*
X416882Y277115D01*
X425959Y268038D01*
X425959Y255202D01*
X416882Y246125D01*
X404046Y246125D01*
X399953Y250218D01*
X399895Y250260D01*
X399843Y250309D01*
X399796Y250331D01*
X399754Y250361D01*
X399685Y250383D01*
X399620Y250413D01*
X399568Y250418D01*
X399518Y250434D01*
X399447Y250432D01*
X399376Y250440D01*
X399325Y250429D01*
X399273Y250427D01*
X399205Y250403D01*
X399135Y250388D01*
X399090Y250361D01*
X399042Y250343D01*
X398986Y250298D01*
X398924Y250261D01*
X398890Y250222D01*
X398850Y250189D01*
X398811Y250129D01*
X398764Y250074D01*
X398745Y250026D01*
X398717Y249982D01*
X398699Y249913D01*
X398672Y249846D01*
X398664Y249775D01*
X398656Y249744D01*
X398658Y249721D01*
X398654Y249680D01*
X398654Y232920D01*
X398665Y232850D01*
X398667Y232778D01*
X398685Y232729D01*
X398693Y232678D01*
X398727Y232614D01*
X398752Y232547D01*
X398784Y232506D01*
X398809Y232460D01*
X398861Y232411D01*
X398905Y232355D01*
X398949Y232327D01*
X398987Y232291D01*
X399052Y232261D01*
X399112Y232222D01*
X399163Y232209D01*
X399210Y232187D01*
X399281Y232179D01*
X399351Y232162D01*
X399403Y232166D01*
X399454Y232160D01*
X399525Y232175D01*
X399596Y232181D01*
X399644Y232201D01*
X399695Y232212D01*
X399756Y232249D01*
X399822Y232277D01*
X399878Y232322D01*
X399906Y232339D01*
X399921Y232356D01*
X399953Y232382D01*
X404046Y236475D01*
X416882Y236475D01*
X425959Y227398D01*
X425959Y214562D01*
X416882Y205485D01*
X404046Y205485D01*
X399392Y210139D01*
X399354Y210166D01*
X399323Y210200D01*
X399255Y210238D01*
X399192Y210283D01*
X399148Y210296D01*
X399108Y210319D01*
X399031Y210332D01*
X398957Y210355D01*
X398911Y210354D01*
X398866Y210362D01*
X398789Y210351D01*
X398711Y210349D01*
X398668Y210333D01*
X398623Y210326D01*
X398553Y210291D01*
X398480Y210264D01*
X398444Y210236D01*
X398403Y210215D01*
X398349Y210159D01*
X398288Y210111D01*
X398263Y210072D01*
X398231Y210039D01*
X398165Y209920D01*
X398155Y209904D01*
X398154Y209899D01*
X398150Y209892D01*
X397416Y208120D01*
X382430Y193134D01*
X380074Y192158D01*
X379974Y192096D01*
X379874Y192036D01*
X379870Y192032D01*
X379865Y192028D01*
X379790Y191939D01*
X379714Y191850D01*
X379712Y191844D01*
X379708Y191839D01*
X379666Y191731D01*
X379622Y191621D01*
X379621Y191614D01*
X379620Y191609D01*
X379619Y191591D01*
X379604Y191455D01*
X379604Y84584D01*
X379618Y84494D01*
X379626Y84403D01*
X379638Y84374D01*
X379643Y84342D01*
X379686Y84261D01*
X379722Y84177D01*
X379748Y84145D01*
X379759Y84124D01*
X379782Y84102D01*
X379827Y84046D01*
X386335Y77538D01*
X386335Y64702D01*
X377258Y55625D01*
X364422Y55625D01*
G37*
%LPD*%
%LPC*%
G36*
X33045Y345439D02*
X33045Y345439D01*
X24642Y348920D01*
X18212Y355350D01*
X14731Y363753D01*
X14731Y372847D01*
X18212Y381250D01*
X24642Y387680D01*
X33045Y391161D01*
X42139Y391161D01*
X50542Y387680D01*
X56972Y381250D01*
X60453Y372847D01*
X60453Y363753D01*
X56972Y355350D01*
X50542Y348920D01*
X42139Y345439D01*
X33045Y345439D01*
G37*
%LPD*%
%LPC*%
G36*
X1056157Y345439D02*
X1056157Y345439D01*
X1047754Y348920D01*
X1041324Y355350D01*
X1037843Y363753D01*
X1037843Y372847D01*
X1041324Y381250D01*
X1047754Y387680D01*
X1056157Y391161D01*
X1065251Y391161D01*
X1073654Y387680D01*
X1080084Y381250D01*
X1083565Y372847D01*
X1083565Y363753D01*
X1080084Y355350D01*
X1073654Y348920D01*
X1065251Y345439D01*
X1056157Y345439D01*
G37*
%LPD*%
%LPC*%
G36*
X33045Y218439D02*
X33045Y218439D01*
X24642Y221920D01*
X18212Y228350D01*
X14731Y236753D01*
X14731Y245847D01*
X18212Y254250D01*
X24642Y260680D01*
X33045Y264161D01*
X42139Y264161D01*
X50542Y260680D01*
X56972Y254250D01*
X60453Y245847D01*
X60453Y236753D01*
X56972Y228350D01*
X50542Y221920D01*
X42139Y218439D01*
X33045Y218439D01*
G37*
%LPD*%
%LPC*%
G36*
X1056157Y218439D02*
X1056157Y218439D01*
X1047754Y221920D01*
X1041324Y228350D01*
X1037843Y236753D01*
X1037843Y245847D01*
X1041324Y254250D01*
X1047754Y260680D01*
X1056157Y264161D01*
X1065251Y264161D01*
X1073654Y260680D01*
X1080084Y254250D01*
X1083565Y245847D01*
X1083565Y236753D01*
X1080084Y228350D01*
X1073654Y221920D01*
X1065251Y218439D01*
X1056157Y218439D01*
G37*
%LPD*%
%LPC*%
G36*
X1056157Y27939D02*
X1056157Y27939D01*
X1047754Y31420D01*
X1041324Y37850D01*
X1037843Y46253D01*
X1037843Y55347D01*
X1041324Y63750D01*
X1047754Y70180D01*
X1056157Y73661D01*
X1065251Y73661D01*
X1073654Y70180D01*
X1080084Y63750D01*
X1083565Y55347D01*
X1083565Y46253D01*
X1080084Y37850D01*
X1073654Y31420D01*
X1065251Y27939D01*
X1056157Y27939D01*
G37*
%LPD*%
%LPC*%
G36*
X33045Y27939D02*
X33045Y27939D01*
X24642Y31420D01*
X18212Y37850D01*
X14731Y46253D01*
X14731Y55347D01*
X18212Y63750D01*
X24642Y70180D01*
X33045Y73661D01*
X42139Y73661D01*
X50542Y70180D01*
X56972Y63750D01*
X60453Y55347D01*
X60453Y46253D01*
X56972Y37850D01*
X50542Y31420D01*
X42139Y27939D01*
X33045Y27939D01*
G37*
%LPD*%
%LPC*%
G36*
X59357Y125221D02*
X59357Y125221D01*
X51701Y128392D01*
X45842Y134251D01*
X42671Y141907D01*
X42671Y150193D01*
X45842Y157849D01*
X51701Y163708D01*
X59357Y166879D01*
X67643Y166879D01*
X75299Y163708D01*
X81158Y157849D01*
X84329Y150193D01*
X84329Y141907D01*
X81158Y134251D01*
X75299Y128392D01*
X67643Y125221D01*
X59357Y125221D01*
G37*
%LPD*%
%LPC*%
G36*
X59357Y290321D02*
X59357Y290321D01*
X51701Y293492D01*
X45842Y299351D01*
X42671Y307007D01*
X42671Y315293D01*
X45842Y322949D01*
X51701Y328808D01*
X59357Y331979D01*
X67643Y331979D01*
X75299Y328808D01*
X81158Y322949D01*
X84329Y315293D01*
X84329Y307007D01*
X81158Y299351D01*
X75299Y293492D01*
X67643Y290321D01*
X59357Y290321D01*
G37*
%LPD*%
%LPC*%
G36*
X1031669Y125221D02*
X1031669Y125221D01*
X1024013Y128392D01*
X1018154Y134251D01*
X1014983Y141907D01*
X1014983Y150193D01*
X1018154Y157849D01*
X1024013Y163708D01*
X1031669Y166879D01*
X1039955Y166879D01*
X1047611Y163708D01*
X1053470Y157849D01*
X1056641Y150193D01*
X1056641Y141907D01*
X1053470Y134251D01*
X1047611Y128392D01*
X1039955Y125221D01*
X1031669Y125221D01*
G37*
%LPD*%
%LPC*%
G36*
X1031669Y290321D02*
X1031669Y290321D01*
X1024013Y293492D01*
X1018154Y299351D01*
X1014983Y307007D01*
X1014983Y315293D01*
X1018154Y322949D01*
X1024013Y328808D01*
X1031669Y331979D01*
X1039955Y331979D01*
X1047611Y328808D01*
X1053470Y322949D01*
X1056641Y315293D01*
X1056641Y307007D01*
X1053470Y299351D01*
X1047611Y293492D01*
X1039955Y290321D01*
X1031669Y290321D01*
G37*
%LPD*%
%LPC*%
G36*
X245550Y373125D02*
X245550Y373125D01*
X236473Y382202D01*
X236473Y395038D01*
X245550Y404115D01*
X258386Y404115D01*
X267463Y395038D01*
X267463Y382202D01*
X258386Y373125D01*
X245550Y373125D01*
G37*
%LPD*%
%LPC*%
G36*
X958782Y373125D02*
X958782Y373125D01*
X949705Y382202D01*
X949705Y395038D01*
X958782Y404115D01*
X971618Y404115D01*
X980695Y395038D01*
X980695Y382202D01*
X971618Y373125D01*
X958782Y373125D01*
G37*
%LPD*%
%LPC*%
G36*
X919158Y373125D02*
X919158Y373125D01*
X910081Y382202D01*
X910081Y395038D01*
X919158Y404115D01*
X931994Y404115D01*
X941071Y395038D01*
X941071Y382202D01*
X931994Y373125D01*
X919158Y373125D01*
G37*
%LPD*%
%LPC*%
G36*
X879534Y373125D02*
X879534Y373125D01*
X870457Y382202D01*
X870457Y395038D01*
X879534Y404115D01*
X892370Y404115D01*
X901447Y395038D01*
X901447Y382202D01*
X892370Y373125D01*
X879534Y373125D01*
G37*
%LPD*%
%LPC*%
G36*
X562542Y373125D02*
X562542Y373125D01*
X553465Y382202D01*
X553465Y395038D01*
X562542Y404115D01*
X575378Y404115D01*
X584455Y395038D01*
X584455Y382202D01*
X575378Y373125D01*
X562542Y373125D01*
G37*
%LPD*%
%LPC*%
G36*
X800286Y373125D02*
X800286Y373125D01*
X791209Y382202D01*
X791209Y395038D01*
X800286Y404115D01*
X813122Y404115D01*
X822199Y395038D01*
X822199Y382202D01*
X813122Y373125D01*
X800286Y373125D01*
G37*
%LPD*%
%LPC*%
G36*
X760662Y373125D02*
X760662Y373125D01*
X751585Y382202D01*
X751585Y395038D01*
X760662Y404115D01*
X773498Y404115D01*
X782575Y395038D01*
X782575Y382202D01*
X773498Y373125D01*
X760662Y373125D01*
G37*
%LPD*%
%LPC*%
G36*
X721038Y373125D02*
X721038Y373125D01*
X711961Y382202D01*
X711961Y395038D01*
X721038Y404115D01*
X733874Y404115D01*
X742951Y395038D01*
X742951Y382202D01*
X733874Y373125D01*
X721038Y373125D01*
G37*
%LPD*%
%LPC*%
G36*
X681414Y373125D02*
X681414Y373125D01*
X672337Y382202D01*
X672337Y395038D01*
X681414Y404115D01*
X694250Y404115D01*
X703327Y395038D01*
X703327Y382202D01*
X694250Y373125D01*
X681414Y373125D01*
G37*
%LPD*%
%LPC*%
G36*
X641790Y373125D02*
X641790Y373125D01*
X632713Y382202D01*
X632713Y395038D01*
X641790Y404115D01*
X654626Y404115D01*
X663703Y395038D01*
X663703Y382202D01*
X654626Y373125D01*
X641790Y373125D01*
G37*
%LPD*%
%LPC*%
G36*
X602166Y373125D02*
X602166Y373125D01*
X593089Y382202D01*
X593089Y395038D01*
X602166Y404115D01*
X615002Y404115D01*
X624079Y395038D01*
X624079Y382202D01*
X615002Y373125D01*
X602166Y373125D01*
G37*
%LPD*%
%LPC*%
G36*
X522918Y373125D02*
X522918Y373125D01*
X513841Y382202D01*
X513841Y395038D01*
X522918Y404115D01*
X535754Y404115D01*
X544831Y395038D01*
X544831Y382202D01*
X535754Y373125D01*
X522918Y373125D01*
G37*
%LPD*%
%LPC*%
G36*
X483294Y373125D02*
X483294Y373125D01*
X474217Y382202D01*
X474217Y395038D01*
X483294Y404115D01*
X496130Y404115D01*
X505207Y395038D01*
X505207Y382202D01*
X496130Y373125D01*
X483294Y373125D01*
G37*
%LPD*%
%LPC*%
G36*
X443670Y373125D02*
X443670Y373125D01*
X434593Y382202D01*
X434593Y395038D01*
X443670Y404115D01*
X456506Y404115D01*
X465583Y395038D01*
X465583Y382202D01*
X456506Y373125D01*
X443670Y373125D01*
G37*
%LPD*%
%LPC*%
G36*
X404046Y373125D02*
X404046Y373125D01*
X394969Y382202D01*
X394969Y395038D01*
X404046Y404115D01*
X416882Y404115D01*
X425959Y395038D01*
X425959Y382202D01*
X416882Y373125D01*
X404046Y373125D01*
G37*
%LPD*%
%LPC*%
G36*
X285174Y373125D02*
X285174Y373125D01*
X276097Y382202D01*
X276097Y395038D01*
X285174Y404115D01*
X298010Y404115D01*
X307087Y395038D01*
X307087Y382202D01*
X298010Y373125D01*
X285174Y373125D01*
G37*
%LPD*%
%LPC*%
G36*
X205926Y373125D02*
X205926Y373125D01*
X196849Y382202D01*
X196849Y395038D01*
X205926Y404115D01*
X218762Y404115D01*
X227839Y395038D01*
X227839Y382202D01*
X218762Y373125D01*
X205926Y373125D01*
G37*
%LPD*%
%LPC*%
G36*
X324798Y373125D02*
X324798Y373125D01*
X315721Y382202D01*
X315721Y395038D01*
X324798Y404115D01*
X337634Y404115D01*
X346711Y395038D01*
X346711Y382202D01*
X337634Y373125D01*
X324798Y373125D01*
G37*
%LPD*%
%LPC*%
G36*
X483294Y332485D02*
X483294Y332485D01*
X474217Y341562D01*
X474217Y354398D01*
X483294Y363475D01*
X496130Y363475D01*
X505207Y354398D01*
X505207Y341562D01*
X496130Y332485D01*
X483294Y332485D01*
G37*
%LPD*%
%LPC*%
G36*
X324798Y332485D02*
X324798Y332485D01*
X315721Y341562D01*
X315721Y354398D01*
X324798Y363475D01*
X337634Y363475D01*
X346711Y354398D01*
X346711Y341562D01*
X337634Y332485D01*
X324798Y332485D01*
G37*
%LPD*%
%LPC*%
G36*
X285174Y332485D02*
X285174Y332485D01*
X276097Y341562D01*
X276097Y354398D01*
X285174Y363475D01*
X298010Y363475D01*
X307087Y354398D01*
X307087Y341562D01*
X298010Y332485D01*
X285174Y332485D01*
G37*
%LPD*%
%LPC*%
G36*
X245550Y332485D02*
X245550Y332485D01*
X236473Y341562D01*
X236473Y354398D01*
X245550Y363475D01*
X258386Y363475D01*
X267463Y354398D01*
X267463Y341562D01*
X258386Y332485D01*
X245550Y332485D01*
G37*
%LPD*%
%LPC*%
G36*
X205926Y332485D02*
X205926Y332485D01*
X196849Y341562D01*
X196849Y354398D01*
X205926Y363475D01*
X218762Y363475D01*
X227839Y354398D01*
X227839Y341562D01*
X218762Y332485D01*
X205926Y332485D01*
G37*
%LPD*%
%LPC*%
G36*
X166302Y332485D02*
X166302Y332485D01*
X157225Y341562D01*
X157225Y354398D01*
X166302Y363475D01*
X179138Y363475D01*
X188215Y354398D01*
X188215Y341562D01*
X179138Y332485D01*
X166302Y332485D01*
G37*
%LPD*%
%LPC*%
G36*
X443670Y332485D02*
X443670Y332485D01*
X434593Y341562D01*
X434593Y354398D01*
X443670Y363475D01*
X456506Y363475D01*
X465583Y354398D01*
X465583Y341562D01*
X456506Y332485D01*
X443670Y332485D01*
G37*
%LPD*%
%LPC*%
G36*
X958782Y332485D02*
X958782Y332485D01*
X949705Y341562D01*
X949705Y354398D01*
X958782Y363475D01*
X971618Y363475D01*
X980695Y354398D01*
X980695Y341562D01*
X971618Y332485D01*
X958782Y332485D01*
G37*
%LPD*%
%LPC*%
G36*
X681414Y332485D02*
X681414Y332485D01*
X672337Y341562D01*
X672337Y354398D01*
X681414Y363475D01*
X694250Y363475D01*
X703327Y354398D01*
X703327Y341562D01*
X694250Y332485D01*
X681414Y332485D01*
G37*
%LPD*%
%LPC*%
G36*
X641790Y332485D02*
X641790Y332485D01*
X632713Y341562D01*
X632713Y354398D01*
X641790Y363475D01*
X654626Y363475D01*
X663703Y354398D01*
X663703Y341562D01*
X654626Y332485D01*
X641790Y332485D01*
G37*
%LPD*%
%LPC*%
G36*
X919158Y332485D02*
X919158Y332485D01*
X910081Y341562D01*
X910081Y354398D01*
X919158Y363475D01*
X931994Y363475D01*
X941071Y354398D01*
X941071Y341562D01*
X931994Y332485D01*
X919158Y332485D01*
G37*
%LPD*%
%LPC*%
G36*
X879534Y332485D02*
X879534Y332485D01*
X870457Y341562D01*
X870457Y354398D01*
X879534Y363475D01*
X892370Y363475D01*
X901447Y354398D01*
X901447Y341562D01*
X892370Y332485D01*
X879534Y332485D01*
G37*
%LPD*%
%LPC*%
G36*
X839910Y332485D02*
X839910Y332485D01*
X830833Y341562D01*
X830833Y354398D01*
X839910Y363475D01*
X852746Y363475D01*
X861823Y354398D01*
X861823Y341562D01*
X852746Y332485D01*
X839910Y332485D01*
G37*
%LPD*%
%LPC*%
G36*
X800286Y332485D02*
X800286Y332485D01*
X791209Y341562D01*
X791209Y354398D01*
X800286Y363475D01*
X813122Y363475D01*
X822199Y354398D01*
X822199Y341562D01*
X813122Y332485D01*
X800286Y332485D01*
G37*
%LPD*%
%LPC*%
G36*
X721038Y332485D02*
X721038Y332485D01*
X711961Y341562D01*
X711961Y354398D01*
X721038Y363475D01*
X733874Y363475D01*
X742951Y354398D01*
X742951Y341562D01*
X733874Y332485D01*
X721038Y332485D01*
G37*
%LPD*%
%LPC*%
G36*
X602166Y332485D02*
X602166Y332485D01*
X593089Y341562D01*
X593089Y354398D01*
X602166Y363475D01*
X615002Y363475D01*
X624079Y354398D01*
X624079Y341562D01*
X615002Y332485D01*
X602166Y332485D01*
G37*
%LPD*%
%LPC*%
G36*
X562542Y332485D02*
X562542Y332485D01*
X553465Y341562D01*
X553465Y354398D01*
X562542Y363475D01*
X575378Y363475D01*
X584455Y354398D01*
X584455Y341562D01*
X575378Y332485D01*
X562542Y332485D01*
G37*
%LPD*%
%LPC*%
G36*
X522918Y332485D02*
X522918Y332485D01*
X513841Y341562D01*
X513841Y354398D01*
X522918Y363475D01*
X535754Y363475D01*
X544831Y354398D01*
X544831Y341562D01*
X535754Y332485D01*
X522918Y332485D01*
G37*
%LPD*%
%LPC*%
G36*
X760662Y332485D02*
X760662Y332485D01*
X751585Y341562D01*
X751585Y354398D01*
X760662Y363475D01*
X773498Y363475D01*
X782575Y354398D01*
X782575Y341562D01*
X773498Y332485D01*
X760662Y332485D01*
G37*
%LPD*%
%LPC*%
G36*
X839910Y246125D02*
X839910Y246125D01*
X830833Y255202D01*
X830833Y268038D01*
X839910Y277115D01*
X852746Y277115D01*
X861823Y268038D01*
X861823Y255202D01*
X852746Y246125D01*
X839910Y246125D01*
G37*
%LPD*%
%LPC*%
G36*
X800286Y246125D02*
X800286Y246125D01*
X791209Y255202D01*
X791209Y268038D01*
X800286Y277115D01*
X813122Y277115D01*
X822199Y268038D01*
X822199Y255202D01*
X813122Y246125D01*
X800286Y246125D01*
G37*
%LPD*%
%LPC*%
G36*
X205926Y246125D02*
X205926Y246125D01*
X196849Y255202D01*
X196849Y268038D01*
X205926Y277115D01*
X218762Y277115D01*
X227839Y268038D01*
X227839Y255202D01*
X218762Y246125D01*
X205926Y246125D01*
G37*
%LPD*%
%LPC*%
G36*
X245550Y246125D02*
X245550Y246125D01*
X236473Y255202D01*
X236473Y268038D01*
X245550Y277115D01*
X258386Y277115D01*
X267463Y268038D01*
X267463Y255202D01*
X258386Y246125D01*
X245550Y246125D01*
G37*
%LPD*%
%LPC*%
G36*
X285174Y246125D02*
X285174Y246125D01*
X276097Y255202D01*
X276097Y268038D01*
X285174Y277115D01*
X298010Y277115D01*
X307087Y268038D01*
X307087Y255202D01*
X298010Y246125D01*
X285174Y246125D01*
G37*
%LPD*%
%LPC*%
G36*
X324798Y246125D02*
X324798Y246125D01*
X315721Y255202D01*
X315721Y268038D01*
X324798Y277115D01*
X337634Y277115D01*
X346711Y268038D01*
X346711Y255202D01*
X337634Y246125D01*
X324798Y246125D01*
G37*
%LPD*%
%LPC*%
G36*
X641790Y246125D02*
X641790Y246125D01*
X632713Y255202D01*
X632713Y268038D01*
X641790Y277115D01*
X654626Y277115D01*
X663703Y268038D01*
X663703Y255202D01*
X654626Y246125D01*
X641790Y246125D01*
G37*
%LPD*%
%LPC*%
G36*
X681414Y246125D02*
X681414Y246125D01*
X672337Y255202D01*
X672337Y268038D01*
X681414Y277115D01*
X694250Y277115D01*
X703327Y268038D01*
X703327Y255202D01*
X694250Y246125D01*
X681414Y246125D01*
G37*
%LPD*%
%LPC*%
G36*
X721038Y246125D02*
X721038Y246125D01*
X711961Y255202D01*
X711961Y268038D01*
X721038Y277115D01*
X733874Y277115D01*
X742951Y268038D01*
X742951Y255202D01*
X733874Y246125D01*
X721038Y246125D01*
G37*
%LPD*%
%LPC*%
G36*
X602166Y246125D02*
X602166Y246125D01*
X593089Y255202D01*
X593089Y268038D01*
X602166Y277115D01*
X615002Y277115D01*
X624079Y268038D01*
X624079Y255202D01*
X615002Y246125D01*
X602166Y246125D01*
G37*
%LPD*%
%LPC*%
G36*
X760662Y246125D02*
X760662Y246125D01*
X751585Y255202D01*
X751585Y268038D01*
X760662Y277115D01*
X773498Y277115D01*
X782575Y268038D01*
X782575Y255202D01*
X773498Y246125D01*
X760662Y246125D01*
G37*
%LPD*%
%LPC*%
G36*
X562542Y246125D02*
X562542Y246125D01*
X553465Y255202D01*
X553465Y268038D01*
X562542Y277115D01*
X575378Y277115D01*
X584455Y268038D01*
X584455Y255202D01*
X575378Y246125D01*
X562542Y246125D01*
G37*
%LPD*%
%LPC*%
G36*
X522918Y246125D02*
X522918Y246125D01*
X513841Y255202D01*
X513841Y268038D01*
X522918Y277115D01*
X535754Y277115D01*
X544831Y268038D01*
X544831Y255202D01*
X535754Y246125D01*
X522918Y246125D01*
G37*
%LPD*%
%LPC*%
G36*
X483294Y246125D02*
X483294Y246125D01*
X474217Y255202D01*
X474217Y268038D01*
X483294Y277115D01*
X496130Y277115D01*
X505207Y268038D01*
X505207Y255202D01*
X496130Y246125D01*
X483294Y246125D01*
G37*
%LPD*%
%LPC*%
G36*
X443670Y246125D02*
X443670Y246125D01*
X434593Y255202D01*
X434593Y268038D01*
X443670Y277115D01*
X456506Y277115D01*
X465583Y268038D01*
X465583Y255202D01*
X456506Y246125D01*
X443670Y246125D01*
G37*
%LPD*%
%LPC*%
G36*
X958782Y246125D02*
X958782Y246125D01*
X949705Y255202D01*
X949705Y268038D01*
X958782Y277115D01*
X971618Y277115D01*
X980695Y268038D01*
X980695Y255202D01*
X971618Y246125D01*
X958782Y246125D01*
G37*
%LPD*%
%LPC*%
G36*
X919158Y246125D02*
X919158Y246125D01*
X910081Y255202D01*
X910081Y268038D01*
X919158Y277115D01*
X931994Y277115D01*
X941071Y268038D01*
X941071Y255202D01*
X931994Y246125D01*
X919158Y246125D01*
G37*
%LPD*%
%LPC*%
G36*
X879534Y246125D02*
X879534Y246125D01*
X870457Y255202D01*
X870457Y268038D01*
X879534Y277115D01*
X892370Y277115D01*
X901447Y268038D01*
X901447Y255202D01*
X892370Y246125D01*
X879534Y246125D01*
G37*
%LPD*%
%LPC*%
G36*
X602166Y205485D02*
X602166Y205485D01*
X593089Y214562D01*
X593089Y227398D01*
X602166Y236475D01*
X615002Y236475D01*
X624079Y227398D01*
X624079Y214562D01*
X615002Y205485D01*
X602166Y205485D01*
G37*
%LPD*%
%LPC*%
G36*
X562542Y205485D02*
X562542Y205485D01*
X553465Y214562D01*
X553465Y227398D01*
X562542Y236475D01*
X575378Y236475D01*
X584455Y227398D01*
X584455Y214562D01*
X575378Y205485D01*
X562542Y205485D01*
G37*
%LPD*%
%LPC*%
G36*
X522918Y205485D02*
X522918Y205485D01*
X513841Y214562D01*
X513841Y227398D01*
X522918Y236475D01*
X535754Y236475D01*
X544831Y227398D01*
X544831Y214562D01*
X535754Y205485D01*
X522918Y205485D01*
G37*
%LPD*%
%LPC*%
G36*
X443670Y205485D02*
X443670Y205485D01*
X434593Y214562D01*
X434593Y227398D01*
X443670Y236475D01*
X456506Y236475D01*
X465583Y227398D01*
X465583Y214562D01*
X456506Y205485D01*
X443670Y205485D01*
G37*
%LPD*%
%LPC*%
G36*
X681414Y205485D02*
X681414Y205485D01*
X672337Y214562D01*
X672337Y227398D01*
X681414Y236475D01*
X694250Y236475D01*
X703327Y227398D01*
X703327Y214562D01*
X694250Y205485D01*
X681414Y205485D01*
G37*
%LPD*%
%LPC*%
G36*
X919158Y205485D02*
X919158Y205485D01*
X910081Y214562D01*
X910081Y227398D01*
X919158Y236475D01*
X931994Y236475D01*
X941071Y227398D01*
X941071Y214562D01*
X931994Y205485D01*
X919158Y205485D01*
G37*
%LPD*%
%LPC*%
G36*
X483294Y205485D02*
X483294Y205485D01*
X474217Y214562D01*
X474217Y227398D01*
X483294Y236475D01*
X496130Y236475D01*
X505207Y227398D01*
X505207Y214562D01*
X496130Y205485D01*
X483294Y205485D01*
G37*
%LPD*%
%LPC*%
G36*
X324798Y205485D02*
X324798Y205485D01*
X315721Y214562D01*
X315721Y227398D01*
X324798Y236475D01*
X337634Y236475D01*
X346711Y227398D01*
X346711Y214562D01*
X337634Y205485D01*
X324798Y205485D01*
G37*
%LPD*%
%LPC*%
G36*
X285174Y205485D02*
X285174Y205485D01*
X276097Y214562D01*
X276097Y227398D01*
X285174Y236475D01*
X298010Y236475D01*
X307087Y227398D01*
X307087Y214562D01*
X298010Y205485D01*
X285174Y205485D01*
G37*
%LPD*%
%LPC*%
G36*
X245550Y205485D02*
X245550Y205485D01*
X236473Y214562D01*
X236473Y227398D01*
X245550Y236475D01*
X258386Y236475D01*
X267463Y227398D01*
X267463Y214562D01*
X258386Y205485D01*
X245550Y205485D01*
G37*
%LPD*%
%LPC*%
G36*
X205926Y205485D02*
X205926Y205485D01*
X196849Y214562D01*
X196849Y227398D01*
X205926Y236475D01*
X218762Y236475D01*
X227839Y227398D01*
X227839Y214562D01*
X218762Y205485D01*
X205926Y205485D01*
G37*
%LPD*%
%LPC*%
G36*
X958782Y205485D02*
X958782Y205485D01*
X949705Y214562D01*
X949705Y227398D01*
X958782Y236475D01*
X971618Y236475D01*
X980695Y227398D01*
X980695Y214562D01*
X971618Y205485D01*
X958782Y205485D01*
G37*
%LPD*%
%LPC*%
G36*
X879534Y205485D02*
X879534Y205485D01*
X870457Y214562D01*
X870457Y227398D01*
X879534Y236475D01*
X892370Y236475D01*
X901447Y227398D01*
X901447Y214562D01*
X892370Y205485D01*
X879534Y205485D01*
G37*
%LPD*%
%LPC*%
G36*
X839910Y205485D02*
X839910Y205485D01*
X830833Y214562D01*
X830833Y227398D01*
X839910Y236475D01*
X852746Y236475D01*
X861823Y227398D01*
X861823Y214562D01*
X852746Y205485D01*
X839910Y205485D01*
G37*
%LPD*%
%LPC*%
G36*
X800286Y205485D02*
X800286Y205485D01*
X791209Y214562D01*
X791209Y227398D01*
X800286Y236475D01*
X813122Y236475D01*
X822199Y227398D01*
X822199Y214562D01*
X813122Y205485D01*
X800286Y205485D01*
G37*
%LPD*%
%LPC*%
G36*
X760662Y205485D02*
X760662Y205485D01*
X751585Y214562D01*
X751585Y227398D01*
X760662Y236475D01*
X773498Y236475D01*
X782575Y227398D01*
X782575Y214562D01*
X773498Y205485D01*
X760662Y205485D01*
G37*
%LPD*%
%LPC*%
G36*
X721038Y205485D02*
X721038Y205485D01*
X711961Y214562D01*
X711961Y227398D01*
X721038Y236475D01*
X733874Y236475D01*
X742951Y227398D01*
X742951Y214562D01*
X733874Y205485D01*
X721038Y205485D01*
G37*
%LPD*%
%LPC*%
G36*
X641790Y205485D02*
X641790Y205485D01*
X632713Y214562D01*
X632713Y227398D01*
X641790Y236475D01*
X654626Y236475D01*
X663703Y227398D01*
X663703Y214562D01*
X654626Y205485D01*
X641790Y205485D01*
G37*
%LPD*%
%LPC*%
G36*
X245550Y55625D02*
X245550Y55625D01*
X236473Y64702D01*
X236473Y77538D01*
X245550Y86615D01*
X258386Y86615D01*
X267463Y77538D01*
X267463Y64702D01*
X258386Y55625D01*
X245550Y55625D01*
G37*
%LPD*%
%LPC*%
G36*
X205926Y55625D02*
X205926Y55625D01*
X196849Y64702D01*
X196849Y77538D01*
X205926Y86615D01*
X218762Y86615D01*
X227839Y77538D01*
X227839Y64702D01*
X218762Y55625D01*
X205926Y55625D01*
G37*
%LPD*%
%LPC*%
G36*
X958782Y55625D02*
X958782Y55625D01*
X949705Y64702D01*
X949705Y77538D01*
X958782Y86615D01*
X971618Y86615D01*
X980695Y77538D01*
X980695Y64702D01*
X971618Y55625D01*
X958782Y55625D01*
G37*
%LPD*%
%LPC*%
G36*
X919158Y55625D02*
X919158Y55625D01*
X910081Y64702D01*
X910081Y77538D01*
X919158Y86615D01*
X931994Y86615D01*
X941071Y77538D01*
X941071Y64702D01*
X931994Y55625D01*
X919158Y55625D01*
G37*
%LPD*%
%LPC*%
G36*
X879534Y55625D02*
X879534Y55625D01*
X870457Y64702D01*
X870457Y77538D01*
X879534Y86615D01*
X892370Y86615D01*
X901447Y77538D01*
X901447Y64702D01*
X892370Y55625D01*
X879534Y55625D01*
G37*
%LPD*%
%LPC*%
G36*
X839910Y55625D02*
X839910Y55625D01*
X830833Y64702D01*
X830833Y77538D01*
X839910Y86615D01*
X852746Y86615D01*
X861823Y77538D01*
X861823Y64702D01*
X852746Y55625D01*
X839910Y55625D01*
G37*
%LPD*%
%LPC*%
G36*
X800286Y55625D02*
X800286Y55625D01*
X791209Y64702D01*
X791209Y77538D01*
X800286Y86615D01*
X813122Y86615D01*
X822199Y77538D01*
X822199Y64702D01*
X813122Y55625D01*
X800286Y55625D01*
G37*
%LPD*%
%LPC*%
G36*
X760662Y55625D02*
X760662Y55625D01*
X751585Y64702D01*
X751585Y77538D01*
X760662Y86615D01*
X773498Y86615D01*
X782575Y77538D01*
X782575Y64702D01*
X773498Y55625D01*
X760662Y55625D01*
G37*
%LPD*%
%LPC*%
G36*
X721038Y55625D02*
X721038Y55625D01*
X711961Y64702D01*
X711961Y77538D01*
X721038Y86615D01*
X733874Y86615D01*
X742951Y77538D01*
X742951Y64702D01*
X733874Y55625D01*
X721038Y55625D01*
G37*
%LPD*%
%LPC*%
G36*
X681414Y55625D02*
X681414Y55625D01*
X672337Y64702D01*
X672337Y77538D01*
X681414Y86615D01*
X694250Y86615D01*
X703327Y77538D01*
X703327Y64702D01*
X694250Y55625D01*
X681414Y55625D01*
G37*
%LPD*%
%LPC*%
G36*
X641790Y55625D02*
X641790Y55625D01*
X632713Y64702D01*
X632713Y77538D01*
X641790Y86615D01*
X654626Y86615D01*
X663703Y77538D01*
X663703Y64702D01*
X654626Y55625D01*
X641790Y55625D01*
G37*
%LPD*%
%LPC*%
G36*
X602166Y55625D02*
X602166Y55625D01*
X593089Y64702D01*
X593089Y77538D01*
X602166Y86615D01*
X615002Y86615D01*
X624079Y77538D01*
X624079Y64702D01*
X615002Y55625D01*
X602166Y55625D01*
G37*
%LPD*%
%LPC*%
G36*
X562542Y55625D02*
X562542Y55625D01*
X553465Y64702D01*
X553465Y77538D01*
X562542Y86615D01*
X575378Y86615D01*
X584455Y77538D01*
X584455Y64702D01*
X575378Y55625D01*
X562542Y55625D01*
G37*
%LPD*%
%LPC*%
G36*
X522918Y55625D02*
X522918Y55625D01*
X513841Y64702D01*
X513841Y77538D01*
X522918Y86615D01*
X535754Y86615D01*
X544831Y77538D01*
X544831Y64702D01*
X535754Y55625D01*
X522918Y55625D01*
G37*
%LPD*%
%LPC*%
G36*
X483294Y55625D02*
X483294Y55625D01*
X474217Y64702D01*
X474217Y77538D01*
X483294Y86615D01*
X496130Y86615D01*
X505207Y77538D01*
X505207Y64702D01*
X496130Y55625D01*
X483294Y55625D01*
G37*
%LPD*%
%LPC*%
G36*
X443670Y55625D02*
X443670Y55625D01*
X434593Y64702D01*
X434593Y77538D01*
X443670Y86615D01*
X456506Y86615D01*
X465583Y77538D01*
X465583Y64702D01*
X456506Y55625D01*
X443670Y55625D01*
G37*
%LPD*%
%LPC*%
G36*
X404046Y55625D02*
X404046Y55625D01*
X394969Y64702D01*
X394969Y77538D01*
X404046Y86615D01*
X416882Y86615D01*
X425959Y77538D01*
X425959Y64702D01*
X416882Y55625D01*
X404046Y55625D01*
G37*
%LPD*%
%LPC*%
G36*
X324798Y55625D02*
X324798Y55625D01*
X315721Y64702D01*
X315721Y77538D01*
X324798Y86615D01*
X337634Y86615D01*
X346711Y77538D01*
X346711Y64702D01*
X337634Y55625D01*
X324798Y55625D01*
G37*
%LPD*%
%LPC*%
G36*
X285174Y55625D02*
X285174Y55625D01*
X276097Y64702D01*
X276097Y77538D01*
X285174Y86615D01*
X298010Y86615D01*
X307087Y77538D01*
X307087Y64702D01*
X298010Y55625D01*
X285174Y55625D01*
G37*
%LPD*%
%LPC*%
G36*
X839910Y373125D02*
X839910Y373125D01*
X830833Y382202D01*
X830833Y395038D01*
X839910Y404115D01*
X852746Y404115D01*
X861823Y395038D01*
X861823Y382202D01*
X852746Y373125D01*
X839910Y373125D01*
G37*
%LPD*%
%LPC*%
G36*
X958782Y14985D02*
X958782Y14985D01*
X949705Y24062D01*
X949705Y36898D01*
X958782Y45975D01*
X971618Y45975D01*
X980695Y36898D01*
X980695Y24062D01*
X971618Y14985D01*
X958782Y14985D01*
G37*
%LPD*%
%LPC*%
G36*
X919158Y14985D02*
X919158Y14985D01*
X910081Y24062D01*
X910081Y36898D01*
X919158Y45975D01*
X931994Y45975D01*
X941071Y36898D01*
X941071Y24062D01*
X931994Y14985D01*
X919158Y14985D01*
G37*
%LPD*%
%LPC*%
G36*
X879534Y14985D02*
X879534Y14985D01*
X870457Y24062D01*
X870457Y36898D01*
X879534Y45975D01*
X892370Y45975D01*
X901447Y36898D01*
X901447Y24062D01*
X892370Y14985D01*
X879534Y14985D01*
G37*
%LPD*%
%LPC*%
G36*
X839910Y14985D02*
X839910Y14985D01*
X830833Y24062D01*
X830833Y36898D01*
X839910Y45975D01*
X852746Y45975D01*
X861823Y36898D01*
X861823Y24062D01*
X852746Y14985D01*
X839910Y14985D01*
G37*
%LPD*%
%LPC*%
G36*
X800286Y14985D02*
X800286Y14985D01*
X791209Y24062D01*
X791209Y36898D01*
X800286Y45975D01*
X813122Y45975D01*
X822199Y36898D01*
X822199Y24062D01*
X813122Y14985D01*
X800286Y14985D01*
G37*
%LPD*%
%LPC*%
G36*
X760662Y14985D02*
X760662Y14985D01*
X751585Y24062D01*
X751585Y36898D01*
X760662Y45975D01*
X773498Y45975D01*
X782575Y36898D01*
X782575Y24062D01*
X773498Y14985D01*
X760662Y14985D01*
G37*
%LPD*%
%LPC*%
G36*
X721038Y14985D02*
X721038Y14985D01*
X711961Y24062D01*
X711961Y36898D01*
X721038Y45975D01*
X733874Y45975D01*
X742951Y36898D01*
X742951Y24062D01*
X733874Y14985D01*
X721038Y14985D01*
G37*
%LPD*%
%LPC*%
G36*
X681414Y14985D02*
X681414Y14985D01*
X672337Y24062D01*
X672337Y36898D01*
X681414Y45975D01*
X694250Y45975D01*
X703327Y36898D01*
X703327Y24062D01*
X694250Y14985D01*
X681414Y14985D01*
G37*
%LPD*%
%LPC*%
G36*
X641790Y14985D02*
X641790Y14985D01*
X632713Y24062D01*
X632713Y36898D01*
X641790Y45975D01*
X654626Y45975D01*
X663703Y36898D01*
X663703Y24062D01*
X654626Y14985D01*
X641790Y14985D01*
G37*
%LPD*%
%LPC*%
G36*
X602166Y14985D02*
X602166Y14985D01*
X593089Y24062D01*
X593089Y36898D01*
X602166Y45975D01*
X615002Y45975D01*
X624079Y36898D01*
X624079Y24062D01*
X615002Y14985D01*
X602166Y14985D01*
G37*
%LPD*%
%LPC*%
G36*
X562542Y14985D02*
X562542Y14985D01*
X553465Y24062D01*
X553465Y36898D01*
X562542Y45975D01*
X575378Y45975D01*
X584455Y36898D01*
X584455Y24062D01*
X575378Y14985D01*
X562542Y14985D01*
G37*
%LPD*%
%LPC*%
G36*
X522918Y14985D02*
X522918Y14985D01*
X513841Y24062D01*
X513841Y36898D01*
X522918Y45975D01*
X535754Y45975D01*
X544831Y36898D01*
X544831Y24062D01*
X535754Y14985D01*
X522918Y14985D01*
G37*
%LPD*%
%LPC*%
G36*
X483294Y14985D02*
X483294Y14985D01*
X474217Y24062D01*
X474217Y36898D01*
X483294Y45975D01*
X496130Y45975D01*
X505207Y36898D01*
X505207Y24062D01*
X496130Y14985D01*
X483294Y14985D01*
G37*
%LPD*%
%LPC*%
G36*
X443670Y14985D02*
X443670Y14985D01*
X434593Y24062D01*
X434593Y36898D01*
X443670Y45975D01*
X456506Y45975D01*
X465583Y36898D01*
X465583Y24062D01*
X456506Y14985D01*
X443670Y14985D01*
G37*
%LPD*%
%LPC*%
G36*
X404046Y14985D02*
X404046Y14985D01*
X394969Y24062D01*
X394969Y36898D01*
X404046Y45975D01*
X416882Y45975D01*
X425959Y36898D01*
X425959Y24062D01*
X416882Y14985D01*
X404046Y14985D01*
G37*
%LPD*%
%LPC*%
G36*
X364422Y14985D02*
X364422Y14985D01*
X355345Y24062D01*
X355345Y36898D01*
X364422Y45975D01*
X377258Y45975D01*
X386335Y36898D01*
X386335Y24062D01*
X377258Y14985D01*
X364422Y14985D01*
G37*
%LPD*%
%LPC*%
G36*
X324798Y14985D02*
X324798Y14985D01*
X315721Y24062D01*
X315721Y36898D01*
X324798Y45975D01*
X337634Y45975D01*
X346711Y36898D01*
X346711Y24062D01*
X337634Y14985D01*
X324798Y14985D01*
G37*
%LPD*%
%LPC*%
G36*
X285174Y14985D02*
X285174Y14985D01*
X276097Y24062D01*
X276097Y36898D01*
X285174Y45975D01*
X298010Y45975D01*
X307087Y36898D01*
X307087Y24062D01*
X298010Y14985D01*
X285174Y14985D01*
G37*
%LPD*%
%LPC*%
G36*
X245550Y14985D02*
X245550Y14985D01*
X236473Y24062D01*
X236473Y36898D01*
X245550Y45975D01*
X258386Y45975D01*
X267463Y36898D01*
X267463Y24062D01*
X258386Y14985D01*
X245550Y14985D01*
G37*
%LPD*%
%LPC*%
G36*
X205926Y14985D02*
X205926Y14985D01*
X196849Y24062D01*
X196849Y36898D01*
X205926Y45975D01*
X218762Y45975D01*
X227839Y36898D01*
X227839Y24062D01*
X218762Y14985D01*
X205926Y14985D01*
G37*
%LPD*%
%LPC*%
G36*
X166302Y14985D02*
X166302Y14985D01*
X157225Y24062D01*
X157225Y36898D01*
X166302Y45975D01*
X179138Y45975D01*
X188215Y36898D01*
X188215Y24062D01*
X179138Y14985D01*
X166302Y14985D01*
G37*
%LPD*%
%LPC*%
G36*
X126678Y14985D02*
X126678Y14985D01*
X117601Y24062D01*
X117601Y36898D01*
X126678Y45975D01*
X139514Y45975D01*
X148591Y36898D01*
X148591Y24062D01*
X139514Y14985D01*
X126678Y14985D01*
G37*
%LPD*%
G36*
X148808Y249443D02*
X148808Y249443D01*
X148899Y249451D01*
X148928Y249463D01*
X148960Y249468D01*
X149041Y249511D01*
X149125Y249547D01*
X149157Y249573D01*
X149178Y249584D01*
X149190Y249596D01*
X149191Y249597D01*
X149203Y249609D01*
X149256Y249652D01*
X157002Y257398D01*
X157055Y257472D01*
X157115Y257541D01*
X157127Y257572D01*
X157146Y257598D01*
X157173Y257685D01*
X157207Y257770D01*
X157211Y257811D01*
X157218Y257833D01*
X157217Y257865D01*
X157225Y257936D01*
X157225Y259589D01*
X157211Y259679D01*
X157203Y259770D01*
X157191Y259799D01*
X157186Y259831D01*
X157143Y259912D01*
X157107Y259996D01*
X157081Y260028D01*
X157070Y260049D01*
X157047Y260071D01*
X157002Y260127D01*
X142906Y274223D01*
X142832Y274276D01*
X142763Y274336D01*
X142732Y274348D01*
X142706Y274367D01*
X142619Y274394D01*
X142534Y274428D01*
X142493Y274432D01*
X142471Y274439D01*
X142439Y274438D01*
X142368Y274446D01*
X141865Y274446D01*
X141794Y274435D01*
X141723Y274433D01*
X141674Y274415D01*
X141622Y274407D01*
X141559Y274373D01*
X141492Y274348D01*
X141451Y274316D01*
X141405Y274291D01*
X141356Y274239D01*
X141300Y274195D01*
X141271Y274151D01*
X141236Y274113D01*
X141205Y274048D01*
X141167Y273988D01*
X141154Y273937D01*
X141132Y273890D01*
X141124Y273819D01*
X141107Y273749D01*
X141111Y273697D01*
X141105Y273646D01*
X141120Y273575D01*
X141126Y273504D01*
X141146Y273456D01*
X141157Y273405D01*
X141194Y273344D01*
X141222Y273278D01*
X141267Y273222D01*
X141283Y273194D01*
X141301Y273179D01*
X141327Y273147D01*
X147067Y267407D01*
X147067Y263143D01*
X133858Y263143D01*
X133838Y263140D01*
X133819Y263142D01*
X133717Y263120D01*
X133615Y263103D01*
X133598Y263094D01*
X133578Y263090D01*
X133489Y263037D01*
X133398Y262988D01*
X133384Y262974D01*
X133367Y262964D01*
X133300Y262885D01*
X133229Y262810D01*
X133220Y262792D01*
X133207Y262777D01*
X133169Y262681D01*
X133125Y262587D01*
X133123Y262567D01*
X133115Y262549D01*
X133097Y262382D01*
X133097Y260858D01*
X133100Y260839D01*
X133098Y260821D01*
X133098Y260820D01*
X133098Y260819D01*
X133120Y260717D01*
X133137Y260615D01*
X133146Y260598D01*
X133150Y260578D01*
X133203Y260489D01*
X133252Y260398D01*
X133266Y260384D01*
X133276Y260367D01*
X133355Y260300D01*
X133430Y260229D01*
X133448Y260220D01*
X133463Y260207D01*
X133559Y260168D01*
X133653Y260125D01*
X133673Y260123D01*
X133691Y260115D01*
X133858Y260097D01*
X147067Y260097D01*
X147067Y255833D01*
X141962Y250728D01*
X141920Y250670D01*
X141871Y250618D01*
X141849Y250571D01*
X141818Y250529D01*
X141797Y250460D01*
X141767Y250395D01*
X141761Y250343D01*
X141746Y250293D01*
X141748Y250222D01*
X141740Y250151D01*
X141751Y250100D01*
X141752Y250048D01*
X141777Y249980D01*
X141792Y249910D01*
X141819Y249865D01*
X141837Y249817D01*
X141882Y249761D01*
X141918Y249699D01*
X141958Y249665D01*
X141990Y249625D01*
X142051Y249586D01*
X142105Y249539D01*
X142154Y249520D01*
X142197Y249492D01*
X142267Y249474D01*
X142333Y249447D01*
X142405Y249439D01*
X142436Y249431D01*
X142459Y249433D01*
X142500Y249429D01*
X148718Y249429D01*
X148808Y249443D01*
G37*
%LPC*%
G36*
X134619Y72643D02*
X134619Y72643D01*
X134619Y85091D01*
X138883Y85091D01*
X147067Y76907D01*
X147067Y72643D01*
X134619Y72643D01*
G37*
%LPD*%
%LPC*%
G36*
X134619Y390143D02*
X134619Y390143D01*
X134619Y402591D01*
X138883Y402591D01*
X147067Y394407D01*
X147067Y390143D01*
X134619Y390143D01*
G37*
%LPD*%
%LPC*%
G36*
X119125Y72643D02*
X119125Y72643D01*
X119125Y76907D01*
X127309Y85091D01*
X131573Y85091D01*
X131573Y72643D01*
X119125Y72643D01*
G37*
%LPD*%
%LPC*%
G36*
X119125Y390143D02*
X119125Y390143D01*
X119125Y394407D01*
X127309Y402591D01*
X131573Y402591D01*
X131573Y390143D01*
X119125Y390143D01*
G37*
%LPD*%
%LPC*%
G36*
X134619Y57149D02*
X134619Y57149D01*
X134619Y69597D01*
X147067Y69597D01*
X147067Y65333D01*
X138883Y57149D01*
X134619Y57149D01*
G37*
%LPD*%
%LPC*%
G36*
X127309Y57149D02*
X127309Y57149D01*
X119125Y65333D01*
X119125Y69597D01*
X131573Y69597D01*
X131573Y57149D01*
X127309Y57149D01*
G37*
%LPD*%
%LPC*%
G36*
X133095Y71119D02*
X133095Y71119D01*
X133095Y71121D01*
X133097Y71121D01*
X133097Y71119D01*
X133095Y71119D01*
G37*
%LPD*%
D10*
X568960Y261620D03*
X568960Y220980D03*
X608584Y261620D03*
X648208Y261620D03*
X687832Y261620D03*
X727456Y261620D03*
X767080Y261620D03*
X806704Y261620D03*
X846328Y261620D03*
X885952Y261620D03*
X925576Y261620D03*
X965200Y261620D03*
X608584Y220980D03*
X648208Y220980D03*
X687832Y220980D03*
X727456Y220980D03*
X767080Y220980D03*
X806704Y220980D03*
X846328Y220980D03*
X885952Y220980D03*
X925576Y220980D03*
X965200Y220980D03*
D11*
X529336Y220980D03*
X529336Y261620D03*
X489712Y220980D03*
X450088Y220980D03*
X410464Y220980D03*
X370840Y220980D03*
X331216Y220980D03*
X291592Y220980D03*
X251968Y220980D03*
X212344Y220980D03*
X172720Y220980D03*
X133096Y220980D03*
X489712Y261620D03*
X450088Y261620D03*
X410464Y261620D03*
X370840Y261620D03*
X331216Y261620D03*
X291592Y261620D03*
X251968Y261620D03*
X212344Y261620D03*
X172720Y261620D03*
X133096Y261620D03*
D10*
X568960Y71120D03*
X568960Y30480D03*
X608584Y71120D03*
X648208Y71120D03*
X687832Y71120D03*
X727456Y71120D03*
X767080Y71120D03*
X806704Y71120D03*
X846328Y71120D03*
X885952Y71120D03*
X925576Y71120D03*
X965200Y71120D03*
X608584Y30480D03*
X648208Y30480D03*
X687832Y30480D03*
X727456Y30480D03*
X767080Y30480D03*
X806704Y30480D03*
X846328Y30480D03*
X885952Y30480D03*
X925576Y30480D03*
X965200Y30480D03*
D11*
X529336Y30480D03*
X529336Y71120D03*
X489712Y30480D03*
X450088Y30480D03*
X410464Y30480D03*
X370840Y30480D03*
X331216Y30480D03*
X291592Y30480D03*
X251968Y30480D03*
X212344Y30480D03*
X172720Y30480D03*
X133096Y30480D03*
X489712Y71120D03*
X450088Y71120D03*
X410464Y71120D03*
X370840Y71120D03*
X331216Y71120D03*
X291592Y71120D03*
X251968Y71120D03*
X212344Y71120D03*
X172720Y71120D03*
X133096Y71120D03*
D10*
X568960Y388620D03*
X568960Y347980D03*
X608584Y388620D03*
X648208Y388620D03*
X687832Y388620D03*
X727456Y388620D03*
X767080Y388620D03*
X806704Y388620D03*
X846328Y388620D03*
X885952Y388620D03*
X925576Y388620D03*
X965200Y388620D03*
X608584Y347980D03*
X648208Y347980D03*
X687832Y347980D03*
X727456Y347980D03*
X767080Y347980D03*
X806704Y347980D03*
X846328Y347980D03*
X885952Y347980D03*
X925576Y347980D03*
X965200Y347980D03*
D11*
X529336Y347980D03*
X529336Y388620D03*
X489712Y347980D03*
X450088Y347980D03*
X410464Y347980D03*
X370840Y347980D03*
X331216Y347980D03*
X291592Y347980D03*
X251968Y347980D03*
X212344Y347980D03*
X172720Y347980D03*
X133096Y347980D03*
X489712Y388620D03*
X450088Y388620D03*
X410464Y388620D03*
X370840Y388620D03*
X331216Y388620D03*
X291592Y388620D03*
X251968Y388620D03*
X212344Y388620D03*
X172720Y388620D03*
X133096Y388620D03*
D12*
X171450Y200025D02*
X171450Y73025D01*
X171450Y200025D02*
X123825Y200025D01*
X111125Y212725D01*
X111125Y241300D01*
X152400Y241300D01*
X172720Y261620D01*
X171450Y73025D02*
X172720Y71120D01*
X152400Y368300D02*
X172720Y388620D01*
X152400Y368300D02*
X123825Y368300D01*
X111125Y355600D01*
X111125Y282575D01*
X146050Y282575D01*
X168275Y260350D01*
X172720Y261620D01*
X371475Y200025D02*
X371475Y73025D01*
X371475Y200025D02*
X377825Y200025D01*
X390525Y212725D01*
X390525Y260350D01*
X371475Y260350D01*
X371475Y73025D02*
X370840Y71120D01*
X371475Y260350D02*
X370840Y261620D01*
X390525Y368300D02*
X371475Y387350D01*
X390525Y368300D02*
X390525Y260350D01*
X371475Y387350D02*
X370840Y388620D01*
X130175Y95250D02*
X130175Y73025D01*
X130175Y95250D02*
X98425Y127000D01*
X98425Y260350D01*
X130175Y260350D01*
X130175Y73025D02*
X133096Y71120D01*
X130175Y260350D02*
X133096Y261620D01*
X123825Y381000D02*
X130175Y387350D01*
X123825Y381000D02*
X117475Y381000D01*
X98425Y361950D01*
X98425Y260350D01*
X130175Y387350D02*
X133096Y388620D01*
M02*
