G04 EAGLE Gerber RS-274X export*
G75*
%MOMM*%
%FSLAX34Y34*%
%LPD*%
%INBoard Outline*%
%IPPOS*%
%AMOC8*
5,1,8,0,0,1.08239X$1,22.5*%
G01*
%ADD10C,0.000000*%
%ADD11C,0.254000*%


D10*
X0Y0D02*
X1099312Y0D01*
X1099312Y419100D01*
X0Y419100D01*
X0Y0D01*
X47752Y146050D02*
X47757Y146436D01*
X47771Y146823D01*
X47795Y147208D01*
X47828Y147594D01*
X47870Y147978D01*
X47922Y148361D01*
X47984Y148742D01*
X48055Y149122D01*
X48135Y149500D01*
X48224Y149876D01*
X48322Y150250D01*
X48430Y150621D01*
X48547Y150990D01*
X48673Y151355D01*
X48807Y151718D01*
X48951Y152076D01*
X49103Y152432D01*
X49264Y152783D01*
X49434Y153130D01*
X49612Y153474D01*
X49798Y153812D01*
X49992Y154146D01*
X50195Y154475D01*
X50406Y154799D01*
X50625Y155118D01*
X50851Y155431D01*
X51085Y155739D01*
X51327Y156040D01*
X51575Y156336D01*
X51832Y156626D01*
X52095Y156909D01*
X52364Y157186D01*
X52641Y157455D01*
X52924Y157718D01*
X53214Y157975D01*
X53510Y158223D01*
X53811Y158465D01*
X54119Y158699D01*
X54432Y158925D01*
X54751Y159144D01*
X55075Y159355D01*
X55404Y159558D01*
X55738Y159752D01*
X56076Y159938D01*
X56420Y160116D01*
X56767Y160286D01*
X57118Y160447D01*
X57474Y160599D01*
X57832Y160743D01*
X58195Y160877D01*
X58560Y161003D01*
X58929Y161120D01*
X59300Y161228D01*
X59674Y161326D01*
X60050Y161415D01*
X60428Y161495D01*
X60808Y161566D01*
X61189Y161628D01*
X61572Y161680D01*
X61956Y161722D01*
X62342Y161755D01*
X62727Y161779D01*
X63114Y161793D01*
X63500Y161798D01*
X63886Y161793D01*
X64273Y161779D01*
X64658Y161755D01*
X65044Y161722D01*
X65428Y161680D01*
X65811Y161628D01*
X66192Y161566D01*
X66572Y161495D01*
X66950Y161415D01*
X67326Y161326D01*
X67700Y161228D01*
X68071Y161120D01*
X68440Y161003D01*
X68805Y160877D01*
X69168Y160743D01*
X69526Y160599D01*
X69882Y160447D01*
X70233Y160286D01*
X70580Y160116D01*
X70924Y159938D01*
X71262Y159752D01*
X71596Y159558D01*
X71925Y159355D01*
X72249Y159144D01*
X72568Y158925D01*
X72881Y158699D01*
X73189Y158465D01*
X73490Y158223D01*
X73786Y157975D01*
X74076Y157718D01*
X74359Y157455D01*
X74636Y157186D01*
X74905Y156909D01*
X75168Y156626D01*
X75425Y156336D01*
X75673Y156040D01*
X75915Y155739D01*
X76149Y155431D01*
X76375Y155118D01*
X76594Y154799D01*
X76805Y154475D01*
X77008Y154146D01*
X77202Y153812D01*
X77388Y153474D01*
X77566Y153130D01*
X77736Y152783D01*
X77897Y152432D01*
X78049Y152076D01*
X78193Y151718D01*
X78327Y151355D01*
X78453Y150990D01*
X78570Y150621D01*
X78678Y150250D01*
X78776Y149876D01*
X78865Y149500D01*
X78945Y149122D01*
X79016Y148742D01*
X79078Y148361D01*
X79130Y147978D01*
X79172Y147594D01*
X79205Y147208D01*
X79229Y146823D01*
X79243Y146436D01*
X79248Y146050D01*
X79243Y145664D01*
X79229Y145277D01*
X79205Y144892D01*
X79172Y144506D01*
X79130Y144122D01*
X79078Y143739D01*
X79016Y143358D01*
X78945Y142978D01*
X78865Y142600D01*
X78776Y142224D01*
X78678Y141850D01*
X78570Y141479D01*
X78453Y141110D01*
X78327Y140745D01*
X78193Y140382D01*
X78049Y140024D01*
X77897Y139668D01*
X77736Y139317D01*
X77566Y138970D01*
X77388Y138626D01*
X77202Y138288D01*
X77008Y137954D01*
X76805Y137625D01*
X76594Y137301D01*
X76375Y136982D01*
X76149Y136669D01*
X75915Y136361D01*
X75673Y136060D01*
X75425Y135764D01*
X75168Y135474D01*
X74905Y135191D01*
X74636Y134914D01*
X74359Y134645D01*
X74076Y134382D01*
X73786Y134125D01*
X73490Y133877D01*
X73189Y133635D01*
X72881Y133401D01*
X72568Y133175D01*
X72249Y132956D01*
X71925Y132745D01*
X71596Y132542D01*
X71262Y132348D01*
X70924Y132162D01*
X70580Y131984D01*
X70233Y131814D01*
X69882Y131653D01*
X69526Y131501D01*
X69168Y131357D01*
X68805Y131223D01*
X68440Y131097D01*
X68071Y130980D01*
X67700Y130872D01*
X67326Y130774D01*
X66950Y130685D01*
X66572Y130605D01*
X66192Y130534D01*
X65811Y130472D01*
X65428Y130420D01*
X65044Y130378D01*
X64658Y130345D01*
X64273Y130321D01*
X63886Y130307D01*
X63500Y130302D01*
X63114Y130307D01*
X62727Y130321D01*
X62342Y130345D01*
X61956Y130378D01*
X61572Y130420D01*
X61189Y130472D01*
X60808Y130534D01*
X60428Y130605D01*
X60050Y130685D01*
X59674Y130774D01*
X59300Y130872D01*
X58929Y130980D01*
X58560Y131097D01*
X58195Y131223D01*
X57832Y131357D01*
X57474Y131501D01*
X57118Y131653D01*
X56767Y131814D01*
X56420Y131984D01*
X56076Y132162D01*
X55738Y132348D01*
X55404Y132542D01*
X55075Y132745D01*
X54751Y132956D01*
X54432Y133175D01*
X54119Y133401D01*
X53811Y133635D01*
X53510Y133877D01*
X53214Y134125D01*
X52924Y134382D01*
X52641Y134645D01*
X52364Y134914D01*
X52095Y135191D01*
X51832Y135474D01*
X51575Y135764D01*
X51327Y136060D01*
X51085Y136361D01*
X50851Y136669D01*
X50625Y136982D01*
X50406Y137301D01*
X50195Y137625D01*
X49992Y137954D01*
X49798Y138288D01*
X49612Y138626D01*
X49434Y138970D01*
X49264Y139317D01*
X49103Y139668D01*
X48951Y140024D01*
X48807Y140382D01*
X48673Y140745D01*
X48547Y141110D01*
X48430Y141479D01*
X48322Y141850D01*
X48224Y142224D01*
X48135Y142600D01*
X48055Y142978D01*
X47984Y143358D01*
X47922Y143739D01*
X47870Y144122D01*
X47828Y144506D01*
X47795Y144892D01*
X47771Y145277D01*
X47757Y145664D01*
X47752Y146050D01*
X1020064Y146050D02*
X1020069Y146436D01*
X1020083Y146823D01*
X1020107Y147208D01*
X1020140Y147594D01*
X1020182Y147978D01*
X1020234Y148361D01*
X1020296Y148742D01*
X1020367Y149122D01*
X1020447Y149500D01*
X1020536Y149876D01*
X1020634Y150250D01*
X1020742Y150621D01*
X1020859Y150990D01*
X1020985Y151355D01*
X1021119Y151718D01*
X1021263Y152076D01*
X1021415Y152432D01*
X1021576Y152783D01*
X1021746Y153130D01*
X1021924Y153474D01*
X1022110Y153812D01*
X1022304Y154146D01*
X1022507Y154475D01*
X1022718Y154799D01*
X1022937Y155118D01*
X1023163Y155431D01*
X1023397Y155739D01*
X1023639Y156040D01*
X1023887Y156336D01*
X1024144Y156626D01*
X1024407Y156909D01*
X1024676Y157186D01*
X1024953Y157455D01*
X1025236Y157718D01*
X1025526Y157975D01*
X1025822Y158223D01*
X1026123Y158465D01*
X1026431Y158699D01*
X1026744Y158925D01*
X1027063Y159144D01*
X1027387Y159355D01*
X1027716Y159558D01*
X1028050Y159752D01*
X1028388Y159938D01*
X1028732Y160116D01*
X1029079Y160286D01*
X1029430Y160447D01*
X1029786Y160599D01*
X1030144Y160743D01*
X1030507Y160877D01*
X1030872Y161003D01*
X1031241Y161120D01*
X1031612Y161228D01*
X1031986Y161326D01*
X1032362Y161415D01*
X1032740Y161495D01*
X1033120Y161566D01*
X1033501Y161628D01*
X1033884Y161680D01*
X1034268Y161722D01*
X1034654Y161755D01*
X1035039Y161779D01*
X1035426Y161793D01*
X1035812Y161798D01*
X1036198Y161793D01*
X1036585Y161779D01*
X1036970Y161755D01*
X1037356Y161722D01*
X1037740Y161680D01*
X1038123Y161628D01*
X1038504Y161566D01*
X1038884Y161495D01*
X1039262Y161415D01*
X1039638Y161326D01*
X1040012Y161228D01*
X1040383Y161120D01*
X1040752Y161003D01*
X1041117Y160877D01*
X1041480Y160743D01*
X1041838Y160599D01*
X1042194Y160447D01*
X1042545Y160286D01*
X1042892Y160116D01*
X1043236Y159938D01*
X1043574Y159752D01*
X1043908Y159558D01*
X1044237Y159355D01*
X1044561Y159144D01*
X1044880Y158925D01*
X1045193Y158699D01*
X1045501Y158465D01*
X1045802Y158223D01*
X1046098Y157975D01*
X1046388Y157718D01*
X1046671Y157455D01*
X1046948Y157186D01*
X1047217Y156909D01*
X1047480Y156626D01*
X1047737Y156336D01*
X1047985Y156040D01*
X1048227Y155739D01*
X1048461Y155431D01*
X1048687Y155118D01*
X1048906Y154799D01*
X1049117Y154475D01*
X1049320Y154146D01*
X1049514Y153812D01*
X1049700Y153474D01*
X1049878Y153130D01*
X1050048Y152783D01*
X1050209Y152432D01*
X1050361Y152076D01*
X1050505Y151718D01*
X1050639Y151355D01*
X1050765Y150990D01*
X1050882Y150621D01*
X1050990Y150250D01*
X1051088Y149876D01*
X1051177Y149500D01*
X1051257Y149122D01*
X1051328Y148742D01*
X1051390Y148361D01*
X1051442Y147978D01*
X1051484Y147594D01*
X1051517Y147208D01*
X1051541Y146823D01*
X1051555Y146436D01*
X1051560Y146050D01*
X1051555Y145664D01*
X1051541Y145277D01*
X1051517Y144892D01*
X1051484Y144506D01*
X1051442Y144122D01*
X1051390Y143739D01*
X1051328Y143358D01*
X1051257Y142978D01*
X1051177Y142600D01*
X1051088Y142224D01*
X1050990Y141850D01*
X1050882Y141479D01*
X1050765Y141110D01*
X1050639Y140745D01*
X1050505Y140382D01*
X1050361Y140024D01*
X1050209Y139668D01*
X1050048Y139317D01*
X1049878Y138970D01*
X1049700Y138626D01*
X1049514Y138288D01*
X1049320Y137954D01*
X1049117Y137625D01*
X1048906Y137301D01*
X1048687Y136982D01*
X1048461Y136669D01*
X1048227Y136361D01*
X1047985Y136060D01*
X1047737Y135764D01*
X1047480Y135474D01*
X1047217Y135191D01*
X1046948Y134914D01*
X1046671Y134645D01*
X1046388Y134382D01*
X1046098Y134125D01*
X1045802Y133877D01*
X1045501Y133635D01*
X1045193Y133401D01*
X1044880Y133175D01*
X1044561Y132956D01*
X1044237Y132745D01*
X1043908Y132542D01*
X1043574Y132348D01*
X1043236Y132162D01*
X1042892Y131984D01*
X1042545Y131814D01*
X1042194Y131653D01*
X1041838Y131501D01*
X1041480Y131357D01*
X1041117Y131223D01*
X1040752Y131097D01*
X1040383Y130980D01*
X1040012Y130872D01*
X1039638Y130774D01*
X1039262Y130685D01*
X1038884Y130605D01*
X1038504Y130534D01*
X1038123Y130472D01*
X1037740Y130420D01*
X1037356Y130378D01*
X1036970Y130345D01*
X1036585Y130321D01*
X1036198Y130307D01*
X1035812Y130302D01*
X1035426Y130307D01*
X1035039Y130321D01*
X1034654Y130345D01*
X1034268Y130378D01*
X1033884Y130420D01*
X1033501Y130472D01*
X1033120Y130534D01*
X1032740Y130605D01*
X1032362Y130685D01*
X1031986Y130774D01*
X1031612Y130872D01*
X1031241Y130980D01*
X1030872Y131097D01*
X1030507Y131223D01*
X1030144Y131357D01*
X1029786Y131501D01*
X1029430Y131653D01*
X1029079Y131814D01*
X1028732Y131984D01*
X1028388Y132162D01*
X1028050Y132348D01*
X1027716Y132542D01*
X1027387Y132745D01*
X1027063Y132956D01*
X1026744Y133175D01*
X1026431Y133401D01*
X1026123Y133635D01*
X1025822Y133877D01*
X1025526Y134125D01*
X1025236Y134382D01*
X1024953Y134645D01*
X1024676Y134914D01*
X1024407Y135191D01*
X1024144Y135474D01*
X1023887Y135764D01*
X1023639Y136060D01*
X1023397Y136361D01*
X1023163Y136669D01*
X1022937Y136982D01*
X1022718Y137301D01*
X1022507Y137625D01*
X1022304Y137954D01*
X1022110Y138288D01*
X1021924Y138626D01*
X1021746Y138970D01*
X1021576Y139317D01*
X1021415Y139668D01*
X1021263Y140024D01*
X1021119Y140382D01*
X1020985Y140745D01*
X1020859Y141110D01*
X1020742Y141479D01*
X1020634Y141850D01*
X1020536Y142224D01*
X1020447Y142600D01*
X1020367Y142978D01*
X1020296Y143358D01*
X1020234Y143739D01*
X1020182Y144122D01*
X1020140Y144506D01*
X1020107Y144892D01*
X1020083Y145277D01*
X1020069Y145664D01*
X1020064Y146050D01*
X47752Y311150D02*
X47757Y311536D01*
X47771Y311923D01*
X47795Y312308D01*
X47828Y312694D01*
X47870Y313078D01*
X47922Y313461D01*
X47984Y313842D01*
X48055Y314222D01*
X48135Y314600D01*
X48224Y314976D01*
X48322Y315350D01*
X48430Y315721D01*
X48547Y316090D01*
X48673Y316455D01*
X48807Y316818D01*
X48951Y317176D01*
X49103Y317532D01*
X49264Y317883D01*
X49434Y318230D01*
X49612Y318574D01*
X49798Y318912D01*
X49992Y319246D01*
X50195Y319575D01*
X50406Y319899D01*
X50625Y320218D01*
X50851Y320531D01*
X51085Y320839D01*
X51327Y321140D01*
X51575Y321436D01*
X51832Y321726D01*
X52095Y322009D01*
X52364Y322286D01*
X52641Y322555D01*
X52924Y322818D01*
X53214Y323075D01*
X53510Y323323D01*
X53811Y323565D01*
X54119Y323799D01*
X54432Y324025D01*
X54751Y324244D01*
X55075Y324455D01*
X55404Y324658D01*
X55738Y324852D01*
X56076Y325038D01*
X56420Y325216D01*
X56767Y325386D01*
X57118Y325547D01*
X57474Y325699D01*
X57832Y325843D01*
X58195Y325977D01*
X58560Y326103D01*
X58929Y326220D01*
X59300Y326328D01*
X59674Y326426D01*
X60050Y326515D01*
X60428Y326595D01*
X60808Y326666D01*
X61189Y326728D01*
X61572Y326780D01*
X61956Y326822D01*
X62342Y326855D01*
X62727Y326879D01*
X63114Y326893D01*
X63500Y326898D01*
X63886Y326893D01*
X64273Y326879D01*
X64658Y326855D01*
X65044Y326822D01*
X65428Y326780D01*
X65811Y326728D01*
X66192Y326666D01*
X66572Y326595D01*
X66950Y326515D01*
X67326Y326426D01*
X67700Y326328D01*
X68071Y326220D01*
X68440Y326103D01*
X68805Y325977D01*
X69168Y325843D01*
X69526Y325699D01*
X69882Y325547D01*
X70233Y325386D01*
X70580Y325216D01*
X70924Y325038D01*
X71262Y324852D01*
X71596Y324658D01*
X71925Y324455D01*
X72249Y324244D01*
X72568Y324025D01*
X72881Y323799D01*
X73189Y323565D01*
X73490Y323323D01*
X73786Y323075D01*
X74076Y322818D01*
X74359Y322555D01*
X74636Y322286D01*
X74905Y322009D01*
X75168Y321726D01*
X75425Y321436D01*
X75673Y321140D01*
X75915Y320839D01*
X76149Y320531D01*
X76375Y320218D01*
X76594Y319899D01*
X76805Y319575D01*
X77008Y319246D01*
X77202Y318912D01*
X77388Y318574D01*
X77566Y318230D01*
X77736Y317883D01*
X77897Y317532D01*
X78049Y317176D01*
X78193Y316818D01*
X78327Y316455D01*
X78453Y316090D01*
X78570Y315721D01*
X78678Y315350D01*
X78776Y314976D01*
X78865Y314600D01*
X78945Y314222D01*
X79016Y313842D01*
X79078Y313461D01*
X79130Y313078D01*
X79172Y312694D01*
X79205Y312308D01*
X79229Y311923D01*
X79243Y311536D01*
X79248Y311150D01*
X79243Y310764D01*
X79229Y310377D01*
X79205Y309992D01*
X79172Y309606D01*
X79130Y309222D01*
X79078Y308839D01*
X79016Y308458D01*
X78945Y308078D01*
X78865Y307700D01*
X78776Y307324D01*
X78678Y306950D01*
X78570Y306579D01*
X78453Y306210D01*
X78327Y305845D01*
X78193Y305482D01*
X78049Y305124D01*
X77897Y304768D01*
X77736Y304417D01*
X77566Y304070D01*
X77388Y303726D01*
X77202Y303388D01*
X77008Y303054D01*
X76805Y302725D01*
X76594Y302401D01*
X76375Y302082D01*
X76149Y301769D01*
X75915Y301461D01*
X75673Y301160D01*
X75425Y300864D01*
X75168Y300574D01*
X74905Y300291D01*
X74636Y300014D01*
X74359Y299745D01*
X74076Y299482D01*
X73786Y299225D01*
X73490Y298977D01*
X73189Y298735D01*
X72881Y298501D01*
X72568Y298275D01*
X72249Y298056D01*
X71925Y297845D01*
X71596Y297642D01*
X71262Y297448D01*
X70924Y297262D01*
X70580Y297084D01*
X70233Y296914D01*
X69882Y296753D01*
X69526Y296601D01*
X69168Y296457D01*
X68805Y296323D01*
X68440Y296197D01*
X68071Y296080D01*
X67700Y295972D01*
X67326Y295874D01*
X66950Y295785D01*
X66572Y295705D01*
X66192Y295634D01*
X65811Y295572D01*
X65428Y295520D01*
X65044Y295478D01*
X64658Y295445D01*
X64273Y295421D01*
X63886Y295407D01*
X63500Y295402D01*
X63114Y295407D01*
X62727Y295421D01*
X62342Y295445D01*
X61956Y295478D01*
X61572Y295520D01*
X61189Y295572D01*
X60808Y295634D01*
X60428Y295705D01*
X60050Y295785D01*
X59674Y295874D01*
X59300Y295972D01*
X58929Y296080D01*
X58560Y296197D01*
X58195Y296323D01*
X57832Y296457D01*
X57474Y296601D01*
X57118Y296753D01*
X56767Y296914D01*
X56420Y297084D01*
X56076Y297262D01*
X55738Y297448D01*
X55404Y297642D01*
X55075Y297845D01*
X54751Y298056D01*
X54432Y298275D01*
X54119Y298501D01*
X53811Y298735D01*
X53510Y298977D01*
X53214Y299225D01*
X52924Y299482D01*
X52641Y299745D01*
X52364Y300014D01*
X52095Y300291D01*
X51832Y300574D01*
X51575Y300864D01*
X51327Y301160D01*
X51085Y301461D01*
X50851Y301769D01*
X50625Y302082D01*
X50406Y302401D01*
X50195Y302725D01*
X49992Y303054D01*
X49798Y303388D01*
X49612Y303726D01*
X49434Y304070D01*
X49264Y304417D01*
X49103Y304768D01*
X48951Y305124D01*
X48807Y305482D01*
X48673Y305845D01*
X48547Y306210D01*
X48430Y306579D01*
X48322Y306950D01*
X48224Y307324D01*
X48135Y307700D01*
X48055Y308078D01*
X47984Y308458D01*
X47922Y308839D01*
X47870Y309222D01*
X47828Y309606D01*
X47795Y309992D01*
X47771Y310377D01*
X47757Y310764D01*
X47752Y311150D01*
X1020064Y311150D02*
X1020069Y311536D01*
X1020083Y311923D01*
X1020107Y312308D01*
X1020140Y312694D01*
X1020182Y313078D01*
X1020234Y313461D01*
X1020296Y313842D01*
X1020367Y314222D01*
X1020447Y314600D01*
X1020536Y314976D01*
X1020634Y315350D01*
X1020742Y315721D01*
X1020859Y316090D01*
X1020985Y316455D01*
X1021119Y316818D01*
X1021263Y317176D01*
X1021415Y317532D01*
X1021576Y317883D01*
X1021746Y318230D01*
X1021924Y318574D01*
X1022110Y318912D01*
X1022304Y319246D01*
X1022507Y319575D01*
X1022718Y319899D01*
X1022937Y320218D01*
X1023163Y320531D01*
X1023397Y320839D01*
X1023639Y321140D01*
X1023887Y321436D01*
X1024144Y321726D01*
X1024407Y322009D01*
X1024676Y322286D01*
X1024953Y322555D01*
X1025236Y322818D01*
X1025526Y323075D01*
X1025822Y323323D01*
X1026123Y323565D01*
X1026431Y323799D01*
X1026744Y324025D01*
X1027063Y324244D01*
X1027387Y324455D01*
X1027716Y324658D01*
X1028050Y324852D01*
X1028388Y325038D01*
X1028732Y325216D01*
X1029079Y325386D01*
X1029430Y325547D01*
X1029786Y325699D01*
X1030144Y325843D01*
X1030507Y325977D01*
X1030872Y326103D01*
X1031241Y326220D01*
X1031612Y326328D01*
X1031986Y326426D01*
X1032362Y326515D01*
X1032740Y326595D01*
X1033120Y326666D01*
X1033501Y326728D01*
X1033884Y326780D01*
X1034268Y326822D01*
X1034654Y326855D01*
X1035039Y326879D01*
X1035426Y326893D01*
X1035812Y326898D01*
X1036198Y326893D01*
X1036585Y326879D01*
X1036970Y326855D01*
X1037356Y326822D01*
X1037740Y326780D01*
X1038123Y326728D01*
X1038504Y326666D01*
X1038884Y326595D01*
X1039262Y326515D01*
X1039638Y326426D01*
X1040012Y326328D01*
X1040383Y326220D01*
X1040752Y326103D01*
X1041117Y325977D01*
X1041480Y325843D01*
X1041838Y325699D01*
X1042194Y325547D01*
X1042545Y325386D01*
X1042892Y325216D01*
X1043236Y325038D01*
X1043574Y324852D01*
X1043908Y324658D01*
X1044237Y324455D01*
X1044561Y324244D01*
X1044880Y324025D01*
X1045193Y323799D01*
X1045501Y323565D01*
X1045802Y323323D01*
X1046098Y323075D01*
X1046388Y322818D01*
X1046671Y322555D01*
X1046948Y322286D01*
X1047217Y322009D01*
X1047480Y321726D01*
X1047737Y321436D01*
X1047985Y321140D01*
X1048227Y320839D01*
X1048461Y320531D01*
X1048687Y320218D01*
X1048906Y319899D01*
X1049117Y319575D01*
X1049320Y319246D01*
X1049514Y318912D01*
X1049700Y318574D01*
X1049878Y318230D01*
X1050048Y317883D01*
X1050209Y317532D01*
X1050361Y317176D01*
X1050505Y316818D01*
X1050639Y316455D01*
X1050765Y316090D01*
X1050882Y315721D01*
X1050990Y315350D01*
X1051088Y314976D01*
X1051177Y314600D01*
X1051257Y314222D01*
X1051328Y313842D01*
X1051390Y313461D01*
X1051442Y313078D01*
X1051484Y312694D01*
X1051517Y312308D01*
X1051541Y311923D01*
X1051555Y311536D01*
X1051560Y311150D01*
X1051555Y310764D01*
X1051541Y310377D01*
X1051517Y309992D01*
X1051484Y309606D01*
X1051442Y309222D01*
X1051390Y308839D01*
X1051328Y308458D01*
X1051257Y308078D01*
X1051177Y307700D01*
X1051088Y307324D01*
X1050990Y306950D01*
X1050882Y306579D01*
X1050765Y306210D01*
X1050639Y305845D01*
X1050505Y305482D01*
X1050361Y305124D01*
X1050209Y304768D01*
X1050048Y304417D01*
X1049878Y304070D01*
X1049700Y303726D01*
X1049514Y303388D01*
X1049320Y303054D01*
X1049117Y302725D01*
X1048906Y302401D01*
X1048687Y302082D01*
X1048461Y301769D01*
X1048227Y301461D01*
X1047985Y301160D01*
X1047737Y300864D01*
X1047480Y300574D01*
X1047217Y300291D01*
X1046948Y300014D01*
X1046671Y299745D01*
X1046388Y299482D01*
X1046098Y299225D01*
X1045802Y298977D01*
X1045501Y298735D01*
X1045193Y298501D01*
X1044880Y298275D01*
X1044561Y298056D01*
X1044237Y297845D01*
X1043908Y297642D01*
X1043574Y297448D01*
X1043236Y297262D01*
X1042892Y297084D01*
X1042545Y296914D01*
X1042194Y296753D01*
X1041838Y296601D01*
X1041480Y296457D01*
X1041117Y296323D01*
X1040752Y296197D01*
X1040383Y296080D01*
X1040012Y295972D01*
X1039638Y295874D01*
X1039262Y295785D01*
X1038884Y295705D01*
X1038504Y295634D01*
X1038123Y295572D01*
X1037740Y295520D01*
X1037356Y295478D01*
X1036970Y295445D01*
X1036585Y295421D01*
X1036198Y295407D01*
X1035812Y295402D01*
X1035426Y295407D01*
X1035039Y295421D01*
X1034654Y295445D01*
X1034268Y295478D01*
X1033884Y295520D01*
X1033501Y295572D01*
X1033120Y295634D01*
X1032740Y295705D01*
X1032362Y295785D01*
X1031986Y295874D01*
X1031612Y295972D01*
X1031241Y296080D01*
X1030872Y296197D01*
X1030507Y296323D01*
X1030144Y296457D01*
X1029786Y296601D01*
X1029430Y296753D01*
X1029079Y296914D01*
X1028732Y297084D01*
X1028388Y297262D01*
X1028050Y297448D01*
X1027716Y297642D01*
X1027387Y297845D01*
X1027063Y298056D01*
X1026744Y298275D01*
X1026431Y298501D01*
X1026123Y298735D01*
X1025822Y298977D01*
X1025526Y299225D01*
X1025236Y299482D01*
X1024953Y299745D01*
X1024676Y300014D01*
X1024407Y300291D01*
X1024144Y300574D01*
X1023887Y300864D01*
X1023639Y301160D01*
X1023397Y301461D01*
X1023163Y301769D01*
X1022937Y302082D01*
X1022718Y302401D01*
X1022507Y302725D01*
X1022304Y303054D01*
X1022110Y303388D01*
X1021924Y303726D01*
X1021746Y304070D01*
X1021576Y304417D01*
X1021415Y304768D01*
X1021263Y305124D01*
X1021119Y305482D01*
X1020985Y305845D01*
X1020859Y306210D01*
X1020742Y306579D01*
X1020634Y306950D01*
X1020536Y307324D01*
X1020447Y307700D01*
X1020367Y308078D01*
X1020296Y308458D01*
X1020234Y308839D01*
X1020182Y309222D01*
X1020140Y309606D01*
X1020107Y309992D01*
X1020083Y310377D01*
X1020069Y310764D01*
X1020064Y311150D01*
X19812Y241300D02*
X19817Y241736D01*
X19833Y242172D01*
X19860Y242608D01*
X19898Y243043D01*
X19946Y243476D01*
X20004Y243909D01*
X20074Y244340D01*
X20154Y244769D01*
X20244Y245196D01*
X20345Y245620D01*
X20456Y246042D01*
X20578Y246461D01*
X20709Y246877D01*
X20851Y247290D01*
X21003Y247699D01*
X21165Y248104D01*
X21337Y248505D01*
X21519Y248902D01*
X21710Y249294D01*
X21911Y249681D01*
X22122Y250064D01*
X22342Y250441D01*
X22571Y250812D01*
X22808Y251178D01*
X23055Y251538D01*
X23311Y251892D01*
X23575Y252239D01*
X23848Y252580D01*
X24129Y252913D01*
X24418Y253240D01*
X24715Y253560D01*
X25020Y253872D01*
X25332Y254177D01*
X25652Y254474D01*
X25979Y254763D01*
X26312Y255044D01*
X26653Y255317D01*
X27000Y255581D01*
X27354Y255837D01*
X27714Y256084D01*
X28080Y256321D01*
X28451Y256550D01*
X28828Y256770D01*
X29211Y256981D01*
X29598Y257182D01*
X29990Y257373D01*
X30387Y257555D01*
X30788Y257727D01*
X31193Y257889D01*
X31602Y258041D01*
X32015Y258183D01*
X32431Y258314D01*
X32850Y258436D01*
X33272Y258547D01*
X33696Y258648D01*
X34123Y258738D01*
X34552Y258818D01*
X34983Y258888D01*
X35416Y258946D01*
X35849Y258994D01*
X36284Y259032D01*
X36720Y259059D01*
X37156Y259075D01*
X37592Y259080D01*
X38028Y259075D01*
X38464Y259059D01*
X38900Y259032D01*
X39335Y258994D01*
X39768Y258946D01*
X40201Y258888D01*
X40632Y258818D01*
X41061Y258738D01*
X41488Y258648D01*
X41912Y258547D01*
X42334Y258436D01*
X42753Y258314D01*
X43169Y258183D01*
X43582Y258041D01*
X43991Y257889D01*
X44396Y257727D01*
X44797Y257555D01*
X45194Y257373D01*
X45586Y257182D01*
X45973Y256981D01*
X46356Y256770D01*
X46733Y256550D01*
X47104Y256321D01*
X47470Y256084D01*
X47830Y255837D01*
X48184Y255581D01*
X48531Y255317D01*
X48872Y255044D01*
X49205Y254763D01*
X49532Y254474D01*
X49852Y254177D01*
X50164Y253872D01*
X50469Y253560D01*
X50766Y253240D01*
X51055Y252913D01*
X51336Y252580D01*
X51609Y252239D01*
X51873Y251892D01*
X52129Y251538D01*
X52376Y251178D01*
X52613Y250812D01*
X52842Y250441D01*
X53062Y250064D01*
X53273Y249681D01*
X53474Y249294D01*
X53665Y248902D01*
X53847Y248505D01*
X54019Y248104D01*
X54181Y247699D01*
X54333Y247290D01*
X54475Y246877D01*
X54606Y246461D01*
X54728Y246042D01*
X54839Y245620D01*
X54940Y245196D01*
X55030Y244769D01*
X55110Y244340D01*
X55180Y243909D01*
X55238Y243476D01*
X55286Y243043D01*
X55324Y242608D01*
X55351Y242172D01*
X55367Y241736D01*
X55372Y241300D01*
X55367Y240864D01*
X55351Y240428D01*
X55324Y239992D01*
X55286Y239557D01*
X55238Y239124D01*
X55180Y238691D01*
X55110Y238260D01*
X55030Y237831D01*
X54940Y237404D01*
X54839Y236980D01*
X54728Y236558D01*
X54606Y236139D01*
X54475Y235723D01*
X54333Y235310D01*
X54181Y234901D01*
X54019Y234496D01*
X53847Y234095D01*
X53665Y233698D01*
X53474Y233306D01*
X53273Y232919D01*
X53062Y232536D01*
X52842Y232159D01*
X52613Y231788D01*
X52376Y231422D01*
X52129Y231062D01*
X51873Y230708D01*
X51609Y230361D01*
X51336Y230020D01*
X51055Y229687D01*
X50766Y229360D01*
X50469Y229040D01*
X50164Y228728D01*
X49852Y228423D01*
X49532Y228126D01*
X49205Y227837D01*
X48872Y227556D01*
X48531Y227283D01*
X48184Y227019D01*
X47830Y226763D01*
X47470Y226516D01*
X47104Y226279D01*
X46733Y226050D01*
X46356Y225830D01*
X45973Y225619D01*
X45586Y225418D01*
X45194Y225227D01*
X44797Y225045D01*
X44396Y224873D01*
X43991Y224711D01*
X43582Y224559D01*
X43169Y224417D01*
X42753Y224286D01*
X42334Y224164D01*
X41912Y224053D01*
X41488Y223952D01*
X41061Y223862D01*
X40632Y223782D01*
X40201Y223712D01*
X39768Y223654D01*
X39335Y223606D01*
X38900Y223568D01*
X38464Y223541D01*
X38028Y223525D01*
X37592Y223520D01*
X37156Y223525D01*
X36720Y223541D01*
X36284Y223568D01*
X35849Y223606D01*
X35416Y223654D01*
X34983Y223712D01*
X34552Y223782D01*
X34123Y223862D01*
X33696Y223952D01*
X33272Y224053D01*
X32850Y224164D01*
X32431Y224286D01*
X32015Y224417D01*
X31602Y224559D01*
X31193Y224711D01*
X30788Y224873D01*
X30387Y225045D01*
X29990Y225227D01*
X29598Y225418D01*
X29211Y225619D01*
X28828Y225830D01*
X28451Y226050D01*
X28080Y226279D01*
X27714Y226516D01*
X27354Y226763D01*
X27000Y227019D01*
X26653Y227283D01*
X26312Y227556D01*
X25979Y227837D01*
X25652Y228126D01*
X25332Y228423D01*
X25020Y228728D01*
X24715Y229040D01*
X24418Y229360D01*
X24129Y229687D01*
X23848Y230020D01*
X23575Y230361D01*
X23311Y230708D01*
X23055Y231062D01*
X22808Y231422D01*
X22571Y231788D01*
X22342Y232159D01*
X22122Y232536D01*
X21911Y232919D01*
X21710Y233306D01*
X21519Y233698D01*
X21337Y234095D01*
X21165Y234496D01*
X21003Y234901D01*
X20851Y235310D01*
X20709Y235723D01*
X20578Y236139D01*
X20456Y236558D01*
X20345Y236980D01*
X20244Y237404D01*
X20154Y237831D01*
X20074Y238260D01*
X20004Y238691D01*
X19946Y239124D01*
X19898Y239557D01*
X19860Y239992D01*
X19833Y240428D01*
X19817Y240864D01*
X19812Y241300D01*
X1042924Y241300D02*
X1042929Y241736D01*
X1042945Y242172D01*
X1042972Y242608D01*
X1043010Y243043D01*
X1043058Y243476D01*
X1043116Y243909D01*
X1043186Y244340D01*
X1043266Y244769D01*
X1043356Y245196D01*
X1043457Y245620D01*
X1043568Y246042D01*
X1043690Y246461D01*
X1043821Y246877D01*
X1043963Y247290D01*
X1044115Y247699D01*
X1044277Y248104D01*
X1044449Y248505D01*
X1044631Y248902D01*
X1044822Y249294D01*
X1045023Y249681D01*
X1045234Y250064D01*
X1045454Y250441D01*
X1045683Y250812D01*
X1045920Y251178D01*
X1046167Y251538D01*
X1046423Y251892D01*
X1046687Y252239D01*
X1046960Y252580D01*
X1047241Y252913D01*
X1047530Y253240D01*
X1047827Y253560D01*
X1048132Y253872D01*
X1048444Y254177D01*
X1048764Y254474D01*
X1049091Y254763D01*
X1049424Y255044D01*
X1049765Y255317D01*
X1050112Y255581D01*
X1050466Y255837D01*
X1050826Y256084D01*
X1051192Y256321D01*
X1051563Y256550D01*
X1051940Y256770D01*
X1052323Y256981D01*
X1052710Y257182D01*
X1053102Y257373D01*
X1053499Y257555D01*
X1053900Y257727D01*
X1054305Y257889D01*
X1054714Y258041D01*
X1055127Y258183D01*
X1055543Y258314D01*
X1055962Y258436D01*
X1056384Y258547D01*
X1056808Y258648D01*
X1057235Y258738D01*
X1057664Y258818D01*
X1058095Y258888D01*
X1058528Y258946D01*
X1058961Y258994D01*
X1059396Y259032D01*
X1059832Y259059D01*
X1060268Y259075D01*
X1060704Y259080D01*
X1061140Y259075D01*
X1061576Y259059D01*
X1062012Y259032D01*
X1062447Y258994D01*
X1062880Y258946D01*
X1063313Y258888D01*
X1063744Y258818D01*
X1064173Y258738D01*
X1064600Y258648D01*
X1065024Y258547D01*
X1065446Y258436D01*
X1065865Y258314D01*
X1066281Y258183D01*
X1066694Y258041D01*
X1067103Y257889D01*
X1067508Y257727D01*
X1067909Y257555D01*
X1068306Y257373D01*
X1068698Y257182D01*
X1069085Y256981D01*
X1069468Y256770D01*
X1069845Y256550D01*
X1070216Y256321D01*
X1070582Y256084D01*
X1070942Y255837D01*
X1071296Y255581D01*
X1071643Y255317D01*
X1071984Y255044D01*
X1072317Y254763D01*
X1072644Y254474D01*
X1072964Y254177D01*
X1073276Y253872D01*
X1073581Y253560D01*
X1073878Y253240D01*
X1074167Y252913D01*
X1074448Y252580D01*
X1074721Y252239D01*
X1074985Y251892D01*
X1075241Y251538D01*
X1075488Y251178D01*
X1075725Y250812D01*
X1075954Y250441D01*
X1076174Y250064D01*
X1076385Y249681D01*
X1076586Y249294D01*
X1076777Y248902D01*
X1076959Y248505D01*
X1077131Y248104D01*
X1077293Y247699D01*
X1077445Y247290D01*
X1077587Y246877D01*
X1077718Y246461D01*
X1077840Y246042D01*
X1077951Y245620D01*
X1078052Y245196D01*
X1078142Y244769D01*
X1078222Y244340D01*
X1078292Y243909D01*
X1078350Y243476D01*
X1078398Y243043D01*
X1078436Y242608D01*
X1078463Y242172D01*
X1078479Y241736D01*
X1078484Y241300D01*
X1078479Y240864D01*
X1078463Y240428D01*
X1078436Y239992D01*
X1078398Y239557D01*
X1078350Y239124D01*
X1078292Y238691D01*
X1078222Y238260D01*
X1078142Y237831D01*
X1078052Y237404D01*
X1077951Y236980D01*
X1077840Y236558D01*
X1077718Y236139D01*
X1077587Y235723D01*
X1077445Y235310D01*
X1077293Y234901D01*
X1077131Y234496D01*
X1076959Y234095D01*
X1076777Y233698D01*
X1076586Y233306D01*
X1076385Y232919D01*
X1076174Y232536D01*
X1075954Y232159D01*
X1075725Y231788D01*
X1075488Y231422D01*
X1075241Y231062D01*
X1074985Y230708D01*
X1074721Y230361D01*
X1074448Y230020D01*
X1074167Y229687D01*
X1073878Y229360D01*
X1073581Y229040D01*
X1073276Y228728D01*
X1072964Y228423D01*
X1072644Y228126D01*
X1072317Y227837D01*
X1071984Y227556D01*
X1071643Y227283D01*
X1071296Y227019D01*
X1070942Y226763D01*
X1070582Y226516D01*
X1070216Y226279D01*
X1069845Y226050D01*
X1069468Y225830D01*
X1069085Y225619D01*
X1068698Y225418D01*
X1068306Y225227D01*
X1067909Y225045D01*
X1067508Y224873D01*
X1067103Y224711D01*
X1066694Y224559D01*
X1066281Y224417D01*
X1065865Y224286D01*
X1065446Y224164D01*
X1065024Y224053D01*
X1064600Y223952D01*
X1064173Y223862D01*
X1063744Y223782D01*
X1063313Y223712D01*
X1062880Y223654D01*
X1062447Y223606D01*
X1062012Y223568D01*
X1061576Y223541D01*
X1061140Y223525D01*
X1060704Y223520D01*
X1060268Y223525D01*
X1059832Y223541D01*
X1059396Y223568D01*
X1058961Y223606D01*
X1058528Y223654D01*
X1058095Y223712D01*
X1057664Y223782D01*
X1057235Y223862D01*
X1056808Y223952D01*
X1056384Y224053D01*
X1055962Y224164D01*
X1055543Y224286D01*
X1055127Y224417D01*
X1054714Y224559D01*
X1054305Y224711D01*
X1053900Y224873D01*
X1053499Y225045D01*
X1053102Y225227D01*
X1052710Y225418D01*
X1052323Y225619D01*
X1051940Y225830D01*
X1051563Y226050D01*
X1051192Y226279D01*
X1050826Y226516D01*
X1050466Y226763D01*
X1050112Y227019D01*
X1049765Y227283D01*
X1049424Y227556D01*
X1049091Y227837D01*
X1048764Y228126D01*
X1048444Y228423D01*
X1048132Y228728D01*
X1047827Y229040D01*
X1047530Y229360D01*
X1047241Y229687D01*
X1046960Y230020D01*
X1046687Y230361D01*
X1046423Y230708D01*
X1046167Y231062D01*
X1045920Y231422D01*
X1045683Y231788D01*
X1045454Y232159D01*
X1045234Y232536D01*
X1045023Y232919D01*
X1044822Y233306D01*
X1044631Y233698D01*
X1044449Y234095D01*
X1044277Y234496D01*
X1044115Y234901D01*
X1043963Y235310D01*
X1043821Y235723D01*
X1043690Y236139D01*
X1043568Y236558D01*
X1043457Y236980D01*
X1043356Y237404D01*
X1043266Y237831D01*
X1043186Y238260D01*
X1043116Y238691D01*
X1043058Y239124D01*
X1043010Y239557D01*
X1042972Y239992D01*
X1042945Y240428D01*
X1042929Y240864D01*
X1042924Y241300D01*
X19812Y50800D02*
X19817Y51236D01*
X19833Y51672D01*
X19860Y52108D01*
X19898Y52543D01*
X19946Y52976D01*
X20004Y53409D01*
X20074Y53840D01*
X20154Y54269D01*
X20244Y54696D01*
X20345Y55120D01*
X20456Y55542D01*
X20578Y55961D01*
X20709Y56377D01*
X20851Y56790D01*
X21003Y57199D01*
X21165Y57604D01*
X21337Y58005D01*
X21519Y58402D01*
X21710Y58794D01*
X21911Y59181D01*
X22122Y59564D01*
X22342Y59941D01*
X22571Y60312D01*
X22808Y60678D01*
X23055Y61038D01*
X23311Y61392D01*
X23575Y61739D01*
X23848Y62080D01*
X24129Y62413D01*
X24418Y62740D01*
X24715Y63060D01*
X25020Y63372D01*
X25332Y63677D01*
X25652Y63974D01*
X25979Y64263D01*
X26312Y64544D01*
X26653Y64817D01*
X27000Y65081D01*
X27354Y65337D01*
X27714Y65584D01*
X28080Y65821D01*
X28451Y66050D01*
X28828Y66270D01*
X29211Y66481D01*
X29598Y66682D01*
X29990Y66873D01*
X30387Y67055D01*
X30788Y67227D01*
X31193Y67389D01*
X31602Y67541D01*
X32015Y67683D01*
X32431Y67814D01*
X32850Y67936D01*
X33272Y68047D01*
X33696Y68148D01*
X34123Y68238D01*
X34552Y68318D01*
X34983Y68388D01*
X35416Y68446D01*
X35849Y68494D01*
X36284Y68532D01*
X36720Y68559D01*
X37156Y68575D01*
X37592Y68580D01*
X38028Y68575D01*
X38464Y68559D01*
X38900Y68532D01*
X39335Y68494D01*
X39768Y68446D01*
X40201Y68388D01*
X40632Y68318D01*
X41061Y68238D01*
X41488Y68148D01*
X41912Y68047D01*
X42334Y67936D01*
X42753Y67814D01*
X43169Y67683D01*
X43582Y67541D01*
X43991Y67389D01*
X44396Y67227D01*
X44797Y67055D01*
X45194Y66873D01*
X45586Y66682D01*
X45973Y66481D01*
X46356Y66270D01*
X46733Y66050D01*
X47104Y65821D01*
X47470Y65584D01*
X47830Y65337D01*
X48184Y65081D01*
X48531Y64817D01*
X48872Y64544D01*
X49205Y64263D01*
X49532Y63974D01*
X49852Y63677D01*
X50164Y63372D01*
X50469Y63060D01*
X50766Y62740D01*
X51055Y62413D01*
X51336Y62080D01*
X51609Y61739D01*
X51873Y61392D01*
X52129Y61038D01*
X52376Y60678D01*
X52613Y60312D01*
X52842Y59941D01*
X53062Y59564D01*
X53273Y59181D01*
X53474Y58794D01*
X53665Y58402D01*
X53847Y58005D01*
X54019Y57604D01*
X54181Y57199D01*
X54333Y56790D01*
X54475Y56377D01*
X54606Y55961D01*
X54728Y55542D01*
X54839Y55120D01*
X54940Y54696D01*
X55030Y54269D01*
X55110Y53840D01*
X55180Y53409D01*
X55238Y52976D01*
X55286Y52543D01*
X55324Y52108D01*
X55351Y51672D01*
X55367Y51236D01*
X55372Y50800D01*
X55367Y50364D01*
X55351Y49928D01*
X55324Y49492D01*
X55286Y49057D01*
X55238Y48624D01*
X55180Y48191D01*
X55110Y47760D01*
X55030Y47331D01*
X54940Y46904D01*
X54839Y46480D01*
X54728Y46058D01*
X54606Y45639D01*
X54475Y45223D01*
X54333Y44810D01*
X54181Y44401D01*
X54019Y43996D01*
X53847Y43595D01*
X53665Y43198D01*
X53474Y42806D01*
X53273Y42419D01*
X53062Y42036D01*
X52842Y41659D01*
X52613Y41288D01*
X52376Y40922D01*
X52129Y40562D01*
X51873Y40208D01*
X51609Y39861D01*
X51336Y39520D01*
X51055Y39187D01*
X50766Y38860D01*
X50469Y38540D01*
X50164Y38228D01*
X49852Y37923D01*
X49532Y37626D01*
X49205Y37337D01*
X48872Y37056D01*
X48531Y36783D01*
X48184Y36519D01*
X47830Y36263D01*
X47470Y36016D01*
X47104Y35779D01*
X46733Y35550D01*
X46356Y35330D01*
X45973Y35119D01*
X45586Y34918D01*
X45194Y34727D01*
X44797Y34545D01*
X44396Y34373D01*
X43991Y34211D01*
X43582Y34059D01*
X43169Y33917D01*
X42753Y33786D01*
X42334Y33664D01*
X41912Y33553D01*
X41488Y33452D01*
X41061Y33362D01*
X40632Y33282D01*
X40201Y33212D01*
X39768Y33154D01*
X39335Y33106D01*
X38900Y33068D01*
X38464Y33041D01*
X38028Y33025D01*
X37592Y33020D01*
X37156Y33025D01*
X36720Y33041D01*
X36284Y33068D01*
X35849Y33106D01*
X35416Y33154D01*
X34983Y33212D01*
X34552Y33282D01*
X34123Y33362D01*
X33696Y33452D01*
X33272Y33553D01*
X32850Y33664D01*
X32431Y33786D01*
X32015Y33917D01*
X31602Y34059D01*
X31193Y34211D01*
X30788Y34373D01*
X30387Y34545D01*
X29990Y34727D01*
X29598Y34918D01*
X29211Y35119D01*
X28828Y35330D01*
X28451Y35550D01*
X28080Y35779D01*
X27714Y36016D01*
X27354Y36263D01*
X27000Y36519D01*
X26653Y36783D01*
X26312Y37056D01*
X25979Y37337D01*
X25652Y37626D01*
X25332Y37923D01*
X25020Y38228D01*
X24715Y38540D01*
X24418Y38860D01*
X24129Y39187D01*
X23848Y39520D01*
X23575Y39861D01*
X23311Y40208D01*
X23055Y40562D01*
X22808Y40922D01*
X22571Y41288D01*
X22342Y41659D01*
X22122Y42036D01*
X21911Y42419D01*
X21710Y42806D01*
X21519Y43198D01*
X21337Y43595D01*
X21165Y43996D01*
X21003Y44401D01*
X20851Y44810D01*
X20709Y45223D01*
X20578Y45639D01*
X20456Y46058D01*
X20345Y46480D01*
X20244Y46904D01*
X20154Y47331D01*
X20074Y47760D01*
X20004Y48191D01*
X19946Y48624D01*
X19898Y49057D01*
X19860Y49492D01*
X19833Y49928D01*
X19817Y50364D01*
X19812Y50800D01*
X1042924Y50800D02*
X1042929Y51236D01*
X1042945Y51672D01*
X1042972Y52108D01*
X1043010Y52543D01*
X1043058Y52976D01*
X1043116Y53409D01*
X1043186Y53840D01*
X1043266Y54269D01*
X1043356Y54696D01*
X1043457Y55120D01*
X1043568Y55542D01*
X1043690Y55961D01*
X1043821Y56377D01*
X1043963Y56790D01*
X1044115Y57199D01*
X1044277Y57604D01*
X1044449Y58005D01*
X1044631Y58402D01*
X1044822Y58794D01*
X1045023Y59181D01*
X1045234Y59564D01*
X1045454Y59941D01*
X1045683Y60312D01*
X1045920Y60678D01*
X1046167Y61038D01*
X1046423Y61392D01*
X1046687Y61739D01*
X1046960Y62080D01*
X1047241Y62413D01*
X1047530Y62740D01*
X1047827Y63060D01*
X1048132Y63372D01*
X1048444Y63677D01*
X1048764Y63974D01*
X1049091Y64263D01*
X1049424Y64544D01*
X1049765Y64817D01*
X1050112Y65081D01*
X1050466Y65337D01*
X1050826Y65584D01*
X1051192Y65821D01*
X1051563Y66050D01*
X1051940Y66270D01*
X1052323Y66481D01*
X1052710Y66682D01*
X1053102Y66873D01*
X1053499Y67055D01*
X1053900Y67227D01*
X1054305Y67389D01*
X1054714Y67541D01*
X1055127Y67683D01*
X1055543Y67814D01*
X1055962Y67936D01*
X1056384Y68047D01*
X1056808Y68148D01*
X1057235Y68238D01*
X1057664Y68318D01*
X1058095Y68388D01*
X1058528Y68446D01*
X1058961Y68494D01*
X1059396Y68532D01*
X1059832Y68559D01*
X1060268Y68575D01*
X1060704Y68580D01*
X1061140Y68575D01*
X1061576Y68559D01*
X1062012Y68532D01*
X1062447Y68494D01*
X1062880Y68446D01*
X1063313Y68388D01*
X1063744Y68318D01*
X1064173Y68238D01*
X1064600Y68148D01*
X1065024Y68047D01*
X1065446Y67936D01*
X1065865Y67814D01*
X1066281Y67683D01*
X1066694Y67541D01*
X1067103Y67389D01*
X1067508Y67227D01*
X1067909Y67055D01*
X1068306Y66873D01*
X1068698Y66682D01*
X1069085Y66481D01*
X1069468Y66270D01*
X1069845Y66050D01*
X1070216Y65821D01*
X1070582Y65584D01*
X1070942Y65337D01*
X1071296Y65081D01*
X1071643Y64817D01*
X1071984Y64544D01*
X1072317Y64263D01*
X1072644Y63974D01*
X1072964Y63677D01*
X1073276Y63372D01*
X1073581Y63060D01*
X1073878Y62740D01*
X1074167Y62413D01*
X1074448Y62080D01*
X1074721Y61739D01*
X1074985Y61392D01*
X1075241Y61038D01*
X1075488Y60678D01*
X1075725Y60312D01*
X1075954Y59941D01*
X1076174Y59564D01*
X1076385Y59181D01*
X1076586Y58794D01*
X1076777Y58402D01*
X1076959Y58005D01*
X1077131Y57604D01*
X1077293Y57199D01*
X1077445Y56790D01*
X1077587Y56377D01*
X1077718Y55961D01*
X1077840Y55542D01*
X1077951Y55120D01*
X1078052Y54696D01*
X1078142Y54269D01*
X1078222Y53840D01*
X1078292Y53409D01*
X1078350Y52976D01*
X1078398Y52543D01*
X1078436Y52108D01*
X1078463Y51672D01*
X1078479Y51236D01*
X1078484Y50800D01*
X1078479Y50364D01*
X1078463Y49928D01*
X1078436Y49492D01*
X1078398Y49057D01*
X1078350Y48624D01*
X1078292Y48191D01*
X1078222Y47760D01*
X1078142Y47331D01*
X1078052Y46904D01*
X1077951Y46480D01*
X1077840Y46058D01*
X1077718Y45639D01*
X1077587Y45223D01*
X1077445Y44810D01*
X1077293Y44401D01*
X1077131Y43996D01*
X1076959Y43595D01*
X1076777Y43198D01*
X1076586Y42806D01*
X1076385Y42419D01*
X1076174Y42036D01*
X1075954Y41659D01*
X1075725Y41288D01*
X1075488Y40922D01*
X1075241Y40562D01*
X1074985Y40208D01*
X1074721Y39861D01*
X1074448Y39520D01*
X1074167Y39187D01*
X1073878Y38860D01*
X1073581Y38540D01*
X1073276Y38228D01*
X1072964Y37923D01*
X1072644Y37626D01*
X1072317Y37337D01*
X1071984Y37056D01*
X1071643Y36783D01*
X1071296Y36519D01*
X1070942Y36263D01*
X1070582Y36016D01*
X1070216Y35779D01*
X1069845Y35550D01*
X1069468Y35330D01*
X1069085Y35119D01*
X1068698Y34918D01*
X1068306Y34727D01*
X1067909Y34545D01*
X1067508Y34373D01*
X1067103Y34211D01*
X1066694Y34059D01*
X1066281Y33917D01*
X1065865Y33786D01*
X1065446Y33664D01*
X1065024Y33553D01*
X1064600Y33452D01*
X1064173Y33362D01*
X1063744Y33282D01*
X1063313Y33212D01*
X1062880Y33154D01*
X1062447Y33106D01*
X1062012Y33068D01*
X1061576Y33041D01*
X1061140Y33025D01*
X1060704Y33020D01*
X1060268Y33025D01*
X1059832Y33041D01*
X1059396Y33068D01*
X1058961Y33106D01*
X1058528Y33154D01*
X1058095Y33212D01*
X1057664Y33282D01*
X1057235Y33362D01*
X1056808Y33452D01*
X1056384Y33553D01*
X1055962Y33664D01*
X1055543Y33786D01*
X1055127Y33917D01*
X1054714Y34059D01*
X1054305Y34211D01*
X1053900Y34373D01*
X1053499Y34545D01*
X1053102Y34727D01*
X1052710Y34918D01*
X1052323Y35119D01*
X1051940Y35330D01*
X1051563Y35550D01*
X1051192Y35779D01*
X1050826Y36016D01*
X1050466Y36263D01*
X1050112Y36519D01*
X1049765Y36783D01*
X1049424Y37056D01*
X1049091Y37337D01*
X1048764Y37626D01*
X1048444Y37923D01*
X1048132Y38228D01*
X1047827Y38540D01*
X1047530Y38860D01*
X1047241Y39187D01*
X1046960Y39520D01*
X1046687Y39861D01*
X1046423Y40208D01*
X1046167Y40562D01*
X1045920Y40922D01*
X1045683Y41288D01*
X1045454Y41659D01*
X1045234Y42036D01*
X1045023Y42419D01*
X1044822Y42806D01*
X1044631Y43198D01*
X1044449Y43595D01*
X1044277Y43996D01*
X1044115Y44401D01*
X1043963Y44810D01*
X1043821Y45223D01*
X1043690Y45639D01*
X1043568Y46058D01*
X1043457Y46480D01*
X1043356Y46904D01*
X1043266Y47331D01*
X1043186Y47760D01*
X1043116Y48191D01*
X1043058Y48624D01*
X1043010Y49057D01*
X1042972Y49492D01*
X1042945Y49928D01*
X1042929Y50364D01*
X1042924Y50800D01*
X19812Y368300D02*
X19817Y368736D01*
X19833Y369172D01*
X19860Y369608D01*
X19898Y370043D01*
X19946Y370476D01*
X20004Y370909D01*
X20074Y371340D01*
X20154Y371769D01*
X20244Y372196D01*
X20345Y372620D01*
X20456Y373042D01*
X20578Y373461D01*
X20709Y373877D01*
X20851Y374290D01*
X21003Y374699D01*
X21165Y375104D01*
X21337Y375505D01*
X21519Y375902D01*
X21710Y376294D01*
X21911Y376681D01*
X22122Y377064D01*
X22342Y377441D01*
X22571Y377812D01*
X22808Y378178D01*
X23055Y378538D01*
X23311Y378892D01*
X23575Y379239D01*
X23848Y379580D01*
X24129Y379913D01*
X24418Y380240D01*
X24715Y380560D01*
X25020Y380872D01*
X25332Y381177D01*
X25652Y381474D01*
X25979Y381763D01*
X26312Y382044D01*
X26653Y382317D01*
X27000Y382581D01*
X27354Y382837D01*
X27714Y383084D01*
X28080Y383321D01*
X28451Y383550D01*
X28828Y383770D01*
X29211Y383981D01*
X29598Y384182D01*
X29990Y384373D01*
X30387Y384555D01*
X30788Y384727D01*
X31193Y384889D01*
X31602Y385041D01*
X32015Y385183D01*
X32431Y385314D01*
X32850Y385436D01*
X33272Y385547D01*
X33696Y385648D01*
X34123Y385738D01*
X34552Y385818D01*
X34983Y385888D01*
X35416Y385946D01*
X35849Y385994D01*
X36284Y386032D01*
X36720Y386059D01*
X37156Y386075D01*
X37592Y386080D01*
X38028Y386075D01*
X38464Y386059D01*
X38900Y386032D01*
X39335Y385994D01*
X39768Y385946D01*
X40201Y385888D01*
X40632Y385818D01*
X41061Y385738D01*
X41488Y385648D01*
X41912Y385547D01*
X42334Y385436D01*
X42753Y385314D01*
X43169Y385183D01*
X43582Y385041D01*
X43991Y384889D01*
X44396Y384727D01*
X44797Y384555D01*
X45194Y384373D01*
X45586Y384182D01*
X45973Y383981D01*
X46356Y383770D01*
X46733Y383550D01*
X47104Y383321D01*
X47470Y383084D01*
X47830Y382837D01*
X48184Y382581D01*
X48531Y382317D01*
X48872Y382044D01*
X49205Y381763D01*
X49532Y381474D01*
X49852Y381177D01*
X50164Y380872D01*
X50469Y380560D01*
X50766Y380240D01*
X51055Y379913D01*
X51336Y379580D01*
X51609Y379239D01*
X51873Y378892D01*
X52129Y378538D01*
X52376Y378178D01*
X52613Y377812D01*
X52842Y377441D01*
X53062Y377064D01*
X53273Y376681D01*
X53474Y376294D01*
X53665Y375902D01*
X53847Y375505D01*
X54019Y375104D01*
X54181Y374699D01*
X54333Y374290D01*
X54475Y373877D01*
X54606Y373461D01*
X54728Y373042D01*
X54839Y372620D01*
X54940Y372196D01*
X55030Y371769D01*
X55110Y371340D01*
X55180Y370909D01*
X55238Y370476D01*
X55286Y370043D01*
X55324Y369608D01*
X55351Y369172D01*
X55367Y368736D01*
X55372Y368300D01*
X55367Y367864D01*
X55351Y367428D01*
X55324Y366992D01*
X55286Y366557D01*
X55238Y366124D01*
X55180Y365691D01*
X55110Y365260D01*
X55030Y364831D01*
X54940Y364404D01*
X54839Y363980D01*
X54728Y363558D01*
X54606Y363139D01*
X54475Y362723D01*
X54333Y362310D01*
X54181Y361901D01*
X54019Y361496D01*
X53847Y361095D01*
X53665Y360698D01*
X53474Y360306D01*
X53273Y359919D01*
X53062Y359536D01*
X52842Y359159D01*
X52613Y358788D01*
X52376Y358422D01*
X52129Y358062D01*
X51873Y357708D01*
X51609Y357361D01*
X51336Y357020D01*
X51055Y356687D01*
X50766Y356360D01*
X50469Y356040D01*
X50164Y355728D01*
X49852Y355423D01*
X49532Y355126D01*
X49205Y354837D01*
X48872Y354556D01*
X48531Y354283D01*
X48184Y354019D01*
X47830Y353763D01*
X47470Y353516D01*
X47104Y353279D01*
X46733Y353050D01*
X46356Y352830D01*
X45973Y352619D01*
X45586Y352418D01*
X45194Y352227D01*
X44797Y352045D01*
X44396Y351873D01*
X43991Y351711D01*
X43582Y351559D01*
X43169Y351417D01*
X42753Y351286D01*
X42334Y351164D01*
X41912Y351053D01*
X41488Y350952D01*
X41061Y350862D01*
X40632Y350782D01*
X40201Y350712D01*
X39768Y350654D01*
X39335Y350606D01*
X38900Y350568D01*
X38464Y350541D01*
X38028Y350525D01*
X37592Y350520D01*
X37156Y350525D01*
X36720Y350541D01*
X36284Y350568D01*
X35849Y350606D01*
X35416Y350654D01*
X34983Y350712D01*
X34552Y350782D01*
X34123Y350862D01*
X33696Y350952D01*
X33272Y351053D01*
X32850Y351164D01*
X32431Y351286D01*
X32015Y351417D01*
X31602Y351559D01*
X31193Y351711D01*
X30788Y351873D01*
X30387Y352045D01*
X29990Y352227D01*
X29598Y352418D01*
X29211Y352619D01*
X28828Y352830D01*
X28451Y353050D01*
X28080Y353279D01*
X27714Y353516D01*
X27354Y353763D01*
X27000Y354019D01*
X26653Y354283D01*
X26312Y354556D01*
X25979Y354837D01*
X25652Y355126D01*
X25332Y355423D01*
X25020Y355728D01*
X24715Y356040D01*
X24418Y356360D01*
X24129Y356687D01*
X23848Y357020D01*
X23575Y357361D01*
X23311Y357708D01*
X23055Y358062D01*
X22808Y358422D01*
X22571Y358788D01*
X22342Y359159D01*
X22122Y359536D01*
X21911Y359919D01*
X21710Y360306D01*
X21519Y360698D01*
X21337Y361095D01*
X21165Y361496D01*
X21003Y361901D01*
X20851Y362310D01*
X20709Y362723D01*
X20578Y363139D01*
X20456Y363558D01*
X20345Y363980D01*
X20244Y364404D01*
X20154Y364831D01*
X20074Y365260D01*
X20004Y365691D01*
X19946Y366124D01*
X19898Y366557D01*
X19860Y366992D01*
X19833Y367428D01*
X19817Y367864D01*
X19812Y368300D01*
X1042924Y368300D02*
X1042929Y368736D01*
X1042945Y369172D01*
X1042972Y369608D01*
X1043010Y370043D01*
X1043058Y370476D01*
X1043116Y370909D01*
X1043186Y371340D01*
X1043266Y371769D01*
X1043356Y372196D01*
X1043457Y372620D01*
X1043568Y373042D01*
X1043690Y373461D01*
X1043821Y373877D01*
X1043963Y374290D01*
X1044115Y374699D01*
X1044277Y375104D01*
X1044449Y375505D01*
X1044631Y375902D01*
X1044822Y376294D01*
X1045023Y376681D01*
X1045234Y377064D01*
X1045454Y377441D01*
X1045683Y377812D01*
X1045920Y378178D01*
X1046167Y378538D01*
X1046423Y378892D01*
X1046687Y379239D01*
X1046960Y379580D01*
X1047241Y379913D01*
X1047530Y380240D01*
X1047827Y380560D01*
X1048132Y380872D01*
X1048444Y381177D01*
X1048764Y381474D01*
X1049091Y381763D01*
X1049424Y382044D01*
X1049765Y382317D01*
X1050112Y382581D01*
X1050466Y382837D01*
X1050826Y383084D01*
X1051192Y383321D01*
X1051563Y383550D01*
X1051940Y383770D01*
X1052323Y383981D01*
X1052710Y384182D01*
X1053102Y384373D01*
X1053499Y384555D01*
X1053900Y384727D01*
X1054305Y384889D01*
X1054714Y385041D01*
X1055127Y385183D01*
X1055543Y385314D01*
X1055962Y385436D01*
X1056384Y385547D01*
X1056808Y385648D01*
X1057235Y385738D01*
X1057664Y385818D01*
X1058095Y385888D01*
X1058528Y385946D01*
X1058961Y385994D01*
X1059396Y386032D01*
X1059832Y386059D01*
X1060268Y386075D01*
X1060704Y386080D01*
X1061140Y386075D01*
X1061576Y386059D01*
X1062012Y386032D01*
X1062447Y385994D01*
X1062880Y385946D01*
X1063313Y385888D01*
X1063744Y385818D01*
X1064173Y385738D01*
X1064600Y385648D01*
X1065024Y385547D01*
X1065446Y385436D01*
X1065865Y385314D01*
X1066281Y385183D01*
X1066694Y385041D01*
X1067103Y384889D01*
X1067508Y384727D01*
X1067909Y384555D01*
X1068306Y384373D01*
X1068698Y384182D01*
X1069085Y383981D01*
X1069468Y383770D01*
X1069845Y383550D01*
X1070216Y383321D01*
X1070582Y383084D01*
X1070942Y382837D01*
X1071296Y382581D01*
X1071643Y382317D01*
X1071984Y382044D01*
X1072317Y381763D01*
X1072644Y381474D01*
X1072964Y381177D01*
X1073276Y380872D01*
X1073581Y380560D01*
X1073878Y380240D01*
X1074167Y379913D01*
X1074448Y379580D01*
X1074721Y379239D01*
X1074985Y378892D01*
X1075241Y378538D01*
X1075488Y378178D01*
X1075725Y377812D01*
X1075954Y377441D01*
X1076174Y377064D01*
X1076385Y376681D01*
X1076586Y376294D01*
X1076777Y375902D01*
X1076959Y375505D01*
X1077131Y375104D01*
X1077293Y374699D01*
X1077445Y374290D01*
X1077587Y373877D01*
X1077718Y373461D01*
X1077840Y373042D01*
X1077951Y372620D01*
X1078052Y372196D01*
X1078142Y371769D01*
X1078222Y371340D01*
X1078292Y370909D01*
X1078350Y370476D01*
X1078398Y370043D01*
X1078436Y369608D01*
X1078463Y369172D01*
X1078479Y368736D01*
X1078484Y368300D01*
X1078479Y367864D01*
X1078463Y367428D01*
X1078436Y366992D01*
X1078398Y366557D01*
X1078350Y366124D01*
X1078292Y365691D01*
X1078222Y365260D01*
X1078142Y364831D01*
X1078052Y364404D01*
X1077951Y363980D01*
X1077840Y363558D01*
X1077718Y363139D01*
X1077587Y362723D01*
X1077445Y362310D01*
X1077293Y361901D01*
X1077131Y361496D01*
X1076959Y361095D01*
X1076777Y360698D01*
X1076586Y360306D01*
X1076385Y359919D01*
X1076174Y359536D01*
X1075954Y359159D01*
X1075725Y358788D01*
X1075488Y358422D01*
X1075241Y358062D01*
X1074985Y357708D01*
X1074721Y357361D01*
X1074448Y357020D01*
X1074167Y356687D01*
X1073878Y356360D01*
X1073581Y356040D01*
X1073276Y355728D01*
X1072964Y355423D01*
X1072644Y355126D01*
X1072317Y354837D01*
X1071984Y354556D01*
X1071643Y354283D01*
X1071296Y354019D01*
X1070942Y353763D01*
X1070582Y353516D01*
X1070216Y353279D01*
X1069845Y353050D01*
X1069468Y352830D01*
X1069085Y352619D01*
X1068698Y352418D01*
X1068306Y352227D01*
X1067909Y352045D01*
X1067508Y351873D01*
X1067103Y351711D01*
X1066694Y351559D01*
X1066281Y351417D01*
X1065865Y351286D01*
X1065446Y351164D01*
X1065024Y351053D01*
X1064600Y350952D01*
X1064173Y350862D01*
X1063744Y350782D01*
X1063313Y350712D01*
X1062880Y350654D01*
X1062447Y350606D01*
X1062012Y350568D01*
X1061576Y350541D01*
X1061140Y350525D01*
X1060704Y350520D01*
X1060268Y350525D01*
X1059832Y350541D01*
X1059396Y350568D01*
X1058961Y350606D01*
X1058528Y350654D01*
X1058095Y350712D01*
X1057664Y350782D01*
X1057235Y350862D01*
X1056808Y350952D01*
X1056384Y351053D01*
X1055962Y351164D01*
X1055543Y351286D01*
X1055127Y351417D01*
X1054714Y351559D01*
X1054305Y351711D01*
X1053900Y351873D01*
X1053499Y352045D01*
X1053102Y352227D01*
X1052710Y352418D01*
X1052323Y352619D01*
X1051940Y352830D01*
X1051563Y353050D01*
X1051192Y353279D01*
X1050826Y353516D01*
X1050466Y353763D01*
X1050112Y354019D01*
X1049765Y354283D01*
X1049424Y354556D01*
X1049091Y354837D01*
X1048764Y355126D01*
X1048444Y355423D01*
X1048132Y355728D01*
X1047827Y356040D01*
X1047530Y356360D01*
X1047241Y356687D01*
X1046960Y357020D01*
X1046687Y357361D01*
X1046423Y357708D01*
X1046167Y358062D01*
X1045920Y358422D01*
X1045683Y358788D01*
X1045454Y359159D01*
X1045234Y359536D01*
X1045023Y359919D01*
X1044822Y360306D01*
X1044631Y360698D01*
X1044449Y361095D01*
X1044277Y361496D01*
X1044115Y361901D01*
X1043963Y362310D01*
X1043821Y362723D01*
X1043690Y363139D01*
X1043568Y363558D01*
X1043457Y363980D01*
X1043356Y364404D01*
X1043266Y364831D01*
X1043186Y365260D01*
X1043116Y365691D01*
X1043058Y366124D01*
X1043010Y366557D01*
X1042972Y366992D01*
X1042945Y367428D01*
X1042929Y367864D01*
X1042924Y368300D01*
D11*
X0Y0D02*
X1099312Y0D01*
X1099312Y419100D01*
X0Y419100D01*
X0Y0D01*
X79248Y145534D02*
X79181Y144506D01*
X79046Y143483D01*
X78845Y142472D01*
X78578Y141476D01*
X78247Y140500D01*
X77852Y139547D01*
X77396Y138622D01*
X76880Y137730D01*
X76308Y136872D01*
X75680Y136054D01*
X75000Y135279D01*
X74271Y134550D01*
X73496Y133870D01*
X72678Y133242D01*
X71820Y132670D01*
X70928Y132154D01*
X70003Y131698D01*
X69050Y131303D01*
X68074Y130972D01*
X67078Y130705D01*
X66067Y130504D01*
X65044Y130369D01*
X64016Y130302D01*
X62984Y130302D01*
X61956Y130369D01*
X60933Y130504D01*
X59922Y130705D01*
X58926Y130972D01*
X57950Y131303D01*
X56997Y131698D01*
X56072Y132154D01*
X55180Y132670D01*
X54322Y133242D01*
X53504Y133870D01*
X52729Y134550D01*
X52000Y135279D01*
X51320Y136054D01*
X50692Y136872D01*
X50120Y137730D01*
X49604Y138622D01*
X49148Y139547D01*
X48753Y140500D01*
X48422Y141476D01*
X48155Y142472D01*
X47954Y143483D01*
X47819Y144506D01*
X47752Y145534D01*
X47752Y146566D01*
X47819Y147594D01*
X47954Y148617D01*
X48155Y149628D01*
X48422Y150624D01*
X48753Y151600D01*
X49148Y152553D01*
X49604Y153478D01*
X50120Y154370D01*
X50692Y155228D01*
X51320Y156046D01*
X52000Y156821D01*
X52729Y157550D01*
X53504Y158230D01*
X54322Y158858D01*
X55180Y159430D01*
X56072Y159946D01*
X56997Y160402D01*
X57950Y160797D01*
X58926Y161128D01*
X59922Y161395D01*
X60933Y161596D01*
X61956Y161731D01*
X62984Y161798D01*
X64016Y161798D01*
X65044Y161731D01*
X66067Y161596D01*
X67078Y161395D01*
X68074Y161128D01*
X69050Y160797D01*
X70003Y160402D01*
X70928Y159946D01*
X71820Y159430D01*
X72678Y158858D01*
X73496Y158230D01*
X74271Y157550D01*
X75000Y156821D01*
X75680Y156046D01*
X76308Y155228D01*
X76880Y154370D01*
X77396Y153478D01*
X77852Y152553D01*
X78247Y151600D01*
X78578Y150624D01*
X78845Y149628D01*
X79046Y148617D01*
X79181Y147594D01*
X79248Y146566D01*
X79248Y145534D01*
X1051560Y145534D02*
X1051493Y144506D01*
X1051358Y143483D01*
X1051157Y142472D01*
X1050890Y141476D01*
X1050559Y140500D01*
X1050164Y139547D01*
X1049708Y138622D01*
X1049192Y137730D01*
X1048620Y136872D01*
X1047992Y136054D01*
X1047312Y135279D01*
X1046583Y134550D01*
X1045808Y133870D01*
X1044990Y133242D01*
X1044132Y132670D01*
X1043240Y132154D01*
X1042315Y131698D01*
X1041362Y131303D01*
X1040386Y130972D01*
X1039390Y130705D01*
X1038379Y130504D01*
X1037356Y130369D01*
X1036328Y130302D01*
X1035296Y130302D01*
X1034268Y130369D01*
X1033245Y130504D01*
X1032234Y130705D01*
X1031238Y130972D01*
X1030262Y131303D01*
X1029309Y131698D01*
X1028384Y132154D01*
X1027492Y132670D01*
X1026634Y133242D01*
X1025816Y133870D01*
X1025041Y134550D01*
X1024312Y135279D01*
X1023632Y136054D01*
X1023004Y136872D01*
X1022432Y137730D01*
X1021916Y138622D01*
X1021460Y139547D01*
X1021065Y140500D01*
X1020734Y141476D01*
X1020467Y142472D01*
X1020266Y143483D01*
X1020131Y144506D01*
X1020064Y145534D01*
X1020064Y146566D01*
X1020131Y147594D01*
X1020266Y148617D01*
X1020467Y149628D01*
X1020734Y150624D01*
X1021065Y151600D01*
X1021460Y152553D01*
X1021916Y153478D01*
X1022432Y154370D01*
X1023004Y155228D01*
X1023632Y156046D01*
X1024312Y156821D01*
X1025041Y157550D01*
X1025816Y158230D01*
X1026634Y158858D01*
X1027492Y159430D01*
X1028384Y159946D01*
X1029309Y160402D01*
X1030262Y160797D01*
X1031238Y161128D01*
X1032234Y161395D01*
X1033245Y161596D01*
X1034268Y161731D01*
X1035296Y161798D01*
X1036328Y161798D01*
X1037356Y161731D01*
X1038379Y161596D01*
X1039390Y161395D01*
X1040386Y161128D01*
X1041362Y160797D01*
X1042315Y160402D01*
X1043240Y159946D01*
X1044132Y159430D01*
X1044990Y158858D01*
X1045808Y158230D01*
X1046583Y157550D01*
X1047312Y156821D01*
X1047992Y156046D01*
X1048620Y155228D01*
X1049192Y154370D01*
X1049708Y153478D01*
X1050164Y152553D01*
X1050559Y151600D01*
X1050890Y150624D01*
X1051157Y149628D01*
X1051358Y148617D01*
X1051493Y147594D01*
X1051560Y146566D01*
X1051560Y145534D01*
X79248Y310634D02*
X79181Y309606D01*
X79046Y308583D01*
X78845Y307572D01*
X78578Y306576D01*
X78247Y305600D01*
X77852Y304647D01*
X77396Y303722D01*
X76880Y302830D01*
X76308Y301972D01*
X75680Y301154D01*
X75000Y300379D01*
X74271Y299650D01*
X73496Y298970D01*
X72678Y298342D01*
X71820Y297770D01*
X70928Y297254D01*
X70003Y296798D01*
X69050Y296403D01*
X68074Y296072D01*
X67078Y295805D01*
X66067Y295604D01*
X65044Y295469D01*
X64016Y295402D01*
X62984Y295402D01*
X61956Y295469D01*
X60933Y295604D01*
X59922Y295805D01*
X58926Y296072D01*
X57950Y296403D01*
X56997Y296798D01*
X56072Y297254D01*
X55180Y297770D01*
X54322Y298342D01*
X53504Y298970D01*
X52729Y299650D01*
X52000Y300379D01*
X51320Y301154D01*
X50692Y301972D01*
X50120Y302830D01*
X49604Y303722D01*
X49148Y304647D01*
X48753Y305600D01*
X48422Y306576D01*
X48155Y307572D01*
X47954Y308583D01*
X47819Y309606D01*
X47752Y310634D01*
X47752Y311666D01*
X47819Y312694D01*
X47954Y313717D01*
X48155Y314728D01*
X48422Y315724D01*
X48753Y316700D01*
X49148Y317653D01*
X49604Y318578D01*
X50120Y319470D01*
X50692Y320328D01*
X51320Y321146D01*
X52000Y321921D01*
X52729Y322650D01*
X53504Y323330D01*
X54322Y323958D01*
X55180Y324530D01*
X56072Y325046D01*
X56997Y325502D01*
X57950Y325897D01*
X58926Y326228D01*
X59922Y326495D01*
X60933Y326696D01*
X61956Y326831D01*
X62984Y326898D01*
X64016Y326898D01*
X65044Y326831D01*
X66067Y326696D01*
X67078Y326495D01*
X68074Y326228D01*
X69050Y325897D01*
X70003Y325502D01*
X70928Y325046D01*
X71820Y324530D01*
X72678Y323958D01*
X73496Y323330D01*
X74271Y322650D01*
X75000Y321921D01*
X75680Y321146D01*
X76308Y320328D01*
X76880Y319470D01*
X77396Y318578D01*
X77852Y317653D01*
X78247Y316700D01*
X78578Y315724D01*
X78845Y314728D01*
X79046Y313717D01*
X79181Y312694D01*
X79248Y311666D01*
X79248Y310634D01*
X1051560Y310634D02*
X1051493Y309606D01*
X1051358Y308583D01*
X1051157Y307572D01*
X1050890Y306576D01*
X1050559Y305600D01*
X1050164Y304647D01*
X1049708Y303722D01*
X1049192Y302830D01*
X1048620Y301972D01*
X1047992Y301154D01*
X1047312Y300379D01*
X1046583Y299650D01*
X1045808Y298970D01*
X1044990Y298342D01*
X1044132Y297770D01*
X1043240Y297254D01*
X1042315Y296798D01*
X1041362Y296403D01*
X1040386Y296072D01*
X1039390Y295805D01*
X1038379Y295604D01*
X1037356Y295469D01*
X1036328Y295402D01*
X1035296Y295402D01*
X1034268Y295469D01*
X1033245Y295604D01*
X1032234Y295805D01*
X1031238Y296072D01*
X1030262Y296403D01*
X1029309Y296798D01*
X1028384Y297254D01*
X1027492Y297770D01*
X1026634Y298342D01*
X1025816Y298970D01*
X1025041Y299650D01*
X1024312Y300379D01*
X1023632Y301154D01*
X1023004Y301972D01*
X1022432Y302830D01*
X1021916Y303722D01*
X1021460Y304647D01*
X1021065Y305600D01*
X1020734Y306576D01*
X1020467Y307572D01*
X1020266Y308583D01*
X1020131Y309606D01*
X1020064Y310634D01*
X1020064Y311666D01*
X1020131Y312694D01*
X1020266Y313717D01*
X1020467Y314728D01*
X1020734Y315724D01*
X1021065Y316700D01*
X1021460Y317653D01*
X1021916Y318578D01*
X1022432Y319470D01*
X1023004Y320328D01*
X1023632Y321146D01*
X1024312Y321921D01*
X1025041Y322650D01*
X1025816Y323330D01*
X1026634Y323958D01*
X1027492Y324530D01*
X1028384Y325046D01*
X1029309Y325502D01*
X1030262Y325897D01*
X1031238Y326228D01*
X1032234Y326495D01*
X1033245Y326696D01*
X1034268Y326831D01*
X1035296Y326898D01*
X1036328Y326898D01*
X1037356Y326831D01*
X1038379Y326696D01*
X1039390Y326495D01*
X1040386Y326228D01*
X1041362Y325897D01*
X1042315Y325502D01*
X1043240Y325046D01*
X1044132Y324530D01*
X1044990Y323958D01*
X1045808Y323330D01*
X1046583Y322650D01*
X1047312Y321921D01*
X1047992Y321146D01*
X1048620Y320328D01*
X1049192Y319470D01*
X1049708Y318578D01*
X1050164Y317653D01*
X1050559Y316700D01*
X1050890Y315724D01*
X1051157Y314728D01*
X1051358Y313717D01*
X1051493Y312694D01*
X1051560Y311666D01*
X1051560Y310634D01*
X55372Y240718D02*
X55296Y239556D01*
X55144Y238402D01*
X54917Y237260D01*
X54616Y236136D01*
X54241Y235034D01*
X53796Y233958D01*
X53281Y232914D01*
X52699Y231906D01*
X52052Y230938D01*
X51344Y230014D01*
X50576Y229139D01*
X49753Y228316D01*
X48878Y227549D01*
X47954Y226840D01*
X46986Y226193D01*
X45978Y225611D01*
X44934Y225096D01*
X43858Y224651D01*
X42756Y224277D01*
X41632Y223975D01*
X40490Y223748D01*
X39336Y223596D01*
X38174Y223520D01*
X37010Y223520D01*
X35848Y223596D01*
X34694Y223748D01*
X33552Y223975D01*
X32428Y224277D01*
X31326Y224651D01*
X30250Y225096D01*
X29206Y225611D01*
X28198Y226193D01*
X27230Y226840D01*
X26306Y227549D01*
X25431Y228316D01*
X24608Y229139D01*
X23841Y230014D01*
X23132Y230938D01*
X22485Y231906D01*
X21903Y232914D01*
X21388Y233958D01*
X20943Y235034D01*
X20569Y236136D01*
X20267Y237260D01*
X20040Y238402D01*
X19888Y239556D01*
X19812Y240718D01*
X19812Y241882D01*
X19888Y243044D01*
X20040Y244198D01*
X20267Y245340D01*
X20569Y246464D01*
X20943Y247566D01*
X21388Y248642D01*
X21903Y249686D01*
X22485Y250694D01*
X23132Y251662D01*
X23841Y252586D01*
X24608Y253461D01*
X25431Y254284D01*
X26306Y255052D01*
X27230Y255760D01*
X28198Y256407D01*
X29206Y256989D01*
X30250Y257504D01*
X31326Y257949D01*
X32428Y258324D01*
X33552Y258625D01*
X34694Y258852D01*
X35848Y259004D01*
X37010Y259080D01*
X38174Y259080D01*
X39336Y259004D01*
X40490Y258852D01*
X41632Y258625D01*
X42756Y258324D01*
X43858Y257949D01*
X44934Y257504D01*
X45978Y256989D01*
X46986Y256407D01*
X47954Y255760D01*
X48878Y255052D01*
X49753Y254284D01*
X50576Y253461D01*
X51344Y252586D01*
X52052Y251662D01*
X52699Y250694D01*
X53281Y249686D01*
X53796Y248642D01*
X54241Y247566D01*
X54616Y246464D01*
X54917Y245340D01*
X55144Y244198D01*
X55296Y243044D01*
X55372Y241882D01*
X55372Y240718D01*
X1078484Y240718D02*
X1078408Y239556D01*
X1078256Y238402D01*
X1078029Y237260D01*
X1077728Y236136D01*
X1077353Y235034D01*
X1076908Y233958D01*
X1076393Y232914D01*
X1075811Y231906D01*
X1075164Y230938D01*
X1074456Y230014D01*
X1073688Y229139D01*
X1072865Y228316D01*
X1071990Y227549D01*
X1071066Y226840D01*
X1070098Y226193D01*
X1069090Y225611D01*
X1068046Y225096D01*
X1066970Y224651D01*
X1065868Y224277D01*
X1064744Y223975D01*
X1063602Y223748D01*
X1062448Y223596D01*
X1061286Y223520D01*
X1060122Y223520D01*
X1058960Y223596D01*
X1057806Y223748D01*
X1056664Y223975D01*
X1055540Y224277D01*
X1054438Y224651D01*
X1053362Y225096D01*
X1052318Y225611D01*
X1051310Y226193D01*
X1050342Y226840D01*
X1049418Y227549D01*
X1048543Y228316D01*
X1047720Y229139D01*
X1046953Y230014D01*
X1046244Y230938D01*
X1045597Y231906D01*
X1045015Y232914D01*
X1044500Y233958D01*
X1044055Y235034D01*
X1043681Y236136D01*
X1043379Y237260D01*
X1043152Y238402D01*
X1043000Y239556D01*
X1042924Y240718D01*
X1042924Y241882D01*
X1043000Y243044D01*
X1043152Y244198D01*
X1043379Y245340D01*
X1043681Y246464D01*
X1044055Y247566D01*
X1044500Y248642D01*
X1045015Y249686D01*
X1045597Y250694D01*
X1046244Y251662D01*
X1046953Y252586D01*
X1047720Y253461D01*
X1048543Y254284D01*
X1049418Y255052D01*
X1050342Y255760D01*
X1051310Y256407D01*
X1052318Y256989D01*
X1053362Y257504D01*
X1054438Y257949D01*
X1055540Y258324D01*
X1056664Y258625D01*
X1057806Y258852D01*
X1058960Y259004D01*
X1060122Y259080D01*
X1061286Y259080D01*
X1062448Y259004D01*
X1063602Y258852D01*
X1064744Y258625D01*
X1065868Y258324D01*
X1066970Y257949D01*
X1068046Y257504D01*
X1069090Y256989D01*
X1070098Y256407D01*
X1071066Y255760D01*
X1071990Y255052D01*
X1072865Y254284D01*
X1073688Y253461D01*
X1074456Y252586D01*
X1075164Y251662D01*
X1075811Y250694D01*
X1076393Y249686D01*
X1076908Y248642D01*
X1077353Y247566D01*
X1077728Y246464D01*
X1078029Y245340D01*
X1078256Y244198D01*
X1078408Y243044D01*
X1078484Y241882D01*
X1078484Y240718D01*
X55372Y50218D02*
X55296Y49056D01*
X55144Y47902D01*
X54917Y46760D01*
X54616Y45636D01*
X54241Y44534D01*
X53796Y43458D01*
X53281Y42414D01*
X52699Y41406D01*
X52052Y40438D01*
X51344Y39514D01*
X50576Y38639D01*
X49753Y37816D01*
X48878Y37049D01*
X47954Y36340D01*
X46986Y35693D01*
X45978Y35111D01*
X44934Y34596D01*
X43858Y34151D01*
X42756Y33777D01*
X41632Y33475D01*
X40490Y33248D01*
X39336Y33096D01*
X38174Y33020D01*
X37010Y33020D01*
X35848Y33096D01*
X34694Y33248D01*
X33552Y33475D01*
X32428Y33777D01*
X31326Y34151D01*
X30250Y34596D01*
X29206Y35111D01*
X28198Y35693D01*
X27230Y36340D01*
X26306Y37049D01*
X25431Y37816D01*
X24608Y38639D01*
X23841Y39514D01*
X23132Y40438D01*
X22485Y41406D01*
X21903Y42414D01*
X21388Y43458D01*
X20943Y44534D01*
X20569Y45636D01*
X20267Y46760D01*
X20040Y47902D01*
X19888Y49056D01*
X19812Y50218D01*
X19812Y51382D01*
X19888Y52544D01*
X20040Y53698D01*
X20267Y54840D01*
X20569Y55964D01*
X20943Y57066D01*
X21388Y58142D01*
X21903Y59186D01*
X22485Y60194D01*
X23132Y61162D01*
X23841Y62086D01*
X24608Y62961D01*
X25431Y63784D01*
X26306Y64552D01*
X27230Y65260D01*
X28198Y65907D01*
X29206Y66489D01*
X30250Y67004D01*
X31326Y67449D01*
X32428Y67824D01*
X33552Y68125D01*
X34694Y68352D01*
X35848Y68504D01*
X37010Y68580D01*
X38174Y68580D01*
X39336Y68504D01*
X40490Y68352D01*
X41632Y68125D01*
X42756Y67824D01*
X43858Y67449D01*
X44934Y67004D01*
X45978Y66489D01*
X46986Y65907D01*
X47954Y65260D01*
X48878Y64552D01*
X49753Y63784D01*
X50576Y62961D01*
X51344Y62086D01*
X52052Y61162D01*
X52699Y60194D01*
X53281Y59186D01*
X53796Y58142D01*
X54241Y57066D01*
X54616Y55964D01*
X54917Y54840D01*
X55144Y53698D01*
X55296Y52544D01*
X55372Y51382D01*
X55372Y50218D01*
X1078484Y50218D02*
X1078408Y49056D01*
X1078256Y47902D01*
X1078029Y46760D01*
X1077728Y45636D01*
X1077353Y44534D01*
X1076908Y43458D01*
X1076393Y42414D01*
X1075811Y41406D01*
X1075164Y40438D01*
X1074456Y39514D01*
X1073688Y38639D01*
X1072865Y37816D01*
X1071990Y37049D01*
X1071066Y36340D01*
X1070098Y35693D01*
X1069090Y35111D01*
X1068046Y34596D01*
X1066970Y34151D01*
X1065868Y33777D01*
X1064744Y33475D01*
X1063602Y33248D01*
X1062448Y33096D01*
X1061286Y33020D01*
X1060122Y33020D01*
X1058960Y33096D01*
X1057806Y33248D01*
X1056664Y33475D01*
X1055540Y33777D01*
X1054438Y34151D01*
X1053362Y34596D01*
X1052318Y35111D01*
X1051310Y35693D01*
X1050342Y36340D01*
X1049418Y37049D01*
X1048543Y37816D01*
X1047720Y38639D01*
X1046953Y39514D01*
X1046244Y40438D01*
X1045597Y41406D01*
X1045015Y42414D01*
X1044500Y43458D01*
X1044055Y44534D01*
X1043681Y45636D01*
X1043379Y46760D01*
X1043152Y47902D01*
X1043000Y49056D01*
X1042924Y50218D01*
X1042924Y51382D01*
X1043000Y52544D01*
X1043152Y53698D01*
X1043379Y54840D01*
X1043681Y55964D01*
X1044055Y57066D01*
X1044500Y58142D01*
X1045015Y59186D01*
X1045597Y60194D01*
X1046244Y61162D01*
X1046953Y62086D01*
X1047720Y62961D01*
X1048543Y63784D01*
X1049418Y64552D01*
X1050342Y65260D01*
X1051310Y65907D01*
X1052318Y66489D01*
X1053362Y67004D01*
X1054438Y67449D01*
X1055540Y67824D01*
X1056664Y68125D01*
X1057806Y68352D01*
X1058960Y68504D01*
X1060122Y68580D01*
X1061286Y68580D01*
X1062448Y68504D01*
X1063602Y68352D01*
X1064744Y68125D01*
X1065868Y67824D01*
X1066970Y67449D01*
X1068046Y67004D01*
X1069090Y66489D01*
X1070098Y65907D01*
X1071066Y65260D01*
X1071990Y64552D01*
X1072865Y63784D01*
X1073688Y62961D01*
X1074456Y62086D01*
X1075164Y61162D01*
X1075811Y60194D01*
X1076393Y59186D01*
X1076908Y58142D01*
X1077353Y57066D01*
X1077728Y55964D01*
X1078029Y54840D01*
X1078256Y53698D01*
X1078408Y52544D01*
X1078484Y51382D01*
X1078484Y50218D01*
X55372Y367718D02*
X55296Y366556D01*
X55144Y365402D01*
X54917Y364260D01*
X54616Y363136D01*
X54241Y362034D01*
X53796Y360958D01*
X53281Y359914D01*
X52699Y358906D01*
X52052Y357938D01*
X51344Y357014D01*
X50576Y356139D01*
X49753Y355316D01*
X48878Y354549D01*
X47954Y353840D01*
X46986Y353193D01*
X45978Y352611D01*
X44934Y352096D01*
X43858Y351651D01*
X42756Y351277D01*
X41632Y350975D01*
X40490Y350748D01*
X39336Y350596D01*
X38174Y350520D01*
X37010Y350520D01*
X35848Y350596D01*
X34694Y350748D01*
X33552Y350975D01*
X32428Y351277D01*
X31326Y351651D01*
X30250Y352096D01*
X29206Y352611D01*
X28198Y353193D01*
X27230Y353840D01*
X26306Y354549D01*
X25431Y355316D01*
X24608Y356139D01*
X23841Y357014D01*
X23132Y357938D01*
X22485Y358906D01*
X21903Y359914D01*
X21388Y360958D01*
X20943Y362034D01*
X20569Y363136D01*
X20267Y364260D01*
X20040Y365402D01*
X19888Y366556D01*
X19812Y367718D01*
X19812Y368882D01*
X19888Y370044D01*
X20040Y371198D01*
X20267Y372340D01*
X20569Y373464D01*
X20943Y374566D01*
X21388Y375642D01*
X21903Y376686D01*
X22485Y377694D01*
X23132Y378662D01*
X23841Y379586D01*
X24608Y380461D01*
X25431Y381284D01*
X26306Y382052D01*
X27230Y382760D01*
X28198Y383407D01*
X29206Y383989D01*
X30250Y384504D01*
X31326Y384949D01*
X32428Y385324D01*
X33552Y385625D01*
X34694Y385852D01*
X35848Y386004D01*
X37010Y386080D01*
X38174Y386080D01*
X39336Y386004D01*
X40490Y385852D01*
X41632Y385625D01*
X42756Y385324D01*
X43858Y384949D01*
X44934Y384504D01*
X45978Y383989D01*
X46986Y383407D01*
X47954Y382760D01*
X48878Y382052D01*
X49753Y381284D01*
X50576Y380461D01*
X51344Y379586D01*
X52052Y378662D01*
X52699Y377694D01*
X53281Y376686D01*
X53796Y375642D01*
X54241Y374566D01*
X54616Y373464D01*
X54917Y372340D01*
X55144Y371198D01*
X55296Y370044D01*
X55372Y368882D01*
X55372Y367718D01*
X1078484Y367718D02*
X1078408Y366556D01*
X1078256Y365402D01*
X1078029Y364260D01*
X1077728Y363136D01*
X1077353Y362034D01*
X1076908Y360958D01*
X1076393Y359914D01*
X1075811Y358906D01*
X1075164Y357938D01*
X1074456Y357014D01*
X1073688Y356139D01*
X1072865Y355316D01*
X1071990Y354549D01*
X1071066Y353840D01*
X1070098Y353193D01*
X1069090Y352611D01*
X1068046Y352096D01*
X1066970Y351651D01*
X1065868Y351277D01*
X1064744Y350975D01*
X1063602Y350748D01*
X1062448Y350596D01*
X1061286Y350520D01*
X1060122Y350520D01*
X1058960Y350596D01*
X1057806Y350748D01*
X1056664Y350975D01*
X1055540Y351277D01*
X1054438Y351651D01*
X1053362Y352096D01*
X1052318Y352611D01*
X1051310Y353193D01*
X1050342Y353840D01*
X1049418Y354549D01*
X1048543Y355316D01*
X1047720Y356139D01*
X1046953Y357014D01*
X1046244Y357938D01*
X1045597Y358906D01*
X1045015Y359914D01*
X1044500Y360958D01*
X1044055Y362034D01*
X1043681Y363136D01*
X1043379Y364260D01*
X1043152Y365402D01*
X1043000Y366556D01*
X1042924Y367718D01*
X1042924Y368882D01*
X1043000Y370044D01*
X1043152Y371198D01*
X1043379Y372340D01*
X1043681Y373464D01*
X1044055Y374566D01*
X1044500Y375642D01*
X1045015Y376686D01*
X1045597Y377694D01*
X1046244Y378662D01*
X1046953Y379586D01*
X1047720Y380461D01*
X1048543Y381284D01*
X1049418Y382052D01*
X1050342Y382760D01*
X1051310Y383407D01*
X1052318Y383989D01*
X1053362Y384504D01*
X1054438Y384949D01*
X1055540Y385324D01*
X1056664Y385625D01*
X1057806Y385852D01*
X1058960Y386004D01*
X1060122Y386080D01*
X1061286Y386080D01*
X1062448Y386004D01*
X1063602Y385852D01*
X1064744Y385625D01*
X1065868Y385324D01*
X1066970Y384949D01*
X1068046Y384504D01*
X1069090Y383989D01*
X1070098Y383407D01*
X1071066Y382760D01*
X1071990Y382052D01*
X1072865Y381284D01*
X1073688Y380461D01*
X1074456Y379586D01*
X1075164Y378662D01*
X1075811Y377694D01*
X1076393Y376686D01*
X1076908Y375642D01*
X1077353Y374566D01*
X1077728Y373464D01*
X1078029Y372340D01*
X1078256Y371198D01*
X1078408Y370044D01*
X1078484Y368882D01*
X1078484Y367718D01*
M02*
