G04 EAGLE Gerber RS-274X export*
G75*
%MOMM*%
%FSLAX34Y34*%
%LPD*%
%INBoard Outline*%
%IPPOS*%
%AMOC8*
5,1,8,0,0,1.08239X$1,22.5*%
G01*
%ADD10C,0.000000*%
%ADD11C,0.254000*%


D10*
X139700Y-584200D02*
X1511300Y-584200D01*
X1511300Y919480D01*
X601980Y919480D01*
X601980Y800100D01*
X139700Y800100D01*
X139700Y-584200D01*
X1457325Y-546100D02*
X1457330Y-545710D01*
X1457344Y-545321D01*
X1457368Y-544932D01*
X1457401Y-544544D01*
X1457444Y-544157D01*
X1457497Y-543771D01*
X1457559Y-543386D01*
X1457630Y-543003D01*
X1457711Y-542622D01*
X1457801Y-542243D01*
X1457900Y-541866D01*
X1458009Y-541492D01*
X1458126Y-541120D01*
X1458253Y-540752D01*
X1458389Y-540387D01*
X1458533Y-540025D01*
X1458687Y-539667D01*
X1458849Y-539313D01*
X1459020Y-538962D01*
X1459199Y-538617D01*
X1459387Y-538275D01*
X1459584Y-537939D01*
X1459788Y-537607D01*
X1460000Y-537280D01*
X1460221Y-536959D01*
X1460449Y-536643D01*
X1460685Y-536333D01*
X1460928Y-536029D01*
X1461179Y-535731D01*
X1461437Y-535439D01*
X1461703Y-535154D01*
X1461975Y-534875D01*
X1462254Y-534603D01*
X1462539Y-534337D01*
X1462831Y-534079D01*
X1463129Y-533828D01*
X1463433Y-533585D01*
X1463743Y-533349D01*
X1464059Y-533121D01*
X1464380Y-532900D01*
X1464707Y-532688D01*
X1465039Y-532484D01*
X1465375Y-532287D01*
X1465717Y-532099D01*
X1466062Y-531920D01*
X1466413Y-531749D01*
X1466767Y-531587D01*
X1467125Y-531433D01*
X1467487Y-531289D01*
X1467852Y-531153D01*
X1468220Y-531026D01*
X1468592Y-530909D01*
X1468966Y-530800D01*
X1469343Y-530701D01*
X1469722Y-530611D01*
X1470103Y-530530D01*
X1470486Y-530459D01*
X1470871Y-530397D01*
X1471257Y-530344D01*
X1471644Y-530301D01*
X1472032Y-530268D01*
X1472421Y-530244D01*
X1472810Y-530230D01*
X1473200Y-530225D01*
X1473590Y-530230D01*
X1473979Y-530244D01*
X1474368Y-530268D01*
X1474756Y-530301D01*
X1475143Y-530344D01*
X1475529Y-530397D01*
X1475914Y-530459D01*
X1476297Y-530530D01*
X1476678Y-530611D01*
X1477057Y-530701D01*
X1477434Y-530800D01*
X1477808Y-530909D01*
X1478180Y-531026D01*
X1478548Y-531153D01*
X1478913Y-531289D01*
X1479275Y-531433D01*
X1479633Y-531587D01*
X1479987Y-531749D01*
X1480338Y-531920D01*
X1480683Y-532099D01*
X1481025Y-532287D01*
X1481361Y-532484D01*
X1481693Y-532688D01*
X1482020Y-532900D01*
X1482341Y-533121D01*
X1482657Y-533349D01*
X1482967Y-533585D01*
X1483271Y-533828D01*
X1483569Y-534079D01*
X1483861Y-534337D01*
X1484146Y-534603D01*
X1484425Y-534875D01*
X1484697Y-535154D01*
X1484963Y-535439D01*
X1485221Y-535731D01*
X1485472Y-536029D01*
X1485715Y-536333D01*
X1485951Y-536643D01*
X1486179Y-536959D01*
X1486400Y-537280D01*
X1486612Y-537607D01*
X1486816Y-537939D01*
X1487013Y-538275D01*
X1487201Y-538617D01*
X1487380Y-538962D01*
X1487551Y-539313D01*
X1487713Y-539667D01*
X1487867Y-540025D01*
X1488011Y-540387D01*
X1488147Y-540752D01*
X1488274Y-541120D01*
X1488391Y-541492D01*
X1488500Y-541866D01*
X1488599Y-542243D01*
X1488689Y-542622D01*
X1488770Y-543003D01*
X1488841Y-543386D01*
X1488903Y-543771D01*
X1488956Y-544157D01*
X1488999Y-544544D01*
X1489032Y-544932D01*
X1489056Y-545321D01*
X1489070Y-545710D01*
X1489075Y-546100D01*
X1489070Y-546490D01*
X1489056Y-546879D01*
X1489032Y-547268D01*
X1488999Y-547656D01*
X1488956Y-548043D01*
X1488903Y-548429D01*
X1488841Y-548814D01*
X1488770Y-549197D01*
X1488689Y-549578D01*
X1488599Y-549957D01*
X1488500Y-550334D01*
X1488391Y-550708D01*
X1488274Y-551080D01*
X1488147Y-551448D01*
X1488011Y-551813D01*
X1487867Y-552175D01*
X1487713Y-552533D01*
X1487551Y-552887D01*
X1487380Y-553238D01*
X1487201Y-553583D01*
X1487013Y-553925D01*
X1486816Y-554261D01*
X1486612Y-554593D01*
X1486400Y-554920D01*
X1486179Y-555241D01*
X1485951Y-555557D01*
X1485715Y-555867D01*
X1485472Y-556171D01*
X1485221Y-556469D01*
X1484963Y-556761D01*
X1484697Y-557046D01*
X1484425Y-557325D01*
X1484146Y-557597D01*
X1483861Y-557863D01*
X1483569Y-558121D01*
X1483271Y-558372D01*
X1482967Y-558615D01*
X1482657Y-558851D01*
X1482341Y-559079D01*
X1482020Y-559300D01*
X1481693Y-559512D01*
X1481361Y-559716D01*
X1481025Y-559913D01*
X1480683Y-560101D01*
X1480338Y-560280D01*
X1479987Y-560451D01*
X1479633Y-560613D01*
X1479275Y-560767D01*
X1478913Y-560911D01*
X1478548Y-561047D01*
X1478180Y-561174D01*
X1477808Y-561291D01*
X1477434Y-561400D01*
X1477057Y-561499D01*
X1476678Y-561589D01*
X1476297Y-561670D01*
X1475914Y-561741D01*
X1475529Y-561803D01*
X1475143Y-561856D01*
X1474756Y-561899D01*
X1474368Y-561932D01*
X1473979Y-561956D01*
X1473590Y-561970D01*
X1473200Y-561975D01*
X1472810Y-561970D01*
X1472421Y-561956D01*
X1472032Y-561932D01*
X1471644Y-561899D01*
X1471257Y-561856D01*
X1470871Y-561803D01*
X1470486Y-561741D01*
X1470103Y-561670D01*
X1469722Y-561589D01*
X1469343Y-561499D01*
X1468966Y-561400D01*
X1468592Y-561291D01*
X1468220Y-561174D01*
X1467852Y-561047D01*
X1467487Y-560911D01*
X1467125Y-560767D01*
X1466767Y-560613D01*
X1466413Y-560451D01*
X1466062Y-560280D01*
X1465717Y-560101D01*
X1465375Y-559913D01*
X1465039Y-559716D01*
X1464707Y-559512D01*
X1464380Y-559300D01*
X1464059Y-559079D01*
X1463743Y-558851D01*
X1463433Y-558615D01*
X1463129Y-558372D01*
X1462831Y-558121D01*
X1462539Y-557863D01*
X1462254Y-557597D01*
X1461975Y-557325D01*
X1461703Y-557046D01*
X1461437Y-556761D01*
X1461179Y-556469D01*
X1460928Y-556171D01*
X1460685Y-555867D01*
X1460449Y-555557D01*
X1460221Y-555241D01*
X1460000Y-554920D01*
X1459788Y-554593D01*
X1459584Y-554261D01*
X1459387Y-553925D01*
X1459199Y-553583D01*
X1459020Y-553238D01*
X1458849Y-552887D01*
X1458687Y-552533D01*
X1458533Y-552175D01*
X1458389Y-551813D01*
X1458253Y-551448D01*
X1458126Y-551080D01*
X1458009Y-550708D01*
X1457900Y-550334D01*
X1457801Y-549957D01*
X1457711Y-549578D01*
X1457630Y-549197D01*
X1457559Y-548814D01*
X1457497Y-548429D01*
X1457444Y-548043D01*
X1457401Y-547656D01*
X1457368Y-547268D01*
X1457344Y-546879D01*
X1457330Y-546490D01*
X1457325Y-546100D01*
X1457325Y317500D02*
X1457330Y317890D01*
X1457344Y318279D01*
X1457368Y318668D01*
X1457401Y319056D01*
X1457444Y319443D01*
X1457497Y319829D01*
X1457559Y320214D01*
X1457630Y320597D01*
X1457711Y320978D01*
X1457801Y321357D01*
X1457900Y321734D01*
X1458009Y322108D01*
X1458126Y322480D01*
X1458253Y322848D01*
X1458389Y323213D01*
X1458533Y323575D01*
X1458687Y323933D01*
X1458849Y324287D01*
X1459020Y324638D01*
X1459199Y324983D01*
X1459387Y325325D01*
X1459584Y325661D01*
X1459788Y325993D01*
X1460000Y326320D01*
X1460221Y326641D01*
X1460449Y326957D01*
X1460685Y327267D01*
X1460928Y327571D01*
X1461179Y327869D01*
X1461437Y328161D01*
X1461703Y328446D01*
X1461975Y328725D01*
X1462254Y328997D01*
X1462539Y329263D01*
X1462831Y329521D01*
X1463129Y329772D01*
X1463433Y330015D01*
X1463743Y330251D01*
X1464059Y330479D01*
X1464380Y330700D01*
X1464707Y330912D01*
X1465039Y331116D01*
X1465375Y331313D01*
X1465717Y331501D01*
X1466062Y331680D01*
X1466413Y331851D01*
X1466767Y332013D01*
X1467125Y332167D01*
X1467487Y332311D01*
X1467852Y332447D01*
X1468220Y332574D01*
X1468592Y332691D01*
X1468966Y332800D01*
X1469343Y332899D01*
X1469722Y332989D01*
X1470103Y333070D01*
X1470486Y333141D01*
X1470871Y333203D01*
X1471257Y333256D01*
X1471644Y333299D01*
X1472032Y333332D01*
X1472421Y333356D01*
X1472810Y333370D01*
X1473200Y333375D01*
X1473590Y333370D01*
X1473979Y333356D01*
X1474368Y333332D01*
X1474756Y333299D01*
X1475143Y333256D01*
X1475529Y333203D01*
X1475914Y333141D01*
X1476297Y333070D01*
X1476678Y332989D01*
X1477057Y332899D01*
X1477434Y332800D01*
X1477808Y332691D01*
X1478180Y332574D01*
X1478548Y332447D01*
X1478913Y332311D01*
X1479275Y332167D01*
X1479633Y332013D01*
X1479987Y331851D01*
X1480338Y331680D01*
X1480683Y331501D01*
X1481025Y331313D01*
X1481361Y331116D01*
X1481693Y330912D01*
X1482020Y330700D01*
X1482341Y330479D01*
X1482657Y330251D01*
X1482967Y330015D01*
X1483271Y329772D01*
X1483569Y329521D01*
X1483861Y329263D01*
X1484146Y328997D01*
X1484425Y328725D01*
X1484697Y328446D01*
X1484963Y328161D01*
X1485221Y327869D01*
X1485472Y327571D01*
X1485715Y327267D01*
X1485951Y326957D01*
X1486179Y326641D01*
X1486400Y326320D01*
X1486612Y325993D01*
X1486816Y325661D01*
X1487013Y325325D01*
X1487201Y324983D01*
X1487380Y324638D01*
X1487551Y324287D01*
X1487713Y323933D01*
X1487867Y323575D01*
X1488011Y323213D01*
X1488147Y322848D01*
X1488274Y322480D01*
X1488391Y322108D01*
X1488500Y321734D01*
X1488599Y321357D01*
X1488689Y320978D01*
X1488770Y320597D01*
X1488841Y320214D01*
X1488903Y319829D01*
X1488956Y319443D01*
X1488999Y319056D01*
X1489032Y318668D01*
X1489056Y318279D01*
X1489070Y317890D01*
X1489075Y317500D01*
X1489070Y317110D01*
X1489056Y316721D01*
X1489032Y316332D01*
X1488999Y315944D01*
X1488956Y315557D01*
X1488903Y315171D01*
X1488841Y314786D01*
X1488770Y314403D01*
X1488689Y314022D01*
X1488599Y313643D01*
X1488500Y313266D01*
X1488391Y312892D01*
X1488274Y312520D01*
X1488147Y312152D01*
X1488011Y311787D01*
X1487867Y311425D01*
X1487713Y311067D01*
X1487551Y310713D01*
X1487380Y310362D01*
X1487201Y310017D01*
X1487013Y309675D01*
X1486816Y309339D01*
X1486612Y309007D01*
X1486400Y308680D01*
X1486179Y308359D01*
X1485951Y308043D01*
X1485715Y307733D01*
X1485472Y307429D01*
X1485221Y307131D01*
X1484963Y306839D01*
X1484697Y306554D01*
X1484425Y306275D01*
X1484146Y306003D01*
X1483861Y305737D01*
X1483569Y305479D01*
X1483271Y305228D01*
X1482967Y304985D01*
X1482657Y304749D01*
X1482341Y304521D01*
X1482020Y304300D01*
X1481693Y304088D01*
X1481361Y303884D01*
X1481025Y303687D01*
X1480683Y303499D01*
X1480338Y303320D01*
X1479987Y303149D01*
X1479633Y302987D01*
X1479275Y302833D01*
X1478913Y302689D01*
X1478548Y302553D01*
X1478180Y302426D01*
X1477808Y302309D01*
X1477434Y302200D01*
X1477057Y302101D01*
X1476678Y302011D01*
X1476297Y301930D01*
X1475914Y301859D01*
X1475529Y301797D01*
X1475143Y301744D01*
X1474756Y301701D01*
X1474368Y301668D01*
X1473979Y301644D01*
X1473590Y301630D01*
X1473200Y301625D01*
X1472810Y301630D01*
X1472421Y301644D01*
X1472032Y301668D01*
X1471644Y301701D01*
X1471257Y301744D01*
X1470871Y301797D01*
X1470486Y301859D01*
X1470103Y301930D01*
X1469722Y302011D01*
X1469343Y302101D01*
X1468966Y302200D01*
X1468592Y302309D01*
X1468220Y302426D01*
X1467852Y302553D01*
X1467487Y302689D01*
X1467125Y302833D01*
X1466767Y302987D01*
X1466413Y303149D01*
X1466062Y303320D01*
X1465717Y303499D01*
X1465375Y303687D01*
X1465039Y303884D01*
X1464707Y304088D01*
X1464380Y304300D01*
X1464059Y304521D01*
X1463743Y304749D01*
X1463433Y304985D01*
X1463129Y305228D01*
X1462831Y305479D01*
X1462539Y305737D01*
X1462254Y306003D01*
X1461975Y306275D01*
X1461703Y306554D01*
X1461437Y306839D01*
X1461179Y307131D01*
X1460928Y307429D01*
X1460685Y307733D01*
X1460449Y308043D01*
X1460221Y308359D01*
X1460000Y308680D01*
X1459788Y309007D01*
X1459584Y309339D01*
X1459387Y309675D01*
X1459199Y310017D01*
X1459020Y310362D01*
X1458849Y310713D01*
X1458687Y311067D01*
X1458533Y311425D01*
X1458389Y311787D01*
X1458253Y312152D01*
X1458126Y312520D01*
X1458009Y312892D01*
X1457900Y313266D01*
X1457801Y313643D01*
X1457711Y314022D01*
X1457630Y314403D01*
X1457559Y314786D01*
X1457497Y315171D01*
X1457444Y315557D01*
X1457401Y315944D01*
X1457368Y316332D01*
X1457344Y316721D01*
X1457330Y317110D01*
X1457325Y317500D01*
X263525Y-546100D02*
X263530Y-545710D01*
X263544Y-545321D01*
X263568Y-544932D01*
X263601Y-544544D01*
X263644Y-544157D01*
X263697Y-543771D01*
X263759Y-543386D01*
X263830Y-543003D01*
X263911Y-542622D01*
X264001Y-542243D01*
X264100Y-541866D01*
X264209Y-541492D01*
X264326Y-541120D01*
X264453Y-540752D01*
X264589Y-540387D01*
X264733Y-540025D01*
X264887Y-539667D01*
X265049Y-539313D01*
X265220Y-538962D01*
X265399Y-538617D01*
X265587Y-538275D01*
X265784Y-537939D01*
X265988Y-537607D01*
X266200Y-537280D01*
X266421Y-536959D01*
X266649Y-536643D01*
X266885Y-536333D01*
X267128Y-536029D01*
X267379Y-535731D01*
X267637Y-535439D01*
X267903Y-535154D01*
X268175Y-534875D01*
X268454Y-534603D01*
X268739Y-534337D01*
X269031Y-534079D01*
X269329Y-533828D01*
X269633Y-533585D01*
X269943Y-533349D01*
X270259Y-533121D01*
X270580Y-532900D01*
X270907Y-532688D01*
X271239Y-532484D01*
X271575Y-532287D01*
X271917Y-532099D01*
X272262Y-531920D01*
X272613Y-531749D01*
X272967Y-531587D01*
X273325Y-531433D01*
X273687Y-531289D01*
X274052Y-531153D01*
X274420Y-531026D01*
X274792Y-530909D01*
X275166Y-530800D01*
X275543Y-530701D01*
X275922Y-530611D01*
X276303Y-530530D01*
X276686Y-530459D01*
X277071Y-530397D01*
X277457Y-530344D01*
X277844Y-530301D01*
X278232Y-530268D01*
X278621Y-530244D01*
X279010Y-530230D01*
X279400Y-530225D01*
X279790Y-530230D01*
X280179Y-530244D01*
X280568Y-530268D01*
X280956Y-530301D01*
X281343Y-530344D01*
X281729Y-530397D01*
X282114Y-530459D01*
X282497Y-530530D01*
X282878Y-530611D01*
X283257Y-530701D01*
X283634Y-530800D01*
X284008Y-530909D01*
X284380Y-531026D01*
X284748Y-531153D01*
X285113Y-531289D01*
X285475Y-531433D01*
X285833Y-531587D01*
X286187Y-531749D01*
X286538Y-531920D01*
X286883Y-532099D01*
X287225Y-532287D01*
X287561Y-532484D01*
X287893Y-532688D01*
X288220Y-532900D01*
X288541Y-533121D01*
X288857Y-533349D01*
X289167Y-533585D01*
X289471Y-533828D01*
X289769Y-534079D01*
X290061Y-534337D01*
X290346Y-534603D01*
X290625Y-534875D01*
X290897Y-535154D01*
X291163Y-535439D01*
X291421Y-535731D01*
X291672Y-536029D01*
X291915Y-536333D01*
X292151Y-536643D01*
X292379Y-536959D01*
X292600Y-537280D01*
X292812Y-537607D01*
X293016Y-537939D01*
X293213Y-538275D01*
X293401Y-538617D01*
X293580Y-538962D01*
X293751Y-539313D01*
X293913Y-539667D01*
X294067Y-540025D01*
X294211Y-540387D01*
X294347Y-540752D01*
X294474Y-541120D01*
X294591Y-541492D01*
X294700Y-541866D01*
X294799Y-542243D01*
X294889Y-542622D01*
X294970Y-543003D01*
X295041Y-543386D01*
X295103Y-543771D01*
X295156Y-544157D01*
X295199Y-544544D01*
X295232Y-544932D01*
X295256Y-545321D01*
X295270Y-545710D01*
X295275Y-546100D01*
X295270Y-546490D01*
X295256Y-546879D01*
X295232Y-547268D01*
X295199Y-547656D01*
X295156Y-548043D01*
X295103Y-548429D01*
X295041Y-548814D01*
X294970Y-549197D01*
X294889Y-549578D01*
X294799Y-549957D01*
X294700Y-550334D01*
X294591Y-550708D01*
X294474Y-551080D01*
X294347Y-551448D01*
X294211Y-551813D01*
X294067Y-552175D01*
X293913Y-552533D01*
X293751Y-552887D01*
X293580Y-553238D01*
X293401Y-553583D01*
X293213Y-553925D01*
X293016Y-554261D01*
X292812Y-554593D01*
X292600Y-554920D01*
X292379Y-555241D01*
X292151Y-555557D01*
X291915Y-555867D01*
X291672Y-556171D01*
X291421Y-556469D01*
X291163Y-556761D01*
X290897Y-557046D01*
X290625Y-557325D01*
X290346Y-557597D01*
X290061Y-557863D01*
X289769Y-558121D01*
X289471Y-558372D01*
X289167Y-558615D01*
X288857Y-558851D01*
X288541Y-559079D01*
X288220Y-559300D01*
X287893Y-559512D01*
X287561Y-559716D01*
X287225Y-559913D01*
X286883Y-560101D01*
X286538Y-560280D01*
X286187Y-560451D01*
X285833Y-560613D01*
X285475Y-560767D01*
X285113Y-560911D01*
X284748Y-561047D01*
X284380Y-561174D01*
X284008Y-561291D01*
X283634Y-561400D01*
X283257Y-561499D01*
X282878Y-561589D01*
X282497Y-561670D01*
X282114Y-561741D01*
X281729Y-561803D01*
X281343Y-561856D01*
X280956Y-561899D01*
X280568Y-561932D01*
X280179Y-561956D01*
X279790Y-561970D01*
X279400Y-561975D01*
X279010Y-561970D01*
X278621Y-561956D01*
X278232Y-561932D01*
X277844Y-561899D01*
X277457Y-561856D01*
X277071Y-561803D01*
X276686Y-561741D01*
X276303Y-561670D01*
X275922Y-561589D01*
X275543Y-561499D01*
X275166Y-561400D01*
X274792Y-561291D01*
X274420Y-561174D01*
X274052Y-561047D01*
X273687Y-560911D01*
X273325Y-560767D01*
X272967Y-560613D01*
X272613Y-560451D01*
X272262Y-560280D01*
X271917Y-560101D01*
X271575Y-559913D01*
X271239Y-559716D01*
X270907Y-559512D01*
X270580Y-559300D01*
X270259Y-559079D01*
X269943Y-558851D01*
X269633Y-558615D01*
X269329Y-558372D01*
X269031Y-558121D01*
X268739Y-557863D01*
X268454Y-557597D01*
X268175Y-557325D01*
X267903Y-557046D01*
X267637Y-556761D01*
X267379Y-556469D01*
X267128Y-556171D01*
X266885Y-555867D01*
X266649Y-555557D01*
X266421Y-555241D01*
X266200Y-554920D01*
X265988Y-554593D01*
X265784Y-554261D01*
X265587Y-553925D01*
X265399Y-553583D01*
X265220Y-553238D01*
X265049Y-552887D01*
X264887Y-552533D01*
X264733Y-552175D01*
X264589Y-551813D01*
X264453Y-551448D01*
X264326Y-551080D01*
X264209Y-550708D01*
X264100Y-550334D01*
X264001Y-549957D01*
X263911Y-549578D01*
X263830Y-549197D01*
X263759Y-548814D01*
X263697Y-548429D01*
X263644Y-548043D01*
X263601Y-547656D01*
X263568Y-547268D01*
X263544Y-546879D01*
X263530Y-546490D01*
X263525Y-546100D01*
X161925Y762000D02*
X161930Y762390D01*
X161944Y762779D01*
X161968Y763168D01*
X162001Y763556D01*
X162044Y763943D01*
X162097Y764329D01*
X162159Y764714D01*
X162230Y765097D01*
X162311Y765478D01*
X162401Y765857D01*
X162500Y766234D01*
X162609Y766608D01*
X162726Y766980D01*
X162853Y767348D01*
X162989Y767713D01*
X163133Y768075D01*
X163287Y768433D01*
X163449Y768787D01*
X163620Y769138D01*
X163799Y769483D01*
X163987Y769825D01*
X164184Y770161D01*
X164388Y770493D01*
X164600Y770820D01*
X164821Y771141D01*
X165049Y771457D01*
X165285Y771767D01*
X165528Y772071D01*
X165779Y772369D01*
X166037Y772661D01*
X166303Y772946D01*
X166575Y773225D01*
X166854Y773497D01*
X167139Y773763D01*
X167431Y774021D01*
X167729Y774272D01*
X168033Y774515D01*
X168343Y774751D01*
X168659Y774979D01*
X168980Y775200D01*
X169307Y775412D01*
X169639Y775616D01*
X169975Y775813D01*
X170317Y776001D01*
X170662Y776180D01*
X171013Y776351D01*
X171367Y776513D01*
X171725Y776667D01*
X172087Y776811D01*
X172452Y776947D01*
X172820Y777074D01*
X173192Y777191D01*
X173566Y777300D01*
X173943Y777399D01*
X174322Y777489D01*
X174703Y777570D01*
X175086Y777641D01*
X175471Y777703D01*
X175857Y777756D01*
X176244Y777799D01*
X176632Y777832D01*
X177021Y777856D01*
X177410Y777870D01*
X177800Y777875D01*
X178190Y777870D01*
X178579Y777856D01*
X178968Y777832D01*
X179356Y777799D01*
X179743Y777756D01*
X180129Y777703D01*
X180514Y777641D01*
X180897Y777570D01*
X181278Y777489D01*
X181657Y777399D01*
X182034Y777300D01*
X182408Y777191D01*
X182780Y777074D01*
X183148Y776947D01*
X183513Y776811D01*
X183875Y776667D01*
X184233Y776513D01*
X184587Y776351D01*
X184938Y776180D01*
X185283Y776001D01*
X185625Y775813D01*
X185961Y775616D01*
X186293Y775412D01*
X186620Y775200D01*
X186941Y774979D01*
X187257Y774751D01*
X187567Y774515D01*
X187871Y774272D01*
X188169Y774021D01*
X188461Y773763D01*
X188746Y773497D01*
X189025Y773225D01*
X189297Y772946D01*
X189563Y772661D01*
X189821Y772369D01*
X190072Y772071D01*
X190315Y771767D01*
X190551Y771457D01*
X190779Y771141D01*
X191000Y770820D01*
X191212Y770493D01*
X191416Y770161D01*
X191613Y769825D01*
X191801Y769483D01*
X191980Y769138D01*
X192151Y768787D01*
X192313Y768433D01*
X192467Y768075D01*
X192611Y767713D01*
X192747Y767348D01*
X192874Y766980D01*
X192991Y766608D01*
X193100Y766234D01*
X193199Y765857D01*
X193289Y765478D01*
X193370Y765097D01*
X193441Y764714D01*
X193503Y764329D01*
X193556Y763943D01*
X193599Y763556D01*
X193632Y763168D01*
X193656Y762779D01*
X193670Y762390D01*
X193675Y762000D01*
X193670Y761610D01*
X193656Y761221D01*
X193632Y760832D01*
X193599Y760444D01*
X193556Y760057D01*
X193503Y759671D01*
X193441Y759286D01*
X193370Y758903D01*
X193289Y758522D01*
X193199Y758143D01*
X193100Y757766D01*
X192991Y757392D01*
X192874Y757020D01*
X192747Y756652D01*
X192611Y756287D01*
X192467Y755925D01*
X192313Y755567D01*
X192151Y755213D01*
X191980Y754862D01*
X191801Y754517D01*
X191613Y754175D01*
X191416Y753839D01*
X191212Y753507D01*
X191000Y753180D01*
X190779Y752859D01*
X190551Y752543D01*
X190315Y752233D01*
X190072Y751929D01*
X189821Y751631D01*
X189563Y751339D01*
X189297Y751054D01*
X189025Y750775D01*
X188746Y750503D01*
X188461Y750237D01*
X188169Y749979D01*
X187871Y749728D01*
X187567Y749485D01*
X187257Y749249D01*
X186941Y749021D01*
X186620Y748800D01*
X186293Y748588D01*
X185961Y748384D01*
X185625Y748187D01*
X185283Y747999D01*
X184938Y747820D01*
X184587Y747649D01*
X184233Y747487D01*
X183875Y747333D01*
X183513Y747189D01*
X183148Y747053D01*
X182780Y746926D01*
X182408Y746809D01*
X182034Y746700D01*
X181657Y746601D01*
X181278Y746511D01*
X180897Y746430D01*
X180514Y746359D01*
X180129Y746297D01*
X179743Y746244D01*
X179356Y746201D01*
X178968Y746168D01*
X178579Y746144D01*
X178190Y746130D01*
X177800Y746125D01*
X177410Y746130D01*
X177021Y746144D01*
X176632Y746168D01*
X176244Y746201D01*
X175857Y746244D01*
X175471Y746297D01*
X175086Y746359D01*
X174703Y746430D01*
X174322Y746511D01*
X173943Y746601D01*
X173566Y746700D01*
X173192Y746809D01*
X172820Y746926D01*
X172452Y747053D01*
X172087Y747189D01*
X171725Y747333D01*
X171367Y747487D01*
X171013Y747649D01*
X170662Y747820D01*
X170317Y747999D01*
X169975Y748187D01*
X169639Y748384D01*
X169307Y748588D01*
X168980Y748800D01*
X168659Y749021D01*
X168343Y749249D01*
X168033Y749485D01*
X167729Y749728D01*
X167431Y749979D01*
X167139Y750237D01*
X166854Y750503D01*
X166575Y750775D01*
X166303Y751054D01*
X166037Y751339D01*
X165779Y751631D01*
X165528Y751929D01*
X165285Y752233D01*
X165049Y752543D01*
X164821Y752859D01*
X164600Y753180D01*
X164388Y753507D01*
X164184Y753839D01*
X163987Y754175D01*
X163799Y754517D01*
X163620Y754862D01*
X163449Y755213D01*
X163287Y755567D01*
X163133Y755925D01*
X162989Y756287D01*
X162853Y756652D01*
X162726Y757020D01*
X162609Y757392D01*
X162500Y757766D01*
X162401Y758143D01*
X162311Y758522D01*
X162230Y758903D01*
X162159Y759286D01*
X162097Y759671D01*
X162044Y760057D01*
X162001Y760444D01*
X161968Y760832D01*
X161944Y761221D01*
X161930Y761610D01*
X161925Y762000D01*
X149000Y-224200D02*
X149003Y-223942D01*
X149013Y-223685D01*
X149028Y-223428D01*
X149051Y-223171D01*
X149079Y-222915D01*
X149114Y-222659D01*
X149155Y-222405D01*
X149202Y-222152D01*
X149255Y-221899D01*
X149315Y-221649D01*
X149380Y-221400D01*
X149452Y-221152D01*
X149530Y-220906D01*
X149614Y-220663D01*
X149704Y-220421D01*
X149799Y-220182D01*
X149901Y-219945D01*
X150008Y-219711D01*
X150121Y-219479D01*
X150240Y-219250D01*
X150364Y-219025D01*
X150494Y-218802D01*
X150629Y-218583D01*
X150770Y-218367D01*
X150915Y-218154D01*
X151066Y-217945D01*
X151222Y-217740D01*
X151383Y-217539D01*
X151549Y-217342D01*
X151720Y-217149D01*
X151895Y-216960D01*
X152075Y-216775D01*
X152260Y-216595D01*
X152449Y-216420D01*
X152642Y-216249D01*
X152839Y-216083D01*
X153040Y-215922D01*
X153245Y-215766D01*
X153454Y-215615D01*
X153667Y-215470D01*
X153883Y-215329D01*
X154102Y-215194D01*
X154325Y-215064D01*
X154550Y-214940D01*
X154779Y-214821D01*
X155011Y-214708D01*
X155245Y-214601D01*
X155482Y-214499D01*
X155721Y-214404D01*
X155963Y-214314D01*
X156206Y-214230D01*
X156452Y-214152D01*
X156700Y-214080D01*
X156949Y-214015D01*
X157199Y-213955D01*
X157452Y-213902D01*
X157705Y-213855D01*
X157959Y-213814D01*
X158215Y-213779D01*
X158471Y-213751D01*
X158728Y-213728D01*
X158985Y-213713D01*
X159242Y-213703D01*
X159500Y-213700D01*
X159758Y-213703D01*
X160015Y-213713D01*
X160272Y-213728D01*
X160529Y-213751D01*
X160785Y-213779D01*
X161041Y-213814D01*
X161295Y-213855D01*
X161548Y-213902D01*
X161801Y-213955D01*
X162051Y-214015D01*
X162300Y-214080D01*
X162548Y-214152D01*
X162794Y-214230D01*
X163037Y-214314D01*
X163279Y-214404D01*
X163518Y-214499D01*
X163755Y-214601D01*
X163989Y-214708D01*
X164221Y-214821D01*
X164450Y-214940D01*
X164675Y-215064D01*
X164898Y-215194D01*
X165117Y-215329D01*
X165333Y-215470D01*
X165546Y-215615D01*
X165755Y-215766D01*
X165960Y-215922D01*
X166161Y-216083D01*
X166358Y-216249D01*
X166551Y-216420D01*
X166740Y-216595D01*
X166925Y-216775D01*
X167105Y-216960D01*
X167280Y-217149D01*
X167451Y-217342D01*
X167617Y-217539D01*
X167778Y-217740D01*
X167934Y-217945D01*
X168085Y-218154D01*
X168230Y-218367D01*
X168371Y-218583D01*
X168506Y-218802D01*
X168636Y-219025D01*
X168760Y-219250D01*
X168879Y-219479D01*
X168992Y-219711D01*
X169099Y-219945D01*
X169201Y-220182D01*
X169296Y-220421D01*
X169386Y-220663D01*
X169470Y-220906D01*
X169548Y-221152D01*
X169620Y-221400D01*
X169685Y-221649D01*
X169745Y-221899D01*
X169798Y-222152D01*
X169845Y-222405D01*
X169886Y-222659D01*
X169921Y-222915D01*
X169949Y-223171D01*
X169972Y-223428D01*
X169987Y-223685D01*
X169997Y-223942D01*
X170000Y-224200D01*
X169997Y-224458D01*
X169987Y-224715D01*
X169972Y-224972D01*
X169949Y-225229D01*
X169921Y-225485D01*
X169886Y-225741D01*
X169845Y-225995D01*
X169798Y-226248D01*
X169745Y-226501D01*
X169685Y-226751D01*
X169620Y-227000D01*
X169548Y-227248D01*
X169470Y-227494D01*
X169386Y-227737D01*
X169296Y-227979D01*
X169201Y-228218D01*
X169099Y-228455D01*
X168992Y-228689D01*
X168879Y-228921D01*
X168760Y-229150D01*
X168636Y-229375D01*
X168506Y-229598D01*
X168371Y-229817D01*
X168230Y-230033D01*
X168085Y-230246D01*
X167934Y-230455D01*
X167778Y-230660D01*
X167617Y-230861D01*
X167451Y-231058D01*
X167280Y-231251D01*
X167105Y-231440D01*
X166925Y-231625D01*
X166740Y-231805D01*
X166551Y-231980D01*
X166358Y-232151D01*
X166161Y-232317D01*
X165960Y-232478D01*
X165755Y-232634D01*
X165546Y-232785D01*
X165333Y-232930D01*
X165117Y-233071D01*
X164898Y-233206D01*
X164675Y-233336D01*
X164450Y-233460D01*
X164221Y-233579D01*
X163989Y-233692D01*
X163755Y-233799D01*
X163518Y-233901D01*
X163279Y-233996D01*
X163037Y-234086D01*
X162794Y-234170D01*
X162548Y-234248D01*
X162300Y-234320D01*
X162051Y-234385D01*
X161801Y-234445D01*
X161548Y-234498D01*
X161295Y-234545D01*
X161041Y-234586D01*
X160785Y-234621D01*
X160529Y-234649D01*
X160272Y-234672D01*
X160015Y-234687D01*
X159758Y-234697D01*
X159500Y-234700D01*
X159242Y-234697D01*
X158985Y-234687D01*
X158728Y-234672D01*
X158471Y-234649D01*
X158215Y-234621D01*
X157959Y-234586D01*
X157705Y-234545D01*
X157452Y-234498D01*
X157199Y-234445D01*
X156949Y-234385D01*
X156700Y-234320D01*
X156452Y-234248D01*
X156206Y-234170D01*
X155963Y-234086D01*
X155721Y-233996D01*
X155482Y-233901D01*
X155245Y-233799D01*
X155011Y-233692D01*
X154779Y-233579D01*
X154550Y-233460D01*
X154325Y-233336D01*
X154102Y-233206D01*
X153883Y-233071D01*
X153667Y-232930D01*
X153454Y-232785D01*
X153245Y-232634D01*
X153040Y-232478D01*
X152839Y-232317D01*
X152642Y-232151D01*
X152449Y-231980D01*
X152260Y-231805D01*
X152075Y-231625D01*
X151895Y-231440D01*
X151720Y-231251D01*
X151549Y-231058D01*
X151383Y-230861D01*
X151222Y-230660D01*
X151066Y-230455D01*
X150915Y-230246D01*
X150770Y-230033D01*
X150629Y-229817D01*
X150494Y-229598D01*
X150364Y-229375D01*
X150240Y-229150D01*
X150121Y-228921D01*
X150008Y-228689D01*
X149901Y-228455D01*
X149799Y-228218D01*
X149704Y-227979D01*
X149614Y-227737D01*
X149530Y-227494D01*
X149452Y-227248D01*
X149380Y-227000D01*
X149315Y-226751D01*
X149255Y-226501D01*
X149202Y-226248D01*
X149155Y-225995D01*
X149114Y-225741D01*
X149079Y-225485D01*
X149051Y-225229D01*
X149028Y-224972D01*
X149013Y-224715D01*
X149003Y-224458D01*
X149000Y-224200D01*
X149000Y-309200D02*
X149003Y-308942D01*
X149013Y-308685D01*
X149028Y-308428D01*
X149051Y-308171D01*
X149079Y-307915D01*
X149114Y-307659D01*
X149155Y-307405D01*
X149202Y-307152D01*
X149255Y-306899D01*
X149315Y-306649D01*
X149380Y-306400D01*
X149452Y-306152D01*
X149530Y-305906D01*
X149614Y-305663D01*
X149704Y-305421D01*
X149799Y-305182D01*
X149901Y-304945D01*
X150008Y-304711D01*
X150121Y-304479D01*
X150240Y-304250D01*
X150364Y-304025D01*
X150494Y-303802D01*
X150629Y-303583D01*
X150770Y-303367D01*
X150915Y-303154D01*
X151066Y-302945D01*
X151222Y-302740D01*
X151383Y-302539D01*
X151549Y-302342D01*
X151720Y-302149D01*
X151895Y-301960D01*
X152075Y-301775D01*
X152260Y-301595D01*
X152449Y-301420D01*
X152642Y-301249D01*
X152839Y-301083D01*
X153040Y-300922D01*
X153245Y-300766D01*
X153454Y-300615D01*
X153667Y-300470D01*
X153883Y-300329D01*
X154102Y-300194D01*
X154325Y-300064D01*
X154550Y-299940D01*
X154779Y-299821D01*
X155011Y-299708D01*
X155245Y-299601D01*
X155482Y-299499D01*
X155721Y-299404D01*
X155963Y-299314D01*
X156206Y-299230D01*
X156452Y-299152D01*
X156700Y-299080D01*
X156949Y-299015D01*
X157199Y-298955D01*
X157452Y-298902D01*
X157705Y-298855D01*
X157959Y-298814D01*
X158215Y-298779D01*
X158471Y-298751D01*
X158728Y-298728D01*
X158985Y-298713D01*
X159242Y-298703D01*
X159500Y-298700D01*
X159758Y-298703D01*
X160015Y-298713D01*
X160272Y-298728D01*
X160529Y-298751D01*
X160785Y-298779D01*
X161041Y-298814D01*
X161295Y-298855D01*
X161548Y-298902D01*
X161801Y-298955D01*
X162051Y-299015D01*
X162300Y-299080D01*
X162548Y-299152D01*
X162794Y-299230D01*
X163037Y-299314D01*
X163279Y-299404D01*
X163518Y-299499D01*
X163755Y-299601D01*
X163989Y-299708D01*
X164221Y-299821D01*
X164450Y-299940D01*
X164675Y-300064D01*
X164898Y-300194D01*
X165117Y-300329D01*
X165333Y-300470D01*
X165546Y-300615D01*
X165755Y-300766D01*
X165960Y-300922D01*
X166161Y-301083D01*
X166358Y-301249D01*
X166551Y-301420D01*
X166740Y-301595D01*
X166925Y-301775D01*
X167105Y-301960D01*
X167280Y-302149D01*
X167451Y-302342D01*
X167617Y-302539D01*
X167778Y-302740D01*
X167934Y-302945D01*
X168085Y-303154D01*
X168230Y-303367D01*
X168371Y-303583D01*
X168506Y-303802D01*
X168636Y-304025D01*
X168760Y-304250D01*
X168879Y-304479D01*
X168992Y-304711D01*
X169099Y-304945D01*
X169201Y-305182D01*
X169296Y-305421D01*
X169386Y-305663D01*
X169470Y-305906D01*
X169548Y-306152D01*
X169620Y-306400D01*
X169685Y-306649D01*
X169745Y-306899D01*
X169798Y-307152D01*
X169845Y-307405D01*
X169886Y-307659D01*
X169921Y-307915D01*
X169949Y-308171D01*
X169972Y-308428D01*
X169987Y-308685D01*
X169997Y-308942D01*
X170000Y-309200D01*
X169997Y-309458D01*
X169987Y-309715D01*
X169972Y-309972D01*
X169949Y-310229D01*
X169921Y-310485D01*
X169886Y-310741D01*
X169845Y-310995D01*
X169798Y-311248D01*
X169745Y-311501D01*
X169685Y-311751D01*
X169620Y-312000D01*
X169548Y-312248D01*
X169470Y-312494D01*
X169386Y-312737D01*
X169296Y-312979D01*
X169201Y-313218D01*
X169099Y-313455D01*
X168992Y-313689D01*
X168879Y-313921D01*
X168760Y-314150D01*
X168636Y-314375D01*
X168506Y-314598D01*
X168371Y-314817D01*
X168230Y-315033D01*
X168085Y-315246D01*
X167934Y-315455D01*
X167778Y-315660D01*
X167617Y-315861D01*
X167451Y-316058D01*
X167280Y-316251D01*
X167105Y-316440D01*
X166925Y-316625D01*
X166740Y-316805D01*
X166551Y-316980D01*
X166358Y-317151D01*
X166161Y-317317D01*
X165960Y-317478D01*
X165755Y-317634D01*
X165546Y-317785D01*
X165333Y-317930D01*
X165117Y-318071D01*
X164898Y-318206D01*
X164675Y-318336D01*
X164450Y-318460D01*
X164221Y-318579D01*
X163989Y-318692D01*
X163755Y-318799D01*
X163518Y-318901D01*
X163279Y-318996D01*
X163037Y-319086D01*
X162794Y-319170D01*
X162548Y-319248D01*
X162300Y-319320D01*
X162051Y-319385D01*
X161801Y-319445D01*
X161548Y-319498D01*
X161295Y-319545D01*
X161041Y-319586D01*
X160785Y-319621D01*
X160529Y-319649D01*
X160272Y-319672D01*
X160015Y-319687D01*
X159758Y-319697D01*
X159500Y-319700D01*
X159242Y-319697D01*
X158985Y-319687D01*
X158728Y-319672D01*
X158471Y-319649D01*
X158215Y-319621D01*
X157959Y-319586D01*
X157705Y-319545D01*
X157452Y-319498D01*
X157199Y-319445D01*
X156949Y-319385D01*
X156700Y-319320D01*
X156452Y-319248D01*
X156206Y-319170D01*
X155963Y-319086D01*
X155721Y-318996D01*
X155482Y-318901D01*
X155245Y-318799D01*
X155011Y-318692D01*
X154779Y-318579D01*
X154550Y-318460D01*
X154325Y-318336D01*
X154102Y-318206D01*
X153883Y-318071D01*
X153667Y-317930D01*
X153454Y-317785D01*
X153245Y-317634D01*
X153040Y-317478D01*
X152839Y-317317D01*
X152642Y-317151D01*
X152449Y-316980D01*
X152260Y-316805D01*
X152075Y-316625D01*
X151895Y-316440D01*
X151720Y-316251D01*
X151549Y-316058D01*
X151383Y-315861D01*
X151222Y-315660D01*
X151066Y-315455D01*
X150915Y-315246D01*
X150770Y-315033D01*
X150629Y-314817D01*
X150494Y-314598D01*
X150364Y-314375D01*
X150240Y-314150D01*
X150121Y-313921D01*
X150008Y-313689D01*
X149901Y-313455D01*
X149799Y-313218D01*
X149704Y-312979D01*
X149614Y-312737D01*
X149530Y-312494D01*
X149452Y-312248D01*
X149380Y-312000D01*
X149315Y-311751D01*
X149255Y-311501D01*
X149202Y-311248D01*
X149155Y-310995D01*
X149114Y-310741D01*
X149079Y-310485D01*
X149051Y-310229D01*
X149028Y-309972D01*
X149013Y-309715D01*
X149003Y-309458D01*
X149000Y-309200D01*
D11*
X139700Y-584200D02*
X1511300Y-584200D01*
X1511300Y919480D01*
X601980Y919480D01*
X601980Y800100D01*
X139700Y800100D01*
X139700Y-584200D01*
X1489075Y-546620D02*
X1489007Y-547657D01*
X1488871Y-548687D01*
X1488669Y-549707D01*
X1488400Y-550711D01*
X1488065Y-551695D01*
X1487668Y-552655D01*
X1487208Y-553587D01*
X1486688Y-554488D01*
X1486111Y-555352D01*
X1485478Y-556176D01*
X1484793Y-556958D01*
X1484058Y-557693D01*
X1483276Y-558378D01*
X1482452Y-559011D01*
X1481588Y-559588D01*
X1480687Y-560108D01*
X1479755Y-560568D01*
X1478795Y-560965D01*
X1477811Y-561300D01*
X1476807Y-561569D01*
X1475787Y-561771D01*
X1474757Y-561907D01*
X1473720Y-561975D01*
X1472680Y-561975D01*
X1471643Y-561907D01*
X1470613Y-561771D01*
X1469593Y-561569D01*
X1468589Y-561300D01*
X1467605Y-560965D01*
X1466645Y-560568D01*
X1465713Y-560108D01*
X1464812Y-559588D01*
X1463948Y-559011D01*
X1463124Y-558378D01*
X1462342Y-557693D01*
X1461607Y-556958D01*
X1460922Y-556176D01*
X1460289Y-555352D01*
X1459712Y-554488D01*
X1459192Y-553587D01*
X1458732Y-552655D01*
X1458335Y-551695D01*
X1458000Y-550711D01*
X1457731Y-549707D01*
X1457529Y-548687D01*
X1457393Y-547657D01*
X1457325Y-546620D01*
X1457325Y-545580D01*
X1457393Y-544543D01*
X1457529Y-543513D01*
X1457731Y-542493D01*
X1458000Y-541489D01*
X1458335Y-540505D01*
X1458732Y-539545D01*
X1459192Y-538613D01*
X1459712Y-537712D01*
X1460289Y-536848D01*
X1460922Y-536024D01*
X1461607Y-535242D01*
X1462342Y-534507D01*
X1463124Y-533822D01*
X1463948Y-533189D01*
X1464812Y-532612D01*
X1465713Y-532092D01*
X1466645Y-531632D01*
X1467605Y-531235D01*
X1468589Y-530900D01*
X1469593Y-530631D01*
X1470613Y-530429D01*
X1471643Y-530293D01*
X1472680Y-530225D01*
X1473720Y-530225D01*
X1474757Y-530293D01*
X1475787Y-530429D01*
X1476807Y-530631D01*
X1477811Y-530900D01*
X1478795Y-531235D01*
X1479755Y-531632D01*
X1480687Y-532092D01*
X1481588Y-532612D01*
X1482452Y-533189D01*
X1483276Y-533822D01*
X1484058Y-534507D01*
X1484793Y-535242D01*
X1485478Y-536024D01*
X1486111Y-536848D01*
X1486688Y-537712D01*
X1487208Y-538613D01*
X1487668Y-539545D01*
X1488065Y-540505D01*
X1488400Y-541489D01*
X1488669Y-542493D01*
X1488871Y-543513D01*
X1489007Y-544543D01*
X1489075Y-545580D01*
X1489075Y-546620D01*
X1489075Y316980D02*
X1489007Y315943D01*
X1488871Y314913D01*
X1488669Y313893D01*
X1488400Y312889D01*
X1488065Y311905D01*
X1487668Y310945D01*
X1487208Y310013D01*
X1486688Y309112D01*
X1486111Y308248D01*
X1485478Y307424D01*
X1484793Y306642D01*
X1484058Y305907D01*
X1483276Y305222D01*
X1482452Y304589D01*
X1481588Y304012D01*
X1480687Y303492D01*
X1479755Y303032D01*
X1478795Y302635D01*
X1477811Y302300D01*
X1476807Y302031D01*
X1475787Y301829D01*
X1474757Y301693D01*
X1473720Y301625D01*
X1472680Y301625D01*
X1471643Y301693D01*
X1470613Y301829D01*
X1469593Y302031D01*
X1468589Y302300D01*
X1467605Y302635D01*
X1466645Y303032D01*
X1465713Y303492D01*
X1464812Y304012D01*
X1463948Y304589D01*
X1463124Y305222D01*
X1462342Y305907D01*
X1461607Y306642D01*
X1460922Y307424D01*
X1460289Y308248D01*
X1459712Y309112D01*
X1459192Y310013D01*
X1458732Y310945D01*
X1458335Y311905D01*
X1458000Y312889D01*
X1457731Y313893D01*
X1457529Y314913D01*
X1457393Y315943D01*
X1457325Y316980D01*
X1457325Y318020D01*
X1457393Y319057D01*
X1457529Y320087D01*
X1457731Y321107D01*
X1458000Y322111D01*
X1458335Y323095D01*
X1458732Y324055D01*
X1459192Y324987D01*
X1459712Y325888D01*
X1460289Y326752D01*
X1460922Y327576D01*
X1461607Y328358D01*
X1462342Y329093D01*
X1463124Y329778D01*
X1463948Y330411D01*
X1464812Y330988D01*
X1465713Y331508D01*
X1466645Y331968D01*
X1467605Y332365D01*
X1468589Y332700D01*
X1469593Y332969D01*
X1470613Y333171D01*
X1471643Y333307D01*
X1472680Y333375D01*
X1473720Y333375D01*
X1474757Y333307D01*
X1475787Y333171D01*
X1476807Y332969D01*
X1477811Y332700D01*
X1478795Y332365D01*
X1479755Y331968D01*
X1480687Y331508D01*
X1481588Y330988D01*
X1482452Y330411D01*
X1483276Y329778D01*
X1484058Y329093D01*
X1484793Y328358D01*
X1485478Y327576D01*
X1486111Y326752D01*
X1486688Y325888D01*
X1487208Y324987D01*
X1487668Y324055D01*
X1488065Y323095D01*
X1488400Y322111D01*
X1488669Y321107D01*
X1488871Y320087D01*
X1489007Y319057D01*
X1489075Y318020D01*
X1489075Y316980D01*
X295275Y-546620D02*
X295207Y-547657D01*
X295071Y-548687D01*
X294869Y-549707D01*
X294600Y-550711D01*
X294265Y-551695D01*
X293868Y-552655D01*
X293408Y-553587D01*
X292888Y-554488D01*
X292311Y-555352D01*
X291678Y-556176D01*
X290993Y-556958D01*
X290258Y-557693D01*
X289476Y-558378D01*
X288652Y-559011D01*
X287788Y-559588D01*
X286887Y-560108D01*
X285955Y-560568D01*
X284995Y-560965D01*
X284011Y-561300D01*
X283007Y-561569D01*
X281987Y-561771D01*
X280957Y-561907D01*
X279920Y-561975D01*
X278880Y-561975D01*
X277843Y-561907D01*
X276813Y-561771D01*
X275793Y-561569D01*
X274789Y-561300D01*
X273805Y-560965D01*
X272845Y-560568D01*
X271913Y-560108D01*
X271012Y-559588D01*
X270148Y-559011D01*
X269324Y-558378D01*
X268542Y-557693D01*
X267807Y-556958D01*
X267122Y-556176D01*
X266489Y-555352D01*
X265912Y-554488D01*
X265392Y-553587D01*
X264932Y-552655D01*
X264535Y-551695D01*
X264200Y-550711D01*
X263931Y-549707D01*
X263729Y-548687D01*
X263593Y-547657D01*
X263525Y-546620D01*
X263525Y-545580D01*
X263593Y-544543D01*
X263729Y-543513D01*
X263931Y-542493D01*
X264200Y-541489D01*
X264535Y-540505D01*
X264932Y-539545D01*
X265392Y-538613D01*
X265912Y-537712D01*
X266489Y-536848D01*
X267122Y-536024D01*
X267807Y-535242D01*
X268542Y-534507D01*
X269324Y-533822D01*
X270148Y-533189D01*
X271012Y-532612D01*
X271913Y-532092D01*
X272845Y-531632D01*
X273805Y-531235D01*
X274789Y-530900D01*
X275793Y-530631D01*
X276813Y-530429D01*
X277843Y-530293D01*
X278880Y-530225D01*
X279920Y-530225D01*
X280957Y-530293D01*
X281987Y-530429D01*
X283007Y-530631D01*
X284011Y-530900D01*
X284995Y-531235D01*
X285955Y-531632D01*
X286887Y-532092D01*
X287788Y-532612D01*
X288652Y-533189D01*
X289476Y-533822D01*
X290258Y-534507D01*
X290993Y-535242D01*
X291678Y-536024D01*
X292311Y-536848D01*
X292888Y-537712D01*
X293408Y-538613D01*
X293868Y-539545D01*
X294265Y-540505D01*
X294600Y-541489D01*
X294869Y-542493D01*
X295071Y-543513D01*
X295207Y-544543D01*
X295275Y-545580D01*
X295275Y-546620D01*
X193675Y761480D02*
X193607Y760443D01*
X193471Y759413D01*
X193269Y758393D01*
X193000Y757389D01*
X192665Y756405D01*
X192268Y755445D01*
X191808Y754513D01*
X191288Y753612D01*
X190711Y752748D01*
X190078Y751924D01*
X189393Y751142D01*
X188658Y750407D01*
X187876Y749722D01*
X187052Y749089D01*
X186188Y748512D01*
X185287Y747992D01*
X184355Y747532D01*
X183395Y747135D01*
X182411Y746800D01*
X181407Y746531D01*
X180387Y746329D01*
X179357Y746193D01*
X178320Y746125D01*
X177280Y746125D01*
X176243Y746193D01*
X175213Y746329D01*
X174193Y746531D01*
X173189Y746800D01*
X172205Y747135D01*
X171245Y747532D01*
X170313Y747992D01*
X169412Y748512D01*
X168548Y749089D01*
X167724Y749722D01*
X166942Y750407D01*
X166207Y751142D01*
X165522Y751924D01*
X164889Y752748D01*
X164312Y753612D01*
X163792Y754513D01*
X163332Y755445D01*
X162935Y756405D01*
X162600Y757389D01*
X162331Y758393D01*
X162129Y759413D01*
X161993Y760443D01*
X161925Y761480D01*
X161925Y762520D01*
X161993Y763557D01*
X162129Y764587D01*
X162331Y765607D01*
X162600Y766611D01*
X162935Y767595D01*
X163332Y768555D01*
X163792Y769487D01*
X164312Y770388D01*
X164889Y771252D01*
X165522Y772076D01*
X166207Y772858D01*
X166942Y773593D01*
X167724Y774278D01*
X168548Y774911D01*
X169412Y775488D01*
X170313Y776008D01*
X171245Y776468D01*
X172205Y776865D01*
X173189Y777200D01*
X174193Y777469D01*
X175213Y777671D01*
X176243Y777807D01*
X177280Y777875D01*
X178320Y777875D01*
X179357Y777807D01*
X180387Y777671D01*
X181407Y777469D01*
X182411Y777200D01*
X183395Y776865D01*
X184355Y776468D01*
X185287Y776008D01*
X186188Y775488D01*
X187052Y774911D01*
X187876Y774278D01*
X188658Y773593D01*
X189393Y772858D01*
X190078Y772076D01*
X190711Y771252D01*
X191288Y770388D01*
X191808Y769487D01*
X192268Y768555D01*
X192665Y767595D01*
X193000Y766611D01*
X193269Y765607D01*
X193471Y764587D01*
X193607Y763557D01*
X193675Y762520D01*
X193675Y761480D01*
X170000Y-224613D02*
X169935Y-225435D01*
X169806Y-226250D01*
X169614Y-227052D01*
X169359Y-227837D01*
X169043Y-228599D01*
X168668Y-229334D01*
X168237Y-230038D01*
X167752Y-230706D01*
X167216Y-231333D01*
X166633Y-231916D01*
X166006Y-232452D01*
X165338Y-232937D01*
X164634Y-233368D01*
X163899Y-233743D01*
X163137Y-234059D01*
X162352Y-234314D01*
X161550Y-234506D01*
X160735Y-234635D01*
X159913Y-234700D01*
X159087Y-234700D01*
X158265Y-234635D01*
X157450Y-234506D01*
X156648Y-234314D01*
X155863Y-234059D01*
X155101Y-233743D01*
X154366Y-233368D01*
X153662Y-232937D01*
X152995Y-232452D01*
X152367Y-231916D01*
X151784Y-231333D01*
X151248Y-230706D01*
X150763Y-230038D01*
X150332Y-229334D01*
X149957Y-228599D01*
X149641Y-227837D01*
X149386Y-227052D01*
X149194Y-226250D01*
X149065Y-225435D01*
X149000Y-224613D01*
X149000Y-223787D01*
X149065Y-222965D01*
X149194Y-222150D01*
X149386Y-221348D01*
X149641Y-220563D01*
X149957Y-219801D01*
X150332Y-219066D01*
X150763Y-218362D01*
X151248Y-217695D01*
X151784Y-217067D01*
X152367Y-216484D01*
X152995Y-215948D01*
X153662Y-215463D01*
X154366Y-215032D01*
X155101Y-214657D01*
X155863Y-214341D01*
X156648Y-214086D01*
X157450Y-213894D01*
X158265Y-213765D01*
X159087Y-213700D01*
X159913Y-213700D01*
X160735Y-213765D01*
X161550Y-213894D01*
X162352Y-214086D01*
X163137Y-214341D01*
X163899Y-214657D01*
X164634Y-215032D01*
X165338Y-215463D01*
X166006Y-215948D01*
X166633Y-216484D01*
X167216Y-217067D01*
X167752Y-217695D01*
X168237Y-218362D01*
X168668Y-219066D01*
X169043Y-219801D01*
X169359Y-220563D01*
X169614Y-221348D01*
X169806Y-222150D01*
X169935Y-222965D01*
X170000Y-223787D01*
X170000Y-224613D01*
X170000Y-309613D02*
X169935Y-310435D01*
X169806Y-311250D01*
X169614Y-312052D01*
X169359Y-312837D01*
X169043Y-313599D01*
X168668Y-314334D01*
X168237Y-315038D01*
X167752Y-315706D01*
X167216Y-316333D01*
X166633Y-316916D01*
X166006Y-317452D01*
X165338Y-317937D01*
X164634Y-318368D01*
X163899Y-318743D01*
X163137Y-319059D01*
X162352Y-319314D01*
X161550Y-319506D01*
X160735Y-319635D01*
X159913Y-319700D01*
X159087Y-319700D01*
X158265Y-319635D01*
X157450Y-319506D01*
X156648Y-319314D01*
X155863Y-319059D01*
X155101Y-318743D01*
X154366Y-318368D01*
X153662Y-317937D01*
X152995Y-317452D01*
X152367Y-316916D01*
X151784Y-316333D01*
X151248Y-315706D01*
X150763Y-315038D01*
X150332Y-314334D01*
X149957Y-313599D01*
X149641Y-312837D01*
X149386Y-312052D01*
X149194Y-311250D01*
X149065Y-310435D01*
X149000Y-309613D01*
X149000Y-308787D01*
X149065Y-307965D01*
X149194Y-307150D01*
X149386Y-306348D01*
X149641Y-305563D01*
X149957Y-304801D01*
X150332Y-304066D01*
X150763Y-303362D01*
X151248Y-302695D01*
X151784Y-302067D01*
X152367Y-301484D01*
X152995Y-300948D01*
X153662Y-300463D01*
X154366Y-300032D01*
X155101Y-299657D01*
X155863Y-299341D01*
X156648Y-299086D01*
X157450Y-298894D01*
X158265Y-298765D01*
X159087Y-298700D01*
X159913Y-298700D01*
X160735Y-298765D01*
X161550Y-298894D01*
X162352Y-299086D01*
X163137Y-299341D01*
X163899Y-299657D01*
X164634Y-300032D01*
X165338Y-300463D01*
X166006Y-300948D01*
X166633Y-301484D01*
X167216Y-302067D01*
X167752Y-302695D01*
X168237Y-303362D01*
X168668Y-304066D01*
X169043Y-304801D01*
X169359Y-305563D01*
X169614Y-306348D01*
X169806Y-307150D01*
X169935Y-307965D01*
X170000Y-308787D01*
X170000Y-309613D01*
M02*
