M48
;GenerationSoftware,Autodesk,EAGLE,9.6.1*%
;CreationDate,2024-04-20T23:17:07Z*%
FMAT,2
ICI,OFF
METRIC,TZ,000.000
T9C0.610
T8C0.813
T7C0.914
T6C1.016
T5C1.100
T4C1.270
T3C2.100
T2C2.300
T1C3.175
%
G90
M71
T1
X17780Y76200
X27940Y-54610
X147320Y31750
X147320Y-54610
T2
X19050Y-26670
X22750Y-30370
X22750Y-22970
T3
X15950Y-30920
X15950Y-22420
T4
X20320Y25400
X20320Y27940
X20320Y30480
X20320Y33020
X20320Y35560
X20320Y38100
X20320Y40640
X20320Y43180
X20320Y45720
X35560Y17780
X35560Y45720
X35560Y43180
X35560Y40640
X35560Y38100
X35560Y35560
X35560Y33020
X35560Y30480
X35560Y27940
X35560Y25400
X35560Y22860
X35560Y20320
X35560Y15240
X35560Y12700
X35560Y10160
X35560Y7620
X20320Y7620
X20320Y10160
X20320Y12700
X20320Y15240
X20320Y17780
X20320Y20320
X20320Y22860
T5
X50800Y-27940
X58420Y-27940
X27940Y-33020
X35560Y-33020
T6
X17475Y-45517
X17475Y-42977
X17475Y-40437
X17475Y-37897
X33020Y76200
X30480Y76200
X27940Y76200
X25400Y76200
X22860Y76200
X17475Y-55677
X17475Y-53137
X17475Y-50597
X17475Y-48057
T7
X24130Y68580
X52070Y73660
X99060Y-40640
X96520Y-40640
X93980Y-40640
X52070Y71120
X52070Y68580
X24130Y63500
X24130Y66040
T8
X87630Y-10160
X87630Y-7620
X87630Y-5080
X87630Y-2540
X87630Y0
X87630Y2540
X87630Y5080
X87630Y7620
X87630Y10160
X87630Y12700
X87630Y15240
X87630Y17780
X87630Y20320
X87630Y22860
X109220Y7620
X111760Y7620
X124460Y7620
X127000Y7620
X114300Y7620
X116840Y7620
X121920Y7620
X119380Y7620
X129540Y7620
X132080Y7620
X134620Y7620
X137160Y7620
X137160Y22860
X134620Y22860
X132080Y22860
X129540Y22860
X127000Y22860
X124460Y22860
X121920Y22860
X119380Y22860
X116840Y22860
X114300Y22860
X111760Y22860
X109220Y22860
X109220Y-12700
X111760Y-12700
X124460Y-12700
X127000Y-12700
X114300Y-12700
X116840Y-12700
X121920Y-12700
X119380Y-12700
X129540Y-12700
X132080Y-12700
X129540Y-5080
X127000Y-5080
X124460Y-5080
X121920Y-5080
X119380Y-5080
X116840Y-5080
X114300Y-5080
X111760Y-5080
X109220Y-5080
X109220Y-25400
X111760Y-25400
X124460Y-25400
X127000Y-25400
X114300Y-25400
X116840Y-25400
X121920Y-25400
X119380Y-25400
X127000Y-17780
X124460Y-17780
X121920Y-17780
X119380Y-17780
X116840Y-17780
X114300Y-17780
X111760Y-17780
X109220Y-17780
X109220Y-40640
X111760Y-40640
X114300Y-40640
X116840Y-40640
X119380Y-40640
X121920Y-40640
X124460Y-40640
X127000Y-40640
X129540Y-40640
X132080Y-40640
X134620Y-40640
X137160Y-40640
X137160Y-33020
X134620Y-33020
X132080Y-33020
X129540Y-33020
X127000Y-33020
X124460Y-33020
X121920Y-33020
X119380Y-33020
X116840Y-33020
X114300Y-33020
X111760Y-33020
X109220Y-33020
X113030Y-54610
X115570Y-54610
X128270Y-54610
X130810Y-54610
X118110Y-54610
X120650Y-54610
X125730Y-54610
X123190Y-54610
X130810Y-46990
X128270Y-46990
X125730Y-46990
X123190Y-46990
X120650Y-46990
X118110Y-46990
X115570Y-46990
X113030Y-46990
X72390Y-50800
X80010Y-50800
X132080Y-5080
X80010Y-43180
X72390Y-43180
X90170Y-54610
X92710Y-54610
X105410Y-54610
X105410Y-46990
X95250Y-54610
X97790Y-54610
X102870Y-54610
X100330Y-54610
X102870Y-46990
X100330Y-46990
X97790Y-46990
X95250Y-46990
X92710Y-46990
X90170Y-46990
X35560Y-27940
X27940Y-27940
X46990Y-27940
X39370Y-27940
X33020Y-7620
X31750Y-5715
X30480Y-7620
X41910Y-22860
X40640Y-20955
X39370Y-22860
X27940Y-12700
X35560Y-12700
X35560Y-16510
X27940Y-16510
X35560Y-20320
X27940Y-20320
X27940Y-24130
X35560Y-24130
X21590Y-12878
X21590Y-7849
X19050Y-10363
X24130Y-17780
X16510Y-17780
X140970Y76200
X128270Y76200
X125730Y76200
X138430Y76200
X135890Y76200
X130810Y76200
X133350Y76200
X123190Y76200
X120650Y76200
X120650Y68580
X123190Y68580
X125730Y68580
X128270Y68580
X130810Y68580
X133350Y68580
X135890Y68580
X138430Y68580
X140970Y68580
X143510Y68580
X113030Y76200
X110490Y76200
X97790Y76200
X95250Y76200
X107950Y76200
X105410Y76200
X100330Y76200
X102870Y76200
X92710Y76200
X90170Y76200
X90170Y68580
X92710Y68580
X95250Y68580
X97790Y68580
X100330Y68580
X102870Y68580
X105410Y68580
X107950Y68580
X110490Y68580
X113030Y68580
X48260Y54610
X50800Y54610
X63500Y54610
X66040Y54610
X53340Y54610
X55880Y54610
X60960Y54610
X58420Y54610
X68580Y54610
X71120Y54610
X71120Y62230
X68580Y62230
X66040Y62230
X63500Y62230
X60960Y62230
X58420Y62230
X55880Y62230
X53340Y62230
X50800Y62230
X48260Y62230
X59690Y68580
X62230Y68580
X74930Y68580
X77470Y68580
X64770Y68580
X67310Y68580
X72390Y68580
X69850Y68580
X80010Y68580
X82550Y68580
X82550Y76200
X80010Y76200
X77470Y76200
X74930Y76200
X72390Y76200
X69850Y76200
X67310Y76200
X64770Y76200
X62230Y76200
X59690Y76200
X34290Y64770
X36830Y64770
X39370Y64770
X41910Y64770
X41910Y72390
X39370Y72390
X36830Y72390
X34290Y72390
X31750Y60960
X34290Y60960
X36830Y60960
X39370Y60960
X41910Y60960
X38100Y-49530
X40640Y-49530
X53340Y-49530
X55880Y-49530
X43180Y-49530
X45720Y-49530
X50800Y-49530
X48260Y-49530
X58420Y-49530
X60960Y-49530
X60960Y-41910
X58420Y-41910
X55880Y-41910
X53340Y-41910
X50800Y-41910
X48260Y-41910
X45720Y-41910
X43180Y-41910
X40640Y-41910
X38100Y-41910
X45720Y60960
X45720Y58420
X74930Y62230
X74930Y59690
X99060Y62230
X99060Y59690
X125730Y62230
X125730Y59690
X107950Y45720
X107950Y43180
X45720Y46990
X45720Y44450
X72390Y-27940
X74930Y-27940
X106680Y22860
X106680Y20320
X146050Y68580
X146050Y71120
X60960Y25400
X58420Y25400
X110490Y-46990
X110490Y-49530
X106680Y-33020
X106680Y-35560
X35560Y-41910
X35560Y-44450
X74930Y-36830
X77470Y-36830
X87630Y-46990
X87630Y-49530
X41910Y46990
X41910Y49530
X57150Y76200
X57150Y73660
X115570Y68580
X115570Y71120
X45720Y22860
X45720Y20320
X45720Y17780
X45720Y15240
X45720Y12700
X45720Y10160
X45720Y7620
X45720Y5080
X45720Y2540
X45720Y0
X45720Y-2540
X45720Y-5080
X45720Y-7620
X45720Y-10160
X60960Y-10160
X60960Y-7620
X60960Y-5080
X60960Y-2540
X60960Y0
X60960Y2540
X60960Y5080
X60960Y7620
X60960Y10160
X60960Y12700
X60960Y15240
X60960Y17780
X60960Y20320
X60960Y22860
X101600Y62230
X110490Y38100
X113030Y38100
X115570Y38100
X118110Y38100
X120650Y38100
X123190Y38100
X125730Y38100
X128270Y38100
X130810Y38100
X133350Y38100
X135890Y38100
X138430Y38100
X138430Y45720
X135890Y45720
X133350Y45720
X130810Y45720
X128270Y45720
X125730Y45720
X123190Y45720
X120650Y45720
X118110Y45720
X115570Y45720
X113030Y45720
X110490Y45720
X106680Y-5080
X106680Y-7620
X106680Y-17780
X106680Y-20320
X139700Y-49530
X139700Y-52070
X128270Y54610
X130810Y54610
X143510Y54610
X146050Y54610
X133350Y54610
X135890Y54610
X140970Y54610
X138430Y54610
X146050Y62230
X143510Y62230
X140970Y62230
X138430Y62230
X135890Y62230
X133350Y62230
X130810Y62230
X128270Y62230
X101600Y54610
X104140Y54610
X116840Y54610
X119380Y54610
X106680Y54610
X109220Y54610
X114300Y54610
X111760Y54610
X119380Y62230
X116840Y62230
X114300Y62230
X111760Y62230
X109220Y62230
X106680Y62230
X104140Y62230
X143510Y76200
X77470Y54610
X80010Y54610
X92710Y54610
X95250Y54610
X82550Y54610
X85090Y54610
X90170Y54610
X87630Y54610
X95250Y62230
X92710Y62230
X90170Y62230
X87630Y62230
X85090Y62230
X82550Y62230
X80010Y62230
X77470Y62230
X48260Y31750
X50800Y31750
X53340Y31750
X55880Y31750
X58420Y31750
X60960Y31750
X63500Y31750
X66040Y31750
X68580Y31750
X71120Y31750
X73660Y31750
X76200Y31750
X76200Y46990
X73660Y46990
X71120Y46990
X68580Y46990
X66040Y46990
X63500Y46990
X60960Y46990
X58420Y46990
X55880Y46990
X53340Y46990
X50800Y46990
X48260Y46990
X72390Y22860
X72390Y20320
X72390Y7620
X72390Y5080
X72390Y17780
X72390Y15240
X72390Y10160
X72390Y12700
X72390Y2540
X72390Y0
X72390Y-2540
X72390Y-5080
X72390Y-7620
X72390Y-10160
X72390Y-12700
X72390Y-15240
X72390Y-17780
X72390Y-20320
X72390Y-22860
X72390Y-25400
X87630Y-25400
X87630Y-22860
X87630Y-20320
X87630Y-17780
X87630Y-15240
X87630Y-12700
T9
X75089Y48895
X73501Y70168
X77470Y43339
X75406Y4128
X108585Y3651
X113189Y26987
X145098Y36671
X136684Y-11589
X134144Y20320
X145098Y38100
X119380Y57467
X131445Y65723
X95250Y58737
X107950Y39053
X97314Y39053
X63500Y52387
X63182Y82391
X57626Y78740
X71120Y59055
X109379Y64452
X70961Y26987
X58102Y2699
X75724Y24606
X43656Y45720
X41910Y58102
X43180Y23336
X43498Y28257
X76835Y39053
X25876Y-44132
X106680Y18574
X67310Y82709
X62389Y79851
X110649Y65723
X116999Y65246
X60484Y28257
X41910Y34131
X77311Y58102
X96679Y58420
X97314Y45879
X98584Y-33179
X110649Y79058
X109696Y81915
X102870Y83026
X71914Y80804
X93027Y80804
X94774Y78581
X103822Y82074
X77629Y73501
X106839Y73184
X80963Y72708
X108585Y72231
X83820Y72231
X109379Y70326
X110014Y71438
X118269Y74930
X65881Y70168
X75248Y83026
X72866Y81756
X121126Y49212
X116522Y77470
X104616Y78105
X86678Y81915
X91281Y79534
X88582Y83026
X77946Y47942
X76994Y49847
X55562Y68421
X120650Y56197
X129699Y66993
X31432Y794
X28416Y10478
X49689Y-16351
X131286Y47784
X115252Y-9684
X113189Y-15557
X85725Y16351
X88424Y31750
X130175Y34766
X29051Y1746
X27464Y13176
X148590Y-5715
X140494Y-32226
X54451Y-38735
X74454Y17304
X91599Y19209
X94139Y29845
X135731Y30162
X23495Y5239
X23177Y20003
X148114Y55880
X92551Y-56832
X79534Y-56356
X48736Y3492
X110649Y9208
X114776Y13335
X141446Y13652
X22225Y6191
X141129Y59372
X38894Y-52387
X79058Y7620
X79058Y17304
X144145Y19209
X144145Y47784
X130810Y52546
X129699Y57309
X123031Y53657
X38894Y9684
X37941Y3810
X36036Y3810
X30321Y17939
X99219Y52546
X99219Y29369
X87154Y29369
X85249Y14605
X71120Y24289
X102076Y49212
X106204Y49212
X114459Y69850
X47466Y3492
X25559Y2699
X124619Y58420
X135731Y50800
X137954Y34925
X95250Y31274
X94774Y-29369
X38418Y-11430
X83820Y3175
X83820Y28416
X108902Y29369
X109061Y46990
X112871Y50165
X43656Y4763
X26511Y4763
X141446Y14922
X97790Y13335
X97631Y-19844
X39688Y-11430
X37465Y47149
X106839Y66993
X123349Y48260
X80010Y16351
X80486Y28734
X133509Y31115
X42386Y16669
X126682Y52070
X107791Y60642
X99219Y57309
X97949Y52229
X39529Y39053
X79851Y43974
X79058Y-4604
X56832Y12859
X56356Y22384
X90646Y64770
X126841Y50641
X87630Y51276
X84773Y11271
X79058Y-7779
X83820Y53181
X63024Y20320
X103029Y42069
X103029Y23812
X77311Y18415
X79375Y20479
X81598Y60484
X74454Y12224
X94297Y15399
X94297Y20479
X108902Y25082
X91122Y1429
X94297Y32067
X115411Y32226
X115411Y57467
X81915Y-14764
X90170Y-13811
X93027Y32067
X134303Y34925
X94297Y13970
X143351Y18256
X65246Y-13494
X67151Y-15399
X148114Y60166
X56356Y25717
X54451Y24924
X65246Y-20479
X60007Y42863
X90646Y43498
X90646Y48736
X107632Y50165
X44450Y34131
X44291Y68104
X71596Y74295
X87789Y74295
X114935Y74136
X51276Y26829
X67151Y22384
X80486Y-14764
X99695Y-16351
X104775Y17304
X116840Y17621
X120809Y24447
X123031Y25082
X126841Y60960
X52229Y20479
X76835Y20479
X77470Y23495
X99219Y24606
X101124Y47784
X108426Y48260
X85090Y44926
X61912Y43339
X81280Y42863
X59055Y40005
X61912Y39053
X64452Y28734
X71914Y28734
X73819Y29210
X118110Y36036
X61912Y48736
X63341Y33814
X57467Y33496
X55404Y9366
X52546Y6509
X69533Y-31909
X94932Y-31432
X96679Y12541
X131921Y12382
X134461Y17304
X129064Y25082
X125254Y28892
X123349Y29369
X89694Y31750
X128111Y33814
X139541Y-41751
X65087Y-50641
X53499Y65087
X36036Y-2540
X29210Y8414
X56832Y3651
X55404Y-2064
X43656Y65087
X75406Y2064
X68104Y-4604
X47784Y-7144
X43974Y-1587
X57150Y67469
X20320Y67151
X56832Y-159
X59372Y1111
X36989Y-5398
X35243Y49371
X62865Y-8414
X39846Y-5398
X56039Y59372
X50006Y-5080
X63817Y-9366
X41275Y10636
X47784Y-3492
X68104Y-2064
X64770Y-11589
X49847Y13811
X53499Y5715
X133191Y49212
X73660Y55880
X68104Y159
X69056Y29686
X71120Y29686
X64770Y48577
X93345Y-9208
X92075Y4604
X68580Y9049
X70961Y36195
X54451Y37148
X113665Y-9049
X102711Y-7461
X102076Y26987
X73501Y35243
X56991Y36671
X123984Y-8731
X76359Y-7144
X62230Y58420
X75883Y58420
X86043Y-11271
X83820Y49847
X77788Y50800
X73501Y51435
X99854Y1746
X89694Y36671
X75089Y36671
X65087Y50006
X123984Y-794
X102076Y2699
X100806Y22860
X76518Y22542
X74613Y39053
X71596Y39053
X111284Y-1111
X107950Y36671
X69056Y37148
X66040Y49054
X105410Y-2064
X104457Y40323
X67628Y40005
X18891Y5715
X115411Y-159
X119856Y17304
X140494Y24130
X140018Y34131
X130651Y41751
X53499Y43339
X92710Y42069
X91599Y17304
X93345Y13176
X91599Y14287
X92075Y12065
X120491Y4604
X126524Y-635
X119380Y-7144
X116999Y-3016
X113189Y5556
X133985Y-15240
X114459Y-21114
X138271Y-15081
X135731Y-18891
X120650Y-7144
X130651Y4921
X131604Y-21749
X129699Y-22701
X118745Y5556
X94932Y-35084
X142240Y40005
X116681Y-56197
X103029Y25082
X103981Y-26511
X55404Y-30956
X111760Y-30956
X115729Y-37465
X111601Y-45085
X125254Y-44926
X132239Y27940
X105410Y26987
X81439Y27940
X79058Y6350
X96202Y17304
X105410Y24924
X114141Y26035
X63341Y24924
X111442Y29369
X112395Y-28575
X130651Y-26511
X103187Y-23019
X120491Y-23019
X97155Y22384
X104775Y14446
X108585Y14446
X117792Y-23654
X89059Y-41593
X112236Y-42704
X87789Y-41593
X121444Y-42704
X110172Y-36830
X102076Y794
X123031Y-3492
X104140Y-23971
X99854Y20479
X97790Y47784
X88741Y46672
X88582Y40958
X49689Y42386
X28416Y42386
X32702Y58102
X77946Y45879
X93980Y42545
X45402Y36513
X86519Y44926
X112871Y42704
X91599Y36671
X49371Y35560
X49847Y18733
X105251Y47149
X89694Y45879
X86201Y33814
X40005Y34608
X104934Y43498
X35243Y48101
X56039Y42386
X100171Y43498
X123031Y41275
X50800Y22384
X53499Y11906
X95726Y-19844
X96679Y14764
X142399Y16669
M30